<svg width="28" height="28" viewBox="0 0 28 28" fill="none" xmlns="http://www.w3.org/2000/svg">
<path d="M7.00004 20.9999H21V6.99992H7.00004V20.9999ZM16.3334 23.3333H11.6667V25.6666H9.33337V23.3333H5.83337C5.52395 23.3333 5.22721 23.2103 5.00842 22.9915C4.78962 22.7728 4.66671 22.476 4.66671 22.1666V18.6666H2.33337V16.3333H4.66671V11.6666H2.33337V9.33325H4.66671V5.83325C4.66671 5.52383 4.78962 5.22709 5.00842 5.00829C5.22721 4.7895 5.52395 4.66659 5.83337 4.66659H9.33337V2.33325H11.6667V4.66659H16.3334V2.33325H18.6667V4.66659H22.1667C22.4761 4.66659 22.7729 4.7895 22.9917 5.00829C23.2105 5.22709 23.3334 5.52383 23.3334 5.83325V9.33325H25.6667V11.6666H23.3334V16.3333H25.6667V18.6666H23.3334V22.1666C23.3334 22.476 23.2105 22.7728 22.9917 22.9915C22.7729 23.2103 22.4761 23.3333 22.1667 23.3333H18.6667V25.6666H16.3334V23.3333Z" fill="black"/>
<mask id="path-2-inside-1_876_509" fill="white">
<rect x="10" y="10" width="8" height="8" rx="1"/>
</mask>
<rect x="10" y="10" width="8" height="8" rx="1" stroke="black" stroke-width="4.4" mask="url(#path-2-inside-1_876_509)"/>
</svg>
