<svg width="52" height="56" viewBox="0 0 52 56" fill="none" xmlns="http://www.w3.org/2000/svg">
<g clip-path="url(#clip0_3732_3005)">
<path d="M40.5734 19.6484C40.4899 19.63 40.405 19.6144 40.2663 19.5861C40.2663 19.3696 40.2663 19.1616 40.2663 18.9535C40.2663 15.3629 40.2592 11.7724 40.2733 8.18178C40.2762 7.64538 40.1078 7.23919 39.7299 6.86414C37.6112 4.76103 35.5067 2.64093 33.3922 0.532159C33.1955 0.335434 32.9634 0.175507 32.7483 -0.00140381H0.755762C0.192479 0.29156 0 0.747282 0 1.38416C0.0113223 18.577 0.0127376 35.7699 0 52.9628C0 53.5997 0.196725 54.0526 0.755762 54.347H34.9745C35.3496 54.2592 35.7289 54.1842 36.1011 54.0795C37.9863 53.5544 39.4893 52.4844 40.4757 50.7904C43.2129 46.0902 45.9911 41.4113 48.6122 36.646C52.408 29.7465 48.3674 21.2972 40.5734 19.6484ZM33.5111 3.83119C34.4792 4.80349 35.4614 5.79136 36.4153 6.74951H33.5111V3.83119ZM2.17105 52.1759V2.15974H31.3684C31.3684 2.45978 31.3684 2.75557 31.3684 3.04995C31.3684 4.57138 31.3655 6.09281 31.3684 7.61425C31.3698 8.52993 31.7448 8.90923 32.6492 8.91206C34.274 8.91489 35.8973 8.91206 37.522 8.91206H38.1193V19.3399C37.0904 19.5394 36.07 19.6583 35.0977 19.94C31.9953 20.8358 29.6842 22.7564 28.1203 25.5742C27.8953 25.9804 27.6518 26.1262 27.1805 26.1248C21.1599 26.1064 15.1393 26.112 9.1201 26.112C8.96159 26.112 8.80166 26.1035 8.64315 26.1163C8.06429 26.1616 7.65103 26.5932 7.64112 27.1523C7.63263 27.707 8.03457 28.1614 8.60635 28.225C8.79883 28.2463 8.99414 28.2349 9.18803 28.2364C14.7317 28.2364 20.2754 28.2364 25.819 28.2364H26.572C25.8417 29.5045 25.11 30.6508 24.5113 31.8623C24.108 32.6775 23.6169 32.9464 22.6898 32.9337C18.1539 32.8728 13.615 32.9054 9.07764 32.9068C8.91913 32.9068 8.7592 32.8969 8.60069 32.9139C8.05439 32.9705 7.65386 33.3993 7.63829 33.9343C7.62414 34.4679 7.99919 34.9278 8.53841 35.0113C8.72806 35.0411 8.9262 35.0297 9.1201 35.0297C13.4098 35.0297 17.701 35.0297 21.9907 35.0297H22.6502C22.2907 35.6595 21.9808 36.2058 21.668 36.7507C21.184 37.5928 20.683 38.4264 20.2202 39.2798C20.0461 39.5997 19.8437 39.7101 19.4786 39.7087C15.9658 39.6945 12.4517 39.6917 8.93894 39.7129C8.61201 39.7143 8.23554 39.829 7.97089 40.0172C7.61565 40.2705 7.54488 40.698 7.70481 41.1211C7.87182 41.5627 8.20865 41.8019 8.6757 41.816C9.29276 41.8344 9.91124 41.8231 10.5297 41.8231C13.2301 41.8231 15.929 41.8231 18.6874 41.8231C18.6322 41.9859 18.5954 42.1104 18.5487 42.2321C17.9486 43.7946 18.5869 45.5113 20.0489 46.2614C21.5321 47.0214 23.3281 46.5318 24.2028 45.0641C25.3874 43.077 26.5224 41.0603 27.6787 39.0562C29.6898 35.5675 31.6896 32.0718 33.7149 28.5916C35.4387 25.628 39.1298 24.9133 41.7198 27.015C43.7323 28.6482 44.2475 31.4618 42.9213 33.8197C41.5966 36.1747 40.2309 38.5071 38.8821 40.848C37.6565 42.9751 36.4337 45.1037 35.1967 47.2252C35.0594 47.4602 34.8684 47.698 34.6433 47.8423C34.2669 48.0815 33.8564 48.0249 33.5097 47.7404C33.1474 47.4446 33.0158 47.054 33.1672 46.6025C33.2337 46.4044 33.3441 46.219 33.4503 46.0364C35.8478 41.8726 38.2495 37.7117 40.6427 33.5465C41.5075 32.0407 41.2357 30.3338 39.9903 29.3304C38.4434 28.0835 36.2355 28.4968 35.2038 30.2602C33.705 32.8219 32.2345 35.3991 30.7541 37.9693C29.8554 39.5303 29.0119 41.1268 28.0481 42.6468C26.0526 45.793 26.4191 49.5123 28.8987 52.1802H2.17105V52.1759ZM46.6832 35.7897C44.0564 40.371 41.4254 44.9495 38.7746 49.5166C37.648 51.4555 35.5053 52.5014 33.4672 52.1759C31.166 51.8094 29.486 50.2568 28.9935 48.0164C28.6864 46.6209 28.961 45.3217 29.6729 44.0918C31.3556 41.1876 33.0243 38.2778 34.7 35.3694C35.4317 34.0985 36.1634 32.829 36.8951 31.5595C37.3494 30.7726 37.9353 30.532 38.5226 30.8886C39.1001 31.2396 39.1793 31.8439 38.742 32.6054C36.3261 36.7988 33.9032 40.9881 31.4943 45.1844C30.3083 47.2507 31.3712 49.6298 33.6512 50.0572C34.942 50.2992 36.2454 49.661 36.98 48.3957C38.5311 45.7222 40.0695 43.0417 41.6122 40.3639C42.6793 38.5128 43.7677 36.6729 44.8065 34.8061C47.3059 30.3197 44.8065 24.8666 39.7907 23.8235C36.7097 23.1838 33.5465 24.6529 31.8934 27.5132C29.2058 32.1609 26.5295 36.8158 23.849 41.4679C23.3989 42.2477 22.9531 43.0303 22.496 43.8073C22.1152 44.4541 21.5421 44.6551 20.9915 44.3522C20.4226 44.0394 20.2881 43.4096 20.6717 42.743C23.8447 37.2333 26.9937 31.7095 30.2064 26.2224C32.393 22.4875 36.8356 20.7495 40.9442 21.9171C45.0782 23.0918 47.906 26.8324 47.906 31.1264C47.9032 32.7865 47.5125 34.3518 46.6874 35.7897H46.6832Z" fill="#333333"/>
<path d="M8.59436 21.4302C8.73305 21.4472 8.876 21.4416 9.01753 21.4416C15.2816 21.4416 21.5456 21.4416 27.8083 21.4416C27.9668 21.4416 28.1663 21.4897 28.2753 21.4133C28.5768 21.2024 28.973 20.9859 29.082 20.6816C29.1839 20.3999 29.0594 19.9201 28.8556 19.6795C28.6659 19.4559 28.2413 19.337 27.9187 19.3342C24.7428 19.3102 21.5669 19.3201 18.391 19.3201C15.709 19.3201 13.027 19.3201 10.3451 19.3201C9.78036 19.3201 9.21567 19.3031 8.65097 19.3271C8.0707 19.3512 7.65319 19.7928 7.63904 20.349C7.62489 20.9038 8.02258 21.3595 8.59294 21.4317L8.59436 21.4302Z" fill="#333333"/>
<path d="M13.2978 14.6284C13.435 14.6511 13.5794 14.644 13.7195 14.644C19.5745 14.644 25.431 14.644 31.286 14.644C31.4276 14.644 31.5705 14.6511 31.7092 14.6312C32.2442 14.5534 32.6405 14.0934 32.6334 13.5698C32.6263 13.0447 32.2229 12.5975 31.6837 12.5324C31.5096 12.5111 31.3313 12.521 31.1558 12.521C28.2814 12.521 25.4055 12.521 22.5311 12.521C19.6382 12.521 16.7468 12.521 13.854 12.521C13.677 12.521 13.4987 12.5126 13.3261 12.5352C12.8052 12.606 12.4274 13.0291 12.409 13.5415C12.3891 14.075 12.7642 14.5378 13.2992 14.627L13.2978 14.6284Z" fill="#333333"/>
<path d="M8.68831 14.6411C9.24734 14.644 9.73279 14.1741 9.75119 13.6136C9.771 13.0348 9.2799 12.5295 8.6968 12.5267C8.12785 12.5239 7.65656 12.981 7.641 13.5514C7.62543 14.1415 8.10096 14.6383 8.68689 14.6411H8.68831Z" fill="#333333"/>
<path d="M40.2125 8.18317C40.1984 11.7737 40.2054 15.3643 40.2054 18.9549C40.2054 19.163 40.2054 19.371 40.2054 19.5875C40.3441 19.6158 40.4276 19.6314 40.5126 19.6498C40.8536 19.722 41.1862 19.8083 41.5118 19.9046C41.5118 16.5489 41.5061 13.1933 41.5202 9.83764C41.5231 9.30125 41.3547 8.89506 40.9768 8.52001C40.7036 8.24827 40.4319 7.97654 40.1602 7.7048C40.1955 7.85341 40.2154 8.01192 40.2139 8.18317H40.2125Z" fill="#AADEDE"/>
<path d="M48.0957 24.7887C50.322 28.1939 50.7324 32.6761 48.5486 36.646C45.9275 41.4112 43.1507 46.0902 40.4122 50.7903C39.4257 52.4844 37.9213 53.5544 36.0375 54.0794C35.6667 54.1827 35.2874 54.2578 34.9109 54.3469H1.24414C1.24414 54.4375 1.24414 54.5267 1.24414 54.6172C1.24414 55.2541 1.44087 55.707 1.9999 56.0014H36.2187C36.5937 55.9136 36.973 55.8386 37.3452 55.7339C39.2304 55.2088 40.7334 54.1389 41.7199 52.4448C44.457 47.7446 47.2352 43.0657 49.8564 38.3004C52.4166 33.647 51.4118 28.2901 48.0972 24.7887H48.0957Z" fill="#AADEDE"/>
</g>
<defs>
<clipPath id="clip0_3732_3005">
<rect width="51.2984" height="56" fill="white"/>
</clipPath>
</defs>
</svg>
