<svg width="25" height="25" viewBox="0 0 25 25" fill="none" xmlns="http://www.w3.org/2000/svg">
<path d="M0.333374 24.6666C0.333374 22.1913 1.3167 19.8173 3.06704 18.067C4.81738 16.3166 7.19135 15.3333 9.66671 15.3333C12.1421 15.3333 14.516 16.3166 16.2664 18.067C18.0167 19.8173 19 22.1913 19 24.6666H16.6667C16.6667 22.8101 15.9292 21.0296 14.6165 19.7169C13.3037 18.4041 11.5232 17.6666 9.66671 17.6666C7.81019 17.6666 6.02971 18.4041 4.71696 19.7169C3.40421 21.0296 2.66671 22.8101 2.66671 24.6666H0.333374ZM9.66671 14.1666C5.79921 14.1666 2.66671 11.0341 2.66671 7.16663C2.66671 3.29913 5.79921 0.166626 9.66671 0.166626C13.5342 0.166626 16.6667 3.29913 16.6667 7.16663C16.6667 11.0341 13.5342 14.1666 9.66671 14.1666ZM9.66671 11.8333C12.245 11.8333 14.3334 9.74496 14.3334 7.16663C14.3334 4.58829 12.245 2.49996 9.66671 2.49996C7.08837 2.49996 5.00004 4.58829 5.00004 7.16663C5.00004 9.74496 7.08837 11.8333 9.66671 11.8333ZM19.3314 16.1535C20.9709 16.8919 22.3623 18.0881 23.3384 19.5983C24.3144 21.1085 24.8336 22.8685 24.8334 24.6666H22.5C22.5003 23.3179 22.111 21.9979 21.379 20.8651C20.6469 19.7324 19.6033 18.8352 18.3735 18.2815L19.3302 16.1535H19.3314ZM18.5287 2.98179C19.7042 3.46631 20.7092 4.28909 21.4162 5.34573C22.1233 6.40237 22.5005 7.64524 22.5 8.91663C22.5005 10.5177 21.9024 12.0611 20.823 13.2436C19.7437 14.4261 18.2612 15.1623 16.6667 15.3076V12.9591C17.5311 12.8353 18.3331 12.4376 18.9549 11.8245C19.5767 11.2113 19.9855 10.415 20.1214 9.55238C20.2573 8.68976 20.113 7.80631 19.7098 7.03171C19.3066 6.2571 18.6657 5.63216 17.8812 5.24863L18.5287 2.98179V2.98179Z" fill="black"/>
</svg>
