<svg width="25" height="23" viewBox="0 0 25 23" fill="none" xmlns="http://www.w3.org/2000/svg">
<path d="M23.75 23H1.25C0.918479 23 0.600537 22.8654 0.366116 22.6257C0.131696 22.3861 7.48379e-09 22.0611 7.48379e-09 21.7222V12.1223C-1.9536e-05 11.9397 0.0382386 11.7592 0.112197 11.593C0.186156 11.4268 0.294097 11.2788 0.42875 11.1588L5 7.084V1.27778C5 0.93889 5.1317 0.613882 5.36612 0.374252C5.60054 0.134623 5.91848 0 6.25 0H23.75C24.0815 0 24.3995 0.134623 24.6339 0.374252C24.8683 0.613882 25 0.93889 25 1.27778V21.7222C25 22.0611 24.8683 22.3861 24.6339 22.6257C24.3995 22.8654 24.0815 23 23.75 23ZM8.75 20.4444H12.5V12.7037L7.5 8.24678L2.5 12.7037V20.4444H6.25V15.3333H8.75V20.4444ZM15 20.4444H22.5V2.55556H7.5V5.27339C7.7925 5.27339 8.08625 5.37817 8.32125 5.589L14.5712 11.1588C14.7059 11.2788 14.8138 11.4268 14.8878 11.593C14.9618 11.7592 15 11.9397 15 12.1223V20.4444ZM17.5 10.2222H20V12.7778H17.5V10.2222ZM17.5 15.3333H20V17.8889H17.5V15.3333ZM17.5 5.11111H20V7.66667H17.5V5.11111ZM12.5 5.11111H15V7.66667H12.5V5.11111Z" fill="black"/>
</svg>
