<svg width="22" height="23" viewBox="0 0 22 23" fill="none" xmlns="http://www.w3.org/2000/svg">
<path d="M22 0V2.42105C22 14.0748 15.433 19.3684 7.33333 19.3684H2.74144C2.54222 20.4724 2.44444 21.6769 2.44444 23H0C0 21.3501 0.141778 19.8526 0.422889 18.4823C0.141778 16.9159 0 14.7902 0 12.1053C0 5.41953 5.47189 0 12.2222 0C14.6667 0 17.1111 1.21053 22 0ZM12.2222 2.42105C6.82244 2.42105 2.44444 6.75716 2.44444 12.1053C2.44444 12.5435 2.44811 12.9659 2.45667 13.3715C3.98933 10.9771 6.23455 9.085 9.17156 7.42295L10.384 9.52442C6.89456 11.5 4.57967 13.7443 3.39289 16.9474H7.33333C14.685 16.9474 19.3979 12.1379 19.5519 2.89074C17.875 3.05174 16.3167 2.94884 14.3941 2.66316C12.9886 2.45374 12.7123 2.42105 12.2222 2.42105Z" fill="black"/>
</svg>
