<svg width="43" height="57" viewBox="0 0 43 57" fill="none" xmlns="http://www.w3.org/2000/svg">
<path d="M20.3949 16.1903L29.165 0.999954L37.9352 16.1903L32.7588 16.1903L32.7588 24.2833L25.5712 22.3304L25.5712 16.1903L20.3949 16.1903Z" stroke="currentColor"/>
<path fill-rule="evenodd" clip-rule="evenodd" d="M33.9259 27.5C34.0892 27.2532 34.1446 27.0425 34.1446 26.8749C34.1446 26.5554 33.9435 26.0797 33.1769 25.495C32.4255 24.9219 31.2751 24.3629 29.764 23.8754C26.753 22.9041 22.5308 22.287 17.8223 22.287C13.1138 22.287 8.89159 22.9041 5.88059 23.8754C4.36948 24.3629 3.21912 24.9219 2.4677 25.495C1.70105 26.0797 1.5 26.5554 1.5 26.8749C1.5 27.1943 1.70105 27.6701 2.4677 28.2548C3.21912 28.8279 4.36948 29.3869 5.88059 29.8744C8.89159 30.8457 13.1138 31.4627 17.8223 31.4627C22.5308 31.4627 26.753 30.8457 29.764 29.8744C31.2751 29.3869 32.4255 28.8279 33.1769 28.2548C33.5392 27.9784 33.7752 27.7264 33.9234 27.5038V27.5H33.9259ZM34.9234 27.7703C35.0689 27.4788 35.1446 27.1797 35.1446 26.8749C35.1446 23.7888 27.3891 21.287 17.8223 21.287C8.25546 21.287 0.5 23.7888 0.5 26.8749C0.5 27.2986 0.64621 27.7113 0.923243 28.1081V32.972V33.1212L1.00499 33.246L1.42324 32.972C1.00499 33.246 1.00527 33.2465 1.00556 33.2469L1.00621 33.2479L1.00771 33.2502L1.01161 33.2559L1.023 33.2725C1.03222 33.2856 1.04473 33.303 1.06074 33.3243C1.09278 33.367 1.13883 33.4254 1.20068 33.4973C1.32443 33.6412 1.51118 33.8388 1.77506 34.0716C2.04888 34.3132 2.40503 34.5921 2.85906 34.8882C2.8412 35.0002 2.83116 35.1133 2.82923 35.2272H2.82888V35.2679V40.6993V40.8424L2.90461 40.9638L3.32888 40.6993C2.90461 40.9638 2.90485 40.9642 2.90511 40.9646L2.90568 40.9655L2.90708 40.9678L2.91086 40.9737L2.92246 40.9914C2.93201 41.0058 2.94524 41.0253 2.96233 41.0496C2.99652 41.0981 3.0462 41.1656 3.11299 41.2494C3.14823 41.2935 3.18822 41.3422 3.23321 41.395C2.31196 41.8372 1.54633 42.3358 0.991991 42.8884C0.403797 43.4748 0.0247141 44.1532 0.00116462 44.9053H0V44.9797V50.3773V50.5332L0.0885936 50.6615L0.5 50.3773C0.0885936 50.6615 0.0888337 50.6618 0.0890887 50.6622L0.0896735 50.663L0.0911133 50.6651L0.095081 50.6707L0.107426 50.6879C0.117638 50.7019 0.131842 50.721 0.150212 50.7448C0.186953 50.7925 0.240358 50.8591 0.311818 50.9421C0.454751 51.1079 0.669857 51.3386 0.968227 51.6123C1.56525 52.16 2.49421 52.8783 3.84287 53.5922C4.19566 53.779 4.57684 53.9653 4.98797 54.148V54.211H5.13119C7.864 55.4002 11.884 56.4233 17.6227 56.4233C23.3613 56.4233 27.3813 55.4002 30.1141 54.211H30.3318V54.1147C30.7146 53.9427 31.071 53.7676 31.4024 53.5922C32.7511 52.8783 33.6801 52.16 34.2771 51.6123C34.5754 51.3386 34.7906 51.1079 34.9335 50.9421C35.0049 50.8591 35.0583 50.7925 35.0951 50.7448C35.1135 50.721 35.1277 50.7019 35.1379 50.6879L35.1502 50.6707L35.1542 50.6651L35.1556 50.663L35.1562 50.6622C35.1565 50.6618 35.1567 50.6615 34.7453 50.3773L35.1567 50.6615L35.2453 50.5332V50.3773V44.9797V44.9053H35.2441C35.2289 44.4214 35.0656 43.9643 34.7923 43.5438L33.9538 44.0888C34.1544 44.3973 34.2453 44.6933 34.2453 44.9797C34.2453 45.527 33.9052 46.132 33.0944 46.7571C32.2906 47.3768 31.096 47.9565 29.5752 48.4525C26.539 49.4425 22.3131 50.0632 17.6227 50.0632C12.9322 50.0632 8.70632 49.4425 5.67012 48.4525C4.14927 47.9565 2.95473 47.3768 2.15087 46.7571C1.34008 46.132 1 45.527 1 44.9797C1 44.5484 1.20869 44.0844 1.69802 43.5966C2.18898 43.1071 2.93124 42.6274 3.90806 42.1835L3.83518 42.0231C4.40527 42.5598 5.26797 43.238 6.50891 43.9117C6.84284 44.093 7.20384 44.2738 7.59355 44.4513V44.533H7.77562C10.4648 45.7234 14.4724 46.7453 20.3026 46.7453C26.1329 46.7453 30.1404 45.7234 32.8297 44.533H32.9375V44.4849C33.3557 44.2966 33.7413 44.1044 34.0964 43.9117C35.4146 43.1961 36.306 42.4754 36.8732 41.9245C37.1566 41.6493 37.3587 41.4169 37.4923 41.2494C37.5591 41.1656 37.6088 41.0981 37.643 41.0496C37.66 41.0253 37.6733 41.0058 37.6828 40.9914L37.6944 40.9737L37.6982 40.9678L37.6996 40.9655L37.7002 40.9646C37.7004 40.9642 37.7007 40.9638 37.2764 40.6993L37.7007 40.9638L37.7764 40.8424V40.6993V35.2679V35.2272H37.7761C37.7643 34.5312 37.4522 33.8946 36.9512 33.3353C36.4575 32.7841 35.7631 32.2867 34.9234 31.8439V27.7703ZM36.7764 35.2679C36.7764 34.8688 36.6034 34.4458 36.2063 34.0025C35.8704 33.6275 35.3879 33.2546 34.7625 32.8963C34.7377 32.9321 34.708 32.9736 34.6728 33.0204C34.5534 33.1788 34.3719 33.3967 34.1123 33.6537C33.5926 34.1681 32.7634 34.8362 31.5001 35.4977C28.9733 36.8208 24.7267 38.1094 17.7716 38.1094C11.059 38.1094 6.89488 36.9401 4.39013 35.7418C4.19814 35.6499 4.01598 35.5579 3.84323 35.4663C3.91533 35.967 4.26305 36.5068 4.97087 37.0606C5.76717 37.6836 6.95054 38.2665 8.45747 38.7652C11.466 39.7608 15.654 40.3851 20.3026 40.3851C24.9513 40.3851 29.1393 39.7608 32.1478 38.7652C33.6547 38.2665 34.8381 37.6836 35.6344 37.0606C36.4368 36.4328 36.7764 35.823 36.7764 35.2679ZM36.7764 37.3849C36.616 37.5456 36.4398 37.7001 36.2506 37.8482C35.4241 38.4948 34.2912 39.0663 32.9375 39.5509V43.3817C33.1778 43.2658 33.4049 43.1492 33.6193 43.0328C34.8551 42.362 35.673 41.6962 36.1765 41.2071C36.4285 40.9625 36.6022 40.7616 36.7105 40.6258C36.7361 40.5938 36.758 40.5654 36.7764 40.5409V37.3849ZM31.9375 43.8259V39.881C30.7666 40.2375 29.4507 40.5402 28.024 40.7786V45.0077C29.5649 44.6791 30.8584 44.2669 31.9375 43.8259ZM27.024 45.2025V40.9325C25.7853 41.1072 24.4741 41.2349 23.1105 41.3093V45.6596C24.5518 45.5687 25.8523 45.4097 27.024 45.2025ZM22.1105 45.7105V41.3539C21.516 41.3745 20.9129 41.3851 20.3026 41.3851C19.6414 41.3851 18.9885 41.3727 18.3461 41.3485V45.7045C18.9728 45.7312 19.6248 45.7453 20.3026 45.7453C20.9271 45.7453 21.5294 45.7333 22.1105 45.7105ZM17.3461 45.6499V41.301C15.9813 41.2224 14.67 41.0904 13.4326 40.9112V45.1758C14.6026 45.3888 15.903 45.5536 17.3461 45.6499ZM12.4326 44.9756V40.7534C11.033 40.5139 9.74239 40.2121 8.59355 39.8583V43.7954C9.65286 44.2335 10.9219 44.6448 12.4326 44.9756ZM7.59355 43.3457V39.5241C6.27261 39.0453 5.16603 38.483 4.35466 37.8482C4.16547 37.7001 3.98931 37.5456 3.82888 37.3849V40.5409C3.84732 40.5654 3.86923 40.5938 3.89476 40.6258C4.00307 40.7616 4.17681 40.9625 4.42876 41.2071C4.93231 41.6962 5.75021 42.362 6.98601 43.0328C7.17817 43.1372 7.38055 43.2417 7.59355 43.3457ZM33.9234 28.9398C33.1182 29.5925 31.9428 30.1847 30.4807 30.6894V34.8874C30.6758 34.7957 30.8608 34.7036 31.0362 34.6118C32.2123 33.9959 32.9606 33.3866 33.4088 32.943C33.6331 32.721 33.7829 32.5397 33.874 32.4187C33.8929 32.3936 33.9094 32.371 33.9234 32.3513V28.9398ZM29.4807 35.3167V31.0078C28.3113 31.3513 26.9956 31.6438 25.5672 31.8745V36.4296C27.1316 36.1207 28.4218 35.7317 29.4807 35.3167ZM24.5672 36.6095V32.0233C23.3297 32.1922 22.0186 32.3161 20.6538 32.3884V37.029C22.1037 36.945 23.4035 36.7992 24.5672 36.6095ZM19.6538 37.076V32.4319C19.0519 32.4523 18.4409 32.4627 17.8223 32.4627C17.1689 32.4627 16.5239 32.4511 15.8893 32.4283V37.0769C16.492 37.0982 17.1192 37.1094 17.7716 37.1094C18.4238 37.1094 19.0509 37.0979 19.6538 37.076ZM14.8893 37.0311V32.383C13.5236 32.3078 12.2125 32.1811 10.9758 32.0093V36.6235C12.1375 36.8074 13.4372 36.9494 14.8893 37.0311ZM9.97581 36.4488V31.8579C8.57561 31.628 7.28521 31.3385 6.13676 30.9998V35.3972C7.17365 35.7863 8.43966 36.1544 9.97581 36.4488ZM5.13676 34.9859V30.68C3.8049 30.2182 2.71249 29.6835 1.92324 29.0966V32.8031C1.934 32.8161 1.94585 32.8302 1.95885 32.8453C2.05322 32.955 2.20778 33.1198 2.43665 33.3217C2.89402 33.7252 3.65082 34.2795 4.8217 34.8397C4.92354 34.8884 5.02853 34.9372 5.13676 34.9859ZM4.98797 49.2781V53.0477C4.75016 52.935 4.52456 52.8216 4.31073 52.7084C3.04025 52.0359 2.1808 51.3676 1.64421 50.8754C1.37577 50.6292 1.18777 50.4267 1.0693 50.2892C1.04275 50.2584 1.01969 50.2309 1 50.2068V47.0787C1.16459 47.2421 1.34567 47.399 1.5403 47.549C2.3953 48.2082 3.5755 48.7888 4.98797 49.2781ZM33.705 47.549C33.8996 47.399 34.0807 47.2421 34.2453 47.0787V50.2068C34.2256 50.2309 34.2025 50.2584 34.176 50.2892C34.0575 50.4267 33.8695 50.6292 33.6011 50.8754C33.0645 51.3676 32.2051 52.0359 30.9346 52.7084C30.7432 52.8097 30.5423 52.9112 30.3318 53.0122V49.2522C31.7113 48.7683 32.8651 48.1966 33.705 47.549ZM29.3318 49.576V53.4559C28.2455 53.9012 26.9505 54.3191 25.4183 54.6543V50.4591C26.8439 50.2241 28.1596 49.9263 29.3318 49.576ZM24.4183 50.6111V54.8546C23.2433 55.0689 21.9423 55.2343 20.505 55.3301V50.9852C21.8683 50.9106 23.1794 50.7838 24.4183 50.6111ZM19.505 51.0301V55.3844C18.9004 55.4099 18.2731 55.4233 17.6227 55.4233C16.9722 55.4233 16.345 55.4099 15.7403 55.3844V51.0302C16.3589 51.052 16.987 51.0632 17.6227 51.0632C18.2584 51.0632 18.8864 51.052 19.505 51.0301ZM14.7403 50.9852V55.3301C13.303 55.2343 12.002 55.0689 10.8269 54.8546V50.6111C12.0659 50.7838 13.377 50.9106 14.7403 50.9852ZM5.98797 53.4863C7.05882 53.9201 8.32962 54.3267 9.8269 54.6543V50.4591C8.43146 50.2291 7.14133 49.9389 5.98797 49.5981V53.4863Z" fill="currentColor"/>
<path d="M27.1933 26.7788C27.1933 26.7788 27.1931 26.7796 27.1922 26.7813C27.1928 26.7796 27.1932 26.7788 27.1933 26.7788ZM27.1424 26.7761C27.1555 26.7889 27.1654 26.7998 27.1728 26.8086C27.1654 26.8175 27.1555 26.8283 27.1424 26.8412C27.0689 26.9131 26.9336 27.0064 26.7142 27.1101C26.2781 27.3163 25.6151 27.5152 24.7558 27.6871C23.0454 28.0291 20.6602 28.2443 18.0103 28.2443C15.3604 28.2443 12.9752 28.0291 11.2648 27.6871C10.4055 27.5152 9.74245 27.3163 9.30633 27.1101C9.087 27.0064 8.9517 26.9131 8.87814 26.8412C8.86501 26.8283 8.85511 26.8175 8.84772 26.8086C8.85511 26.7998 8.86501 26.7889 8.87814 26.7761C8.9517 26.7042 9.087 26.6109 9.30633 26.5072C9.74245 26.301 10.4055 26.1021 11.2648 25.9302C12.9752 25.5881 15.3604 25.373 18.0103 25.373C20.6602 25.373 23.0454 25.5881 24.7558 25.9302C25.6151 26.1021 26.2781 26.301 26.7142 26.5072C26.9336 26.6109 27.0689 26.7042 27.1424 26.7761ZM8.82729 26.7788C8.82736 26.7788 8.82778 26.7796 8.82835 26.7813C8.8275 26.7796 8.82722 26.7788 8.82729 26.7788ZM8.82729 26.8385C8.82722 26.8385 8.8275 26.8377 8.82835 26.836C8.82778 26.8377 8.82736 26.8385 8.82729 26.8385ZM27.1922 26.836C27.1931 26.8377 27.1933 26.8385 27.1933 26.8385C27.1932 26.8385 27.1928 26.8377 27.1922 26.836Z" stroke="currentColor"/>
</svg>
