<svg width="55" height="48" viewBox="0 0 55 48" fill="none" xmlns="http://www.w3.org/2000/svg">
<g opacity="0.9" clip-path="url(#clip0_3732_8535)">
<path d="M51.9877 35.8754C51.3009 35.8631 50.6155 35.8659 49.9286 35.8713C48.7657 35.8686 44.9431 35.8686 42.828 35.87H41.1424V30.6737H43.5832C45.9049 30.6737 48.2253 30.6833 50.5471 30.6683C51.7579 30.6587 52.7238 29.7721 52.8483 28.6106C52.8565 28.5381 52.8606 28.4656 52.862 28.3944C52.8688 27.8786 52.7005 27.397 52.4023 27.0044C52.0985 26.6021 51.658 26.2957 51.123 26.1479C50.9944 26.1124 50.8672 26.074 50.7126 26.0289C50.7126 25.2477 50.7249 24.4802 50.7099 23.7113C50.7044 23.4281 50.6661 23.1531 50.6004 22.889C50.2283 21.4114 48.9532 20.2991 47.3771 20.1965C47.0993 20.1787 46.8189 20.1678 46.5384 20.165C46.2388 20.1609 45.9378 20.1664 45.6381 20.1787C45.277 20.1938 45.1251 20.087 45.0799 19.7135C44.9199 18.3905 44.7448 17.0689 44.5354 15.7528C44.4766 15.3875 44.5491 15.1754 44.8309 14.9291C46.6136 13.3681 47.2444 10.8603 46.4481 8.62062C46.4029 8.49201 46.3523 8.36751 46.299 8.24438C45.4261 6.2291 43.5121 4.86095 41.3285 4.73371C41.2957 4.73235 41.2642 4.72961 41.2314 4.72824C40.9372 4.71593 40.7894 4.63794 40.6786 4.34516C40.6088 4.1632 40.5322 3.98534 40.4501 3.81158C39.3433 1.483 37.1214 0.0204532 34.4973 0.0149806C25.3143 -0.00554157 16.1314 -0.00554157 6.94973 0.0163488C4.078 0.0231895 1.55924 1.96732 0.721936 4.71866C0.60838 5.0908 0.523555 5.47251 0.425049 5.84875V6.97747C0.726041 7.35782 1.1228 7.44264 1.59344 7.43991H2.27205C5.35721 7.42896 8.44238 7.43306 11.5262 7.43306H12.1829C12.1829 7.75595 12.1815 8.63977 12.1802 9.66314C12.1788 10.8589 12.1788 12.2462 12.1815 13.1492C12.1802 13.219 12.1815 13.2901 12.1815 13.3599C12.1802 21.0557 12.1802 28.7515 12.1843 36.446C12.1843 36.855 12.1897 37.2723 12.2595 37.6732C12.5537 39.3327 13.3581 40.7187 14.5074 41.701C15.6936 42.7121 17.2464 43.2935 18.9894 43.2935C22.5562 43.2935 26.1243 43.2935 29.691 43.2935C35.2033 43.2935 40.7169 43.3017 46.2292 43.2894C49.3732 43.2839 52.0807 41.0101 52.7169 38.0959C52.8059 37.6828 52.8551 37.2559 52.8565 36.8222C52.8606 36.1833 52.6047 35.8864 51.9877 35.8741V35.8754ZM50.1927 27.6064C50.3295 27.6064 50.4677 27.5954 50.6018 27.6132C51.0286 27.6693 51.2859 27.9115 51.316 28.3479C51.3433 28.7515 51.0341 29.0785 50.5936 29.1277C50.4417 29.1442 50.2871 29.1332 50.1325 29.1332C47.046 29.1332 43.9594 29.1332 40.8729 29.1332C37.7864 29.1332 34.7669 29.1332 31.7145 29.1332C31.5613 29.1332 31.4053 29.1469 31.2548 29.1236C30.828 29.0552 30.5626 28.7953 30.5667 28.3643C30.5694 27.9361 30.8334 27.6761 31.263 27.6146C31.3971 27.5954 31.5353 27.6064 31.6708 27.6064H50.1927ZM46.7368 21.7097H46.7491C47.6397 21.711 48.2718 21.9381 48.6686 22.406C49.0106 22.8097 49.1789 23.3897 49.1789 24.1614V26.048H32.7406C32.7406 25.1478 32.6613 24.2585 32.7625 23.3897C32.8747 22.4293 33.6628 21.8041 34.6287 21.7261C34.849 21.7083 35.072 21.7097 35.2936 21.7097C39.108 21.7097 42.9224 21.7083 46.7368 21.7097ZM41.3613 6.26741C41.691 6.29477 42.0139 6.36728 42.3231 6.47399C42.6857 6.59986 43.0291 6.77499 43.3465 6.99115C44.1482 7.53978 44.7762 8.35383 45.0635 9.30058C45.5752 10.9957 45.0635 12.8646 43.642 13.8962C42.9306 14.4133 42.8389 14.951 42.9744 15.7309C43.2234 17.1729 43.3889 18.63 43.5969 20.1431H38.2885C38.413 19.2155 38.5306 18.3221 38.6524 17.4301C38.7468 16.7365 38.8084 16.0346 38.9548 15.3519C39.0888 14.7349 38.8631 14.3778 38.3747 14.0234C36.6823 12.7921 36.1569 10.5429 37.0777 8.66303C37.8671 7.05272 39.5513 6.11007 41.3613 6.26741ZM2.12839 5.86791C1.89033 4.09753 4.1765 1.88387 6.54613 1.5733C7.62423 1.43238 8.70096 1.69643 9.61899 2.24369C10.9009 3.00848 11.8682 4.32464 12.0789 5.86791H2.12839ZM17.5939 41.5957C15.6511 41.099 14.3035 39.6939 13.8698 37.7854C13.7699 37.3503 13.7193 36.8892 13.7179 36.4076C13.7138 28.8377 13.7166 21.2664 13.7138 13.6964C13.7193 12.9166 13.7275 11.2351 13.7275 9.66314C13.7262 8.25669 13.7207 6.93916 13.7015 6.43569C13.64 4.82401 13.0708 3.42166 12.016 2.23958C11.9147 2.1274 11.8121 2.01658 11.7027 1.90849C11.6124 1.8182 11.5289 1.71969 11.3935 1.57056C11.5481 1.55962 11.6274 1.54867 11.7054 1.54867C19.3342 1.54867 26.9643 1.52268 34.5931 1.56646C35.611 1.57193 36.4921 1.83872 37.235 2.32715C38.0039 2.83199 38.6264 3.57489 39.1012 4.51618C39.1668 4.64615 39.1997 4.79254 39.2421 4.91294C39.1914 4.95672 39.1805 4.97314 39.1655 4.97861C36.6754 5.8337 35.3169 7.90097 35.1198 10.0558C35.0802 10.4922 35.0884 10.9328 35.1445 11.3679C35.3278 12.7757 36.0132 14.1247 37.2158 15.0919C37.313 15.1713 37.3882 15.3533 37.3759 15.4778C37.3294 15.9498 37.2432 16.4177 37.1666 16.928H25.6796C22.9324 16.928 20.1838 16.9253 17.4366 16.9294C16.903 16.9307 16.5828 17.2112 16.5637 17.66C16.5445 18.1279 16.8784 18.4425 17.4229 18.4658C17.5597 18.4713 17.6965 18.4672 17.832 18.4672H36.9436C36.919 18.6888 36.9025 18.8571 36.8834 19.024C36.7976 19.7883 36.3726 20.17 35.6083 20.1691C34.7354 20.165 33.8721 20.1609 33.0635 20.5919C32.7954 20.7355 32.4588 20.8163 32.1537 20.8176C27.357 20.8313 22.5616 20.8272 17.7649 20.8272C17.5939 20.8272 17.4215 20.8135 17.2532 20.8368C16.8223 20.897 16.5705 21.1569 16.5678 21.592C16.5651 22.0298 16.8223 22.2857 17.2478 22.3568C17.3969 22.3814 17.5542 22.3664 17.7075 22.3664H31.3369C31.2494 23.1927 31.17 23.9479 31.0866 24.7292H30.475C26.2255 24.7292 21.9761 24.7292 17.7252 24.7292C17.5556 24.7292 17.3805 24.7127 17.2149 24.7442C16.8141 24.8195 16.5719 25.0698 16.5678 25.4844C16.5623 25.9208 16.8086 26.1835 17.2355 26.2574C17.3846 26.2834 17.5419 26.267 17.6951 26.267H30.3464C29.3654 26.8607 29.007 27.631 29.0042 28.6311H28.3804C24.8122 28.6311 21.2455 28.6311 17.6787 28.6325C17.5077 28.6325 17.3299 28.6147 17.1698 28.6571C16.7785 28.7583 16.5486 29.0197 16.5678 29.4356C16.587 29.8501 16.8277 30.095 17.2327 30.1593C17.3996 30.1853 17.5734 30.1703 17.7444 30.1703C21.6354 30.1703 25.5264 30.1689 29.4188 30.1744C29.6322 30.1757 29.847 30.2318 30.0577 30.2825C30.579 30.4056 31.0961 30.645 31.6174 30.6546C34.0746 30.6943 36.5331 30.6724 38.9903 30.6724H39.5444V35.8686H25.0927C24.4538 35.8686 24.1569 35.948 24.0146 36.2749C23.9435 36.4391 23.9093 36.6662 23.8915 36.9782C23.7123 40.1249 20.6435 42.3755 17.5939 41.5943V41.5957ZM51.1641 37.8811C51.1449 37.955 51.1258 38.0275 51.1039 38.1C50.4554 40.285 48.4825 41.7516 46.1211 41.753C38.6114 41.7585 31.1016 41.7557 23.5919 41.7544C23.4646 41.7544 23.336 41.742 23.0843 41.7297C24.4387 40.5271 25.1707 39.0988 25.4279 37.4091H26.1407C30.6515 37.4091 37.105 37.4091 42.828 37.4078C45.4206 37.4078 47.8641 37.4078 49.9068 37.4064C50.0586 37.4064 50.2351 37.4283 50.3815 37.4064C50.6633 37.405 50.9493 37.4037 51.2434 37.4037C51.2079 37.6185 51.1969 37.7525 51.1641 37.8811Z" fill="#828282"/>
<path d="M21.069 9.24727C23.0473 9.25 25.0256 9.24727 27.004 9.24727C28.9823 9.24727 30.9607 9.25 32.939 9.2459C33.515 9.24453 33.8297 8.9668 33.831 8.48932C33.8324 8.01867 33.5081 7.73273 32.9472 7.70947C32.913 7.70947 32.8788 7.70947 32.8446 7.70947C28.9221 7.70947 24.9996 7.70947 21.0772 7.70947C20.4259 7.70947 20.0839 7.98173 20.0825 8.48111C20.0798 8.98458 20.4109 9.2459 21.0703 9.24727H21.069Z" fill="#828282"/>
<path d="M29.4448 33.9696C29.817 33.8437 30.0304 33.525 29.9045 33.172C29.8129 32.9148 29.5269 32.7096 29.2889 32.5317C29.189 32.4564 28.9906 32.5098 28.8374 32.5098C26.9781 32.5098 25.1201 32.5098 23.2608 32.5098C21.8284 32.5098 20.3959 32.5098 18.9635 32.5098C18.4176 32.5098 17.8717 32.5043 17.3258 32.5139C16.8866 32.5221 16.6253 32.7588 16.572 33.1952C16.5214 33.6112 16.7922 33.9477 17.2301 34.0271C17.3628 34.0517 17.5023 34.0476 17.6378 34.0476C21.3728 34.0476 25.1078 34.049 28.8429 34.0449C29.044 34.0449 29.2574 34.0326 29.4448 33.9696Z" fill="#828282"/>
</g>
<defs>
<clipPath id="clip0_3732_8535">
<rect width="54.1498" height="48" fill="white" transform="translate(0.425049)"/>
</clipPath>
</defs>
</svg>
