<svg width="40" height="55" viewBox="0 0 40 55" fill="none" xmlns="http://www.w3.org/2000/svg">
<path d="M32.7219 17.6531H39.2817V4.50537C39.2817 2.56941 37.7123 1 35.7763 1V1C33.8404 1 32.2709 2.56941 32.2709 4.50537V24.718V29.7113V40.9461H20.9731M35.8549 1H7C3.68629 1 1 3.68628 1 6.99999V40.9461H12.6509" stroke="currentColor" stroke-linecap="round"/>
<path d="M24.302 50.541L24.302 46.5255L20.7623 42.9858L20.7623 38.4168C22.8873 37.0672 24.302 34.661 24.302 31.9175C24.302 27.6935 20.9487 24.2692 16.8121 24.2692C12.6755 24.2692 9.32221 27.6935 9.32221 31.9175C9.32221 34.661 10.7369 37.0672 12.8619 38.4168L12.8619 42.9858L9.32221 46.5255L9.32221 50.541" stroke="currentColor" stroke-linecap="square"/>
<circle cx="16.8122" cy="31.6449" r="3.66105" stroke="currentColor"/>
<path d="M16.812 35.5L16.812 50.541" stroke="currentColor" stroke-linecap="square"/>
<rect x="6" y="10" width="21" height="1" fill="currentColor"/>
<rect x="6" y="14" width="18" height="1" fill="currentColor"/>
<rect x="6" y="18" width="21" height="1" fill="currentColor"/>
<rect x="6" y="6" width="15" height="1" fill="currentColor"/>
<rect x="16.0125" y="52.7928" width="1.50124" height="1.50124" fill="currentColor"/>
<rect x="8.5061" y="52.7928" width="1.50124" height="1.50124" fill="currentColor"/>
<rect x="23.5186" y="52.7928" width="1.50124" height="1.50124" fill="currentColor"/>
</svg>
