<svg width="55" height="32" viewBox="0 0 55 32" fill="none" xmlns="http://www.w3.org/2000/svg">
<path d="M45.5 22.5C45.5 22.5 39.2848 20.4063 34.6767 17.8612C30.9692 15.8135 25.804 10.8763 25.804 10.8763C24.9274 11.4511 22.5246 12.6007 19.9258 12.6007C14.8519 12.7261 13.3772 9.83128 13.2741 8.3682C18.0179 6.85287 28.2481 3.88492 31.2181 4.13573C34.1882 4.38655 40.912 6.22584 43.9027 7.11414H45.5M32.6103 4.13573C31.2181 1.15733 26.7321 0.687071 23.0196 1.15734C20.0495 1.53356 13.2225 4.24026 10.1803 5.54657H8.5" stroke="currentColor" stroke-linecap="round"/>
<path d="M8.5 21.3607H9.54405L10.1803 22.6333" stroke="currentColor" stroke-linecap="round"/>
<path d="M10.1804 22.6332C12.2429 25.3797 17.3545 28.8454 23.5421 30.5866C26.7 31.4752 30.4646 30.8207 33.7708 29.6704C34.6459 29.3659 34.5805 28.1716 33.693 27.9054L33.0862 27.7233C34.3587 28.2324 35.53 28.0221 36.9038 27.7233C37.6248 27.5665 38.4452 27.1177 39.1646 26.6443C39.7897 26.233 39.5507 25.3013 38.8126 25.1783V25.1783C41.3577 25.8145 43.1846 23.7814 43.9028 22.6332" stroke="currentColor" stroke-linecap="round"/>
<path d="M30.8591 21.3607C33.4042 24.2239 38.8125 25.1783 38.8125 25.1783" stroke="currentColor" stroke-linecap="square"/>
<path d="M28.6321 25.1783C30.5409 27.0872 33.086 27.7234 33.086 27.7234" stroke="currentColor" stroke-linecap="square"/>
<path d="M26.7231 28.3597C27.6776 29.6323 31.177 30.2686 31.177 30.2686" stroke="currentColor" stroke-linecap="square"/>
<path d="M0.5 4.68127H8.40779V22.1331H0.5V4.68127Z" stroke="currentColor"/>
<path d="M45.675 5.3175H53.5828V23.4056H45.675V5.3175Z" stroke="currentColor"/>
<circle cx="3.81746" cy="19.452" r="1.27254" fill="currentColor"/>
<circle cx="50.2655" cy="7.99898" r="1.27254" fill="currentColor"/>
</svg>
