<svg width="507" height="329" viewBox="0 0 507 329" fill="none" xmlns="http://www.w3.org/2000/svg">
<path d="M404.5 197.5C405.5 197.5 409.333 198.221 411 198.581C421.735 200.616 431.828 204.097 440.363 209.025C469.438 225.811 469.438 253.026 440.363 269.812C411.289 286.599 364.15 286.599 335.076 269.812C308.388 254.404 306.198 230.209 328.504 213.358" stroke="#C4C4C4" stroke-opacity="0.5"/>
<path d="M112.5 211.886C97.1837 213.174 82.4294 217.22 70.6435 224.025C41.5692 240.811 41.5692 268.026 70.6435 284.812C99.7177 301.598 146.856 301.598 175.931 284.812C205.005 268.026 205.005 240.811 175.931 224.025C174.654 223.288 173.343 222.583 172 221.911" stroke="#C4C4C4" stroke-opacity="0.5"/>
<path d="M254.568 64.5304L254.583 64.5391L254.599 64.5471C255.931 65.2139 257.231 65.9128 258.498 66.6438C287.333 83.2918 287.333 110.283 258.498 126.931C229.663 143.579 182.912 143.579 154.076 126.931C125.241 110.283 125.241 83.2918 154.076 66.6438C165.766 59.8949 180.398 55.8823 195.588 54.6051C202.497 54.0242 213.393 54.2809 224.508 55.8041C235.627 57.3278 246.879 60.1067 254.568 64.5304Z" stroke="#C4C4C4" stroke-opacity="0.5"/>
<path d="M320.5 97C320.5 116.077 307.185 133.442 285.455 146.065C263.738 158.681 233.703 166.5 200.5 166.5C167.297 166.5 137.262 158.681 115.545 146.065C93.8149 133.442 80.5 116.077 80.5 97C80.5 77.9227 93.8149 60.558 115.545 47.9349C137.262 35.3191 167.297 27.5 200.5 27.5C233.703 27.5 263.738 35.3191 285.455 47.9349C307.185 60.558 320.5 77.9227 320.5 97Z" stroke="#C4C4C4" stroke-opacity="0.3"/>
<path d="M413.5 176.899C466.547 184.232 506 211.94 506 245C506 283.66 452.05 315 385.5 315C318.95 315 265 283.66 265 245C265 229.241 273.964 214.699 289.091 203" stroke="#C4C4C4" stroke-opacity="0.3"/>
<path d="M128 188.1C191.528 190.062 242 220.607 242 258C242 296.66 188.05 328 121.5 328C54.9497 328 1 296.66 1 258C1 221.197 49.8904 191.028 112 188.214" stroke="#C4C4C4" stroke-opacity="0.3"/>
<rect width="66.4929" height="40.2581" transform="matrix(0.866025 0.5 -0.866025 0.5 110.865 223.381)" stroke="black"/>
<rect width="66.4929" height="21.6774" transform="matrix(0.866025 0.5 -0.866025 0.5 105.501 226.478)" stroke="black"/>
<path d="M109.453 228.76L91.0147 239.405" stroke="black"/>
<path d="M113.969 231.368L99.8893 239.497" stroke="black"/>
<path d="M132.035 241.798L117.955 249.927" stroke="black"/>
<path d="M118.485 233.975L100.047 244.62" stroke="black"/>
<path d="M123.002 236.583L104.564 247.228" stroke="black"/>
<path d="M127.519 239.19L109.081 249.835" stroke="black"/>
<path d="M136.551 244.405L122.471 252.534" stroke="black"/>
<path d="M141.068 247.013L122.63 257.658" stroke="black"/>
<path d="M145.584 249.621L127.146 260.266" stroke="black"/>
<path d="M150.101 252.228L131.663 262.873" stroke="black"/>
<path d="M154.617 254.835L140.537 262.964" stroke="black"/>
<path d="M159.133 257.443L140.695 268.089" stroke="black"/>
<path d="M101.142 228.994L150.186 257.313" stroke="black"/>
<path d="M96.1143 231.897L149.747 262.862" stroke="black"/>
<path d="M91.4209 234.607L148.723 267.69" stroke="black"/>
<path d="M111.57 226.885L113.546 228.026" stroke="#048F92"/>
<path d="M115.522 229.167L118.909 231.123" stroke="#048F92"/>
<rect width="65.5583" height="40.2581" transform="matrix(0.866025 0.5 -2.20305e-08 1 112.422 182.042)" stroke="black"/>
<path d="M121.607 190.442L115.205 195.649" stroke="#C4C4C4"/>
<path d="M125.161 192.881L115.097 201.01" stroke="#C4C4C4"/>
<rect width="59.131" height="34.0645" transform="matrix(0.866025 0.5 -2.20305e-08 1 115.205 186.746)" stroke="black"/>
<path d="M168.903 214.946L172 213.397" stroke="black"/>
<path d="M75.9999 243.591V246.688L133.677 280.419V276.881" stroke="black"/>
<path d="M133.677 280.419L168.903 259.903V256.752" stroke="black"/>
<path d="M112.387 182.042L114.71 180.881L172 213.397V253.5L169.29 255.203" stroke="black"/>
<rect width="17.0791" height="7.1145" transform="matrix(0.866025 0.5 -0.866025 0.5 106.131 250.958)" fill="#048F92"/>
<rect width="66.4929" height="40.2581" transform="matrix(0.866025 0.5 -0.866025 0.5 110.865 223.381)" stroke="black"/>
<rect width="66.4929" height="21.6774" transform="matrix(0.866025 0.5 -0.866025 0.5 105.501 226.478)" stroke="black"/>
<path d="M109.453 228.76L91.0147 239.405" stroke="black"/>
<path d="M113.969 231.368L99.8893 239.497" stroke="black"/>
<path d="M132.035 241.798L117.955 249.927" stroke="black"/>
<path d="M118.485 233.975L100.047 244.62" stroke="black"/>
<path d="M123.002 236.583L104.564 247.228" stroke="black"/>
<path d="M127.519 239.19L109.081 249.835" stroke="black"/>
<path d="M136.551 244.405L122.471 252.534" stroke="black"/>
<path d="M141.068 247.013L122.63 257.658" stroke="black"/>
<path d="M145.584 249.621L127.146 260.266" stroke="black"/>
<path d="M150.101 252.228L131.663 262.873" stroke="black"/>
<path d="M154.617 254.835L140.537 262.964" stroke="black"/>
<path d="M159.133 257.443L140.695 268.089" stroke="black"/>
<path d="M101.142 228.994L150.186 257.313" stroke="black"/>
<path d="M96.1143 231.897L149.747 262.862" stroke="black"/>
<path d="M91.4209 234.607L148.723 267.69" stroke="black"/>
<path d="M111.57 226.885L113.546 228.026" stroke="#048F92"/>
<path d="M115.522 229.167L118.909 231.123" stroke="#048F92"/>
<rect width="65.5583" height="40.2581" transform="matrix(0.866025 0.5 -2.20305e-08 1 112.422 182.042)" stroke="black"/>
<path d="M121.607 190.442L115.205 195.649" stroke="#C4C4C4"/>
<path d="M125.161 192.881L115.097 201.01" stroke="#C4C4C4"/>
<rect width="59.131" height="34.0645" transform="matrix(0.866025 0.5 -2.20305e-08 1 115.205 186.746)" stroke="black"/>
<path d="M168.903 214.946L172 213.397" stroke="black"/>
<path d="M75.9999 243.591V246.688L133.677 280.419V276.881" stroke="black"/>
<path d="M133.677 280.419L168.903 259.903V256.752" stroke="black"/>
<path d="M112.387 182.042L114.71 180.881L172 213.397V253.5L169.29 255.203" stroke="black"/>
<rect width="17.0791" height="7.1145" transform="matrix(0.866025 0.5 -0.866025 0.5 106.131 250.958)" fill="#048F92"/>
<path d="M251.903 86.129L194.319 119.375L159.454 99.2464L195 78.724" stroke="black"/>
<rect width="66.4929" height="21.6774" transform="matrix(-0.866025 0.5 0.866025 0.5 222.402 69.0967)" stroke="black"/>
<path d="M218.451 71.3784L236.889 82.0236" stroke="black"/>
<path d="M213.934 73.9863L228.014 82.1154" stroke="black"/>
<path d="M195.869 84.4165L209.948 92.5455" stroke="black"/>
<path d="M209.418 76.5938L227.856 87.2389" stroke="black"/>
<path d="M204.901 79.2012L223.339 89.8463" stroke="black"/>
<path d="M200.385 81.8086L218.823 92.4538" stroke="black"/>
<path d="M191.352 87.0239L205.432 95.153" stroke="black"/>
<path d="M186.835 89.6313L205.273 100.277" stroke="black"/>
<path d="M182.319 92.2393L200.757 102.884" stroke="black"/>
<path d="M177.803 94.8467L196.241 105.492" stroke="black"/>
<path d="M173.286 97.4541L187.366 105.583" stroke="black"/>
<path d="M168.77 100.062L187.208 110.707" stroke="black"/>
<path d="M226.761 71.6128L177.717 99.9316" stroke="black"/>
<path d="M231.789 74.5161L178.156 105.481" stroke="black"/>
<path d="M236.482 77.2256L179.18 110.309" stroke="black"/>
<path d="M216.333 69.5039L214.357 70.6447" stroke="#048F92"/>
<path d="M212.381 71.7856L208.994 73.7413" stroke="#048F92"/>
<path d="M251.903 86.2095V89.3062L194.226 123.038V119.5" stroke="black"/>
<path d="M194.226 123.038L159 102.522V99.3706" stroke="black"/>
<path d="M198 79L195 77.5V117.5L198 119V79Z" fill="white"/>
<rect width="65.5583" height="40.2581" transform="matrix(-0.866025 0.5 2.20305e-08 1 254.578 46.0425)" fill="white" stroke="black"/>
<circle r="3.88675" transform="matrix(0.866025 -0.5 2.20305e-08 1 226.366 83.8301)" fill="#048F92"/>
<path d="M198.097 78.9458L195 77.3975" stroke="black"/>
<path d="M254.613 46.0421L252.29 44.8809L195 77.397V117.5L197.71 119.203" stroke="black"/>
<rect width="94.2958" height="64.7934" transform="matrix(-0.866025 0.5 2.20305e-08 1 413.693 127.376)" stroke="black"/>
<path d="M400.483 139.457L409.69 146.948" stroke="#C4C4C4"/>
<path d="M395.37 142.966L409.846 154.658" stroke="#C4C4C4"/>
<rect width="85.0511" height="48.9967" transform="matrix(-0.866025 0.5 2.20305e-08 1 409.69 134.142)" stroke="black"/>
<path d="M332.454 174.702L328 172.475" stroke="black"/>
<path d="M413.744 127.42L410.421 125.754L328.458 172.395V236.715L332.335 239.468" stroke="black"/>
<path d="M371.9 216.577V227.83L381.17 222.5V210.655" stroke="black"/>
<circle r="2.96131" transform="matrix(0.866025 -0.5 2.20305e-08 1 377.219 207.989)" fill="#048F92"/>
<path d="M381.221 217.271L398.474 227.291L380.045 237.931L361.616 227.291L371.849 220.992" stroke="black"/>
<path d="M380.045 240.839L398.474 230.199L398.474 227.181M380.045 240.839L361.616 230.199L361.616 227.181M380.045 240.839L380.045 237.712" stroke="black"/>
<path d="M395.697 270.772L370.395 256.299L430.989 221.315L456.202 236.047" stroke="black"/>
<rect width="69.9678" height="22.8103" transform="matrix(-0.866025 0.5 0.866025 0.5 436.633 224.574)" stroke="black"/>
<path d="M432.474 226.975L451.876 238.177" stroke="black"/>
<path d="M427.722 229.719L442.538 238.273" stroke="black"/>
<path d="M408.712 240.694L423.528 249.248" stroke="black"/>
<path d="M422.97 232.463L442.371 243.664" stroke="black"/>
<path d="M418.217 235.207L437.619 246.408" stroke="black"/>
<path d="M413.465 237.951L432.866 249.152" stroke="black"/>
<path d="M403.96 243.438L418.776 251.992" stroke="black"/>
<path d="M399.207 246.182L418.609 257.384" stroke="black"/>
<path d="M394.455 248.926L413.856 260.127" stroke="black"/>
<path d="M389.703 251.67L409.104 262.871" stroke="black"/>
<path d="M384.95 254.414L399.766 262.967" stroke="black"/>
<path d="M380.198 257.157L399.599 268.359" stroke="black"/>
<path d="M441.219 227.222L389.612 257.02" stroke="black"/>
<path d="M446.51 230.277L390.074 262.86" stroke="black"/>
<path d="M451.448 233.128L391.152 267.94" stroke="black"/>
<path d="M430.246 225.002L428.167 226.203" stroke="#048F92"/>
<path d="M426.088 227.404L422.523 229.462" stroke="#048F92"/>
<path d="M396.223 273.928L369.917 258.693V256.43M396.223 273.928V270.771M396.223 273.928L456.202 239.204V236.047" stroke="black"/>
<path d="M214.032 186.394L210 195L206.667 191.838M214.032 186.394L218 180.87L184 172M214.032 186.394L184 172M184 172L199.038 195.761L212.577 189.5L184 172Z" stroke="black"/>
<path d="M210 195C219 210 249.036 220.14 265 219C282 217.786 273.431 206.298 268.5 205C255 201.447 241.5 227.5 263.5 232C289.272 237.272 340.333 207.833 345.5 201" stroke="#048F92" stroke-dasharray="2 2"/>
<rect width="17.7679" height="23.5543" transform="matrix(0.866025 -0.5 2.20305e-08 1 333.857 181.634)" fill="#048F92"/>
<rect width="25.9876" height="5.35946" transform="matrix(0.866025 -0.5 2.20305e-08 1 355.179 169.789)" fill="#048F92"/>
<rect width="25.9876" height="5.35946" transform="matrix(0.866025 -0.5 2.20305e-08 1 355.179 188.113)" fill="#048F92"/>
<rect width="16.4132" height="5.35946" transform="matrix(0.866025 -0.5 2.20305e-08 1 355.179 178.637)" fill="#048F92"/>
<rect width="10" height="10" transform="matrix(0.866025 0.5 -2.20305e-08 1 124 202)" fill="#048F92"/>
<path d="M150 216L158.66 231L150 226L150 216Z" fill="#048F92"/>
<rect width="10" height="10" rx="5" transform="matrix(0.866025 0.5 -2.20305e-08 1 137 209)" fill="#048F92"/>
<path d="M255 55.9205C277.704 47.9091 334.392 37.5817 378.904 52.8523C419.721 66.8553 427.865 99.3264 426.931 127" stroke="#048F92" stroke-dasharray="2 2"/>
<path d="M163 66.6587C122.534 61.0573 46.2124 90.0827 106.143 196" stroke="#048F92" stroke-dasharray="2 2"/>
<path d="M437.086 161.984L419.609 156.081L421.701 130.455L439.494 133.683L437.086 161.984Z" stroke="black"/>
<path d="M421.46 154.151L430.829 146.543L423.839 133.081M435.881 135.49L428.916 141.931" stroke="black"/>
<path d="M434.075 157.769L428.656 148.22" stroke="black"/>
<path d="M112.849 133.287C110.449 132.584 105.103 133.397 102.925 142.274C102.522 144.202 100.125 148.93 97.8357 150.262L97.4731 151.996C97.4731 151.996 101.918 155.264 107.979 156.476" stroke="black"/>
<path d="M112.464 133.206C114.945 133.524 119.518 136.411 117.957 145.417C117.554 147.344 117.855 152.637 119.42 154.774L119.057 156.509C119.057 156.509 114.848 158.497 107.979 156.476" stroke="black"/>
<circle cx="113.636" cy="130.616" r="1.61626" stroke="black"/>
<path d="M120.909 151.627L123.738 150.011" stroke="black"/>
<path d="M121.678 153.841L124.988 153.454" stroke="black"/>
<path d="M121.717 156.476L124.95 157.284" stroke="black"/>
<path d="M110.403 158.093C110.403 159.878 111.678 161.325 113.251 161.325C114.663 161.325 115.834 160.16 116.06 158.632" stroke="black"/>
<path d="M100.302 147.991C101.514 149.203 104.908 151.87 108.787 152.84C112.666 153.81 116.868 153.244 118.484 152.84" stroke="black"/>
<path d="M271.196 11.9997L270.946 11.5667L270.946 11.5667L271.196 11.9997ZM268.567 29.6941L269.057 29.5911L268.981 29.2334L268.618 29.1966L268.567 29.6941ZM269.284 33.0998L268.795 33.2028L268.795 33.2028L269.284 33.0998ZM271.201 33.2395L271.67 33.4124L271.67 33.4124L271.201 33.2395ZM273.187 27.8506L272.937 27.4176L272.78 27.508L272.717 27.6777L273.187 27.8506ZM285.053 20.9997L285.303 21.4327L285.303 21.4327L285.053 20.9997ZM285.053 3.99971L284.803 3.5667L284.803 3.5667L285.053 3.99971ZM266.5 20.9997C266.5 19.4513 267.047 17.7012 267.955 16.1284C268.863 14.5556 270.105 13.2069 271.446 12.4327L270.946 11.5667C269.417 12.4493 268.061 13.9438 267.089 15.6284C266.116 17.3129 265.5 19.2344 265.5 20.9997H266.5ZM266.5 25.9997V20.9997H265.5V25.9997H266.5ZM268.618 29.1966C267.993 29.1333 267.48 28.8365 267.114 28.3248C266.741 27.8034 266.5 27.0294 266.5 25.9997H265.5C265.5 27.1762 265.775 28.1715 266.301 28.9069C266.834 29.6519 267.606 30.0993 268.517 30.1915L268.618 29.1966ZM269.774 32.9968L269.057 29.5911L268.078 29.7971L268.795 33.2028L269.774 32.9968ZM270.732 33.0667C270.558 33.5376 269.877 33.4879 269.774 32.9968L268.795 33.2028C269.105 34.6761 271.15 34.8251 271.67 33.4124L270.732 33.0667ZM272.717 27.6777L270.732 33.0667L271.67 33.4124L273.656 28.0234L272.717 27.6777ZM284.803 20.5667L272.937 27.4176L273.437 28.2836L285.303 21.4327L284.803 20.5667ZM289.749 11.9997C289.749 13.5481 289.202 15.2982 288.294 16.871C287.386 18.4438 286.144 19.7925 284.803 20.5667L285.303 21.4327C286.831 20.5501 288.187 19.0556 289.16 17.371C290.132 15.6865 290.749 13.765 290.749 11.9997H289.749ZM289.749 6.99971V11.9997H290.749V6.99971H289.749ZM285.303 4.43273C286.646 3.65689 287.746 3.64667 288.477 4.06876C289.208 4.49086 289.749 5.44804 289.749 6.99971H290.749C290.749 5.23768 290.126 3.86643 288.977 3.20274C287.827 2.53905 286.329 2.68568 284.803 3.5667L285.303 4.43273ZM271.446 12.4327L285.303 4.43273L284.803 3.5667L270.946 11.5667L271.446 12.4327Z" fill="black"/>
<path d="M290 6.00009C290 5.00009 289 1.00008 285.5 1.50008C282.7 1.90008 273 8.33341 268 11.5001C264 14.5001 263.5 19.0001 263.5 21.5001C263.333 23.8334 263.5 27.5001 264 29.0001C264.354 30.0608 265 31.0001 266.5 31.5001C266.5 32.5001 267.652 34.7173 268.5 35.0001C270 35.5001 270.5 34.5001 271 33.5001" stroke="black"/>
<path d="M270.5 19L283.5 11" stroke="black"/>
<path d="M271 23L281.5 16.5" stroke="black"/>
<path d="M184.294 59.5C184.294 64.4706 180.805 70.5147 176.5 73C172.195 75.4853 167 71.9706 167 67C167 62.0294 170.489 55.9853 174.794 53.5C179.099 51.0147 184.294 54.5294 184.294 59.5Z" stroke="black"/>
<path d="M180.5 53.0001C180.5 53.0001 176 50.7858 172 52.5001C168 54.2144 164.5 60.5295 164.5 65.5001C164.5 69.1112 168.342 73.1013 171 73.0001" stroke="black"/>
<path d="M171 63.75L175.33 66.25L185.289 49" stroke="black"/>
<rect width="60.2627" height="18.015" rx="6" transform="matrix(0.866025 -0.5 2.20305e-08 1 288 168.131)" fill="white" stroke="black"/>
<path d="M296.478 171.536L299.323 173.179L304.338 164.493" stroke="black"/>
<path d="M308.134 163.433L330.918 149.657" stroke="black"/>
<path d="M308.134 168.732L322.97 159.724" stroke="black"/>
<rect width="9.78912" height="9.78912" transform="matrix(0.866025 -0.5 2.20305e-08 1 294.358 168.896)" stroke="black"/>
<rect width="60.2627" height="18.015" rx="6" transform="matrix(0.866025 -0.5 2.20305e-08 1 289.06 191.445)" fill="white" stroke="black"/>
<path d="M297.537 194.849L300.383 196.492L305.398 187.806" stroke="black"/>
<path d="M309.194 186.746L331.978 172.97" stroke="black"/>
<path d="M309.194 192.045L324.03 183.038" stroke="black"/>
<rect width="9.78912" height="9.78912" transform="matrix(0.866025 -0.5 2.20305e-08 1 295.418 192.209)" stroke="black"/>
</svg>
