<svg width="513" height="300" viewBox="0 0 513 300" fill="none" xmlns="http://www.w3.org/2000/svg">
<path d="M257.317 215.606L154.481 155.382L172.094 145.155V149.477L257.317 198.562L352.199 145.155V130.951L378.902 145.155L257.317 215.606Z" fill="#F2F2F2"/>
<rect x="-2.98023e-08" y="0.5" width="181.558" height="181.558" transform="matrix(0.866025 0.5 -0.866025 0.5 257.252 60.9438)" stroke="#C4C4C4" stroke-opacity="0.5"/>
<path d="M352.185 123.129V109.129L269.185 46.6294L171.185 104.129V111.129L172.185 117.629L263.685 69.6294L352.185 123.129Z" fill="white"/>
<rect x="-2.98023e-08" y="0.5" width="237.666" height="237.666" transform="matrix(0.866025 0.5 -0.866025 0.5 257.252 32.8901)" stroke="#C4C4C4" stroke-opacity="0.3"/>
<path d="M352.185 83.6299V70.6299L257.685 15.6299L172.185 65.1299V76.6299L257.685 27.1299L352.185 83.6299Z" fill="white"/>
<path d="M266.613 94.0215L259.795 97.9986" stroke="black"/>
<path d="M245.856 194.157C246.148 195.788 247.377 197.374 249.542 198.624C254.547 201.514 262.663 201.514 267.669 198.624C269.834 197.374 271.063 195.788 271.355 194.157" stroke="black"/>
<path d="M245.842 192.312L245.842 194.157" stroke="black"/>
<path d="M271.369 191.176V194.157" stroke="black"/>
<path d="M336.182 156.493C335.89 158.124 334.661 159.71 332.496 160.96C329.27 162.822 324.753 163.484 320.609 162.947" stroke="black"/>
<path d="M336.195 154.245L336.195 156.518" stroke="black"/>
<path d="M177.735 155.357C178.027 156.988 179.255 158.574 181.421 159.824C184.65 161.688 189.174 162.35 193.322 161.809" stroke="black"/>
<path d="M177.721 153.512L177.721 155.357" stroke="black"/>
<path d="M299.239 100.188L321.445 113.009L299.239 125.829L277.033 113.009L299.239 100.188Z" fill="white" stroke="black"/>
<rect width="25.6412" height="25.6412" transform="matrix(0.866025 -0.5 2.20305e-08 1 299.239 125.829)" fill="white" stroke="black"/>
<path d="M277.033 113.009L299.239 125.829L299.239 151.471L277.033 138.65L277.033 113.009Z" fill="white" stroke="black"/>
<path d="M271.453 83.1353L293.659 95.9559L271.453 108.776L249.247 95.9559L271.453 83.1353Z" fill="white" stroke="black"/>
<rect width="25.6412" height="25.6412" transform="matrix(0.866025 -0.5 2.20305e-08 1 271.453 108.776)" fill="white" stroke="black"/>
<path d="M249.247 95.9561L271.453 108.777L271.453 134.418L249.247 121.597L249.247 95.9561Z" fill="white" stroke="black"/>
<path d="M269.101 50.8418L291.307 63.6624L269.101 76.483L246.895 63.6624L269.101 50.8418Z" fill="white" stroke="black"/>
<rect width="25.6412" height="25.6412" transform="matrix(0.866025 -0.5 2.20305e-08 1 269.101 76.4834)" fill="white" stroke="black"/>
<path d="M246.895 63.6621L269.1 76.4827L269.1 102.124L246.895 89.3033L246.895 63.6621Z" fill="white" stroke="black"/>
<g clip-path="url(#clip0_2861_5383)">
<path d="M286.427 87.3154L275.866 93.413L275.866 91.8886C275.866 90.8779 276.213 89.7078 276.832 88.6357C277.451 87.5636 278.291 86.6775 279.166 86.1721L283.127 83.8855C284.002 83.3801 284.841 83.2969 285.46 83.6543C286.079 84.0116 286.427 84.7802 286.427 85.791L286.427 87.3154ZM281.146 83.5044C280.626 83.8047 280.111 83.9837 279.631 84.0313C279.15 84.0789 278.714 83.9941 278.346 83.7818C277.978 83.5694 277.686 83.2337 277.487 82.7938C277.288 82.3539 277.186 81.8183 277.186 81.2178C277.186 80.6172 277.288 79.9634 277.487 79.2936C277.686 78.6238 277.978 77.9513 278.346 77.3143C278.714 76.6773 279.15 76.0883 279.631 75.5811C280.111 75.0738 280.626 74.6582 281.146 74.3579C282.197 73.7515 283.204 73.6517 283.947 74.0805C284.69 74.5093 285.107 75.4316 285.107 76.6445C285.107 77.8574 284.69 79.2616 283.947 80.548C283.204 81.8345 282.197 82.8979 281.146 83.5044V83.5044Z" fill="#048F92"/>
</g>
<path d="M241.817 98.7607L264.023 111.581L241.817 124.402L219.611 111.581L241.817 98.7607Z" fill="white" stroke="black"/>
<rect width="25.6412" height="25.6412" transform="matrix(0.866025 -0.5 2.20305e-08 1 241.817 124.402)" fill="white" stroke="black"/>
<path d="M219.611 111.581L241.817 124.402L241.817 150.043L219.611 137.222L219.611 111.581Z" fill="white" stroke="black"/>
<path d="M271.955 117.316L294.161 130.137L271.955 142.958L249.749 130.137L271.955 117.316Z" fill="white" stroke="black"/>
<rect width="25.6412" height="25.6412" transform="matrix(0.866025 -0.5 2.20305e-08 1 271.955 142.958)" fill="white" stroke="black"/>
<path d="M249.749 130.137L271.955 142.957L271.955 168.599L249.749 155.778L249.749 130.137Z" fill="white" stroke="black"/>
<g clip-path="url(#clip1_2861_5383)">
<path d="M281.57 142.747C282.483 141.999 283.425 141.455 284.337 141.148C284.398 141.576 284.549 141.931 284.777 142.185C285.006 142.44 285.308 142.589 285.66 142.619C286.011 142.651 286.404 142.565 286.809 142.366C287.213 142.168 287.62 141.863 287.998 141.473C288.619 141.918 289.089 142.589 289.38 143.444C289.063 143.92 288.807 144.439 288.631 144.962C288.456 145.486 288.365 146.001 288.365 146.47C288.365 147.457 288.761 148.108 289.381 148.323C289.089 149.514 288.618 150.728 287.997 151.889C287.619 151.936 287.213 152.1 286.808 152.369C286.404 152.638 286.011 153.005 285.66 153.442C285.308 153.879 285.007 154.375 284.778 154.894C284.549 155.413 284.399 155.941 284.338 156.439C283.426 157.187 282.484 157.732 281.571 158.04C281.51 157.611 281.36 157.256 281.131 157C280.902 156.745 280.601 156.597 280.249 156.566C279.897 156.534 279.504 156.621 279.1 156.819C278.695 157.018 278.288 157.323 277.911 157.713C277.289 157.268 276.819 156.597 276.529 155.741C276.846 155.266 277.101 154.747 277.277 154.224C277.452 153.7 277.544 153.185 277.543 152.717C277.544 152.248 277.452 151.838 277.277 151.517C277.101 151.196 276.845 150.973 276.527 150.864C276.819 149.673 277.29 148.459 277.911 147.298C278.289 147.25 278.695 147.086 279.1 146.817C279.505 146.548 279.897 146.182 280.249 145.744C280.6 145.307 280.901 144.811 281.13 144.293C281.359 143.774 281.509 143.246 281.57 142.747L281.57 142.747ZM282.954 151.937C283.492 151.626 284.008 151.081 284.389 150.422C284.769 149.763 284.983 149.044 284.983 148.422C284.983 147.801 284.769 147.328 284.389 147.109C284.008 146.889 283.492 146.94 282.954 147.251C282.416 147.561 281.9 148.106 281.519 148.765C281.139 149.424 280.925 150.144 280.925 150.765C280.925 151.387 281.139 151.859 281.519 152.079C281.9 152.299 282.416 152.247 282.954 151.937V151.937Z" fill="#048F92"/>
</g>
<path d="M241.817 67.9702L264.023 80.7908L241.817 93.6114L219.611 80.7908L241.817 67.9702Z" fill="white" stroke="black"/>
<rect width="25.6412" height="25.6412" transform="matrix(0.866025 -0.5 2.20305e-08 1 241.817 93.6113)" fill="white" stroke="black"/>
<path d="M219.611 80.791L241.817 93.6116L241.817 119.253L219.611 106.432L219.611 80.791Z" fill="white" stroke="black"/>
<path d="M271.955 86.5264L294.161 99.347L271.955 112.168L249.749 99.347L271.955 86.5264Z" fill="white" stroke="black"/>
<rect width="25.6412" height="25.6412" transform="matrix(0.866025 -0.5 2.20305e-08 1 271.955 112.167)" fill="white" stroke="black"/>
<path d="M249.749 99.3467L271.955 112.167L271.955 137.808L249.749 124.988L249.749 99.3467Z" fill="white" stroke="black"/>
<path d="M265.309 168.439V100.806L215.346 72.168L214.127 139.192L265.309 168.439Z" fill="white"/>
<g clip-path="url(#clip2_2861_5383)">
<path d="M288.039 123.363L277.478 129.461L277.478 127.936C277.478 126.926 277.826 125.756 278.445 124.684C279.064 123.611 279.903 122.725 280.778 122.22L284.739 119.933C285.614 119.428 286.454 119.345 287.073 119.702C287.692 120.059 288.039 120.828 288.039 121.839L288.039 123.363ZM282.759 119.552C282.239 119.853 281.724 120.032 281.243 120.079C280.763 120.127 280.326 120.042 279.958 119.83C279.59 119.617 279.299 119.282 279.1 118.842C278.901 118.402 278.798 117.866 278.798 117.266C278.798 116.665 278.901 116.011 279.1 115.341C279.299 114.672 279.59 113.999 279.958 113.362C280.326 112.725 280.763 112.136 281.243 111.629C281.724 111.122 282.239 110.706 282.759 110.406C283.809 109.799 284.817 109.7 285.559 110.128C286.302 110.557 286.719 111.479 286.719 112.692C286.719 113.905 286.302 115.309 285.559 116.596C284.817 117.882 283.809 118.946 282.759 119.552V119.552Z" fill="#048F92"/>
</g>
<g clip-path="url(#clip3_2861_5383)">
<path d="M310.483 124.428C311.905 123.607 313.269 123.471 314.274 124.052C315.28 124.632 315.844 125.881 315.844 127.523L315.844 130.274C315.845 131.266 315.639 132.362 315.244 133.47C314.849 134.579 314.277 135.667 313.575 136.643C313.857 135.433 314.022 134.232 314.053 133.068L314.057 132.682L314.057 131.306L312.866 131.993L312.866 133.37L312.864 133.588C312.84 135.101 312.55 136.747 312.012 138.424C311.322 139.057 310.598 139.549 309.883 139.869C310.62 138.098 311.032 136.312 311.075 134.696L311.079 134.402L311.079 129.587L309.887 130.274L309.887 135.09L309.885 135.289C309.853 136.835 309.419 138.564 308.642 140.249C308.073 140.337 307.544 140.292 307.077 140.118C307.7 138.849 308.056 137.53 308.096 136.349L308.1 136.121L308.1 131.994L308.103 131.855C308.12 131.456 308.208 131.024 308.362 130.587L308.43 130.406L307.569 129.909C307.173 130.779 306.945 131.67 306.913 132.475L306.909 132.682L306.909 136.809L306.906 136.965C306.881 137.79 306.649 138.708 306.239 139.602C305.513 138.939 305.12 137.835 305.122 136.465L305.122 133.714C305.122 132.072 305.686 130.171 306.692 128.43C307.697 126.688 309.061 125.248 310.483 124.428V124.428ZM310.483 126.491C309.771 126.902 309.107 127.526 308.549 128.263L308.412 128.45L309.273 128.947C309.596 128.539 309.961 128.199 310.337 127.956L310.483 127.867L310.602 127.802C311.192 127.495 311.749 127.459 312.167 127.699C312.584 127.939 312.832 128.44 312.863 129.103L312.866 129.243L312.866 130.618L314.057 129.93L314.057 128.555C314.057 127.46 313.681 126.628 313.01 126.241C312.34 125.854 311.431 125.944 310.483 126.491Z" fill="#048F92"/>
</g>
<path d="M351.685 141.13L257.685 195.13V199.13L351.685 144.63V141.13Z" fill="#C4C4C4"/>
<path d="M258.091 199.13L351.837 145.155V50.2734" stroke="black"/>
<path d="M172.685 146.63L257.185 195.087L257.185 198.63L172.685 149.63L172.685 146.63Z" fill="#C4C4C4"/>
<path d="M257.523 199.129L227.979 182.085L172.3 149.7V116.747" stroke="black"/>
<path d="M352.405 50.2732L267.182 0.84375" stroke="black"/>
<path d="M257.523 199.13V105.952L265.477 101.33M265.477 101.33L188.208 56.523L266.613 10.5024L343.882 55.3866M265.477 101.33V105.952V183.79L343.882 138.905M343.882 55.3866L351.837 50.2733M343.882 55.3866V138.905M343.882 138.905L321.519 125.487" stroke="black"/>
<path d="M266.613 10.5024V52.5459" stroke="black"/>
<path d="M172.3 100.839V55.9547L256.387 7.09345L267.182 0.84375" stroke="black"/>
<path d="M257.523 105.952L172.3 56.5229" stroke="black"/>
<rect width="4.54524" height="4.54524" transform="matrix(0.866025 0.5 -2.20305e-08 1 217.752 116.18)" fill="#C0E3E4"/>
<rect width="4.54524" height="4.54524" transform="matrix(0.866025 0.5 -2.20305e-08 1 217.752 134.36)" fill="#C0E3E4"/>
<rect width="4.54524" height="4.54524" transform="matrix(0.866025 0.5 -2.20305e-08 1 217.752 125.27)" fill="#C0E3E4"/>
<rect width="4.54524" height="4.54524" transform="matrix(0.866025 0.5 -2.20305e-08 1 217.752 143.451)" fill="#C0E3E4"/>
<rect width="4.54524" height="4.54524" transform="matrix(0.866025 0.5 -2.20305e-08 1 233.497 125.27)" fill="#C0E3E4"/>
<rect width="4.54524" height="4.54524" transform="matrix(0.866025 0.5 -2.20305e-08 1 233.497 143.451)" fill="#C0E3E4"/>
<rect width="4.54524" height="4.54524" transform="matrix(0.866025 0.5 -2.20305e-08 1 233.497 134.36)" fill="#C0E3E4"/>
<rect width="4.54524" height="4.54524" transform="matrix(0.866025 0.5 -2.20305e-08 1 233.497 152.541)" fill="#048F92"/>
<rect width="4.54524" height="4.54524" transform="matrix(0.866025 0.5 -2.20305e-08 1 225.625 120.725)" fill="#C0E3E4"/>
<rect width="4.54524" height="4.54524" transform="matrix(0.866025 0.5 -2.20305e-08 1 225.625 138.906)" fill="#C0E3E4"/>
<rect width="4.54524" height="4.54524" transform="matrix(0.866025 0.5 -2.20305e-08 1 225.625 129.815)" fill="#C0E3E4"/>
<rect width="4.54524" height="4.54524" transform="matrix(0.866025 0.5 -2.20305e-08 1 225.625 147.996)" fill="#048F92"/>
<path d="M181.39 92.885L181.39 79.3364L245.023 116.075L245.023 177.232L181.39 140.493L181.39 133.792" stroke="black"/>
<path d="M245.148 115.842L249.001 113.907M249.001 113.907L185.367 76.9766L181.39 78.9116M249.001 113.907V175.267L245.148 177.318" stroke="black"/>
<circle r="21.651" transform="matrix(0.866025 0.5 -2.20305e-08 1 189.709 118.817)" stroke="black"/>
<circle r="15.3246" transform="matrix(0.866025 0.5 -2.20305e-08 1 189.709 118.818)" stroke="black"/>
<circle r="3.55818" transform="matrix(0.866025 0.5 -2.20305e-08 1 189.709 118.818)" stroke="black"/>
<path d="M176.845 95.5219C180.3 92.2047 186.702 91.1898 192.898 94.7671C203.356 100.805 211.835 115.49 211.835 127.567C211.835 133.962 207.906 139.164 204.116 140.974" stroke="black"/>
<path d="M187.64 115.043L196.73 109.726M200.707 117.68L191.617 122.997" stroke="black"/>
<path d="M188.208 121.293L182.526 127.339" stroke="black"/>
<path d="M192.754 121.293L203.185 126.13" stroke="black"/>
<path d="M187.64 115.043L179.686 103.476" stroke="black"/>
<rect x="-2.98023e-08" y="0.5" width="294.557" height="294.557" transform="matrix(0.866025 0.5 -0.866025 0.5 257.252 4.44482)" stroke="#C4C4C4" stroke-opacity="0.15"/>
<defs>
<clipPath id="clip0_2861_5383">
<rect width="18.2929" height="18.2929" fill="white" transform="matrix(0.866025 -0.5 2.20305e-08 1 273.226 78.1689)"/>
</clipPath>
<clipPath id="clip1_2861_5383">
<rect width="18.744" height="18.744" fill="white" transform="matrix(0.866025 -0.5 2.20305e-08 1 274.838 144.908)"/>
</clipPath>
<clipPath id="clip2_2861_5383">
<rect width="18.2929" height="18.2929" fill="white" transform="matrix(0.866025 -0.5 2.20305e-08 1 274.838 114.217)"/>
</clipPath>
<clipPath id="clip3_2861_5383">
<rect width="16.5089" height="16.5089" fill="white" transform="matrix(0.866025 -0.5 2.20305e-08 1 303.334 127.867)"/>
</clipPath>
</defs>
</svg>
