<svg width="511" height="309" viewBox="0 0 511 309" fill="none" xmlns="http://www.w3.org/2000/svg">
<path fill-rule="evenodd" clip-rule="evenodd" d="M304.778 114.399C305.572 126.677 301.92 147.701 281.484 154.241C280.364 155.361 271.406 162.079 264.688 163.759C262.498 164.306 260.172 165.182 258.02 166.129C273.589 166.855 303.42 167.687 316.931 165.998C331.264 164.207 349.776 153.308 357.241 148.082C353.322 145.283 344.924 138.901 342.685 135.765C340.445 132.63 338.766 122.142 338.206 117.29C334.66 116.916 324.769 116.058 313.572 115.61C310.654 115.493 307.674 115.045 304.778 114.399Z" fill="#F2F2F2"/>
<path d="M232.882 129.5C227.374 131.03 222.212 133.114 217.645 135.75C195.883 148.315 195.883 168.686 217.645 181.25C239.408 193.815 274.691 193.815 296.454 181.25C316.96 169.411 318.144 150.64 300.004 138" stroke="#C4C4C4"/>
<path d="M223.741 106.555C211.15 109.241 199.34 113.503 189.226 119.342C151.769 140.968 151.769 176.031 189.226 197.658C226.684 219.284 287.415 219.284 324.873 197.658C362.33 176.031 362.33 140.968 324.873 119.342C318.579 115.709 311.628 112.685 304.241 110.273" stroke="#C4C4C4" stroke-opacity="0.7"/>
<path d="M219.891 80.2777C197.121 83.8701 175.612 90.8295 157.727 101.156C150.544 105.303 144.302 109.787 139 114.52M278.989 78.3925C307.317 80.9648 334.543 88.5526 356.373 101.156C362.951 104.954 368.741 109.035 373.741 113.331L379.241 118.461C385.352 124.669 389.93 131.243 392.975 138M297.741 236.136C249.787 244.488 195.623 237.724 157.727 215.844C144.239 208.057 134.068 199.081 127.213 189.5C119.344 177.314 117.576 164.803 118.78 153.739M336.741 225.299C343.649 222.545 350.225 219.393 356.373 215.844C382.258 200.899 395.928 181.573 397.383 162" stroke="#C4C4C4" stroke-opacity="0.5"/>
<path d="M147 211.239L153 207.739L189.5 226.239L179 232.239L147 211.239Z" fill="white"/>
<path d="M510.5 159.739C510.5 200.494 482.075 237.484 435.915 264.312C389.767 291.134 325.982 307.739 255.5 307.739C185.018 307.739 121.233 291.134 75.0855 264.312C28.9255 237.484 0.5 200.494 0.5 159.739C0.5 118.985 28.9255 81.995 75.0855 55.1662C121.233 28.3447 185.018 11.7393 255.5 11.7393C325.982 11.7393 389.767 28.3447 435.915 55.1662C482.075 81.995 510.5 118.985 510.5 159.739Z" stroke="#C4C4C4" stroke-opacity="0.15"/>
<path d="M452.5 159.739C452.5 190.828 430.735 219.068 395.342 239.563C359.962 260.051 311.052 272.739 257 272.739C202.948 272.739 154.038 260.051 118.658 239.563C83.2646 219.068 61.5 190.828 61.5 159.739C61.5 128.651 83.2646 100.411 118.658 79.9153C154.038 59.4273 202.948 46.7393 257 46.7393C311.052 46.7393 359.962 59.4273 395.342 79.9153C430.735 100.411 452.5 128.651 452.5 159.739Z" stroke="#C4C4C4" stroke-opacity="0.3"/>
<path d="M132 227.501L137.255 224.318V226.055L164.572 242.251L192.617 226.243V218.739L205 226.055L165.881 248.239L132 227.501Z" fill="#F2F2F2"/>
<path d="M164.164 231.48L192.165 215.116" stroke="black"/>
<path d="M137.255 215.48L165.256 199.239" stroke="black"/>
<path d="M137.618 223.48L164.528 239.48L164.528 241.662L137.618 225.662L137.618 223.48Z" fill="#C4C4C4"/>
<path d="M191.802 223.48L164.892 239.117L164.892 241.299L191.802 225.662L191.802 223.48Z" fill="#C4C4C4"/>
<path d="M164.528 241.662V231.48L137.618 215.48V225.662L164.528 241.662ZM164.528 241.662L192.165 225.662V215.116" stroke="black"/>
<path d="M192.165 215.116L164.892 199.326" stroke="black"/>
<g clip-path="url(#clip0_2861_5083)">
<path d="M163.04 223.263L151.151 216.399L152.637 215.541C153.623 214.972 154.959 214.652 156.352 214.652C157.746 214.652 159.082 214.972 160.068 215.541L164.526 218.115C165.511 218.684 166.065 219.455 166.065 220.26C166.065 221.064 165.511 221.836 164.526 222.405L163.04 223.263ZM163.783 215.97C163.197 215.632 162.733 215.231 162.416 214.789C162.099 214.347 161.936 213.874 161.936 213.396C161.936 212.918 162.099 212.445 162.416 212.003C162.733 211.561 163.197 211.16 163.783 210.822C164.368 210.484 165.063 210.216 165.828 210.033C166.593 209.85 167.413 209.756 168.241 209.756C169.069 209.756 169.889 209.85 170.654 210.033C171.418 210.216 172.114 210.484 172.699 210.822C173.881 211.505 174.546 212.431 174.546 213.396C174.546 214.361 173.881 215.287 172.699 215.97C171.517 216.652 169.913 217.036 168.241 217.036C166.569 217.036 164.965 216.652 163.783 215.97V215.97Z" fill="black"/>
</g>
<path d="M255.241 166L184 207.239" stroke="#048F92" stroke-dasharray="4 4"/>
<path d="M194.241 70L213.741 82L184.741 99L230.241 126" stroke="#048F92" stroke-dasharray="4 4"/>
<path d="M303.241 31.7973L306.241 30V32L338.08 50.6486L370.768 32.2162V23L383.241 29.7027L340.23 54L303.241 31.7973Z" fill="#F2F2F2"/>
<path d="M93 139.037L96 137.239V139.239L127.839 157.888L160.527 139.455V130.239L173 136.942L129.989 161.239L93 139.037Z" fill="#F2F2F2"/>
<g clip-path="url(#clip1_2861_5083)">
<path d="M363.998 123.617C360.449 121.567 360.449 118.245 363.998 116.195C367.548 114.146 373.303 114.146 376.853 116.195C380.403 118.245 380.403 121.567 376.853 123.617C373.303 125.666 367.548 125.666 363.998 123.617ZM371.335 119.381L371.335 117.282L369.516 117.282L369.517 119.381L365.881 119.381L365.881 120.431L369.517 120.431L369.516 122.53L371.335 122.53L371.335 120.431L374.971 120.431L374.971 119.381L371.335 119.381Z" fill="#EB5757"/>
</g>
<path d="M337.605 38.5777L370.241 19.5049" stroke="black"/>
<path d="M306.241 19.9287L338.877 1" stroke="black"/>
<path d="M306.665 29.2534L338.029 47.9024L338.029 50.4455L306.665 31.7965L306.665 29.2534Z" fill="#C4C4C4"/>
<path d="M369.817 29.2534L338.453 47.4786L338.453 50.0216L369.817 31.7965L369.817 29.2534Z" fill="#C4C4C4"/>
<path d="M338.029 50.4453V38.5777L306.665 19.9287V31.7963L338.029 50.4453ZM338.029 50.4453L370.241 31.7963V19.5049" stroke="black"/>
<path d="M370.241 19.5049L338.453 1.10132" stroke="black"/>
<g clip-path="url(#clip2_2861_5083)">
<path d="M336.293 29L322.437 21L324.169 20C325.317 19.337 326.875 18.9645 328.499 18.9645C330.123 18.9645 331.681 19.337 332.829 20L338.025 23C339.174 23.663 339.819 24.5623 339.819 25.5C339.819 26.4377 339.174 27.337 338.025 28L336.293 29ZM337.159 20.5C336.477 20.106 335.936 19.6383 335.566 19.1236C335.197 18.6088 335.007 18.0572 335.007 17.5C335.007 16.9428 335.197 16.3912 335.566 15.8764C335.936 15.3617 336.477 14.894 337.159 14.5C337.842 14.106 338.652 13.7935 339.543 13.5803C340.435 13.3671 341.39 13.2574 342.355 13.2574C343.32 13.2574 344.276 13.3671 345.168 13.5803C346.059 13.7935 346.869 14.106 347.552 14.5C348.93 15.2956 349.704 16.3748 349.704 17.5C349.704 18.6252 348.93 19.7044 347.552 20.5C346.174 21.2956 344.304 21.7426 342.355 21.7426C340.407 21.7426 338.537 21.2957 337.159 20.5V20.5Z" fill="black"/>
</g>
<path d="M127.364 145.817L160 126.744" stroke="black"/>
<path d="M96 127.168L128.636 108.239" stroke="black"/>
<path d="M96.4238 136.493L127.788 155.142L127.788 157.685L96.4238 139.036L96.4238 136.493Z" fill="#C4C4C4"/>
<path d="M159.576 136.493L128.212 154.718L128.212 157.261L159.576 139.036L159.576 136.493Z" fill="#C4C4C4"/>
<path d="M127.788 157.685V145.817L96.4238 127.168V139.036L127.788 157.685ZM127.788 157.685L160 139.036V126.744" stroke="black"/>
<path d="M160 126.744L128.212 108.341" stroke="black"/>
<path d="M382 154.5L385.275 152.319V154.19L415.226 171.865L445.462 154.622V146L457 152.27L416.715 175.5L382 154.5Z" fill="#F2F2F2"/>
<path d="M414.646 160.319L445.242 142.438" stroke="black"/>
<path d="M385.241 142.836L415.837 125.09" stroke="black"/>
<path d="M385.639 151.578L415.043 169.061L415.043 171.445L385.639 153.962L385.639 151.578Z" fill="#C4C4C4"/>
<path d="M444.844 151.578L415.44 168.664L415.44 171.048L444.844 153.962L444.844 151.578Z" fill="#C4C4C4"/>
<path d="M415.043 171.445V160.319L385.639 142.836V153.962L415.043 171.445ZM415.043 171.445L445.241 153.962V142.438" stroke="black"/>
<path d="M445.241 142.439L415.439 125.186" stroke="black"/>
<path d="M320.241 41L300.741 53L338.241 74.5L296.241 97.5" stroke="#048F92" stroke-dasharray="4 4"/>
<path d="M241.5 145.739L222 157.739L208 149.739L175 168.239L146 149.739" stroke="#048F92" stroke-dasharray="4 4"/>
<path d="M299 215.239L260.741 193.5L296.241 172.5L274.241 160.5" stroke="#048F92" stroke-dasharray="4 4"/>
<path d="M397.741 135L375.241 121.858M304.241 124L341.241 102L366.923 117" stroke="url(#paint0_linear_2861_5083)" stroke-dasharray="4 4"/>
<path d="M219.898 68.581L232.215 61.3027" stroke="black"/>
<path d="M255.729 70.2605L268.046 62.4224" stroke="black"/>
<path d="M291.561 110.011L303.878 102.733" stroke="black"/>
<path d="M256.275 69.9345C256.275 69.9345 246.4 73.764 239.305 74.4134C232.301 75.0545 220.396 68.8148 220.396 68.8148C218.779 94.7552 220.396 116.403 256.275 166.791" stroke="black"/>
<path d="M268.046 62.4229C268.046 62.4229 257.504 65.9261 250.409 66.5756C243.405 67.2167 231.5 60.977 231.5 60.977" stroke="black"/>
<path d="M255.79 69.6549C255.79 69.6549 265.665 84.8869 272.76 93.7291C279.764 102.457 291.669 109.965 291.669 109.965C293.286 137.772 291.669 157.554 255.79 166.512" stroke="black"/>
<path d="M268.047 62.4227C268.047 62.4227 277.922 77.6547 285.017 86.4969C292.021 95.2253 303.926 102.733 303.926 102.733C305.333 126.927 304.292 145.046 280.364 155.246" stroke="black"/>
<g clip-path="url(#clip3_2861_5083)">
<path d="M256.654 110.058L268.937 117.149L253.584 134.879L253.584 118.922L242.836 112.717L256.654 94.1016L256.654 110.058Z" fill="#048F92"/>
</g>
<path fill-rule="evenodd" clip-rule="evenodd" d="M186.146 73.2136C191.415 72.3541 199.346 69.6587 201.741 63.4999V52.4717C202.984 52.9214 204.16 53.4584 205.241 54.0828C212.973 58.5469 212.973 65.7846 205.241 70.2486C200.068 73.2357 192.743 74.224 186.146 73.2136Z" fill="#F2F2F2"/>
<path d="M162.521 60.417V63.177C162.784 66.5942 166.938 73.4285 181.447 73.4285C195.957 73.4285 201.162 66.5942 201.95 63.177V60.417C200.373 64.3599 193.276 71.0628 181.447 71.0628C170.723 71.0628 164.361 63.7027 162.521 60.417Z" fill="#C4C4C4"/>
<path d="M162.548 63.1773C162.999 65.697 164.897 68.1466 168.241 70.0774C175.973 74.5414 188.509 74.5414 196.241 70.0774C199.585 68.1466 201.483 65.697 201.935 63.1773" stroke="black"/>
<circle r="16.1658" transform="matrix(0.866025 0.5 -0.866025 0.5 182.241 50.1658)" stroke="black"/>
<g clip-path="url(#clip4_2861_5083)">
<path d="M172.945 55.3426C168.063 52.5239 168.063 47.9541 172.945 45.1354C177.828 42.3166 185.743 42.3166 190.625 45.1354C195.507 47.9541 195.507 52.5239 190.625 55.3426C185.743 58.1613 177.828 58.1613 172.945 55.3426ZM176.923 49.4734L175.155 50.4942L177.365 51.7701L175.597 52.7908L177.365 53.8115L179.133 52.7908L180.017 53.3011C180.603 53.6395 181.398 53.8296 182.227 53.8296C183.056 53.8296 183.851 53.6395 184.437 53.3011C185.023 52.9627 185.352 52.5038 185.352 52.0252C185.352 51.5467 185.023 51.0877 184.437 50.7493L180.901 48.7079C180.784 48.6402 180.718 48.5484 180.718 48.4527C180.718 48.357 180.784 48.2652 180.901 48.1975C181.018 48.1298 181.177 48.0918 181.343 48.0918C181.509 48.0918 181.668 48.1298 181.785 48.1975L186.647 51.0045L188.415 49.9838L186.205 48.7079L187.973 47.6872L186.205 46.6664L184.437 47.6872L183.553 47.1768C182.967 46.8384 182.172 46.6483 181.343 46.6483C180.514 46.6483 179.719 46.8384 179.133 47.1768C178.547 47.5152 178.218 47.9741 178.218 48.4527C178.218 48.9313 178.547 49.3902 179.133 49.7286L182.669 51.7701C182.786 51.8377 182.852 51.9295 182.852 52.0252C182.852 52.1209 182.786 52.2127 182.669 52.2804C182.552 52.3481 182.393 52.3861 182.227 52.3861C182.061 52.3861 181.902 52.3481 181.785 52.2804L176.923 49.4734Z" fill="black"/>
</g>
<path d="M162.526 50.5601V63.1773" stroke="black"/>
<path d="M201.956 50.5601V63.1773" stroke="black"/>
<path fill-rule="evenodd" clip-rule="evenodd" d="M321.388 246.396C327.02 245.477 335.499 242.596 338.059 236.012V224.223C339.388 224.703 340.645 225.278 341.801 225.945C350.066 230.717 350.066 238.454 341.801 243.226C336.27 246.42 328.44 247.476 321.388 246.396Z" fill="#F2F2F2"/>
<path d="M296.133 232.717V235.667C296.414 239.32 300.854 246.626 316.365 246.626C331.876 246.626 337.44 239.32 338.283 235.667V232.717C336.597 236.932 329.01 244.097 316.365 244.097C304.9 244.097 298.1 236.229 296.133 232.717Z" fill="#C4C4C4"/>
<path d="M296.162 235.667C296.644 238.361 298.673 240.979 302.248 243.043C310.513 247.816 323.914 247.816 332.18 243.043C335.755 240.979 337.784 238.361 338.266 235.667" stroke="black"/>
<circle r="17.2814" transform="matrix(0.866025 0.5 -0.866025 0.5 317.214 221.758)" stroke="black"/>
<path d="M296.139 222.18V235.668" stroke="black"/>
<path d="M338.288 222.18V235.668" stroke="black"/>
<g clip-path="url(#clip5_2861_5083)">
<path d="M303.73 219.253L319.497 228.355L317.267 229.721L301.5 220.618L303.73 219.253ZM311.887 216.271L313.463 217.182L307.945 220.368L306.368 219.457L311.887 216.271ZM315.828 218.547L317.405 219.457L311.887 222.643L310.31 221.733L315.828 218.547ZM318.982 220.368L320.558 221.278L315.04 224.464L313.463 223.554L318.982 220.368ZM322.923 222.643L324.5 223.554L318.982 226.74L317.405 225.829L322.923 222.643ZM313.978 213.336L325.803 215.611L329.745 222.439L327.38 223.804L311.613 214.701L313.978 213.336Z" fill="black"/>
</g>
<g clip-path="url(#clip6_2861_5083)">
<path d="M427.483 147.041C426.81 145.728 425.821 144.512 424.055 143.558C423.044 143.012 421.859 142.601 420.686 142.185C420.038 141.954 419.388 141.725 418.731 141.503C418.531 141.436 418.356 141.356 418.196 141.27C418.047 141.178 417.909 141.077 417.792 140.961C417.408 140.582 417.011 140.206 416.612 139.832C415.89 139.155 415.179 138.471 414.233 137.887C412.581 136.867 410.474 136.297 408.201 135.908C407.166 135.731 406.669 135.817 406.213 136.238C405.672 136.74 405.192 137.268 404.854 137.824C404.554 138.318 404.29 138.822 404.077 139.336C403.733 140.168 403.52 140.976 404.184 141.789C404.587 142.283 405.103 142.726 405.809 143.087C406.202 143.288 406.696 143.39 407.191 143.487C407.683 143.582 408.17 143.689 408.686 143.733C409.198 143.776 409.714 143.838 410.229 143.836C410.229 143.836 412.309 143.852 413.174 144.169C413.724 144.669 413.752 145.87 413.752 145.87C413.748 146.167 413.856 146.465 413.93 146.761C414.005 147.059 414.192 147.34 414.357 147.624C414.523 147.909 414.701 148.195 415.049 148.422C415.675 148.829 416.442 149.127 417.297 149.36C418.705 149.743 420.105 149.62 421.546 149.421C422.437 149.299 423.309 149.146 424.164 148.973C425.127 148.778 426.042 148.501 426.911 148.188C427.641 147.925 427.789 147.638 427.483 147.041ZM408.673 140.788C407.795 139.759 408.614 138.489 408.614 138.489C408.614 138.489 410.856 138.889 411.734 139.918C412.611 140.947 411.792 142.216 411.792 142.216C411.792 142.216 409.551 141.817 408.673 140.788ZM419.031 146.768C417.249 146.261 416.557 144.967 416.557 144.967C416.557 144.967 418.756 144.494 420.539 145.001C422.321 145.508 423.012 146.802 423.012 146.802C423.012 146.802 420.814 147.275 419.031 146.768Z" fill="#EB5757"/>
</g>
<g clip-path="url(#clip7_2861_5083)">
<path d="M138.651 122.663C139.231 122.328 139.231 121.783 138.651 121.449L137.082 120.543C136.503 120.209 135.56 120.209 134.98 120.543L133.409 121.451L137.079 123.57L138.651 122.663Z" fill="black"/>
<path d="M131.444 124.882L135.945 129.319L139.875 127.05C140.094 126.923 140.094 126.717 139.875 126.59L128.178 119.837C127.958 119.71 127.6 119.71 127.381 119.837L123.451 122.105L131.137 124.704C131.264 124.747 131.37 124.808 131.444 124.882V124.882Z" fill="black"/>
<path d="M130.704 136.428C130.032 136.04 129.88 135.778 129.687 135.446C129.596 135.29 129.501 135.126 129.355 134.948C129.152 134.702 128.851 134.43 128.33 134.121L136.172 132.168C136.354 132.119 136.426 132.032 136.452 131.985C136.479 131.936 136.508 131.841 136.405 131.739L130.072 125.496L119.259 121.84C119.083 121.78 118.917 121.797 118.834 121.812C118.751 121.828 118.6 121.869 118.517 121.975L115.129 126.499C114.592 126.199 114.122 126.025 113.695 125.909C113.389 125.825 113.107 125.77 112.838 125.719C112.263 125.607 111.809 125.519 111.137 125.131C110.801 124.937 110.256 124.937 109.919 125.131C109.583 125.325 109.583 125.64 109.919 125.834C110.878 126.388 111.629 126.533 112.291 126.661C112.549 126.711 112.783 126.757 113.023 126.827C113.318 126.912 113.622 127.035 113.992 127.249C114.077 127.297 114.153 127.344 114.222 127.389C114.703 127.704 114.841 127.941 115.009 128.231C115.232 128.613 115.483 129.047 116.442 129.6C117.4 130.154 118.151 130.299 118.814 130.427C119.388 130.538 119.843 130.626 120.515 131.014C121.187 131.402 121.339 131.664 121.532 131.996C121.754 132.379 122.005 132.812 122.964 133.366C123.922 133.919 124.673 134.064 125.336 134.193C125.84 134.29 126.251 134.37 126.798 134.65C126.875 134.689 126.954 134.732 127.037 134.78C127.403 134.991 127.615 135.165 127.763 135.334C127.886 135.474 127.966 135.611 128.054 135.762C128.276 136.144 128.528 136.578 129.486 137.131C129.822 137.325 130.368 137.326 130.704 137.131C131.04 136.937 131.04 136.622 130.704 136.428Z" fill="black"/>
</g>
<defs>
<linearGradient id="paint0_linear_2861_5083" x1="378" y1="126.739" x2="311.5" y2="122.739" gradientUnits="userSpaceOnUse">
<stop stop-color="#EB5757"/>
<stop offset="1" stop-color="#EB5757" stop-opacity="0"/>
</linearGradient>
<clipPath id="clip0_2861_5083">
<rect width="20.5913" height="20.5913" fill="white" transform="matrix(0.866025 0.5 -0.866025 0.5 164.525 205.245)"/>
</clipPath>
<clipPath id="clip1_2861_5083">
<rect width="17.8121" height="17.8121" fill="white" transform="matrix(0.866025 0.5 -0.866025 0.5 370.426 111)"/>
</clipPath>
<clipPath id="clip2_2861_5083">
<rect width="24" height="24" fill="white" transform="matrix(0.866025 0.5 -0.866025 0.5 338.025 8)"/>
</clipPath>
<clipPath id="clip3_2861_5083">
<rect width="42.5498" height="42.5498" fill="white" transform="matrix(0.866025 0.5 -2.20305e-08 1 236.694 82.5776)"/>
</clipPath>
<clipPath id="clip4_2861_5083">
<rect width="24.4974" height="24.4974" fill="white" transform="matrix(0.866025 0.5 -0.866025 0.5 181.785 37.9902)"/>
</clipPath>
<clipPath id="clip5_2861_5083">
<rect width="21.8468" height="21.8468" fill="white" transform="matrix(0.866025 0.5 -0.866025 0.5 317.92 209.239)"/>
</clipPath>
<clipPath id="clip6_2861_5083">
<rect width="24" height="24" fill="white" transform="matrix(0.866025 0.5 -0.866025 0.5 414.785 131.239)"/>
</clipPath>
<clipPath id="clip7_2861_5083">
<rect width="24" height="24" fill="white" transform="matrix(0.866025 0.5 -0.866025 0.5 128.785 114.239)"/>
</clipPath>
</defs>
</svg>
