<svg width="38" height="43" viewBox="0 0 38 43" fill="none" xmlns="http://www.w3.org/2000/svg">
<path d="M35.3758 35.3502L35.9218 36.9351L7.31333 41.8195C7.31333 41.8195 7.23469 40.9114 7.06252 39.935L1.03341 7.97766C1.03341 7.97766 2.17324 7.69411 3.13354 7.50631L8.0356 6.54764" stroke="currentColor"/>
<path d="M31.0374 1.00001H10.8403L8.27563 1V32.8019C8.27563 34.2184 8.27563 35.3666 8.27563 35.3666H36.9999C36.9999 35.3666 36.9999 34.2184 36.9999 32.8019V6.93105M31.0374 1.00001V4.93105C31.0374 6.03562 31.9328 6.93105 33.0374 6.93105H36.9999M31.0374 1.00001L36.9999 6.93105" stroke="currentColor"/>
<rect x="13" y="6" width="11" height="1" fill="currentColor"/>
<rect x="13" y="10" width="18" height="1" fill="currentColor"/>
<rect x="13" y="14" width="15" height="1" fill="currentColor"/>
<rect x="13" y="22" width="15" height="1" fill="currentColor"/>
<rect x="13" y="26" width="9" height="1" fill="currentColor"/>
<rect x="13" y="30" width="9" height="1" fill="currentColor"/>
<rect x="13" y="18" width="18" height="1" fill="currentColor"/>
<path d="M26 28.5L28.1538 31L33 26" stroke="currentColor" stroke-linecap="square"/>
</svg>
