<svg width="19" height="24" viewBox="0 0 19 24" fill="none" xmlns="http://www.w3.org/2000/svg">
<path d="M2.75109 0.946155L17.7947 10.9732C17.9638 11.0857 18.1026 11.2384 18.1985 11.4175C18.2945 11.5966 18.3447 11.7967 18.3447 11.9999C18.3447 12.2031 18.2945 12.4032 18.1985 12.5823C18.1026 12.7614 17.9638 12.9141 17.7947 13.0267L2.748 23.0537C2.56247 23.1766 2.34711 23.2471 2.12477 23.2576C1.90243 23.2681 1.68139 23.2183 1.4851 23.1133C1.2888 23.0084 1.12456 22.8523 1.0098 22.6615C0.895039 22.4708 0.834033 22.2526 0.833252 22.03V1.96982C0.833664 1.74674 0.894574 1.52795 1.00949 1.33675C1.12441 1.14555 1.28903 0.989103 1.48583 0.88406C1.68263 0.779016 1.90423 0.729318 2.12704 0.740252C2.34985 0.751187 2.56552 0.822347 2.75109 0.946155Z" fill="currentColor"/>
</svg>
