<svg width="24" height="24" viewBox="0 0 24 24" fill="none" xmlns="http://www.w3.org/2000/svg">
<path fill-rule="evenodd" clip-rule="evenodd" d="M4.80001 11.1C4.80001 7.62063 7.62063 4.80001 11.1 4.80001C14.5795 4.80001 17.4001 7.62063 17.4001 11.1C17.4001 12.7971 16.7291 14.3374 15.6379 15.4702C15.6068 15.494 15.577 15.5202 15.5486 15.5486C15.5202 15.577 15.494 15.6068 15.4702 15.6379C14.3374 16.7291 12.7971 17.4001 11.1 17.4001C7.62063 17.4001 4.80001 14.5795 4.80001 11.1ZM16.156 17.4288C14.7703 18.5372 13.0126 19.2001 11.1 19.2001C6.62651 19.2001 3 15.5736 3 11.1C3 6.62651 6.62651 3 11.1 3C15.5736 3 19.2001 6.62651 19.2001 11.1C19.2001 13.0126 18.5372 14.7703 17.4288 16.156L20.7364 19.4636C21.0879 19.8151 21.0879 20.3849 20.7364 20.7364C20.3849 21.0879 19.8151 21.0879 19.4636 20.7364L16.156 17.4288Z" fill="#1A1B1E"/>
</svg>
