<svg width="94" height="65" viewBox="0 0 94 65" fill="none" xmlns="http://www.w3.org/2000/svg">
<path d="M0.00506141 0H0.112019C0.890673 0.460069 1.74955 0.754177 2.57205 1.12076C5.04813 2.21947 7.53276 3.30241 10.0142 4.38536C11.7715 5.17525 13.5278 5.96935 15.2894 6.75083C16.9536 7.4861 18.6232 8.21507 20.2918 8.94509C22.9294 10.1005 25.5744 11.237 28.2067 12.4114C30.2849 13.341 32.3877 14.218 34.4541 15.176C36.4756 16.1129 38.5442 16.9501 40.5849 17.8471C42.5786 18.7221 44.5605 19.6244 46.5532 20.5025C49.1772 21.6579 51.8045 22.8074 54.4349 23.9509C56.0079 24.6386 57.5788 25.3266 59.1475 26.0149C61.0278 26.8342 62.9295 27.6084 64.7852 28.4791C67.011 29.5222 69.285 30.4538 71.5236 31.4612C72.2402 31.7836 72.9504 32.1177 73.7397 32.48C73.5558 32.5935 73.4734 32.6576 73.3814 32.6996C71.6348 33.4758 69.8893 34.2552 68.1405 35.023C66.6356 35.6827 65.1029 36.2835 63.6237 36.9936C62.2493 37.65 60.8428 38.2173 59.4683 38.859C57.4811 39.7855 55.4039 40.5397 53.422 41.4682C51.4026 42.4135 49.333 43.2465 47.3179 44.1992C45.6857 44.9712 44.0129 45.6613 42.3583 46.3861C41.0812 46.9463 39.8031 47.5044 38.5238 48.0604C37.0008 48.7222 35.4702 49.3692 33.9514 50.0415C32.1235 50.8502 30.3148 51.6895 28.4816 52.4952C26.4098 53.4069 24.3241 54.2808 22.2523 55.1967C19.6169 56.3522 16.9911 57.536 14.3578 58.6966C12.8229 59.3731 11.2795 60.0296 9.74038 60.6924C9.58422 60.7764 9.43341 60.8699 9.2719 60.9413C6.93736 61.9728 4.60212 63.0018 2.26615 64.0284C1.53028 64.3509 0.789063 64.6586 0.00292225 64.9968V2.51567C-0.000286486 1.67747 -0.000286486 0.838208 0.00506141 0ZM54.8253 32.188C54.8049 31.4775 54.746 30.7685 54.6488 30.0642C54.3643 28.3058 53.4049 27.2838 51.7075 26.9939C50.793 26.8444 49.862 26.8186 48.9405 26.9172C46.9757 27.1094 45.7649 28.1504 45.3264 30.0064C44.92 31.6424 44.9262 33.3511 45.3445 34.9842C45.721 36.4137 46.6558 37.3139 48.1693 37.5639C49.3479 37.7659 50.5547 37.7485 51.7267 37.5124C52.9033 37.2709 53.7365 36.6207 54.2349 35.5304C54.7333 34.4401 54.7729 33.3004 54.8253 32.188ZM35.2862 32.2437V36.4337C35.2862 37.7992 35.2509 37.504 36.3857 37.5293C37.0275 37.544 37.1152 37.4494 37.1184 36.8003C37.1184 35.8549 37.128 34.9148 37.1184 33.9726C37.1131 33.6523 37.1879 33.4884 37.5601 33.5021C38.2361 33.5273 38.9132 33.5189 39.5923 33.5136C40.1271 33.5136 40.4662 33.7815 40.6405 34.2489C40.9026 34.9527 41.17 35.6564 41.3892 36.3749C41.7101 37.4358 42.3005 37.5702 43.3027 37.5198C43.5808 37.5061 43.6717 37.3244 43.6236 37.0839C43.5816 36.9153 43.5251 36.7505 43.4546 36.5913C43.0407 35.4989 42.5305 34.4411 42.2235 33.3078C42.1779 33.1666 42.169 33.0165 42.1978 32.8712C42.2266 32.7258 42.2921 32.5899 42.3882 32.4758C43.2075 31.4612 43.3508 30.2879 43.2182 29.0568C43.0931 27.9014 42.4299 27.2271 41.2406 27.0664C39.4672 26.8258 37.6864 26.9708 35.9076 27.0044C35.4103 27.0138 35.2819 27.2302 35.2884 27.6861C35.3012 29.2049 35.2873 30.7238 35.2862 32.2427V32.2437ZM15.499 32.2238C15.499 33.7605 15.5076 35.2982 15.499 36.8349C15.499 37.3213 15.699 37.5366 16.1985 37.5345C18.051 37.5271 19.9035 37.5219 21.7603 37.5429C22.4833 37.5513 22.9283 37.212 23.2246 36.6112C23.4855 36.086 23.3422 35.8276 22.7625 35.8759C21.202 36.0051 19.6276 35.8318 18.0724 36.0976C17.5697 36.1837 17.3633 35.9747 17.3536 35.4505C17.3429 34.8392 17.3782 34.2258 17.3387 33.6166C17.3077 33.1449 17.4456 32.9737 17.9526 32.9916C19.0029 33.0283 20.0543 32.9989 21.1057 33.0073C21.7475 33.0073 22.2491 32.8319 22.5208 32.2059C22.7828 31.603 22.6406 31.3656 21.9689 31.3656C20.5784 31.3656 19.188 31.3561 17.7975 31.3719C17.4563 31.3719 17.3216 31.2879 17.3387 30.9339C17.3724 30.3759 17.3724 29.8165 17.3387 29.2585C17.3012 28.7449 17.5119 28.5611 18.0125 28.5821C18.4746 28.602 18.9388 28.5737 19.403 28.5821C20.4362 28.5947 21.4694 28.6167 22.5047 28.6356C22.8074 28.6409 23.0919 28.6356 23.0887 28.2155C23.0887 27.6052 22.5646 27.0054 21.9421 26.9844C20.0009 26.9203 18.0585 26.9372 16.1172 27.0075C15.6819 27.0222 15.4958 27.2176 15.5022 27.6661C15.514 29.1839 15.5011 30.7028 15.5011 32.2227L15.499 32.2238ZM8.78524 37.6553C9.46206 37.6716 10.1391 37.6347 10.81 37.545C12.2443 37.3223 12.9363 36.7226 13.2176 35.4054C13.2753 35.0607 13.3089 34.7126 13.3181 34.3634C13.4368 32.7185 12.9972 32.1513 11.364 31.8299L11.257 31.8099C10.1447 31.5757 9.03124 31.3477 7.92102 31.103C7.66753 31.0463 7.39907 30.9864 7.25146 30.7217C6.86428 30.0316 7.31564 28.9056 8.0836 28.6903C8.7585 28.5012 9.45587 28.5043 10.1511 28.5054C10.9554 28.5054 11.749 28.6241 12.547 28.6903C12.9748 28.727 13.1288 28.5243 13.0411 28.1146C12.9831 27.822 12.8339 27.5544 12.6141 27.3489C12.3942 27.1434 12.1147 27.0101 11.8143 26.9676C10.5091 26.7706 9.18029 26.7802 7.87824 26.996C6.74234 27.1861 5.83213 27.7239 5.49307 28.893C5.31683 29.5349 5.25923 30.2027 5.32301 30.8645C5.415 32.0074 5.66421 32.3351 6.79154 32.6029C8.05365 32.9013 9.32538 33.1544 10.5886 33.4485C11.2806 33.6092 11.4218 33.8151 11.4143 34.5104C11.4046 35.2751 11.0934 35.7383 10.5105 35.8759C9.89653 36.0177 9.27083 35.9726 8.6494 35.981C7.73812 35.9946 6.83861 35.8759 5.93909 35.7446C5.65886 35.7058 5.38398 35.71 5.38398 36.1049C5.39853 36.4106 5.50919 36.7043 5.70074 36.9456C5.89228 37.187 6.15529 37.3641 6.45356 37.4526C7.21617 37.6437 8.00124 37.65 8.78524 37.6553ZM29.9255 37.6437C30.5763 37.6494 31.2268 37.6105 31.8721 37.5271C32.4989 37.4557 32.993 37.2015 33.2808 36.6354C33.3984 36.4043 33.5642 36.1459 33.4123 35.9001C33.2604 35.6543 32.9599 35.7783 32.7246 35.8003C31.3609 35.9295 29.9961 36.0955 28.6292 35.8549C27.8291 35.7142 27.2098 35.3571 26.9595 34.5188C26.644 33.458 26.6472 32.3813 26.7349 31.3026C26.8964 29.3226 27.6569 28.6251 29.6816 28.5358C30.7512 28.4886 31.8154 28.5779 32.8786 28.6892C33.4134 28.7449 33.5621 28.5348 33.3813 28.0338C33.1759 27.4613 32.7855 27.0695 32.162 26.9918C30.8733 26.8146 29.5654 26.8202 28.2783 27.0086C26.705 27.2575 25.6482 28.1136 25.1766 29.603C24.6043 31.416 24.6599 33.2521 25.1231 35.0756C25.4857 36.503 26.4825 37.2688 27.935 37.5093C28.5919 37.6222 29.259 37.6673 29.9255 37.6437Z" fill="#016263"/>
<path d="M20.2151 60.6073C18.7017 61.1566 17.2599 61.8677 15.7871 62.5064C13.9688 63.2942 12.159 64.1009 10.345 64.8981C10.247 64.9319 10.147 64.9599 10.0456 64.9821C10.0456 63.6565 10.0456 62.3698 10.0456 61.0831C10.0456 60.873 10.0883 60.6388 9.74072 60.6955C11.2798 60.0306 12.8233 59.3741 14.3581 58.6998C16.9914 57.5443 19.6172 56.3574 22.2527 55.1999C24.3244 54.2892 26.4101 53.4142 28.4819 52.4983C30.3109 51.6926 32.1238 50.8534 33.9517 50.0446C35.4705 49.3723 37.0011 48.7253 38.5242 48.0636C39.8034 47.5076 41.0815 46.9495 42.3586 46.3892C44.0133 45.6645 45.6861 44.9744 47.3183 44.2023C49.3333 43.2486 51.403 42.4167 53.4224 41.4713C55.4086 40.5417 57.4814 39.7907 59.4687 38.8622C60.8463 38.2204 62.2571 37.6542 63.6272 36.9967C65.1032 36.2845 66.6349 35.6827 68.1408 35.0241C69.8917 34.2562 71.6373 33.4768 73.3818 32.7006C73.4738 32.6586 73.5561 32.5956 73.7401 32.4811C72.9507 32.1187 72.2427 31.7847 71.5239 31.4622C69.2778 30.4549 67.0092 29.5232 64.7856 28.4802C62.9298 27.6083 61.0281 26.8311 59.1478 26.0149C57.5741 25.3286 56.0018 24.641 54.431 23.9519C51.8041 22.8028 49.1768 21.6533 46.5492 20.5035C44.5566 19.6254 42.5747 18.7231 40.581 17.8482C38.5402 16.9511 36.4727 16.1171 34.4501 15.177C32.3837 14.2191 30.2788 13.342 28.2027 12.4124C25.5748 11.237 22.9297 10.1016 20.2878 8.94613C18.6193 8.21086 16.9497 7.49029 15.2854 6.75187C13.5238 5.97038 11.7676 5.17629 10.0103 4.3864C10.0245 2.92566 10.0388 1.46388 10.053 0.0010376H10.16C10.3151 0.0840181 10.4659 0.176452 10.6263 0.247878C11.9811 0.8508 13.3406 1.45162 14.7046 2.05034C16.5058 2.83533 18.307 3.61752 20.1082 4.3969C21.4515 4.98442 22.7953 5.57194 24.1394 6.15945C26.7064 7.27916 29.2734 8.39257 31.8318 9.52069C34.4234 10.6551 37.0075 11.8158 39.5959 12.9523C42.7747 14.3462 45.961 15.7211 49.1398 17.115C51.6522 18.2158 54.1561 19.3386 56.6664 20.4437C58.7232 21.3501 60.7864 22.2409 62.8421 23.1452C65.5492 24.3364 68.2489 25.5401 70.956 26.7292C75.1245 28.5596 79.2937 30.3866 83.4636 32.2101C83.6187 32.2784 83.8786 32.3057 83.885 32.4811C83.8936 32.7027 83.6155 32.7227 83.4487 32.7962C79.852 34.3872 76.2532 35.9743 72.6523 37.5576C70.1741 38.65 67.6991 39.7498 65.2187 40.8369C63.0796 41.7749 60.9244 42.6898 58.7831 43.6299C56.1733 44.7769 53.5742 45.9491 50.9634 47.0962C47.7686 48.4984 44.5641 49.8786 41.3693 51.2788C38.7584 52.4237 36.1551 53.5896 33.5474 54.7377C32.773 55.0791 31.9901 55.4037 31.2136 55.7408C30.5127 56.0433 29.8153 56.3504 29.1215 56.662C27.5888 57.3448 26.0572 58.0275 24.5223 58.7134C23.0869 59.3458 21.6484 59.9749 20.2151 60.6073Z" fill="#009293"/>
<path d="M20.2151 60.6073C21.6526 59.9771 23.0912 59.3468 24.5266 58.7092C26.0614 58.0286 27.5931 57.3437 29.1258 56.6578C29.8217 56.349 30.5191 56.0427 31.2179 55.7388C31.9944 55.4016 32.7773 55.077 33.5517 54.7356C36.1593 53.5855 38.7627 52.4248 41.3735 51.2767C44.5684 49.8765 47.7728 48.4963 50.9677 47.0941C53.5785 45.9492 56.1776 44.7769 58.7874 43.6278C60.9265 42.6877 63.0807 41.7728 65.223 40.8348C67.7034 39.7477 70.1784 38.6479 72.6566 37.5555C76.2554 35.9694 79.8542 34.3823 83.4529 32.7941C83.6198 32.7206 83.8979 32.7006 83.8893 32.479C83.8829 32.3036 83.623 32.2763 83.4679 32.208C79.2973 30.3796 75.1266 28.5523 70.956 26.726C68.2489 25.537 65.5492 24.3333 62.8421 23.1421C60.7864 22.2377 58.7232 21.347 56.6664 20.4405C54.1561 19.3355 51.6522 18.2126 49.1398 17.1118C45.961 15.718 42.7747 14.343 39.5959 12.9492C37.0075 11.8158 34.4234 10.6551 31.8329 9.5186C29.2712 8.39259 26.6989 7.27918 24.1405 6.15736C22.7964 5.57265 21.4523 4.98583 20.1082 4.39692C20.2643 4.25722 20.2151 4.07445 20.2151 3.90639C20.2194 2.60391 20.2194 1.30178 20.2151 0H20.3221C21.8922 0.820352 23.5469 1.46319 25.1608 2.18901C27.392 3.19317 29.6402 4.16058 31.8821 5.14269C34.4633 6.27291 37.0439 7.40312 39.6237 8.53334C42.17 9.65375 44.7149 10.7784 47.2584 11.9072C49.4959 12.8945 51.7342 13.8798 53.9732 14.863C57.4472 16.3867 60.9219 17.9091 64.3973 19.43C66.7825 20.4755 69.1673 21.5228 71.5517 22.5718C75.2974 24.2251 79.0409 25.8808 82.7823 27.539C86.1251 29.0159 89.4686 30.4889 92.8128 31.958C93.1957 32.1261 93.5615 32.3498 93.9947 32.395V32.605C93.5348 32.6302 93.1626 32.8949 92.7636 33.0693C89.6618 34.4254 86.5729 35.8108 83.4743 37.1742C80.6934 38.3958 77.9125 39.5964 75.1316 40.8159C72.1122 42.1415 69.1003 43.4828 66.0819 44.8074C62.8382 46.2345 59.5938 47.6581 56.3487 49.0782C53.7347 50.2267 51.1224 51.3779 48.5119 52.5319C45.1549 54.0088 41.7967 55.4849 38.4375 56.9604C35.5026 58.2576 32.5784 59.5758 29.6424 60.8688C26.9011 62.0768 24.1469 63.2564 21.4066 64.4654C20.8002 64.7322 20.2012 64.979 20.2012 64.979L20.2151 63.6996C20.2151 63.6996 20.2151 61.6377 20.2151 60.6073Z" fill="#66C8C9"/>
<path d="M54.8255 32.188C54.7731 33.3014 54.7314 34.4464 54.2351 35.5304C53.7388 36.6143 52.9003 37.2708 51.727 37.5124C50.5549 37.7484 49.3481 37.7659 48.1695 37.5639C46.6561 37.3139 45.7213 36.4137 45.3448 34.9841C44.9265 33.351 44.9202 31.6424 45.3266 30.0064C45.7651 28.1503 46.9759 27.1094 48.9407 26.9172C49.8623 26.8186 50.7933 26.8444 51.7077 26.9939C53.4051 27.2838 54.3645 28.3058 54.6491 30.0641C54.7462 30.7685 54.8052 31.4775 54.8255 32.188ZM46.9203 32.3487C46.9128 33.1145 46.9695 33.8403 47.1909 34.5545C47.454 35.3948 48.0219 35.8612 48.9022 35.9799C49.5381 36.0522 50.1803 36.0547 50.8167 35.9873C51.7248 35.9127 52.2906 35.481 52.5698 34.6365C53.0843 33.0745 53.0201 31.5032 52.6318 29.9391C52.4511 29.2039 51.9387 28.7459 51.159 28.5925C50.373 28.429 49.5594 28.4419 48.7792 28.6304C48.13 28.7921 47.6294 29.1335 47.3556 29.7721C46.9994 30.6124 46.9021 31.4811 46.9203 32.3477V32.3487Z" fill="#F3FAFA"/>
<path d="M35.2866 32.2427C35.2866 30.7238 35.3016 29.2049 35.2791 27.6861C35.2727 27.2302 35.401 27.0138 35.8984 27.0044C37.6771 26.9708 39.458 26.8258 41.2313 27.0664C42.4207 27.2271 43.0839 27.8972 43.209 29.0568C43.3416 30.2879 43.1983 31.4612 42.379 32.4759C42.2828 32.5899 42.2173 32.7258 42.1886 32.8712C42.1598 33.0165 42.1686 33.1666 42.2143 33.3078C42.5212 34.4411 43.0314 35.4989 43.4454 36.5913C43.5159 36.7505 43.5724 36.9153 43.6144 37.0839C43.6614 37.3244 43.5705 37.5041 43.2935 37.5198C42.2913 37.5702 41.6966 37.4358 41.38 36.3749C41.1661 35.6564 40.8976 34.9527 40.6313 34.2489C40.457 33.7804 40.12 33.5084 39.5831 33.5136C38.9061 33.5189 38.229 33.5273 37.5509 33.5021C37.1787 33.4884 37.1038 33.6523 37.1092 33.9727C37.1231 34.918 37.1177 35.8581 37.1092 36.8003C37.1092 37.4494 37.0193 37.544 36.3765 37.5293C35.2417 37.5041 35.277 37.8034 35.277 36.4337L35.2866 32.2427ZM37.1049 30.2039C37.1049 30.6408 37.1145 31.0778 37.1049 31.5137C37.0974 31.8089 37.2268 31.9181 37.521 31.9118C38.3937 31.8939 39.2665 31.875 40.1393 31.8866C40.6741 31.8939 40.9597 31.5883 41.1447 31.1702C41.3725 30.6722 41.4408 30.118 41.3404 29.581C41.2067 28.8667 40.9554 28.622 40.2184 28.5537C39.3289 28.4858 38.4359 28.4711 37.5445 28.5096C37.2386 28.5169 37.0867 28.623 37.1017 28.9466C37.1209 29.3646 37.107 29.7848 37.106 30.2039H37.1049Z" fill="#F3FAFA"/>
<path d="M15.5015 32.2227C15.5015 30.7028 15.5143 29.1839 15.494 27.664C15.4876 27.2145 15.6737 27.0201 16.109 27.0054C18.0503 26.935 19.9927 26.9182 21.9339 26.9823C22.5564 27.0033 23.0752 27.6031 23.0805 28.2134C23.0805 28.6272 22.7992 28.6335 22.4965 28.6335C21.4633 28.6146 20.4301 28.5926 19.3948 28.58C18.9316 28.5736 18.4674 28.602 18.0043 28.58C17.5037 28.5589 17.293 28.7428 17.3305 29.2564C17.3642 29.8144 17.3642 30.3738 17.3305 30.9318C17.3134 31.2857 17.4481 31.374 17.7893 31.3698C19.1798 31.354 20.5702 31.3603 21.9607 31.3635C22.6324 31.3635 22.7746 31.603 22.5126 32.2038C22.2409 32.834 21.7361 33.0105 21.0975 33.0052C20.0461 32.9968 18.9947 33.0262 17.9444 32.9895C17.4396 32.9716 17.3027 33.1428 17.3305 33.6144C17.37 34.2237 17.3305 34.8371 17.3454 35.4484C17.3551 35.9736 17.5594 36.1837 18.0642 36.0955C19.6194 35.8297 21.1938 36.003 22.7543 35.8738C23.334 35.8255 23.4774 36.0839 23.2164 36.6091C22.9201 37.2099 22.4752 37.5492 21.7521 37.5408C19.8996 37.5198 18.0471 37.525 16.1903 37.5324C15.6908 37.5324 15.4865 37.3223 15.4908 36.8328C15.509 35.2972 15.5015 33.7636 15.5015 32.2227Z" fill="#F3FAFA"/>
<path d="M8.78552 37.6553C8.00151 37.649 7.21644 37.6438 6.45062 37.4505C6.15235 37.362 5.88934 37.1849 5.6978 36.9436C5.50625 36.7022 5.39559 36.4085 5.38104 36.1029C5.38104 35.7079 5.65592 35.7037 5.93615 35.7426C6.83567 35.8686 7.73519 35.9926 8.64647 35.9789C9.2679 35.9695 9.8936 36.0146 10.5075 35.8739C11.0926 35.7394 11.4017 35.2762 11.4113 34.5084C11.4188 33.813 11.2776 33.6071 10.5856 33.4464C9.32352 33.1523 8.05178 32.8992 6.79182 32.5967C5.66448 32.3257 5.41527 32.0011 5.32328 30.8583C5.2595 30.1964 5.3171 29.5286 5.49335 28.8867C5.8324 27.7176 6.74262 27.1798 7.87851 26.9897C9.18057 26.7739 10.5094 26.7643 11.8146 26.9613C12.1166 27.0025 12.398 27.1354 12.6194 27.3415C12.8407 27.5475 12.9909 27.8164 13.0489 28.1104C13.1366 28.5201 12.9879 28.7228 12.5547 28.6861C11.7568 28.6199 10.9632 28.5022 10.1589 28.5012C9.46363 28.5012 8.7684 28.5012 8.09136 28.6861C7.3234 28.8961 6.87204 30.0274 7.25922 30.7175C7.40683 30.9822 7.67529 31.0421 7.92878 31.0988C9.03901 31.3435 10.1524 31.5715 11.2648 31.8057L11.3718 31.8257C13.0061 32.1471 13.4446 32.7143 13.3259 34.3592C13.3167 34.7084 13.2831 35.0565 13.2253 35.4012C12.944 36.7184 12.252 37.3182 10.8177 37.5408C10.1445 37.6324 9.46495 37.6706 8.78552 37.6553Z" fill="#F3FAFA"/>
<path d="M29.9259 37.6437C29.2593 37.6659 28.5921 37.6194 27.9354 37.5051C26.4829 37.2645 25.4861 36.4988 25.1235 35.0713C24.6604 33.2479 24.6047 31.4118 25.177 29.5988C25.6486 28.1094 26.7054 27.2533 28.2787 27.0044C29.5658 26.816 30.8737 26.8104 32.1624 26.9876C32.7859 27.0653 33.1763 27.4571 33.3817 28.0295C33.5624 28.5306 33.4148 28.7407 32.879 28.685C31.8158 28.5736 30.7527 28.4844 29.682 28.5316C27.6573 28.6209 26.9011 29.3184 26.7353 31.2984C26.6476 32.3771 26.6444 33.4537 26.9599 34.5146C27.2102 35.3549 27.8295 35.71 28.6296 35.8507C29.9965 36.0913 31.3613 35.9253 32.725 35.7961C32.9603 35.774 33.2533 35.6333 33.4127 35.8959C33.5721 36.1585 33.3988 36.4043 33.2811 36.6312C32.9934 37.1973 32.4993 37.4515 31.8725 37.5229C31.2273 37.6077 30.5768 37.648 29.9259 37.6437Z" fill="#F3FAFA"/>
<path d="M46.9203 32.3477C46.9021 31.4811 46.9994 30.6072 47.3599 29.7669C47.6337 29.1283 48.1343 28.7869 48.7835 28.6251C49.5637 28.4367 50.3773 28.4238 51.1633 28.5873C51.943 28.7407 52.4553 29.2028 52.6361 29.9339C53.0244 31.498 53.0885 33.0693 52.5741 34.6313C52.2949 35.4716 51.7291 35.9075 50.821 35.9821C50.1846 36.0495 49.5424 36.047 48.9065 35.9747C48.022 35.856 47.454 35.3907 47.1952 34.5493C46.9695 33.8393 46.9128 33.1135 46.9203 32.3477Z" fill="#016263"/>
<path d="M37.106 30.2039C37.106 29.7837 37.121 29.3636 37.106 28.9434C37.091 28.6199 37.2429 28.5138 37.5488 28.5064C38.4402 28.468 39.3332 28.4827 40.2227 28.5506C40.9597 28.6188 41.211 28.8657 41.3447 29.5778C41.4451 30.1148 41.3768 30.6691 41.149 31.1671C40.964 31.5872 40.6805 31.8908 40.1436 31.8834C39.2708 31.8719 38.398 31.8908 37.5253 31.9086C37.2311 31.9149 37.0974 31.8036 37.1092 31.5105C37.1145 31.0778 37.106 30.6408 37.106 30.2039Z" fill="#016263"/>
</svg>
