<svg width="94" height="66" viewBox="0 0 94 66" fill="none" xmlns="http://www.w3.org/2000/svg">
<path d="M0.00506141 0H0.112019C0.890673 0.467147 1.74955 0.76578 2.57205 1.138C5.04813 2.25361 7.53276 3.35322 10.0142 4.45283C11.7715 5.25487 13.5278 6.06118 15.2894 6.85469C16.9536 7.60127 18.6232 8.34146 20.2918 9.08271C22.9294 10.2559 25.5744 11.4099 28.2067 12.6023C30.2849 13.5462 32.3877 14.4368 34.4541 15.4095C36.4756 16.3608 38.5442 17.2109 40.5849 18.1217C42.5786 19.0101 44.5605 19.9263 46.5532 20.8179C49.1772 21.9911 51.8044 23.1583 54.4349 24.3194C56.0079 25.0176 57.5787 25.7162 59.1475 26.4151C61.0278 27.2471 62.9295 28.0331 64.7852 28.9173C67.011 29.9763 69.2849 30.9224 71.5236 31.9452C72.2402 32.2726 72.9504 32.6118 73.7397 32.9797C73.5558 33.0949 73.4734 33.16 73.3814 33.2026C71.6348 33.9908 69.8893 34.7822 68.1405 35.5618C66.6356 36.2316 65.1029 36.8417 63.6237 37.5627C62.2492 38.2293 60.8427 38.8052 59.4683 39.4569C57.4811 40.3976 55.4039 41.1633 53.422 42.1062C51.4026 43.0661 49.333 43.9118 47.3179 44.8792C45.6857 45.6631 44.0129 46.3638 42.3583 47.0997C41.0812 47.6686 39.803 48.2353 38.5238 48.7998C37.0007 49.4717 35.4702 50.1287 33.9514 50.8113C32.1235 51.6326 30.3148 52.4847 28.4816 53.3028C26.4098 54.2285 24.3241 55.1159 22.2523 56.0459C19.6169 57.2191 16.9911 58.4211 14.3578 59.5997C12.8229 60.2865 11.2795 60.9531 9.74037 61.6261C9.58422 61.7114 9.4334 61.8063 9.2719 61.8789C6.93736 62.9262 4.60211 63.9711 2.26615 65.0134C1.53028 65.3409 0.789063 65.6534 0.00292225 65.9968V2.55438C-0.000286486 1.70327 -0.000286486 0.851104 0.00506141 0ZM54.8253 32.6832C54.8049 31.9618 54.746 31.2419 54.6488 30.5267C54.3643 28.7413 53.4049 27.7035 51.7075 27.4092C50.793 27.2574 49.862 27.2312 48.9405 27.3313C46.9757 27.5265 45.7649 28.5834 45.3264 30.468C44.92 32.1292 44.9262 33.8642 45.3445 35.5224C45.721 36.9739 46.6558 37.888 48.1693 38.1418C49.3479 38.3469 50.5547 38.3292 51.7267 38.0896C52.9033 37.8443 53.7365 37.1841 54.2349 36.077C54.7333 34.9699 54.7729 33.8127 54.8253 32.6832ZM35.2862 32.7398V36.9942C35.2862 38.3807 35.2509 38.081 36.3857 38.1066C37.0275 38.1216 37.1152 38.0256 37.1184 37.3664C37.1184 36.4065 37.128 35.452 37.1184 34.4953C37.1131 34.17 37.1879 34.0036 37.5601 34.0175C38.2361 34.0431 38.9132 34.0345 39.5923 34.0292C40.1271 34.0292 40.4662 34.3012 40.6405 34.7758C40.9026 35.4904 41.17 36.205 41.3892 36.9345C41.7101 38.0117 42.3005 38.1482 43.3027 38.097C43.5808 38.0832 43.6717 37.8986 43.6236 37.6544C43.5816 37.4832 43.5251 37.3158 43.4546 37.1542C43.0407 36.045 42.5305 34.971 42.2235 33.8202C42.1779 33.6769 42.169 33.5245 42.1978 33.3769C42.2266 33.2293 42.292 33.0913 42.3882 32.9755C43.2075 31.9452 43.3508 30.7539 43.2182 29.5039C43.0931 28.3307 42.4299 27.6459 41.2406 27.4828C39.4672 27.2385 37.6864 27.3857 35.9076 27.4198C35.4103 27.4294 35.2819 27.6491 35.2884 28.112C35.3012 29.6542 35.2873 31.1965 35.2862 32.7387V32.7398ZM15.499 32.7195C15.499 34.2799 15.5075 35.8413 15.499 37.4016C15.499 37.8954 15.699 38.1141 16.1985 38.112C18.051 38.1045 19.9035 38.0992 21.7603 38.1205C22.4833 38.129 22.9283 37.7845 23.2246 37.1745C23.4855 36.6412 23.3422 36.3788 22.7625 36.4279C21.202 36.5591 19.6276 36.3831 18.0724 36.6529C17.5697 36.7404 17.3633 36.5281 17.3536 35.9959C17.3429 35.3752 17.3782 34.7523 17.3387 34.1337C17.3077 33.6549 17.4456 33.481 17.9526 33.4991C19.0029 33.5365 20.0543 33.5066 21.1057 33.5151C21.7475 33.5151 22.2491 33.337 22.5208 32.7014C22.7828 32.0892 22.6406 31.8481 21.9689 31.8481C20.5784 31.8481 19.188 31.8385 17.7975 31.8545C17.4563 31.8545 17.3216 31.7692 17.3387 31.4098C17.3724 30.8432 17.3724 30.2752 17.3387 29.7086C17.3012 29.1871 17.5119 29.0005 18.0125 29.0218C18.4746 29.042 18.9388 29.0133 19.403 29.0218C20.4362 29.0346 21.4694 29.057 22.5047 29.0762C22.8074 29.0815 23.0919 29.0762 23.0887 28.6496C23.0887 28.0299 22.5646 27.4209 21.9421 27.3996C20.0009 27.3345 18.0585 27.3516 16.1172 27.423C15.6819 27.438 15.4958 27.6363 15.5022 28.0918C15.514 29.6329 15.5011 31.1751 15.5011 32.7184L15.499 32.7195ZM8.78524 38.2346C9.46206 38.2512 10.1391 38.2137 10.81 38.1226C12.2443 37.8965 12.9363 37.2875 13.2176 35.9501C13.2753 35.6001 13.3089 35.2466 13.3181 34.8921C13.4368 33.2218 12.9972 32.6459 11.364 32.3195L11.257 32.2993C10.1447 32.0614 9.03124 31.83 7.92102 31.5815C7.66753 31.5239 7.39907 31.4631 7.25146 31.1943C6.86428 30.4936 7.31564 29.3503 8.0836 29.1316C8.7585 28.9397 9.45587 28.9429 10.1511 28.9439C10.9554 28.9439 11.749 29.0644 12.547 29.1316C12.9748 29.169 13.1288 28.9631 13.0411 28.5472C12.9831 28.2501 12.8339 27.9783 12.6141 27.7696C12.3942 27.5609 12.1147 27.4256 11.8143 27.3825C10.5091 27.1824 9.18029 27.1922 7.87824 27.4113C6.74234 27.6043 5.83213 28.1504 5.49307 29.3375C5.31683 29.9893 5.25923 30.6673 5.32301 31.3394C5.415 32.4998 5.66421 32.8326 6.79154 33.1045C8.05365 33.4074 9.32538 33.6645 10.5886 33.9631C11.2806 34.1263 11.4218 34.3353 11.4143 35.0414C11.4046 35.8178 11.0934 36.2882 10.5105 36.4279C9.89653 36.5719 9.27083 36.526 8.6494 36.5345C7.73812 36.5484 6.83861 36.4279 5.93909 36.2946C5.65886 36.2551 5.38398 36.2594 5.38398 36.6604C5.39853 36.9707 5.50919 37.269 5.70074 37.514C5.89228 37.7591 6.15529 37.9389 6.45356 38.0288C7.21617 38.2229 8.00124 38.2293 8.78524 38.2346ZM29.9255 38.2229C30.5763 38.2286 31.2268 38.1891 31.8721 38.1045C32.4989 38.032 32.993 37.7739 33.2808 37.199C33.3984 36.9644 33.5642 36.702 33.4123 36.4524C33.2604 36.2028 32.9599 36.3287 32.7246 36.3511C31.3609 36.4823 29.9961 36.6508 28.6292 36.4065C27.8291 36.2636 27.2098 35.901 26.9595 35.0499C26.644 33.9727 26.6472 32.8795 26.7349 31.7841C26.8964 29.7737 27.6569 29.0655 29.6816 28.9749C30.7512 28.9269 31.8154 29.0175 32.8786 29.1306C33.4134 29.1871 33.5621 28.9738 33.3813 28.465C33.1759 27.8838 32.7855 27.486 32.162 27.407C30.8733 27.2271 29.5654 27.2329 28.2783 27.4241C26.705 27.6769 25.6482 28.5461 25.1765 30.0585C24.6043 31.8993 24.6599 33.7636 25.1231 35.6152C25.4857 37.0646 26.4825 37.8421 27.935 38.0864C28.5919 38.201 29.259 38.2468 29.9255 38.2229Z" fill="white"/>
<path d="M20.2151 61.5396C18.7017 62.0974 17.2599 62.8195 15.7871 63.4679C13.9688 64.2678 12.159 65.0869 10.345 65.8965C10.247 65.9308 10.147 65.9593 10.0456 65.9818C10.0456 64.6358 10.0456 63.3293 10.0456 62.0228C10.0456 61.8095 10.0883 61.5716 9.74072 61.6292C11.2798 60.9541 12.8233 60.2875 14.3581 59.6028C16.9914 58.4296 19.6172 57.2244 22.2527 56.049C24.3244 55.1243 26.4101 54.2359 28.4819 53.3059C30.3109 52.4878 32.1238 51.6357 33.9517 50.8144C35.4705 50.1318 37.0011 49.4748 38.5242 48.8029C39.8034 48.2384 41.0815 47.6717 42.3586 47.1028C44.0133 46.3669 45.6861 45.6662 47.3183 44.8823C49.3333 43.9139 51.403 43.0692 53.4224 42.1093C55.4086 41.1654 57.4814 40.4028 59.4687 39.46C60.8463 38.8083 62.2571 38.2334 63.6272 37.5658C65.1032 36.8427 66.6349 36.2315 68.1408 35.5628C69.8917 34.7832 71.6373 33.9918 73.3818 33.2036C73.4738 33.161 73.5561 33.097 73.7401 32.9807C72.9507 32.6128 72.2427 32.2736 71.5239 31.9462C69.2778 30.9233 67.0092 29.9773 64.7856 28.9182C62.9298 28.033 61.0281 27.2438 59.1478 26.4151C57.5741 25.7182 56.0018 25.02 54.431 24.3204C51.8041 23.1536 49.1768 21.9864 46.5492 20.8189C44.5566 19.9273 42.5747 19.0111 40.581 18.1227C38.5402 17.2118 36.4727 16.365 34.4501 15.4104C32.3837 14.4377 30.2788 13.5472 28.2027 12.6033C25.5748 11.4098 22.9297 10.2569 20.2878 9.08368C18.6193 8.3371 16.9497 7.60545 15.2854 6.85567C13.5238 6.06216 11.7676 5.25585 10.0103 4.45381C10.0245 2.9706 10.0388 1.48632 10.053 0.000976562H10.16C10.3151 0.0852337 10.4659 0.17909 10.6263 0.251615C11.9811 0.863812 13.3406 1.47388 14.7046 2.08181C16.5058 2.87887 18.307 3.67309 20.1082 4.46447C21.4515 5.06103 22.7953 5.65758 24.1394 6.25414C26.7064 7.39107 29.2734 8.52161 31.8318 9.66708C34.4234 10.819 37.0075 11.9975 39.5959 13.1515C42.7747 14.5668 45.961 15.9629 49.1398 17.3782C51.6522 18.496 54.1561 19.6361 56.6664 20.7581C58.7232 21.6785 60.7864 22.583 62.8421 23.5013C65.5492 24.7107 68.2489 25.933 70.956 27.1403C75.1245 28.9989 79.2937 30.854 83.4636 32.7055C83.6187 32.7749 83.8786 32.8026 83.885 32.9807C83.8936 33.2058 83.6155 33.226 83.4487 33.3007C79.852 34.9161 76.2532 36.5277 72.6523 38.1353C70.1741 39.2445 67.6991 40.3612 65.2187 41.4651C63.0796 42.4175 60.9244 43.3465 58.7831 44.301C56.1733 45.4657 53.5742 46.656 50.9634 47.8206C47.7686 49.2445 44.5641 50.6459 41.3693 52.0676C38.7584 53.2302 36.1551 54.414 33.5474 55.5798C32.773 55.9264 31.9901 56.2559 31.2136 56.5983C30.5127 56.9055 29.8153 57.2173 29.1215 57.5337C27.5888 58.2269 26.0572 58.9202 24.5223 59.6166C23.0869 60.2587 21.6484 60.8976 20.2151 61.5396Z" fill="white" fill-opacity="0.7"/>
<path d="M20.2151 61.5397C21.6526 60.8998 23.0912 60.2598 24.5266 59.6125C26.0614 58.9213 27.5931 58.2259 29.1258 57.5295C29.8217 57.2159 30.5191 56.9049 31.2179 56.5963C31.9944 56.2539 32.7773 55.9243 33.5517 55.5777C36.1593 54.4098 38.7627 53.2313 41.3735 52.0656C44.5684 50.6439 47.7728 49.2424 50.9677 47.8186C53.5785 46.6561 56.1776 45.4658 58.7874 44.299C60.9265 43.3444 63.0806 42.4155 65.223 41.463C67.7034 40.3592 70.1784 39.2425 72.6566 38.1333C76.2554 36.5228 79.8542 34.9112 83.4529 33.2986C83.6198 33.224 83.8979 33.2037 83.8893 32.9787C83.8829 32.8006 83.623 32.7728 83.4679 32.7035C79.2973 30.847 75.1266 28.9916 70.956 27.1372C68.2489 25.9299 65.5492 24.7076 62.8421 23.4981C60.7864 22.5798 58.7232 21.6754 56.6664 20.755C54.1561 19.633 51.6522 18.4928 49.1397 17.3751C45.961 15.9598 42.7747 14.5637 39.5959 13.1484C37.0075 11.9976 34.4234 10.819 31.8329 9.66504C29.2712 8.5217 26.6989 7.39116 24.1405 6.25209C22.7964 5.65838 21.4523 5.06254 20.1082 4.46456C20.2643 4.32271 20.2151 4.13713 20.2151 3.96648C20.2194 2.64397 20.2194 1.32181 20.2151 0H20.3221C21.8922 0.832972 23.5469 1.4857 25.1608 2.22268C27.392 3.2423 29.6402 4.22459 31.8821 5.22181C34.4633 6.36941 37.0439 7.51702 39.6237 8.66462C42.17 9.80227 44.7149 10.9442 47.2584 12.0904C49.4959 13.0929 51.7342 14.0933 53.9732 15.0916C57.4472 16.6388 60.9219 18.1846 64.3973 19.729C66.7825 20.7905 69.1673 21.8539 71.5517 22.919C75.2974 24.5977 79.0409 26.279 82.7823 27.9627C86.1251 29.4623 89.4686 30.9579 92.8128 32.4497C93.1957 32.6203 93.5615 32.8475 93.9947 32.8933V33.1067C93.5348 33.1323 93.1626 33.401 92.7636 33.5781C89.6618 34.955 86.5729 36.3618 83.4743 37.7461C80.6934 38.9865 77.9125 40.2056 75.1316 41.4438C72.1122 42.7898 69.1002 44.1518 66.0819 45.4967C62.8382 46.9458 59.5938 48.3913 56.3487 49.8333C53.7347 50.9994 51.1224 52.1683 48.5119 53.3401C45.1549 54.8397 41.7967 56.3385 38.4375 57.8367C35.5026 59.1538 32.5784 60.4924 29.6424 61.8053C26.9011 63.0318 24.1469 64.2295 21.4066 65.4571C20.8002 65.728 20.2012 65.9787 20.2012 65.9787L20.2151 64.6796C20.2151 64.6796 20.2151 62.586 20.2151 61.5397Z" fill="white" fill-opacity="0.5"/>
<path d="M54.8255 32.683C54.7731 33.8135 54.7314 34.9761 54.2351 36.0767C53.7388 37.1774 52.9003 37.844 51.727 38.0893C50.5549 38.3289 49.3481 38.3467 48.1695 38.1416C46.6561 37.8877 45.7213 36.9737 45.3448 35.5221C44.9265 33.8639 44.9202 32.1289 45.3266 30.4678C45.7651 28.5832 46.9759 27.5262 48.9407 27.3311C49.8623 27.2309 50.7933 27.2571 51.7077 27.4089C53.4051 27.7033 54.3645 28.741 54.6491 30.5264C54.7462 31.2416 54.8052 31.9615 54.8255 32.683ZM46.9203 32.8462C46.9128 33.6237 46.9695 34.3607 47.1909 35.0859C47.454 35.9391 48.0219 36.4127 48.9022 36.5332C49.5381 36.6066 50.1803 36.6091 50.8167 36.5407C51.7248 36.465 52.2906 36.0266 52.5698 35.1691C53.0843 33.5831 53.0201 31.9876 52.6318 30.3995C52.4511 29.6529 51.9387 29.1879 51.159 29.0322C50.373 28.8661 49.5594 28.8793 48.7792 29.0706C48.13 29.2348 47.6294 29.5815 47.3556 30.2299C46.9994 31.0832 46.9021 31.9652 46.9203 32.8451V32.8462Z" fill="#048F92"/>
<path d="M35.2866 32.7387C35.2866 31.1965 35.3016 29.6543 35.2791 28.1121C35.2727 27.6492 35.401 27.4295 35.8984 27.4199C37.6771 27.3857 39.458 27.2385 41.2313 27.4828C42.4207 27.646 43.0838 28.3264 43.209 29.5039C43.3416 30.7539 43.1983 31.9452 42.379 32.9755C42.2828 33.0913 42.2173 33.2293 42.1886 33.3769C42.1598 33.5245 42.1686 33.6769 42.2143 33.8202C42.5212 34.971 43.0314 36.045 43.4454 37.1542C43.5159 37.3159 43.5724 37.4832 43.6144 37.6545C43.6614 37.8987 43.5705 38.0811 43.2935 38.0971C42.2913 38.1483 41.6966 38.0117 41.38 36.9345C41.1661 36.205 40.8976 35.4904 40.6313 34.7758C40.457 34.3002 40.12 34.0239 39.5831 34.0293C38.9061 34.0346 38.229 34.0431 37.5509 34.0175C37.1787 34.0037 37.1038 34.17 37.1092 34.4953C37.1231 35.4552 37.1177 36.4098 37.1092 37.3665C37.1092 38.0256 37.0193 38.1216 36.3765 38.1067C35.2417 38.0811 35.277 38.385 35.277 36.9943L35.2866 32.7387ZM37.1049 30.6686C37.1049 31.1122 37.1145 31.5559 37.1049 31.9985C37.0974 32.2982 37.2268 32.4092 37.521 32.4028C38.3937 32.3846 39.2665 32.3654 40.1393 32.3772C40.6741 32.3846 40.9597 32.0743 41.1447 31.6498C41.3725 31.1441 41.4408 30.5813 41.3404 30.0361C41.2067 29.3108 40.9554 29.0623 40.2184 28.993C39.3289 28.9241 38.4359 28.9092 37.5445 28.9482C37.2386 28.9557 37.0867 29.0634 37.1017 29.3919C37.1209 29.8164 37.107 30.243 37.106 30.6686H37.1049Z" fill="#048F92"/>
<path d="M15.5015 32.7185C15.5015 31.1752 15.5143 29.633 15.494 28.0897C15.4876 27.6332 15.6737 27.4359 16.109 27.421C18.0503 27.3495 19.9927 27.3325 21.9339 27.3975C22.5564 27.4188 23.0752 28.0278 23.0805 28.6475C23.0805 29.0677 22.7992 29.0741 22.4965 29.0741C21.4633 29.0549 20.4301 29.0325 19.3948 29.0197C18.9316 29.0133 18.4674 29.0421 18.0043 29.0197C17.5037 28.9984 17.293 29.185 17.3305 29.7066C17.3642 30.2731 17.3642 30.8412 17.3305 31.4077C17.3134 31.7671 17.4481 31.8567 17.7893 31.8525C19.1798 31.8365 20.5702 31.8429 21.9607 31.8461C22.6324 31.8461 22.7746 32.0892 22.5126 32.6993C22.2409 33.3392 21.7361 33.5184 21.0975 33.5131C20.0461 33.5045 18.9947 33.5344 17.9444 33.4971C17.4396 33.479 17.3027 33.6528 17.3305 34.1317C17.37 34.7503 17.3305 35.3731 17.3454 35.9939C17.3551 36.5271 17.5594 36.7404 18.0642 36.6509C19.6194 36.381 21.1938 36.557 22.7543 36.4258C23.334 36.3768 23.4774 36.6391 23.2164 37.1724C22.9201 37.7825 22.4752 38.127 21.7521 38.1184C19.8996 38.0971 18.0471 38.1024 16.1903 38.1099C15.6908 38.1099 15.4865 37.8966 15.4908 37.3996C15.509 35.8403 15.5015 34.2831 15.5015 32.7185Z" fill="#048F92"/>
<path d="M8.78552 38.2346C8.00151 38.2282 7.21644 38.2229 6.45062 38.0266C6.15235 37.9368 5.88934 37.7569 5.6978 37.5119C5.50625 37.2668 5.39559 36.9686 5.38104 36.6582C5.38104 36.2572 5.65592 36.2529 5.93615 36.2924C6.83567 36.4204 7.73519 36.5462 8.64647 36.5324C9.2679 36.5228 9.8936 36.5686 10.5075 36.4257C11.0926 36.2892 11.4017 35.8189 11.4113 35.0392C11.4188 34.3332 11.2776 34.1241 10.5856 33.9609C9.32352 33.6623 8.05178 33.4053 6.79182 33.0981C5.66448 32.8229 5.41527 32.4934 5.32328 31.3329C5.2595 30.6609 5.3171 29.9828 5.49335 29.331C5.8324 28.144 6.74262 27.5979 7.87851 27.4048C9.18057 27.1857 10.5094 27.176 11.8146 27.376C12.1166 27.4179 12.398 27.5529 12.6194 27.7621C12.8407 27.9713 12.9909 28.2443 13.0489 28.5428C13.1366 28.9588 12.9879 29.1646 12.5547 29.1273C11.7568 29.0601 10.9632 28.9407 10.1589 28.9396C9.46363 28.9396 8.7684 28.9396 8.09136 29.1273C7.3234 29.3406 6.87204 30.4893 7.25923 31.19C7.40683 31.4588 7.67529 31.5196 7.92878 31.5772C9.03901 31.8257 10.1524 32.0571 11.2648 32.295L11.3718 32.3152C13.0061 32.6416 13.4446 33.2175 13.3259 34.8878C13.3167 35.2423 13.2831 35.5958 13.2253 35.9458C12.944 37.2832 12.252 37.8922 10.8177 38.1183C10.1445 38.2113 9.46495 38.2501 8.78552 38.2346Z" fill="#048F92"/>
<path d="M29.9259 38.2229C29.2593 38.2454 28.5921 38.1982 27.9354 38.0821C26.4829 37.8378 25.4861 37.0603 25.1235 35.6109C24.6604 33.7594 24.6047 31.895 25.177 30.0542C25.6486 28.5418 26.7054 27.6726 28.2787 27.4198C29.5658 27.2286 30.8737 27.2228 32.1624 27.4028C32.7859 27.4817 33.1763 27.8795 33.3817 28.4608C33.5624 28.9695 33.4148 29.1828 32.879 29.1263C31.8158 29.0132 30.7527 28.9226 29.682 28.9706C27.6573 29.0612 26.9011 29.7694 26.7353 31.7799C26.6476 32.8752 26.6444 33.9684 26.9599 35.0456C27.2102 35.8989 27.8295 36.2594 28.6296 36.4023C29.9965 36.6465 31.3613 36.478 32.725 36.3468C32.9603 36.3244 33.2533 36.1815 33.4127 36.4481C33.5721 36.7148 33.3988 36.9643 33.2811 37.1947C32.9934 37.7696 32.4993 38.0277 31.8725 38.1002C31.2273 38.1862 30.5768 38.2272 29.9259 38.2229Z" fill="#048F92"/>
<path d="M46.9203 32.8454C46.9021 31.9655 46.9994 31.0781 47.3599 30.2249C47.6337 29.5764 48.1343 29.2298 48.7835 29.0655C49.5637 28.8742 50.3773 28.8611 51.1633 29.0271C51.943 29.1829 52.4553 29.6521 52.6361 30.3945C53.0244 31.9826 53.0885 33.5781 52.5741 35.1641C52.2949 36.0173 51.7291 36.4599 50.821 36.5357C50.1846 36.6041 49.5424 36.6016 48.9065 36.5282C48.022 36.4077 47.454 35.9352 47.1952 35.0809C46.9695 34.3599 46.9128 33.6229 46.9203 32.8454Z" fill="white"/>
<path d="M37.106 30.6686C37.106 30.2419 37.121 29.8153 37.106 29.3887C37.091 29.0602 37.2429 28.9525 37.5488 28.945C38.4402 28.906 39.3332 28.9209 40.2227 28.9898C40.9597 29.0591 41.211 29.3098 41.3447 30.0329C41.4451 30.5781 41.3768 31.1409 41.149 31.6466C40.964 32.0732 40.6805 32.3814 40.1436 32.374C39.2708 32.3622 38.398 32.3814 37.5253 32.3996C37.2311 32.406 37.0974 32.2929 37.1092 31.9954C37.1145 31.5559 37.106 31.1122 37.106 30.6686Z" fill="white"/>
</svg>
