<svg width="1535" height="917" viewBox="0 0 1535 917" fill="none" xmlns="http://www.w3.org/2000/svg">
<mask id="mask0_209_124" style="mask-type:alpha" maskUnits="userSpaceOnUse" x="0" y="27" width="1535" height="890">
<path d="M1533.01 462.613L755.202 916.347L0.997165 481.996L778.607 28.5031L1533.01 462.613Z" fill="white" stroke="#BDBDBD"/>
</mask>
<g mask="url(#mask0_209_124)">
<path d="M1058.5 650.925L1061 652.425" stroke="black"/>
<g opacity="0.5">
<path d="M741.745 -19.3247L-74.4839 451.925" stroke="url(#paint0_linear_209_124)" stroke-linecap="square" stroke-linejoin="round"/>
<path d="M1068.67 169.425L252.441 640.675" stroke="url(#paint1_linear_209_124)" stroke-linecap="square" stroke-linejoin="round"/>
<path d="M1396.03 358.425L579.798 829.675" stroke="url(#paint2_linear_209_124)" stroke-linecap="square" stroke-linejoin="round"/>
<path d="M904.991 74.9253L88.7617 546.175" stroke="url(#paint3_linear_209_124)" stroke-linecap="square" stroke-linejoin="round"/>
<path d="M1232.35 263.925L416.12 735.175" stroke="url(#paint4_linear_209_124)" stroke-linecap="square" stroke-linejoin="round"/>
<path d="M1559.71 452.925L743.478 924.175" stroke="url(#paint5_linear_209_124)" stroke-linecap="square" stroke-linejoin="round"/>
<path d="M795.872 11.9253L-20.3574 483.175" stroke="url(#paint6_linear_209_124)" stroke-linecap="square" stroke-linejoin="round"/>
<path d="M1123.23 200.925L307 672.175" stroke="url(#paint7_linear_209_124)" stroke-linecap="square" stroke-linejoin="round"/>
<path d="M1450.59 389.925L634.358 861.175" stroke="url(#paint8_linear_209_124)" stroke-linecap="square" stroke-linejoin="round"/>
<path d="M959.55 106.425L143.321 577.675" stroke="url(#paint9_linear_209_124)" stroke-linecap="square" stroke-linejoin="round"/>
<path d="M1286.91 295.425L470.679 766.675" stroke="url(#paint10_linear_209_124)" stroke-linecap="square" stroke-linejoin="round"/>
<path d="M1614.27 484.425L798.038 955.675" stroke="url(#paint11_linear_209_124)" stroke-linecap="square" stroke-linejoin="round"/>
<path d="M850.431 43.4253L34.2022 514.675" stroke="url(#paint12_linear_209_124)" stroke-linecap="square" stroke-linejoin="round"/>
<path d="M1177.79 232.425L361.56 703.675" stroke="url(#paint13_linear_209_124)" stroke-linecap="square" stroke-linejoin="round"/>
<path d="M1505.15 421.425L688.917 892.675" stroke="url(#paint14_linear_209_124)" stroke-linecap="square" stroke-linejoin="round"/>
<path d="M1014.11 137.925L197.881 609.175" stroke="url(#paint15_linear_209_124)" stroke-linecap="square" stroke-linejoin="round"/>
<path d="M1341.47 326.925L525.239 798.175" stroke="url(#paint16_linear_209_124)" stroke-linecap="square" stroke-linejoin="round"/>
<path d="M1668.83 515.925L852.597 987.175" stroke="url(#paint17_linear_209_124)" stroke-linecap="square" stroke-linejoin="round"/>
<path d="M129.031 250.925L1193.81 865.675" stroke="url(#paint18_linear_209_124)" stroke-linecap="square" stroke-linejoin="round"/>
<path d="M445.997 67.9248L1510.78 682.675" stroke="url(#paint19_linear_209_124)" stroke-linecap="square" stroke-linejoin="round"/>
<path d="M-29.4512 342.425L1035.33 957.175" stroke="url(#paint20_linear_209_124)" stroke-linecap="square" stroke-linejoin="round"/>
<path d="M287.514 159.425L1352.29 774.175" stroke="url(#paint21_linear_209_124)" stroke-linecap="square" stroke-linejoin="round"/>
<path d="M181.859 220.425L1246.64 835.175" stroke="url(#paint22_linear_209_124)" stroke-linecap="square" stroke-linejoin="round"/>
<path d="M498.824 37.4248L1563.6 652.175" stroke="url(#paint23_linear_209_124)" stroke-linecap="square" stroke-linejoin="round"/>
<path d="M23.3765 311.925L1088.15 926.675" stroke="url(#paint24_linear_209_124)" stroke-linecap="square" stroke-linejoin="round"/>
<path d="M340.342 128.925L1405.12 743.675" stroke="url(#paint25_linear_209_124)" stroke-linecap="square" stroke-linejoin="round"/>
<path d="M234.687 189.925L1299.46 804.675" stroke="url(#paint26_linear_209_124)" stroke-linecap="square" stroke-linejoin="round"/>
<path d="M551.652 6.9248L1616.43 621.675" stroke="url(#paint27_linear_209_124)" stroke-linecap="square" stroke-linejoin="round"/>
<path d="M76.2041 281.425L1140.98 896.175" stroke="url(#paint28_linear_209_124)" stroke-linecap="square" stroke-linejoin="round"/>
<path d="M393.169 98.4248L1457.95 713.175" stroke="url(#paint29_linear_209_124)" stroke-linecap="square" stroke-linejoin="round"/>
</g>
</g>
<path d="M553.422 225.105C552.489 225.105 551.709 224.905 551.082 224.505C550.469 224.105 550.002 223.552 549.682 222.845C549.362 222.139 549.176 221.319 549.122 220.385L551.122 219.845C551.162 220.419 551.249 220.972 551.382 221.505C551.529 222.039 551.762 222.479 552.082 222.825C552.402 223.159 552.849 223.325 553.422 223.325C554.009 223.325 554.449 223.165 554.742 222.845C555.049 222.512 555.202 222.039 555.202 221.425C555.202 220.692 555.036 220.105 554.702 219.665C554.369 219.212 553.949 218.759 553.442 218.305L550.722 215.905C550.189 215.439 549.796 214.932 549.542 214.385C549.289 213.825 549.162 213.139 549.162 212.325C549.162 211.139 549.502 210.219 550.182 209.565C550.862 208.912 551.789 208.585 552.962 208.585C553.602 208.585 554.162 208.672 554.642 208.845C555.136 209.005 555.542 209.259 555.862 209.605C556.196 209.952 556.456 210.392 556.642 210.925C556.842 211.445 556.976 212.059 557.042 212.765L555.122 213.285C555.082 212.752 555.002 212.265 554.882 211.825C554.762 211.372 554.549 211.012 554.242 210.745C553.949 210.465 553.522 210.325 552.962 210.325C552.402 210.325 551.962 210.479 551.642 210.785C551.336 211.079 551.182 211.519 551.182 212.105C551.182 212.599 551.262 213.005 551.422 213.325C551.596 213.645 551.869 213.972 552.242 214.305L554.982 216.705C555.596 217.239 556.136 217.879 556.602 218.625C557.069 219.359 557.302 220.232 557.302 221.245C557.302 222.045 557.136 222.739 556.802 223.325C556.469 223.899 556.009 224.339 555.422 224.645C554.849 224.952 554.182 225.105 553.422 225.105ZM559.055 224.925V208.725H565.335V210.405H561.315V215.765H564.575V217.365H561.315V223.305H565.375V224.925H559.055ZM571.26 225.105C570.113 225.105 569.22 224.865 568.58 224.385C567.953 223.905 567.513 223.259 567.26 222.445C567.02 221.632 566.9 220.725 566.9 219.725V214.005C566.9 212.912 567.02 211.959 567.26 211.145C567.513 210.332 567.953 209.705 568.58 209.265C569.22 208.812 570.113 208.585 571.26 208.585C572.273 208.585 573.073 208.772 573.66 209.145C574.26 209.519 574.687 210.052 574.94 210.745C575.207 211.439 575.34 212.272 575.34 213.245V214.525H573.2V213.385C573.2 212.785 573.167 212.259 573.1 211.805C573.047 211.339 572.887 210.979 572.62 210.725C572.353 210.472 571.907 210.345 571.28 210.345C570.64 210.345 570.173 210.485 569.88 210.765C569.587 211.032 569.393 211.419 569.3 211.925C569.22 212.419 569.18 212.999 569.18 213.665V220.085C569.18 220.899 569.247 221.545 569.38 222.025C569.513 222.492 569.733 222.825 570.04 223.025C570.347 223.225 570.76 223.325 571.28 223.325C571.893 223.325 572.333 223.192 572.6 222.925C572.867 222.645 573.033 222.265 573.1 221.785C573.167 221.305 573.2 220.745 573.2 220.105V218.905H575.34V220.105C575.34 221.092 575.22 221.965 574.98 222.725C574.74 223.472 574.327 224.059 573.74 224.485C573.153 224.899 572.327 225.105 571.26 225.105ZM577.493 224.925V208.725H580.753C581.833 208.725 582.726 208.872 583.433 209.165C584.14 209.445 584.66 209.905 584.993 210.545C585.34 211.172 585.513 211.999 585.513 213.025C585.513 213.652 585.446 214.225 585.313 214.745C585.18 215.252 584.966 215.685 584.673 216.045C584.38 216.392 583.993 216.645 583.513 216.805L585.813 224.925H583.633L581.513 217.325H579.753V224.925H577.493ZM579.753 215.705H580.613C581.253 215.705 581.773 215.625 582.173 215.465C582.573 215.305 582.866 215.032 583.053 214.645C583.24 214.259 583.333 213.719 583.333 213.025C583.333 212.079 583.16 211.399 582.813 210.985C582.466 210.559 581.78 210.345 580.753 210.345H579.753V215.705ZM592.004 225.105C590.911 225.105 590.037 224.892 589.384 224.465C588.731 224.039 588.264 223.432 587.984 222.645C587.704 221.845 587.564 220.912 587.564 219.845V213.705C587.564 212.639 587.704 211.725 587.984 210.965C588.277 210.192 588.744 209.605 589.384 209.205C590.037 208.792 590.911 208.585 592.004 208.585C593.097 208.585 593.964 208.792 594.604 209.205C595.244 209.619 595.704 210.205 595.984 210.965C596.277 211.725 596.424 212.639 596.424 213.705V219.865C596.424 220.919 596.277 221.839 595.984 222.625C595.704 223.412 595.244 224.025 594.604 224.465C593.964 224.892 593.097 225.105 592.004 225.105ZM592.004 223.325C592.604 223.325 593.057 223.205 593.364 222.965C593.671 222.712 593.877 222.365 593.984 221.925C594.091 221.472 594.144 220.945 594.144 220.345V213.245C594.144 212.645 594.091 212.132 593.984 211.705C593.877 211.265 593.671 210.932 593.364 210.705C593.057 210.465 592.604 210.345 592.004 210.345C591.404 210.345 590.944 210.465 590.624 210.705C590.317 210.932 590.111 211.265 590.004 211.705C589.897 212.132 589.844 212.645 589.844 213.245V220.345C589.844 220.945 589.897 221.472 590.004 221.925C590.111 222.365 590.317 222.712 590.624 222.965C590.944 223.205 591.404 223.325 592.004 223.325ZM607.036 225.105C606.102 225.105 605.322 224.905 604.696 224.505C604.082 224.105 603.616 223.552 603.296 222.845C602.976 222.139 602.789 221.319 602.736 220.385L604.736 219.845C604.776 220.419 604.862 220.972 604.996 221.505C605.142 222.039 605.376 222.479 605.696 222.825C606.016 223.159 606.462 223.325 607.036 223.325C607.622 223.325 608.062 223.165 608.356 222.845C608.662 222.512 608.816 222.039 608.816 221.425C608.816 220.692 608.649 220.105 608.316 219.665C607.982 219.212 607.562 218.759 607.056 218.305L604.336 215.905C603.802 215.439 603.409 214.932 603.156 214.385C602.902 213.825 602.776 213.139 602.776 212.325C602.776 211.139 603.116 210.219 603.796 209.565C604.476 208.912 605.402 208.585 606.576 208.585C607.216 208.585 607.776 208.672 608.256 208.845C608.749 209.005 609.156 209.259 609.476 209.605C609.809 209.952 610.069 210.392 610.256 210.925C610.456 211.445 610.589 212.059 610.656 212.765L608.736 213.285C608.696 212.752 608.616 212.265 608.496 211.825C608.376 211.372 608.162 211.012 607.856 210.745C607.562 210.465 607.136 210.325 606.576 210.325C606.016 210.325 605.576 210.479 605.256 210.785C604.949 211.079 604.796 211.519 604.796 212.105C604.796 212.599 604.876 213.005 605.036 213.325C605.209 213.645 605.482 213.972 605.856 214.305L608.596 216.705C609.209 217.239 609.749 217.879 610.216 218.625C610.682 219.359 610.916 220.232 610.916 221.245C610.916 222.045 610.749 222.739 610.416 223.325C610.082 223.899 609.622 224.339 609.036 224.645C608.462 224.952 607.796 225.105 607.036 225.105ZM611.789 224.925L615.229 208.725H617.409L620.869 224.925H618.729L617.989 220.845H614.689L613.909 224.925H611.789ZM614.989 219.225H617.689L616.329 211.925L614.989 219.225ZM622.512 224.925V208.725H628.772V210.345H624.772V215.745H627.872V217.345H624.772V224.925H622.512ZM630.325 224.925V208.725H636.605V210.405H632.585V215.765H635.845V217.365H632.585V223.305H636.645V224.925H630.325ZM640.249 224.925V210.405H637.509V208.725H645.169V210.405H642.509V224.925H640.249ZM649.211 224.925V219.205L645.711 208.725H647.811L650.291 216.545L652.731 208.725H654.851L651.371 219.205V224.925H649.211ZM549.602 252.925V236.725H555.862V238.345H551.862V243.745H554.962V245.345H551.862V252.925H549.602ZM557.535 252.925V236.725H559.755V252.925H557.535ZM562.376 252.925V236.725H565.636C566.716 236.725 567.609 236.872 568.316 237.165C569.022 237.445 569.542 237.905 569.876 238.545C570.222 239.172 570.396 239.999 570.396 241.025C570.396 241.652 570.329 242.225 570.196 242.745C570.062 243.252 569.849 243.685 569.556 244.045C569.262 244.392 568.876 244.645 568.396 244.805L570.696 252.925H568.516L566.396 245.325H564.636V252.925H562.376ZM564.636 243.705H565.496C566.136 243.705 566.656 243.625 567.056 243.465C567.456 243.305 567.749 243.032 567.936 242.645C568.122 242.259 568.216 241.719 568.216 241.025C568.216 240.079 568.042 239.399 567.696 238.985C567.349 238.559 566.662 238.345 565.636 238.345H564.636V243.705ZM572.747 252.925V236.725H579.027V238.405H575.007V243.765H578.267V245.365H575.007V251.305H579.067V252.925H572.747ZM582.991 252.925L580.351 236.725H582.231L583.971 248.365L586.151 236.785H587.751L589.951 248.425L591.651 236.725H593.491L590.891 252.925H589.251L586.991 240.925L584.711 252.925H582.991ZM593.976 252.925L597.416 236.725H599.596L603.056 252.925H600.916L600.176 248.845H596.876L596.096 252.925H593.976ZM597.176 247.225H599.876L598.516 239.925L597.176 247.225ZM604.7 252.925V236.725H606.96V251.305H611.1V252.925H604.7ZM612.649 252.925V236.725H614.909V251.305H619.049V252.925H612.649Z" fill="black"/>
<circle r="12.7847" transform="matrix(0.866025 0.5 -0.866025 0.5 535.486 370.71)" fill="#048F92" fill-opacity="0.12"/>
<circle r="5.77353" transform="matrix(0.866025 0.5 -0.866025 0.5 535.342 369.925)" fill="#048F92"/>
<path d="M534.842 368.925L534.842 369.425L535.842 369.425L535.842 368.925L534.842 368.925ZM535.842 223.925L535.842 223.425L534.842 223.425L534.842 223.925L535.842 223.925ZM534.842 225.939L534.842 226.439L535.842 226.439L535.842 225.939L534.842 225.939ZM535.842 229.967L535.842 229.467L534.842 229.467L534.842 229.967L535.842 229.967ZM534.842 233.995L534.842 234.495L535.842 234.495L535.842 233.995L534.842 233.995ZM535.842 238.023L535.842 237.523L534.842 237.523L534.842 238.023L535.842 238.023ZM534.842 242.05L534.842 242.55L535.842 242.55L535.842 242.05L534.842 242.05ZM535.842 246.078L535.842 245.578L534.842 245.578L534.842 246.078L535.842 246.078ZM534.842 250.106L534.842 250.606L535.842 250.606L535.842 250.106L534.842 250.106ZM535.842 254.134L535.842 253.634L534.842 253.634L534.842 254.134L535.842 254.134ZM534.842 258.161L534.842 258.661L535.842 258.661L535.842 258.161L534.842 258.161ZM535.842 262.189L535.842 261.689L534.842 261.689L534.842 262.189L535.842 262.189ZM534.842 266.217L534.842 266.717L535.842 266.717L535.842 266.217L534.842 266.217ZM535.842 270.245L535.842 269.745L534.842 269.745L534.842 270.245L535.842 270.245ZM534.842 274.273L534.842 274.773L535.842 274.773L535.842 274.273L534.842 274.273ZM535.842 278.3L535.842 277.8L534.842 277.8L534.842 278.3L535.842 278.3ZM534.842 282.328L534.842 282.828L535.842 282.828L535.842 282.328L534.842 282.328ZM535.842 286.356L535.842 285.856L534.842 285.856L534.842 286.356L535.842 286.356ZM534.842 290.384L534.842 290.884L535.842 290.884L535.842 290.384L534.842 290.384ZM535.842 294.411L535.842 293.911L534.842 293.911L534.842 294.411L535.842 294.411ZM534.842 298.439L534.842 298.939L535.842 298.939L535.842 298.439L534.842 298.439ZM535.842 302.467L535.842 301.967L534.842 301.967L534.842 302.467L535.842 302.467ZM534.842 306.495L534.842 306.995L535.842 306.995L535.842 306.495L534.842 306.495ZM535.842 310.523L535.842 310.023L534.842 310.023L534.842 310.523L535.842 310.523ZM534.842 314.55L534.842 315.05L535.842 315.05L535.842 314.55L534.842 314.55ZM535.842 318.578L535.842 318.078L534.842 318.078L534.842 318.578L535.842 318.578ZM534.842 322.606L534.842 323.106L535.842 323.106L535.842 322.606L534.842 322.606ZM535.842 326.634L535.842 326.134L534.842 326.134L534.842 326.634L535.842 326.634ZM534.842 330.661L534.842 331.161L535.842 331.161L535.842 330.661L534.842 330.661ZM535.842 334.689L535.842 334.189L534.842 334.189L534.842 334.689L535.842 334.689ZM534.842 338.717L534.842 339.217L535.842 339.217L535.842 338.717L534.842 338.717ZM535.842 342.745L535.842 342.245L534.842 342.245L534.842 342.745L535.842 342.745ZM534.842 346.773L534.842 347.273L535.842 347.273L535.842 346.773L534.842 346.773ZM535.842 350.8L535.842 350.3L534.842 350.3L534.842 350.8L535.842 350.8ZM534.842 354.828L534.842 355.328L535.842 355.328L535.842 354.828L534.842 354.828ZM535.842 358.856L535.842 358.356L534.842 358.356L534.842 358.856L535.842 358.856ZM534.842 362.884L534.842 363.384L535.842 363.384L535.842 362.884L534.842 362.884ZM535.842 366.911L535.842 366.411L534.842 366.411L534.842 366.911L535.842 366.911ZM534.842 223.925L534.842 225.939L535.842 225.939L535.842 223.925L534.842 223.925ZM534.842 229.967L534.842 233.995L535.842 233.995L535.842 229.967L534.842 229.967ZM534.842 238.023L534.842 242.05L535.842 242.05L535.842 238.023L534.842 238.023ZM534.842 246.078L534.842 250.106L535.842 250.106L535.842 246.078L534.842 246.078ZM534.842 254.134L534.842 258.161L535.842 258.161L535.842 254.134L534.842 254.134ZM534.842 262.189L534.842 266.217L535.842 266.217L535.842 262.189L534.842 262.189ZM534.842 270.245L534.842 274.273L535.842 274.273L535.842 270.245L534.842 270.245ZM534.842 278.3L534.842 282.328L535.842 282.328L535.842 278.3L534.842 278.3ZM534.842 286.356L534.842 290.384L535.842 290.384L535.842 286.356L534.842 286.356ZM534.842 294.411L534.842 298.439L535.842 298.439L535.842 294.411L534.842 294.411ZM534.842 302.467L534.842 306.495L535.842 306.495L535.842 302.467L534.842 302.467ZM534.842 310.523L534.842 314.55L535.842 314.55L535.842 310.523L534.842 310.523ZM534.842 318.578L534.842 322.606L535.842 322.606L535.842 318.578L534.842 318.578ZM534.842 326.634L534.842 330.661L535.842 330.661L535.842 326.634L534.842 326.634ZM534.842 334.689L534.842 338.717L535.842 338.717L535.842 334.689L534.842 334.689ZM534.842 342.745L534.842 346.773L535.842 346.773L535.842 342.745L534.842 342.745ZM534.842 350.8L534.842 354.828L535.842 354.828L535.842 350.8L534.842 350.8ZM534.842 358.856L534.842 362.884L535.842 362.884L535.842 358.856L534.842 358.856ZM534.842 366.911L534.842 368.925L535.842 368.925L535.842 366.911L534.842 366.911Z" fill="#048F92"/>
<rect width="2" height="57" transform="translate(534.342 201.925)" fill="#048F92"/>
<circle cx="535" cy="189" r="16" fill="#048F92"/>
<circle cx="535" cy="189" r="13" fill="white"/>
<path d="M528.152 182.355L535 180.833L541.847 182.355C542.033 182.396 542.198 182.499 542.317 182.647C542.435 182.795 542.5 182.979 542.5 183.168V191.491C542.5 192.314 542.297 193.124 541.908 193.85C541.52 194.576 540.958 195.194 540.273 195.651L535 199.167L529.727 195.651C529.042 195.195 528.48 194.576 528.092 193.851C527.704 193.125 527.5 192.315 527.5 191.492V183.168C527.5 182.979 527.565 182.795 527.683 182.647C527.802 182.499 527.967 182.396 528.152 182.355ZM535.833 188.333V184.167L531.667 190H534.167V194.167L538.333 188.333H535.833Z" fill="black"/>
<path d="M800.845 217.424L800.845 273.924L1101.34 447.137L1101.34 390.637L800.845 217.424Z" fill="white" stroke="#BDBDBD"/>
<path d="M1149.84 454.425L1131.34 464.925L1131.34 436.675L1149.84 426.175L1149.84 454.425Z" fill="white" stroke="#BDBDBD"/>
<path d="M1131.34 436.696L1150.34 426.425L1120.03 408.925L1101.34 419.419L1131.34 436.696Z" fill="white" stroke="#BDBDBD"/>
<path d="M1120.34 408.675L1101.34 419.675L1101.34 390.925L1120.34 380.425L1120.34 408.675Z" fill="white" stroke="#BDBDBD"/>
<path d="M385.343 513.426L385.343 484.926C415.308 467.654 445.341 450.412 471.342 435.425L471.342 407.355L800.843 217.426L800.843 273.426L385.343 513.426Z" fill="white" stroke="#BDBDBD"/>
<path d="M819.843 206.926L801.344 217.926L1101.34 390.696L1120.34 380.425L819.843 206.926Z" fill="white" stroke="#BDBDBD"/>
<path d="M367.343 502.926L385.343 513.426L385.343 484.926L367.343 475.426L367.343 502.926Z" fill="white" stroke="#BDBDBD"/>
<path d="M731.347 285.113L731.347 256.863L783.285 226.926L783.285 255.145L731.347 285.113Z" fill="white" stroke="#BDBDBD"/>
<path d="M627.347 345.113L627.347 316.863L679.284 286.926L679.284 315.145L627.347 345.113Z" fill="white" stroke="#BDBDBD"/>
<path d="M471.347 435.113L471.347 406.863L523.284 376.926L523.284 405.145L471.347 435.113Z" fill="white" stroke="#BDBDBD"/>
<path d="M679.347 315.113L679.347 286.863L731.284 256.926L731.284 285.145L679.347 315.113Z" fill="white" stroke="#BDBDBD"/>
<path d="M523.347 405.113L523.347 376.863L575.285 346.926L575.285 375.145L523.347 405.113Z" fill="white" stroke="#BDBDBD"/>
<path d="M575.347 375.113L575.347 346.863L627.284 316.926L627.284 345.145L575.347 375.113Z" fill="white" stroke="#BDBDBD"/>
<path d="M782.965 256.114L782.965 227.864L801.341 217.271L801.341 245.51L782.965 256.114Z" fill="white" stroke="#BDBDBD"/>
<path d="M803.343 197.426L819.843 206.926L471.342 407.444L454.342 397.425L803.343 197.426Z" fill="white" stroke="#BDBDBD"/>
<path d="M767.96 236.802L767.96 208.552L819.897 178.615L819.897 206.833L767.96 236.802Z" fill="white" stroke="#BDBDBD"/>
<path d="M767.96 208.552L749.96 199.052L802.171 169.115L819.897 178.669L767.96 208.552Z" fill="white" stroke="#BDBDBD"/>
<path d="M767.96 208.552L749.96 199.052L749.96 226.802L767.96 236.802L767.96 208.552Z" fill="white" stroke="#BDBDBD"/>
<path d="M715.961 266.803L715.961 238.553L767.898 208.615L767.898 236.834L715.961 266.803Z" fill="white" stroke="#BDBDBD"/>
<path d="M715.961 238.553L697.961 229.053L750.172 199.115L767.898 208.669L715.961 238.553Z" fill="white" stroke="#BDBDBD"/>
<path d="M715.961 238.552L697.961 229.052L697.961 256.802L715.961 266.802L715.961 238.552Z" fill="white" stroke="#BDBDBD"/>
<path d="M663.96 296.802L663.96 268.552L715.898 238.615L715.898 266.833L663.96 296.802Z" fill="white" stroke="#BDBDBD"/>
<path d="M663.96 268.552L645.96 259.052L698.171 229.115L715.898 238.669L663.96 268.552Z" fill="white" stroke="#BDBDBD"/>
<path d="M663.96 268.552L645.96 259.052L645.96 286.802L663.96 296.802L663.96 268.552Z" fill="white" stroke="#BDBDBD"/>
<path d="M852.899 247.802L852.899 219.552L800.961 189.614L800.961 217.833L852.899 247.802Z" fill="white" stroke="#BDBDBD"/>
<path d="M852.899 219.552L872.342 208.925L819.842 178.925L800.961 189.668L852.899 219.552Z" fill="white" stroke="#BDBDBD"/>
<path d="M852.898 219.552L872.342 209.425L872.342 237.175L852.898 247.802L852.898 219.552Z" fill="white" stroke="#BDBDBD"/>
<path d="M904.928 277.408L904.928 249.158L852.991 219.221L852.991 247.439L904.928 277.408Z" fill="white" stroke="#BDBDBD"/>
<path d="M904.928 249.158L924.372 239.031L871.872 208.531L852.991 219.275L904.928 249.158Z" fill="white" stroke="#BDBDBD"/>
<path d="M904.928 249.158L924.372 239.031L924.372 266.781L904.928 277.408L904.928 249.158Z" fill="white" stroke="#BDBDBD"/>
<path d="M956.929 307.408L956.929 279.158L904.991 249.221L904.991 277.439L956.929 307.408Z" fill="white" stroke="#BDBDBD"/>
<path d="M956.929 279.158L976.372 269.031L923.872 238.531L904.991 249.275L956.929 279.158Z" fill="white" stroke="#BDBDBD"/>
<path d="M956.928 279.158L976.372 269.031L976.372 296.781L956.928 307.408L956.928 279.158Z" fill="white" stroke="#BDBDBD"/>
<path d="M841.342 268.925L841.342 240.675L801.342 217.925L801.342 246.144L841.342 268.925Z" fill="white" stroke="#BDBDBD"/>
<path d="M819.719 284.768L819.719 256.518L801.342 245.925L801.342 274.164L819.719 284.768Z" fill="white" stroke="#BDBDBD"/>
<path d="M893.28 299.113L893.28 270.863L841.342 240.925L841.342 269.144L893.28 299.113Z" fill="white" stroke="#BDBDBD"/>
<path d="M945.28 329.113L945.28 300.863L893.342 270.925L893.342 299.144L945.28 329.113Z" fill="white" stroke="#BDBDBD"/>
<path d="M997.28 359.113L997.28 330.863L945.342 300.925L945.342 329.144L997.28 359.113Z" fill="white" stroke="#BDBDBD"/>
<path d="M1049.28 389.113L1049.28 360.863L997.342 330.925L997.342 359.144L1049.28 389.113Z" fill="white" stroke="#BDBDBD"/>
<path d="M1101.28 419.113L1101.28 390.863L1049.34 360.925L1049.34 389.144L1101.28 419.113Z" fill="white" stroke="#BDBDBD"/>
<path d="M871.28 314.112L871.28 286.363L819.342 256.425L819.342 284.143L871.28 314.112Z" fill="white" stroke="#BDBDBD"/>
<path d="M923.28 344.612L923.28 316.863L871.342 286.925L871.342 314.643L923.28 344.612Z" fill="white" stroke="#BDBDBD"/>
<path d="M975.28 374.612L975.28 346.863L923.342 316.925L923.342 344.643L975.28 374.612Z" fill="white" stroke="#BDBDBD"/>
<path d="M1027.28 404.612L1027.28 376.863L975.342 346.925L975.342 374.643L1027.28 404.612Z" fill="white" stroke="#BDBDBD"/>
<path d="M1079.28 434.612L1079.28 406.863L1027.34 376.925L1027.34 404.643L1079.28 434.612Z" fill="white" stroke="#BDBDBD"/>
<path d="M1131.28 464.612L1131.28 436.863L1079.34 406.925L1079.34 434.643L1131.28 464.612Z" fill="white" stroke="#BDBDBD"/>
<path d="M749.342 303.113L749.342 274.863L801.28 244.925L801.28 273.144L749.342 303.113Z" fill="white" stroke="#BDBDBD"/>
<path d="M645.342 363.113L645.342 334.863L697.28 304.925L697.28 333.144L645.342 363.113Z" fill="white" stroke="#BDBDBD"/>
<path d="M541.342 423.113L541.342 394.863L593.28 364.925L593.28 393.144L541.342 423.113Z" fill="white" stroke="#BDBDBD"/>
<path d="M437.342 483.113L437.342 454.863L489.28 424.925L489.28 453.144L437.342 483.113Z" fill="white" stroke="#BDBDBD"/>
<path d="M454.342 424.972L471.342 434.925L471.342 407.425L454.342 397.425L454.342 424.972Z" fill="white" stroke="#BDBDBD"/>
<path d="M697.342 333.113L697.342 304.863L749.28 274.925L749.28 303.144L697.342 333.113Z" fill="white" stroke="#BDBDBD"/>
<path d="M593.342 393.113L593.342 364.863L645.28 334.925L645.28 363.144L593.342 393.113Z" fill="white" stroke="#BDBDBD"/>
<path d="M489.342 453.113L489.342 424.863L541.28 394.925L541.28 423.144L489.342 453.113Z" fill="white" stroke="#BDBDBD"/>
<path d="M385.342 513.113L385.342 484.863L437.28 454.925L437.28 483.144L385.342 513.113Z" fill="white" stroke="#BDBDBD"/>
<path d="M471.842 434.925L385.342 484.925L367.342 475.425L454.342 424.425L471.842 434.925Z" fill="white" stroke="#BDBDBD"/>
<path d="M545.342 531.925L510.342 551.925L750.342 687.925L852.342 630.425" stroke="#048F92" stroke-linecap="square" stroke-linejoin="round" stroke-dasharray="4 6"/>
<path d="M632.842 477.425L816.342 370.925L849.5 390" stroke="#048F92" stroke-linecap="square" stroke-linejoin="round" stroke-dasharray="4 6"/>
<path d="M920.5 431.5L1060.34 511.425L940.842 579.925" stroke="#048F92" stroke-linecap="square" stroke-linejoin="round" stroke-dasharray="4 6"/>
<path opacity="0.7" d="M786.712 563.471L829.034 539.333L779.327 475.671L713.958 514.272C706.067 518.931 706.1 530.359 714.018 534.973L762.739 563.36C770.138 567.671 779.273 567.713 786.712 563.471Z" fill="#E8E8E8"/>
<path d="M755.073 466.493C755.073 465.576 755.837 463.307 756.22 462.288L801.335 438.965L845.304 463.817V469.552V479.11L843.774 482.551L845.304 486.375V502.815L844.157 505.874L845.304 508.933V525.755L844.157 528.432L841.098 531.49L815.482 546.401L807.835 549.842L798.659 550.989L792.159 549.842L786.424 547.166L760.043 531.873L756.602 528.814L755.073 525.373V507.786L756.602 505.874L755.073 502.433V485.228L756.602 482.169L755.073 478.728V466.493Z" fill="white"/>
<path d="M768.531 475.014C761.144 470.731 757.45 468.59 756.066 466.121C755.458 465.035 755.153 463.907 755.153 462.779C755.153 461.651 755.458 460.523 756.066 459.437C757.45 456.968 761.144 454.827 768.531 450.544L779.084 444.427C786.471 440.144 790.165 438.003 794.424 437.201C798.171 436.495 802.207 436.495 805.953 437.201C810.212 438.003 813.906 440.144 821.294 444.427L831.846 450.544C839.233 454.827 842.927 456.968 844.311 459.437C844.92 460.523 845.224 461.651 845.224 462.779C845.224 463.907 844.92 465.035 844.311 466.121C842.927 468.59 839.233 470.731 831.846 475.014L821.294 481.131C813.906 485.413 810.212 487.555 805.953 488.357C802.207 489.063 798.171 489.063 794.424 488.357C790.165 487.555 786.471 485.413 779.084 481.131L768.531 475.014Z" fill="white"/>
<path d="M755.153 462.779V478.072C755.153 479.2 755.458 480.328 756.066 481.414C757.45 483.883 761.144 486.024 768.531 490.307L779.084 496.424C786.471 500.707 790.165 502.848 794.424 503.65C798.171 504.356 802.207 504.356 805.953 503.65C810.212 502.848 813.906 500.707 821.294 496.424L831.846 490.307C839.233 486.024 842.927 483.883 844.311 481.414C844.92 480.328 845.224 479.2 845.224 478.072V462.779M755.153 462.779C755.153 461.651 755.458 460.523 756.066 459.437C757.45 456.968 761.144 454.827 768.531 450.544L779.084 444.427C786.471 440.144 790.165 438.003 794.424 437.201C798.171 436.495 802.207 436.495 805.953 437.201C810.212 438.003 813.906 440.144 821.294 444.427L831.846 450.544C839.233 454.827 842.927 456.968 844.311 459.437C844.92 460.523 845.224 461.651 845.224 462.779M755.153 462.779C755.153 463.907 755.458 465.035 756.066 466.121C757.45 468.59 761.144 470.731 768.531 475.014L779.084 481.131C786.471 485.413 790.165 487.555 794.424 488.357C798.171 489.063 802.207 489.063 805.953 488.357C810.212 487.555 813.906 485.413 821.294 481.131L831.846 475.014C839.233 470.731 842.927 468.59 844.311 466.121C844.92 465.035 845.224 463.907 845.224 462.779" stroke="#14181E" stroke-linecap="round" stroke-linejoin="round"/>
<path d="M787.299 469.434C785.57 468.421 783.837 467.407 782.561 466.179C782.093 465.684 781.898 465.121 782.003 464.569C782.108 464.017 782.508 463.502 783.148 463.095C784.017 462.593 784.637 462.941 785.174 463.35C786.896 464.664 788.622 465.975 790.677 467.127C792.079 467.912 793.37 468.772 795.044 469.381C796.64 469.961 798.346 469.77 800.056 468.807C801.602 467.933 801.741 467.491 800.557 466.399C798.399 464.406 796.13 462.453 793.996 460.452C792.086 458.662 792.247 457.93 794.556 456.36C795.87 455.438 797.467 454.664 799.271 454.075C802.596 453.025 805.801 453.51 808.744 454.726C812.112 456.122 815.086 457.815 817.553 459.74C818.133 460.18 818.466 460.71 818.505 461.255C818.543 461.801 818.286 462.335 817.768 462.783C817.062 463.416 816.285 463.482 815.404 462.88C813.776 461.772 812.271 460.604 810.486 459.571C808.941 458.679 807.396 457.787 805.485 457.153C803.317 456.435 799.825 457.292 799.168 458.666C798.913 459.191 799.378 459.612 799.817 460.009C801.746 461.744 803.719 463.462 805.675 465.187L805.869 465.349C808.794 467.854 808.521 469.137 804.639 471.074C803.85 471.505 803.01 471.904 802.123 472.268C798.601 473.58 795.744 473.454 792.067 471.896C790.369 471.149 788.775 470.326 787.299 469.434Z" fill="#048F92"/>
<path d="M821.294 520.13L831.846 514.012C839.233 509.73 842.927 507.588 844.311 505.119C844.92 504.033 845.224 502.905 845.224 501.778V486.484C845.224 487.612 844.92 488.74 844.311 489.826C842.927 492.295 839.233 494.436 831.846 498.719L821.294 504.836C813.906 509.119 810.212 511.26 805.953 512.062C802.207 512.768 798.171 512.768 794.424 512.062C790.165 511.26 786.471 509.119 779.084 504.836L768.531 498.719C761.144 494.436 757.45 492.295 756.066 489.826C755.458 488.74 755.153 487.612 755.153 486.484V501.778C755.153 502.905 755.458 504.033 756.066 505.119C757.45 507.588 761.144 509.73 768.531 514.012L768.531 514.012L779.084 520.13C786.471 524.412 790.165 526.553 794.424 527.356C798.171 528.061 802.207 528.061 805.953 527.356C810.212 526.553 813.906 524.412 821.294 520.13Z" fill="white"/>
<path d="M755.153 486.484V501.778C755.153 502.905 755.458 504.033 756.066 505.119C757.45 507.588 761.144 509.73 768.531 514.012L779.084 520.13C786.471 524.412 790.165 526.553 794.424 527.356C798.171 528.061 802.207 528.061 805.953 527.356C810.212 526.553 813.906 524.412 821.294 520.13L831.846 514.012C839.233 509.73 842.927 507.588 844.311 505.119C844.92 504.033 845.224 502.905 845.224 501.778V486.484M755.153 486.484C755.153 485.356 755.458 484.228 756.066 483.142C756.217 482.874 756.395 482.609 756.602 482.344M755.153 486.484C755.153 487.612 755.458 488.74 756.066 489.826C757.45 492.295 761.144 494.436 768.531 498.719L779.084 504.836C786.471 509.119 790.165 511.26 794.424 512.062C798.171 512.768 802.207 512.768 805.953 512.062C810.212 511.26 813.906 509.119 821.294 504.836L831.846 498.719C839.233 494.436 842.927 492.295 844.311 489.826C844.92 488.74 845.224 487.612 845.224 486.484M845.224 486.484C845.224 485.356 844.92 484.228 844.311 483.142C844.127 482.814 844.043 482.874 843.775 482.552" stroke="#14181E" stroke-linecap="round" stroke-linejoin="round"/>
<path d="M821.294 543.069L831.846 536.952C839.233 532.669 842.927 530.528 844.311 528.059C844.92 526.973 845.224 525.845 845.224 524.717V509.424C845.224 510.552 844.92 511.68 844.311 512.765C842.927 515.235 839.233 517.376 831.846 521.658L821.294 527.776C813.906 532.058 810.212 534.2 805.953 535.002C802.207 535.708 798.171 535.708 794.424 535.002C790.165 534.2 786.471 532.058 779.084 527.776L779.084 527.776L768.531 521.658L768.531 521.658C761.144 517.376 757.45 515.235 756.066 512.765C755.458 511.68 755.153 510.552 755.153 509.424V524.717C755.153 525.845 755.458 526.973 756.066 528.059C757.45 530.528 761.144 532.669 768.531 536.952L779.084 543.069C786.471 547.352 790.165 549.493 794.424 550.295C798.171 551.001 802.207 551.001 805.953 550.295C810.212 549.493 813.906 547.352 821.294 543.069Z" fill="white"/>
<path d="M755.153 509.424V524.717C755.153 525.845 755.458 526.973 756.066 528.059C757.45 530.528 761.144 532.669 768.531 536.952L779.084 543.069C786.471 547.352 790.165 549.493 794.424 550.295C798.171 551.001 802.207 551.001 805.953 550.295C810.212 549.493 813.906 547.352 821.294 543.069L831.846 536.952C839.233 532.669 842.927 530.528 844.311 528.059C844.92 526.973 845.224 525.845 845.224 524.717V509.424M755.153 509.424C755.153 508.296 755.458 507.168 756.066 506.082M755.153 509.424C755.153 510.552 755.458 511.68 756.066 512.765C757.45 515.235 761.144 517.376 768.531 521.658L779.084 527.776C786.471 532.058 790.165 534.2 794.424 535.002C798.171 535.708 802.207 535.708 805.953 535.002C810.212 534.2 813.906 532.058 821.294 527.776L831.846 521.658C839.233 517.376 842.927 515.235 844.311 512.765C844.92 511.68 845.224 510.552 845.224 509.424M845.224 509.424C845.224 508.296 844.92 507.168 844.311 506.082" stroke="#14181E" stroke-linecap="round" stroke-linejoin="round"/>
<rect x="0.433013" y="0.75" width="35.2015" height="5.11736" rx="2.55868" transform="matrix(0.866025 0.5 -2.20305e-08 1 758.189 473.159)" stroke="black"/>
<rect x="0.433013" y="0.75" width="35.2015" height="5.11736" rx="2.55868" transform="matrix(0.866025 0.5 -2.20305e-08 1 758.189 496.864)" stroke="black"/>
<rect x="0.433013" y="0.75" width="35.2015" height="5.11736" rx="2.55868" transform="matrix(0.866025 0.5 -2.20305e-08 1 758.189 519.804)" stroke="black"/>
<rect width="6.88203" height="5.91578" transform="matrix(0.866025 -0.5 2.20305e-08 1 812.423 491.345)" fill="#048F92"/>
<rect width="6.88203" height="5.91578" transform="matrix(0.866025 -0.5 2.20305e-08 1 812.423 515.05)" fill="#048F92"/>
<rect width="6.88203" height="5.91578" transform="matrix(0.866025 -0.5 2.20305e-08 1 812.423 537.99)" fill="#048F92"/>
<rect x="0.433013" y="0.25" width="5.88203" height="4.91578" transform="matrix(0.866025 -0.5 2.20305e-08 1 820.128 510.678)" stroke="black"/>
<rect x="0.433013" y="0.25" width="5.88203" height="4.91578" transform="matrix(0.866025 -0.5 2.20305e-08 1 820.128 486.974)" stroke="black"/>
<rect x="0.433013" y="0.25" width="5.88203" height="4.91578" transform="matrix(0.866025 -0.5 2.20305e-08 1 820.128 533.618)" stroke="black"/>
<path opacity="0.7" d="M861.466 447.806L927 408L881.006 381.17C879.766 380.446 878.233 380.443 876.99 381.161L811.09 419.218C809.737 419.999 809.763 421.961 811.135 422.707L857.479 447.901C858.73 448.582 860.249 448.545 861.466 447.806Z" fill="#E8E8E8"/>
<path d="M871.317 438.375L836.452 418.246L871.998 397.724L928.901 405.129L871.317 438.375Z" fill="white" stroke="black"/>
<rect width="66.4929" height="21.6774" transform="matrix(-0.866025 0.5 0.866025 0.5 899.4 388.097)" stroke="black"/>
<path d="M895.449 390.378L913.887 401.024" stroke="black"/>
<path d="M890.932 392.986L905.012 401.115" stroke="black"/>
<path d="M872.867 403.417L886.947 411.546" stroke="black"/>
<path d="M886.416 395.594L904.854 406.239" stroke="black"/>
<path d="M881.899 398.201L900.337 408.846" stroke="black"/>
<path d="M877.383 400.809L895.821 411.454" stroke="black"/>
<path d="M868.35 406.024L882.43 414.153" stroke="black"/>
<path d="M863.833 408.631L882.271 419.277" stroke="black"/>
<path d="M859.317 411.239L877.755 421.884" stroke="black"/>
<path d="M854.801 413.847L873.239 424.492" stroke="black"/>
<path d="M850.284 416.454L864.364 424.583" stroke="black"/>
<path d="M845.768 419.062L864.206 429.707" stroke="black"/>
<path d="M903.759 390.613L854.715 418.932" stroke="black"/>
<path d="M908.787 393.516L855.154 424.481" stroke="black"/>
<path d="M913.48 396.226L856.178 429.309" stroke="black"/>
<path d="M893.331 388.504L891.355 389.645" stroke="#048F92"/>
<path d="M889.379 390.786L885.992 392.741" stroke="#048F92"/>
<path d="M928.901 405.209V408.306L871.224 442.038V438.5" stroke="black"/>
<path d="M871.224 442.038L835.998 421.522V418.371" stroke="black"/>
<path d="M874.998 398L871.998 396.5V436.5L874.998 438V398Z" fill="white"/>
<path d="M929.288 363.881L931.611 365.042L874.708 438.203L871.998 436.5V396.397L929.288 363.881Z" fill="white" stroke="black"/>
<rect width="65.5583" height="40.2581" transform="matrix(-0.866025 0.5 2.20305e-08 1 931.576 365.042)" fill="white" stroke="black"/>
<circle r="3.88675" transform="matrix(0.866025 -0.5 2.20305e-08 1 903.364 402.83)" fill="#048F92"/>
<path d="M875.095 397.946L871.998 396.397" stroke="black"/>
<rect opacity="0.7" width="84" height="43" rx="2" transform="matrix(0.866025 -0.5 -0.866025 -0.5 860.239 634.5)" fill="#E8E8E8"/>
<path d="M894.387 614.856L912.816 604.216L895.563 594.196L886.191 597.918L875.958 604.216L894.387 614.856Z" fill="white" stroke="black"/>
<path d="M886.243 604.756V593.503V591.425L895.342 585.925L895.512 587.58V599.425L886.243 604.756Z" fill="white" stroke="black"/>
<path d="M924.764 502.679L928.086 504.345L846.677 616.393L842.801 613.64V549.32L924.764 502.679Z" fill="white" stroke="black"/>
<rect width="94.2958" height="64.7934" transform="matrix(-0.866025 0.5 2.20305e-08 1 928.036 504.301)" fill="white" stroke="black"/>
<path d="M914.826 516.382L924.033 523.872" stroke="#C4C4C4"/>
<path d="M909.712 519.891L924.188 531.583" stroke="#C4C4C4"/>
<rect width="85.0511" height="48.9967" transform="matrix(-0.866025 0.5 2.20305e-08 1 924.033 511.066)" fill="white" stroke="black"/>
<path d="M846.796 551.627L842.342 549.4" stroke="black"/>
<circle r="2.96131" transform="matrix(0.866025 -0.5 2.20305e-08 1 891.562 584.915)" fill="#048F92"/>
<path d="M894.387 617.765L912.816 607.125L912.816 604.107M894.387 617.765L875.958 607.125L875.958 604.107M894.387 617.765L894.387 614.637" stroke="black"/>
<path d="M910.04 647.697L884.737 633.225L945.331 598.241L970.545 612.972" stroke="black"/>
<rect width="69.9678" height="22.8103" transform="matrix(-0.866025 0.5 0.866025 0.5 950.975 601.5)" stroke="black"/>
<path d="M946.817 603.9L966.218 615.102" stroke="black"/>
<path d="M942.064 606.644L956.88 615.198" stroke="black"/>
<path d="M923.055 617.62L937.87 626.173" stroke="black"/>
<path d="M937.312 609.388L956.714 620.59" stroke="black"/>
<path d="M932.56 612.132L951.961 623.333" stroke="black"/>
<path d="M927.807 614.876L947.209 626.077" stroke="black"/>
<path d="M918.302 620.363L933.118 628.917" stroke="black"/>
<path d="M913.55 623.107L932.951 634.309" stroke="black"/>
<path d="M908.797 625.851L928.199 637.053" stroke="black"/>
<path d="M904.045 628.595L923.446 639.797" stroke="black"/>
<path d="M899.292 631.339L914.108 639.893" stroke="black"/>
<path d="M894.54 634.083L913.942 645.284" stroke="black"/>
<path d="M955.561 604.147L903.954 633.946" stroke="black"/>
<path d="M960.852 607.202L904.417 639.785" stroke="black"/>
<path d="M965.791 610.053L905.494 644.866" stroke="black"/>
<path d="M944.589 601.928L942.51 603.128" stroke="#048F92"/>
<path d="M940.43 604.329L936.866 606.387" stroke="#048F92"/>
<path d="M910.566 650.854L884.259 635.619V633.355M910.566 650.854V647.697M910.566 650.854L970.544 616.129V612.972" stroke="black"/>
<rect width="17.7679" height="23.5543" transform="matrix(0.866025 -0.5 2.20305e-08 1 858.2 558.559)" fill="#048F92"/>
<rect width="25.9876" height="5.35946" transform="matrix(0.866025 -0.5 2.20305e-08 1 879.521 546.714)" fill="#048F92"/>
<rect width="25.9876" height="5.35946" transform="matrix(0.866025 -0.5 2.20305e-08 1 879.521 565.038)" fill="#048F92"/>
<rect width="16.4132" height="5.35946" transform="matrix(0.866025 -0.5 2.20305e-08 1 879.521 555.562)" fill="#048F92"/>
<rect opacity="0.7" width="84" height="43" rx="2" transform="matrix(0.866025 -0.5 -0.866025 -0.5 558.239 534.5)" fill="#E8E8E8"/>
<path d="M592.387 514.856L610.816 504.216L593.563 494.196L584.191 497.918L573.958 504.216L592.387 514.856Z" fill="white" stroke="black"/>
<path d="M584.243 504.756V493.503V491.425L593.342 485.925L593.512 487.58V499.425L584.243 504.756Z" fill="white" stroke="black"/>
<path d="M622.764 402.679L626.086 404.345L544.677 516.393L540.801 513.64V449.32L622.764 402.679Z" fill="white" stroke="black"/>
<rect width="94.2958" height="64.7934" transform="matrix(-0.866025 0.5 2.20305e-08 1 626.036 404.301)" fill="white" stroke="black"/>
<path d="M612.826 416.382L622.033 423.872" stroke="#C4C4C4"/>
<path d="M607.712 419.891L622.188 431.583" stroke="#C4C4C4"/>
<rect width="85.0511" height="48.9967" transform="matrix(-0.866025 0.5 2.20305e-08 1 622.033 411.066)" fill="white" stroke="black"/>
<path d="M544.796 451.627L540.342 449.4" stroke="black"/>
<circle r="2.96131" transform="matrix(0.866025 -0.5 2.20305e-08 1 589.562 484.915)" fill="#048F92"/>
<path d="M592.387 517.765L610.816 507.125L610.816 504.107M592.387 517.765L573.958 507.125L573.958 504.107M592.387 517.765L592.387 514.637" stroke="black"/>
<path d="M608.04 547.697L582.737 533.225L643.331 498.241L668.545 512.972" stroke="black"/>
<rect width="69.9678" height="22.8103" transform="matrix(-0.866025 0.5 0.866025 0.5 648.975 501.5)" stroke="black"/>
<path d="M644.817 503.9L664.218 515.102" stroke="black"/>
<path d="M640.064 506.644L654.88 515.198" stroke="black"/>
<path d="M621.055 517.62L635.87 526.173" stroke="black"/>
<path d="M635.312 509.388L654.714 520.59" stroke="black"/>
<path d="M630.56 512.132L649.961 523.333" stroke="black"/>
<path d="M625.807 514.876L645.209 526.077" stroke="black"/>
<path d="M616.302 520.363L631.118 528.917" stroke="black"/>
<path d="M611.55 523.107L630.951 534.309" stroke="black"/>
<path d="M606.797 525.851L626.199 537.053" stroke="black"/>
<path d="M602.045 528.595L621.446 539.797" stroke="black"/>
<path d="M597.292 531.339L612.108 539.893" stroke="black"/>
<path d="M592.54 534.083L611.942 545.284" stroke="black"/>
<path d="M653.561 504.147L601.954 533.946" stroke="black"/>
<path d="M658.852 507.202L602.417 539.785" stroke="black"/>
<path d="M663.791 510.053L603.494 544.866" stroke="black"/>
<path d="M642.589 501.928L640.51 503.128" stroke="#048F92"/>
<path d="M638.43 504.329L634.866 506.387" stroke="#048F92"/>
<path d="M608.566 550.854L582.259 535.619V533.355M608.566 550.854V547.697M608.566 550.854L668.544 516.129V512.972" stroke="black"/>
<rect width="17.7679" height="23.5543" transform="matrix(0.866025 -0.5 2.20305e-08 1 556.2 458.559)" fill="#048F92"/>
<rect width="25.9876" height="5.35946" transform="matrix(0.866025 -0.5 2.20305e-08 1 577.521 446.714)" fill="#048F92"/>
<rect width="25.9876" height="5.35946" transform="matrix(0.866025 -0.5 2.20305e-08 1 577.521 465.038)" fill="#048F92"/>
<rect width="16.4132" height="5.35946" transform="matrix(0.866025 -0.5 2.20305e-08 1 577.521 455.562)" fill="#048F92"/>
<g clip-path="url(#clip0_209_124)">
<path opacity="0.35" d="M653.75 602.511L649.463 595.086L650.687 594.379L656.199 603.925L650.687 607.107L649.463 604.986L653.75 602.511Z" fill="#048F92"/>
</g>
<g clip-path="url(#clip1_209_124)">
<path opacity="0.6" d="M674.534 614.511L670.248 607.086L671.472 606.379L676.984 615.925L671.472 619.107L670.248 616.986L674.534 614.511Z" fill="#048F92"/>
</g>
<g clip-path="url(#clip2_209_124)">
<path d="M695.319 626.511L691.032 619.086L692.257 618.379L697.768 627.925L692.257 631.107L691.032 628.986L695.319 626.511Z" fill="#048F92"/>
</g>
<g clip-path="url(#clip3_209_124)">
<path opacity="0.35" d="M996.947 449.414L1001.23 456.839L1000.01 457.546L994.497 448L1000.01 444.818L1001.23 446.939L996.947 449.414Z" fill="#048F92"/>
</g>
<g clip-path="url(#clip4_209_124)">
<path opacity="0.6" d="M976.162 437.414L980.449 444.839L979.224 445.546L973.713 436L979.224 432.818L980.449 434.939L976.162 437.414Z" fill="#048F92"/>
</g>
<g clip-path="url(#clip5_209_124)">
<path d="M955.377 425.414L959.664 432.839L958.44 433.546L952.928 424L958.44 420.818L959.664 422.939L955.377 425.414Z" fill="#048F92"/>
</g>
<g clip-path="url(#clip6_209_124)">
<path opacity="0.35" d="M665.75 424.588L661.463 432.013L662.687 432.72L668.199 423.174L662.687 419.992L661.463 422.113L665.75 424.588Z" fill="#048F92"/>
</g>
<g clip-path="url(#clip7_209_124)">
<path opacity="0.6" d="M686.534 412.588L682.248 420.013L683.472 420.72L688.984 411.174L683.472 407.992L682.248 410.113L686.534 412.588Z" fill="#048F92"/>
</g>
<g clip-path="url(#clip8_209_124)">
<path d="M707.75 400.588L703.463 408.013L704.687 408.72L710.199 399.174L704.687 395.992L703.463 398.113L707.75 400.588Z" fill="#048F92"/>
</g>
<path d="M1016.66 489.105C1015.52 489.105 1014.62 488.865 1013.98 488.385C1013.36 487.905 1012.92 487.259 1012.66 486.445C1012.42 485.632 1012.3 484.725 1012.3 483.725V478.005C1012.3 476.912 1012.42 475.959 1012.66 475.145C1012.92 474.332 1013.36 473.705 1013.98 473.265C1014.62 472.812 1015.52 472.585 1016.66 472.585C1017.68 472.585 1018.48 472.772 1019.06 473.145C1019.66 473.519 1020.09 474.052 1020.34 474.745C1020.61 475.439 1020.74 476.272 1020.74 477.245V478.525H1018.6V477.385C1018.6 476.785 1018.57 476.259 1018.5 475.805C1018.45 475.339 1018.29 474.979 1018.02 474.725C1017.76 474.472 1017.31 474.345 1016.68 474.345C1016.04 474.345 1015.58 474.485 1015.28 474.765C1014.99 475.032 1014.8 475.419 1014.7 475.925C1014.62 476.419 1014.58 476.999 1014.58 477.665V484.085C1014.58 484.899 1014.65 485.545 1014.78 486.025C1014.92 486.492 1015.14 486.825 1015.44 487.025C1015.75 487.225 1016.16 487.325 1016.68 487.325C1017.3 487.325 1017.74 487.192 1018 486.925C1018.27 486.645 1018.44 486.265 1018.5 485.785C1018.57 485.305 1018.6 484.745 1018.6 484.105V482.905H1020.74V484.105C1020.74 485.092 1020.62 485.965 1020.38 486.725C1020.14 487.472 1019.73 488.059 1019.14 488.485C1018.56 488.899 1017.73 489.105 1016.66 489.105ZM1027.08 489.105C1025.9 489.105 1025 488.872 1024.38 488.405C1023.75 487.939 1023.32 487.285 1023.1 486.445C1022.87 485.592 1022.76 484.599 1022.76 483.465V472.725H1024.92V483.565C1024.92 484.259 1024.96 484.892 1025.06 485.465C1025.15 486.039 1025.35 486.492 1025.66 486.825C1025.98 487.159 1026.45 487.325 1027.08 487.325C1027.72 487.325 1028.19 487.159 1028.5 486.825C1028.8 486.492 1029 486.039 1029.1 485.465C1029.19 484.892 1029.24 484.259 1029.24 483.565V472.725H1031.38V483.465C1031.38 484.599 1031.26 485.592 1031.04 486.445C1030.81 487.285 1030.38 487.939 1029.76 488.405C1029.14 488.872 1028.25 489.105 1027.08 489.105ZM1037.57 489.105C1036.64 489.105 1035.86 488.905 1035.23 488.505C1034.62 488.105 1034.15 487.552 1033.83 486.845C1033.51 486.139 1033.33 485.319 1033.27 484.385L1035.27 483.845C1035.31 484.419 1035.4 484.972 1035.53 485.505C1035.68 486.039 1035.91 486.479 1036.23 486.825C1036.55 487.159 1037 487.325 1037.57 487.325C1038.16 487.325 1038.6 487.165 1038.89 486.845C1039.2 486.512 1039.35 486.039 1039.35 485.425C1039.35 484.692 1039.19 484.105 1038.85 483.665C1038.52 483.212 1038.1 482.759 1037.59 482.305L1034.87 479.905C1034.34 479.439 1033.95 478.932 1033.69 478.385C1033.44 477.825 1033.31 477.139 1033.31 476.325C1033.31 475.139 1033.65 474.219 1034.33 473.565C1035.01 472.912 1035.94 472.585 1037.11 472.585C1037.75 472.585 1038.31 472.672 1038.79 472.845C1039.29 473.005 1039.69 473.259 1040.01 473.605C1040.35 473.952 1040.61 474.392 1040.79 474.925C1040.99 475.445 1041.13 476.059 1041.19 476.765L1039.27 477.285C1039.23 476.752 1039.15 476.265 1039.03 475.825C1038.91 475.372 1038.7 475.012 1038.39 474.745C1038.1 474.465 1037.67 474.325 1037.11 474.325C1036.55 474.325 1036.11 474.479 1035.79 474.785C1035.49 475.079 1035.33 475.519 1035.33 476.105C1035.33 476.599 1035.41 477.005 1035.57 477.325C1035.75 477.645 1036.02 477.972 1036.39 478.305L1039.13 480.705C1039.75 481.239 1040.29 481.879 1040.75 482.625C1041.22 483.359 1041.45 484.232 1041.45 485.245C1041.45 486.045 1041.29 486.739 1040.95 487.325C1040.62 487.899 1040.16 488.339 1039.57 488.645C1039 488.952 1038.33 489.105 1037.57 489.105ZM1044.99 488.925V474.405H1042.25V472.725H1049.91V474.405H1047.25V488.925H1044.99ZM1055.61 489.105C1054.52 489.105 1053.64 488.892 1052.99 488.465C1052.34 488.039 1051.87 487.432 1051.59 486.645C1051.31 485.845 1051.17 484.912 1051.17 483.845V477.705C1051.17 476.639 1051.31 475.725 1051.59 474.965C1051.88 474.192 1052.35 473.605 1052.99 473.205C1053.64 472.792 1054.52 472.585 1055.61 472.585C1056.7 472.585 1057.57 472.792 1058.21 473.205C1058.85 473.619 1059.31 474.205 1059.59 474.965C1059.88 475.725 1060.03 476.639 1060.03 477.705V483.865C1060.03 484.919 1059.88 485.839 1059.59 486.625C1059.31 487.412 1058.85 488.025 1058.21 488.465C1057.57 488.892 1056.7 489.105 1055.61 489.105ZM1055.61 487.325C1056.21 487.325 1056.66 487.205 1056.97 486.965C1057.28 486.712 1057.48 486.365 1057.59 485.925C1057.7 485.472 1057.75 484.945 1057.75 484.345V477.245C1057.75 476.645 1057.7 476.132 1057.59 475.705C1057.48 475.265 1057.28 474.932 1056.97 474.705C1056.66 474.465 1056.21 474.345 1055.61 474.345C1055.01 474.345 1054.55 474.465 1054.23 474.705C1053.92 474.932 1053.72 475.265 1053.61 475.705C1053.5 476.132 1053.45 476.645 1053.45 477.245V484.345C1053.45 484.945 1053.5 485.472 1053.61 485.925C1053.72 486.365 1053.92 486.712 1054.23 486.965C1054.55 487.205 1055.01 487.325 1055.61 487.325ZM1062.21 488.925L1062.51 472.725H1064.73L1067.59 485.865L1070.47 472.725H1072.67L1072.97 488.925H1071.15L1070.97 477.165L1068.23 488.925H1066.95L1064.23 477.165L1064.05 488.925H1062.21ZM1075.45 488.925V472.725H1081.73V474.405H1077.71V479.765H1080.97V481.365H1077.71V487.305H1081.77V488.925H1075.45ZM1083.6 488.925V472.725H1086.86C1087.94 472.725 1088.83 472.872 1089.54 473.165C1090.25 473.445 1090.77 473.905 1091.1 474.545C1091.45 475.172 1091.62 475.999 1091.62 477.025C1091.62 477.652 1091.55 478.225 1091.42 478.745C1091.29 479.252 1091.07 479.685 1090.78 480.045C1090.49 480.392 1090.1 480.645 1089.62 480.805L1091.92 488.925H1089.74L1087.62 481.325H1085.86V488.925H1083.6ZM1085.86 479.705H1086.72C1087.36 479.705 1087.88 479.625 1088.28 479.465C1088.68 479.305 1088.97 479.032 1089.16 478.645C1089.35 478.259 1089.44 477.719 1089.44 477.025C1089.44 476.079 1089.27 475.399 1088.92 474.985C1088.57 474.559 1087.89 474.345 1086.86 474.345H1085.86V479.705ZM1094.27 478.025L1093.89 477.225C1094.3 477.199 1094.58 477.005 1094.73 476.645C1094.89 476.285 1094.97 475.732 1094.97 474.985H1093.91V472.725H1096.25C1096.25 473.045 1096.25 473.372 1096.25 473.705C1096.25 474.025 1096.25 474.345 1096.25 474.665C1096.25 475.705 1096.1 476.519 1095.81 477.105C1095.52 477.679 1095 477.985 1094.27 478.025ZM1101.95 489.105C1101.02 489.105 1100.24 488.905 1099.61 488.505C1099 488.105 1098.53 487.552 1098.21 486.845C1097.89 486.139 1097.7 485.319 1097.65 484.385L1099.65 483.845C1099.69 484.419 1099.78 484.972 1099.91 485.505C1100.06 486.039 1100.29 486.479 1100.61 486.825C1100.93 487.159 1101.38 487.325 1101.95 487.325C1102.54 487.325 1102.98 487.165 1103.27 486.845C1103.58 486.512 1103.73 486.039 1103.73 485.425C1103.73 484.692 1103.56 484.105 1103.23 483.665C1102.9 483.212 1102.48 482.759 1101.97 482.305L1099.25 479.905C1098.72 479.439 1098.32 478.932 1098.07 478.385C1097.82 477.825 1097.69 477.139 1097.69 476.325C1097.69 475.139 1098.03 474.219 1098.71 473.565C1099.39 472.912 1100.32 472.585 1101.49 472.585C1102.13 472.585 1102.69 472.672 1103.17 472.845C1103.66 473.005 1104.07 473.259 1104.39 473.605C1104.72 473.952 1104.98 474.392 1105.17 474.925C1105.37 475.445 1105.5 476.059 1105.57 476.765L1103.65 477.285C1103.61 476.752 1103.53 476.265 1103.41 475.825C1103.29 475.372 1103.08 475.012 1102.77 474.745C1102.48 474.465 1102.05 474.325 1101.49 474.325C1100.93 474.325 1100.49 474.479 1100.17 474.785C1099.86 475.079 1099.71 475.519 1099.71 476.105C1099.71 476.599 1099.79 477.005 1099.95 477.325C1100.12 477.645 1100.4 477.972 1100.77 478.305L1103.51 480.705C1104.12 481.239 1104.66 481.879 1105.13 482.625C1105.6 483.359 1105.83 484.232 1105.83 485.245C1105.83 486.045 1105.66 486.739 1105.33 487.325C1105 487.899 1104.54 488.339 1103.95 488.645C1103.38 488.952 1102.71 489.105 1101.95 489.105ZM1112.15 488.925V472.725H1115.87C1116.61 472.725 1117.24 472.805 1117.77 472.965C1118.32 473.125 1118.77 473.372 1119.13 473.705C1119.49 474.039 1119.76 474.465 1119.93 474.985C1120.11 475.492 1120.19 476.092 1120.19 476.785C1120.19 477.452 1120.11 478.032 1119.93 478.525C1119.77 479.005 1119.52 479.385 1119.17 479.665C1118.84 479.945 1118.41 480.125 1117.87 480.205C1118.53 480.352 1119.05 480.605 1119.45 480.965C1119.85 481.312 1120.15 481.765 1120.33 482.325C1120.53 482.872 1120.63 483.532 1120.63 484.305C1120.63 484.999 1120.55 485.632 1120.39 486.205C1120.23 486.779 1119.98 487.265 1119.63 487.665C1119.3 488.065 1118.87 488.379 1118.33 488.605C1117.81 488.819 1117.19 488.925 1116.47 488.925H1112.15ZM1114.41 487.305H1115.93C1116.95 487.305 1117.62 487.072 1117.95 486.605C1118.3 486.125 1118.47 485.359 1118.47 484.305C1118.47 483.625 1118.38 483.059 1118.19 482.605C1118.02 482.139 1117.73 481.792 1117.33 481.565C1116.95 481.325 1116.42 481.205 1115.75 481.205H1114.41V487.305ZM1114.41 479.485H1115.75C1116.39 479.485 1116.89 479.399 1117.25 479.225C1117.61 479.039 1117.87 478.745 1118.01 478.345C1118.16 477.945 1118.23 477.425 1118.23 476.785C1118.23 476.039 1118.12 475.499 1117.89 475.165C1117.67 474.832 1117.31 474.625 1116.83 474.545C1116.35 474.452 1115.73 474.405 1114.95 474.405H1114.41V479.485ZM1121.76 488.925L1125.2 472.725H1127.38L1130.84 488.925H1128.7L1127.96 484.845H1124.66L1123.88 488.925H1121.76ZM1124.96 483.225H1127.66L1126.3 475.925L1124.96 483.225ZM1132.49 488.925V472.725H1134.03L1138.63 483.485V472.725H1140.51V488.925H1139.07L1134.41 477.865V488.925H1132.49ZM1143.05 488.925V472.725H1145.31V480.365L1149.03 472.725H1151.13L1147.93 479.865L1151.65 488.925H1149.45L1146.35 481.325L1145.31 483.205V488.925H1143.05ZM1011.72 516.925L1015.16 500.725H1017.34L1020.8 516.925H1018.66L1017.92 512.845H1014.62L1013.84 516.925H1011.72ZM1014.92 511.225H1017.62L1016.26 503.925L1014.92 511.225ZM1026.43 517.105C1025.28 517.105 1024.39 516.865 1023.75 516.385C1023.12 515.905 1022.68 515.259 1022.43 514.445C1022.19 513.632 1022.07 512.725 1022.07 511.725V506.005C1022.07 504.912 1022.19 503.959 1022.43 503.145C1022.68 502.332 1023.12 501.705 1023.75 501.265C1024.39 500.812 1025.28 500.585 1026.43 500.585C1027.44 500.585 1028.24 500.772 1028.83 501.145C1029.43 501.519 1029.85 502.052 1030.11 502.745C1030.37 503.439 1030.51 504.272 1030.51 505.245V506.525H1028.37V505.385C1028.37 504.785 1028.33 504.259 1028.27 503.805C1028.21 503.339 1028.05 502.979 1027.79 502.725C1027.52 502.472 1027.07 502.345 1026.45 502.345C1025.81 502.345 1025.34 502.485 1025.05 502.765C1024.75 503.032 1024.56 503.419 1024.47 503.925C1024.39 504.419 1024.35 504.999 1024.35 505.665V512.085C1024.35 512.899 1024.41 513.545 1024.55 514.025C1024.68 514.492 1024.9 514.825 1025.21 515.025C1025.51 515.225 1025.93 515.325 1026.45 515.325C1027.06 515.325 1027.5 515.192 1027.77 514.925C1028.03 514.645 1028.2 514.265 1028.27 513.785C1028.33 513.305 1028.37 512.745 1028.37 512.105V510.905H1030.51V512.105C1030.51 513.092 1030.39 513.965 1030.15 514.725C1029.91 515.472 1029.49 516.059 1028.91 516.485C1028.32 516.899 1027.49 517.105 1026.43 517.105ZM1036.72 517.105C1035.57 517.105 1034.68 516.865 1034.04 516.385C1033.41 515.905 1032.97 515.259 1032.72 514.445C1032.48 513.632 1032.36 512.725 1032.36 511.725V506.005C1032.36 504.912 1032.48 503.959 1032.72 503.145C1032.97 502.332 1033.41 501.705 1034.04 501.265C1034.68 500.812 1035.57 500.585 1036.72 500.585C1037.73 500.585 1038.53 500.772 1039.12 501.145C1039.72 501.519 1040.15 502.052 1040.4 502.745C1040.67 503.439 1040.8 504.272 1040.8 505.245V506.525H1038.66V505.385C1038.66 504.785 1038.63 504.259 1038.56 503.805C1038.51 503.339 1038.35 502.979 1038.08 502.725C1037.81 502.472 1037.37 502.345 1036.74 502.345C1036.1 502.345 1035.63 502.485 1035.34 502.765C1035.05 503.032 1034.85 503.419 1034.76 503.925C1034.68 504.419 1034.64 504.999 1034.64 505.665V512.085C1034.64 512.899 1034.71 513.545 1034.84 514.025C1034.97 514.492 1035.19 514.825 1035.5 515.025C1035.81 515.225 1036.22 515.325 1036.74 515.325C1037.35 515.325 1037.79 515.192 1038.06 514.925C1038.33 514.645 1038.49 514.265 1038.56 513.785C1038.63 513.305 1038.66 512.745 1038.66 512.105V510.905H1040.8V512.105C1040.8 513.092 1040.68 513.965 1040.44 514.725C1040.2 515.472 1039.79 516.059 1039.2 516.485C1038.61 516.899 1037.79 517.105 1036.72 517.105ZM1047.09 517.105C1046 517.105 1045.13 516.892 1044.47 516.465C1043.82 516.039 1043.35 515.432 1043.07 514.645C1042.79 513.845 1042.65 512.912 1042.65 511.845V505.705C1042.65 504.639 1042.79 503.725 1043.07 502.965C1043.37 502.192 1043.83 501.605 1044.47 501.205C1045.13 500.792 1046 500.585 1047.09 500.585C1048.19 500.585 1049.05 500.792 1049.69 501.205C1050.33 501.619 1050.79 502.205 1051.07 502.965C1051.37 503.725 1051.51 504.639 1051.51 505.705V511.865C1051.51 512.919 1051.37 513.839 1051.07 514.625C1050.79 515.412 1050.33 516.025 1049.69 516.465C1049.05 516.892 1048.19 517.105 1047.09 517.105ZM1047.09 515.325C1047.69 515.325 1048.15 515.205 1048.45 514.965C1048.76 514.712 1048.97 514.365 1049.07 513.925C1049.18 513.472 1049.23 512.945 1049.23 512.345V505.245C1049.23 504.645 1049.18 504.132 1049.07 503.705C1048.97 503.265 1048.76 502.932 1048.45 502.705C1048.15 502.465 1047.69 502.345 1047.09 502.345C1046.49 502.345 1046.03 502.465 1045.71 502.705C1045.41 502.932 1045.2 503.265 1045.09 503.705C1044.99 504.132 1044.93 504.645 1044.93 505.245V512.345C1044.93 512.945 1044.99 513.472 1045.09 513.925C1045.2 514.365 1045.41 514.712 1045.71 514.965C1046.03 515.205 1046.49 515.325 1047.09 515.325ZM1057.92 517.105C1056.74 517.105 1055.84 516.872 1055.22 516.405C1054.59 515.939 1054.16 515.285 1053.94 514.445C1053.71 513.592 1053.6 512.599 1053.6 511.465V500.725H1055.76V511.565C1055.76 512.259 1055.8 512.892 1055.9 513.465C1055.99 514.039 1056.19 514.492 1056.5 514.825C1056.82 515.159 1057.29 515.325 1057.92 515.325C1058.56 515.325 1059.03 515.159 1059.34 514.825C1059.64 514.492 1059.84 514.039 1059.94 513.465C1060.03 512.892 1060.08 512.259 1060.08 511.565V500.725H1062.22V511.465C1062.22 512.599 1062.1 513.592 1061.88 514.445C1061.65 515.285 1061.22 515.939 1060.6 516.405C1059.98 516.872 1059.09 517.105 1057.92 517.105ZM1064.59 516.925V500.725H1066.13L1070.73 511.485V500.725H1072.61V516.925H1071.17L1066.51 505.865V516.925H1064.59ZM1076.94 516.925V502.405H1074.2V500.725H1081.86V502.405H1079.2V516.925H1076.94ZM1087.24 517.105C1086.31 517.105 1085.53 516.905 1084.9 516.505C1084.29 516.105 1083.82 515.552 1083.5 514.845C1083.18 514.139 1083 513.319 1082.94 512.385L1084.94 511.845C1084.98 512.419 1085.07 512.972 1085.2 513.505C1085.35 514.039 1085.58 514.479 1085.9 514.825C1086.22 515.159 1086.67 515.325 1087.24 515.325C1087.83 515.325 1088.27 515.165 1088.56 514.845C1088.87 514.512 1089.02 514.039 1089.02 513.425C1089.02 512.692 1088.86 512.105 1088.52 511.665C1088.19 511.212 1087.77 510.759 1087.26 510.305L1084.54 507.905C1084.01 507.439 1083.62 506.932 1083.36 506.385C1083.11 505.825 1082.98 505.139 1082.98 504.325C1082.98 503.139 1083.32 502.219 1084 501.565C1084.68 500.912 1085.61 500.585 1086.78 500.585C1087.42 500.585 1087.98 500.672 1088.46 500.845C1088.96 501.005 1089.36 501.259 1089.68 501.605C1090.02 501.952 1090.28 502.392 1090.46 502.925C1090.66 503.445 1090.8 504.059 1090.86 504.765L1088.94 505.285C1088.9 504.752 1088.82 504.265 1088.7 503.825C1088.58 503.372 1088.37 503.012 1088.06 502.745C1087.77 502.465 1087.34 502.325 1086.78 502.325C1086.22 502.325 1085.78 502.479 1085.46 502.785C1085.16 503.079 1085 503.519 1085 504.105C1085 504.599 1085.08 505.005 1085.24 505.325C1085.42 505.645 1085.69 505.972 1086.06 506.305L1088.8 508.705C1089.42 509.239 1089.96 509.879 1090.42 510.625C1090.89 511.359 1091.12 512.232 1091.12 513.245C1091.12 514.045 1090.96 514.739 1090.62 515.325C1090.29 515.899 1089.83 516.339 1089.24 516.645C1088.67 516.952 1088 517.105 1087.24 517.105ZM1100.85 517.105C1100.11 517.105 1099.48 516.952 1098.95 516.645C1098.43 516.325 1098.03 515.892 1097.75 515.345C1097.48 514.799 1097.35 514.172 1097.35 513.465C1097.35 512.439 1097.57 511.552 1098.03 510.805C1098.49 510.045 1099.05 509.372 1099.71 508.785C1099.47 508.305 1099.21 507.825 1098.93 507.345C1098.66 506.852 1098.43 506.345 1098.23 505.825C1098.04 505.292 1097.95 504.739 1097.95 504.165C1097.95 503.445 1098.09 502.819 1098.37 502.285C1098.65 501.752 1099.05 501.339 1099.57 501.045C1100.09 500.739 1100.7 500.585 1101.41 500.585C1102.06 500.585 1102.64 500.705 1103.15 500.945C1103.67 501.185 1104.08 501.532 1104.39 501.985C1104.69 502.425 1104.85 502.959 1104.85 503.585C1104.85 504.292 1104.68 504.972 1104.35 505.625C1104.03 506.265 1103.63 506.865 1103.17 507.425C1102.7 507.972 1102.25 508.459 1101.81 508.885L1104.25 512.725C1104.39 512.445 1104.51 512.132 1104.61 511.785C1104.71 511.425 1104.8 511.045 1104.87 510.645C1104.95 510.245 1105.01 509.859 1105.05 509.485H1107.17C1107.17 510.005 1107.09 510.552 1106.93 511.125C1106.78 511.699 1106.59 512.245 1106.35 512.765C1106.11 513.272 1105.86 513.705 1105.61 514.065C1105.78 514.279 1106.01 514.472 1106.29 514.645C1106.57 514.805 1106.87 514.885 1107.19 514.885V517.085C1107.13 517.085 1107.08 517.085 1107.03 517.085C1106.99 517.085 1106.95 517.085 1106.91 517.085C1106.52 517.072 1106.17 516.985 1105.87 516.825C1105.56 516.652 1105.28 516.445 1105.03 516.205C1104.79 515.965 1104.55 515.739 1104.33 515.525C1103.97 515.979 1103.49 516.359 1102.91 516.665C1102.33 516.959 1101.65 517.105 1100.85 517.105ZM1100.85 515.325C1101.35 515.325 1101.78 515.205 1102.13 514.965C1102.47 514.712 1102.77 514.432 1103.03 514.125L1100.55 510.305C1100.23 510.719 1099.97 511.205 1099.77 511.765C1099.58 512.312 1099.49 512.879 1099.49 513.465C1099.49 513.772 1099.53 514.072 1099.61 514.365C1099.69 514.645 1099.83 514.879 1100.03 515.065C1100.23 515.239 1100.5 515.325 1100.85 515.325ZM1101.07 507.725C1101.35 507.392 1101.61 506.999 1101.85 506.545C1102.1 506.092 1102.31 505.612 1102.47 505.105C1102.63 504.585 1102.71 504.079 1102.71 503.585C1102.71 503.199 1102.59 502.899 1102.35 502.685C1102.11 502.459 1101.79 502.345 1101.41 502.345C1100.93 502.345 1100.59 502.532 1100.39 502.905C1100.19 503.279 1100.09 503.699 1100.09 504.165C1100.09 504.779 1100.19 505.392 1100.39 506.005C1100.6 506.605 1100.83 507.179 1101.07 507.725ZM1118.21 517.105C1117.06 517.105 1116.17 516.865 1115.53 516.385C1114.9 515.905 1114.46 515.259 1114.21 514.445C1113.97 513.632 1113.85 512.725 1113.85 511.725V506.005C1113.85 504.912 1113.97 503.959 1114.21 503.145C1114.46 502.332 1114.9 501.705 1115.53 501.265C1116.17 500.812 1117.06 500.585 1118.21 500.585C1119.22 500.585 1120.02 500.772 1120.61 501.145C1121.21 501.519 1121.63 502.052 1121.89 502.745C1122.15 503.439 1122.29 504.272 1122.29 505.245V506.525H1120.15V505.385C1120.15 504.785 1120.11 504.259 1120.05 503.805C1119.99 503.339 1119.83 502.979 1119.57 502.725C1119.3 502.472 1118.85 502.345 1118.23 502.345C1117.59 502.345 1117.12 502.485 1116.83 502.765C1116.53 503.032 1116.34 503.419 1116.25 503.925C1116.17 504.419 1116.13 504.999 1116.13 505.665V512.085C1116.13 512.899 1116.19 513.545 1116.33 514.025C1116.46 514.492 1116.68 514.825 1116.99 515.025C1117.29 515.225 1117.71 515.325 1118.23 515.325C1118.84 515.325 1119.28 515.192 1119.55 514.925C1119.81 514.645 1119.98 514.265 1120.05 513.785C1120.11 513.305 1120.15 512.745 1120.15 512.105V510.905H1122.29V512.105C1122.29 513.092 1122.17 513.965 1121.93 514.725C1121.69 515.472 1121.27 516.059 1120.69 516.485C1120.1 516.899 1119.27 517.105 1118.21 517.105ZM1128.58 517.105C1127.48 517.105 1126.61 516.892 1125.96 516.465C1125.3 516.039 1124.84 515.432 1124.56 514.645C1124.28 513.845 1124.14 512.912 1124.14 511.845V505.705C1124.14 504.639 1124.28 503.725 1124.56 502.965C1124.85 502.192 1125.32 501.605 1125.96 501.205C1126.61 500.792 1127.48 500.585 1128.58 500.585C1129.67 500.585 1130.54 500.792 1131.18 501.205C1131.82 501.619 1132.28 502.205 1132.56 502.965C1132.85 503.725 1133 504.639 1133 505.705V511.865C1133 512.919 1132.85 513.839 1132.56 514.625C1132.28 515.412 1131.82 516.025 1131.18 516.465C1130.54 516.892 1129.67 517.105 1128.58 517.105ZM1128.58 515.325C1129.18 515.325 1129.63 515.205 1129.94 514.965C1130.24 514.712 1130.45 514.365 1130.56 513.925C1130.66 513.472 1130.72 512.945 1130.72 512.345V505.245C1130.72 504.645 1130.66 504.132 1130.56 503.705C1130.45 503.265 1130.24 502.932 1129.94 502.705C1129.63 502.465 1129.18 502.345 1128.58 502.345C1127.98 502.345 1127.52 502.465 1127.2 502.705C1126.89 502.932 1126.68 503.265 1126.58 503.705C1126.47 504.132 1126.42 504.645 1126.42 505.245V512.345C1126.42 512.945 1126.47 513.472 1126.58 513.925C1126.68 514.365 1126.89 514.712 1127.2 514.965C1127.52 515.205 1127.98 515.325 1128.58 515.325ZM1135.18 516.925L1135.48 500.725H1137.7L1140.56 513.865L1143.44 500.725H1145.64L1145.94 516.925H1144.12L1143.94 505.165L1141.2 516.925H1139.92L1137.2 505.165L1137.02 516.925H1135.18ZM1148.42 516.925V500.725H1152.44C1153.42 500.725 1154.19 500.905 1154.76 501.265C1155.35 501.612 1155.78 502.119 1156.04 502.785C1156.31 503.452 1156.44 504.259 1156.44 505.205C1156.44 506.059 1156.29 506.799 1155.98 507.425C1155.69 508.052 1155.25 508.539 1154.66 508.885C1154.08 509.219 1153.34 509.385 1152.46 509.385H1150.68V516.925H1148.42ZM1150.68 507.765H1151.72C1152.38 507.765 1152.89 507.692 1153.26 507.545C1153.64 507.399 1153.9 507.145 1154.06 506.785C1154.22 506.412 1154.3 505.892 1154.3 505.225C1154.3 504.452 1154.24 503.859 1154.12 503.445C1154.02 503.032 1153.78 502.745 1153.42 502.585C1153.06 502.425 1152.5 502.345 1151.74 502.345H1150.68V507.765ZM1162.21 517.105C1161.04 517.105 1160.14 516.872 1159.51 516.405C1158.89 515.939 1158.46 515.285 1158.23 514.445C1158.01 513.592 1157.89 512.599 1157.89 511.465V500.725H1160.05V511.565C1160.05 512.259 1160.1 512.892 1160.19 513.465C1160.29 514.039 1160.49 514.492 1160.79 514.825C1161.11 515.159 1161.59 515.325 1162.21 515.325C1162.85 515.325 1163.33 515.159 1163.63 514.825C1163.94 514.492 1164.14 514.039 1164.23 513.465C1164.33 512.892 1164.37 512.259 1164.37 511.565V500.725H1166.51V511.465C1166.51 512.599 1166.4 513.592 1166.17 514.445C1165.95 515.285 1165.52 515.939 1164.89 516.405C1164.28 516.872 1163.39 517.105 1162.21 517.105ZM1170.67 516.925V502.405H1167.93V500.725H1175.59V502.405H1172.93V516.925H1170.67ZM1177.15 516.925V500.725H1183.43V502.405H1179.41V507.765H1182.67V509.365H1179.41V515.305H1183.47V516.925H1177.15ZM1185.3 516.925V500.725H1188.56C1189.64 500.725 1190.53 500.872 1191.24 501.165C1191.94 501.445 1192.46 501.905 1192.8 502.545C1193.14 503.172 1193.32 503.999 1193.32 505.025C1193.32 505.652 1193.25 506.225 1193.12 506.745C1192.98 507.252 1192.77 507.685 1192.48 508.045C1192.18 508.392 1191.8 508.645 1191.32 508.805L1193.62 516.925H1191.44L1189.32 509.325H1187.56V516.925H1185.3ZM1187.56 507.705H1188.42C1189.06 507.705 1189.58 507.625 1189.98 507.465C1190.38 507.305 1190.67 507.032 1190.86 506.645C1191.04 506.259 1191.14 505.719 1191.14 505.025C1191.14 504.079 1190.96 503.399 1190.62 502.985C1190.27 502.559 1189.58 502.345 1188.56 502.345H1187.56V507.705ZM1199.49 517.105C1198.56 517.105 1197.78 516.905 1197.15 516.505C1196.54 516.105 1196.07 515.552 1195.75 514.845C1195.43 514.139 1195.24 513.319 1195.19 512.385L1197.19 511.845C1197.23 512.419 1197.32 512.972 1197.45 513.505C1197.6 514.039 1197.83 514.479 1198.15 514.825C1198.47 515.159 1198.92 515.325 1199.49 515.325C1200.08 515.325 1200.52 515.165 1200.81 514.845C1201.12 514.512 1201.27 514.039 1201.27 513.425C1201.27 512.692 1201.1 512.105 1200.77 511.665C1200.44 511.212 1200.02 510.759 1199.51 510.305L1196.79 507.905C1196.26 507.439 1195.86 506.932 1195.61 506.385C1195.36 505.825 1195.23 505.139 1195.23 504.325C1195.23 503.139 1195.57 502.219 1196.25 501.565C1196.93 500.912 1197.86 500.585 1199.03 500.585C1199.67 500.585 1200.23 500.672 1200.71 500.845C1201.2 501.005 1201.61 501.259 1201.93 501.605C1202.26 501.952 1202.52 502.392 1202.71 502.925C1202.91 503.445 1203.04 504.059 1203.11 504.765L1201.19 505.285C1201.15 504.752 1201.07 504.265 1200.95 503.825C1200.83 503.372 1200.62 503.012 1200.31 502.745C1200.02 502.465 1199.59 502.325 1199.03 502.325C1198.47 502.325 1198.03 502.479 1197.71 502.785C1197.4 503.079 1197.25 503.519 1197.25 504.105C1197.25 504.599 1197.33 505.005 1197.49 505.325C1197.66 505.645 1197.94 505.972 1198.31 506.305L1201.05 508.705C1201.66 509.239 1202.2 509.879 1202.67 510.625C1203.14 511.359 1203.37 512.232 1203.37 513.245C1203.37 514.045 1203.2 514.739 1202.87 515.325C1202.54 515.899 1202.08 516.339 1201.49 516.645C1200.92 516.952 1200.25 517.105 1199.49 517.105Z" fill="black"/>
<circle r="12.7847" transform="matrix(0.866025 0.5 -0.866025 0.5 998.486 610.71)" fill="#048F92" fill-opacity="0.12"/>
<circle r="5.77353" transform="matrix(0.866025 0.5 -0.866025 0.5 998.342 609.925)" fill="#048F92"/>
<path d="M997.842 608.925L997.842 609.425L998.842 609.425L998.842 608.925L997.842 608.925ZM998.842 471.925L998.842 471.425L997.842 471.425L997.842 471.925L998.842 471.925ZM997.842 473.94L997.842 474.44L998.842 474.44L998.842 473.94L997.842 473.94ZM998.842 477.969L998.842 477.469L997.842 477.469L997.842 477.969L998.842 477.969ZM997.842 481.999L997.842 482.499L998.842 482.499L998.842 481.999L997.842 481.999ZM998.842 486.028L998.842 485.528L997.842 485.528L997.842 486.028L998.842 486.028ZM997.842 490.058L997.842 490.558L998.842 490.558L998.842 490.058L997.842 490.058ZM998.842 494.087L998.842 493.587L997.842 493.587L997.842 494.087L998.842 494.087ZM997.842 498.116L997.842 498.616L998.842 498.616L998.842 498.116L997.842 498.116ZM998.842 502.146L998.842 501.646L997.842 501.646L997.842 502.146L998.842 502.146ZM997.842 506.175L997.842 506.675L998.842 506.675L998.842 506.175L997.842 506.175ZM998.842 510.205L998.842 509.705L997.842 509.705L997.842 510.205L998.842 510.205ZM997.842 514.234L997.842 514.734L998.842 514.734L998.842 514.234L997.842 514.234ZM998.842 518.264L998.842 517.764L997.842 517.764L997.842 518.264L998.842 518.264ZM997.842 522.293L997.842 522.793L998.842 522.793L998.842 522.293L997.842 522.293ZM998.842 526.322L998.842 525.822L997.842 525.822L997.842 526.322L998.842 526.322ZM997.842 530.352L997.842 530.852L998.842 530.852L998.842 530.352L997.842 530.352ZM998.842 534.381L998.842 533.881L997.842 533.881L997.842 534.381L998.842 534.381ZM997.842 538.411L997.842 538.911L998.842 538.911L998.842 538.411L997.842 538.411ZM998.842 542.44L998.842 541.94L997.842 541.94L997.842 542.44L998.842 542.44ZM997.842 546.469L997.842 546.969L998.842 546.969L998.842 546.469L997.842 546.469ZM998.842 550.499L998.842 549.999L997.842 549.999L997.842 550.499L998.842 550.499ZM997.842 554.528L997.842 555.028L998.842 555.028L998.842 554.528L997.842 554.528ZM998.842 558.558L998.842 558.058L997.842 558.058L997.842 558.558L998.842 558.558ZM997.842 562.587L997.842 563.087L998.842 563.087L998.842 562.587L997.842 562.587ZM998.842 566.616L998.842 566.116L997.842 566.116L997.842 566.616L998.842 566.616ZM997.842 570.646L997.842 571.146L998.842 571.146L998.842 570.646L997.842 570.646ZM998.842 574.675L998.842 574.175L997.842 574.175L997.842 574.675L998.842 574.675ZM997.842 578.705L997.842 579.205L998.842 579.205L998.842 578.705L997.842 578.705ZM998.842 582.734L998.842 582.234L997.842 582.234L997.842 582.734L998.842 582.734ZM997.842 586.764L997.842 587.264L998.842 587.264L998.842 586.764L997.842 586.764ZM998.842 590.793L998.842 590.293L997.842 590.293L997.842 590.793L998.842 590.793ZM997.842 594.822L997.842 595.322L998.842 595.322L998.842 594.822L997.842 594.822ZM998.842 598.852L998.842 598.352L997.842 598.352L997.842 598.852L998.842 598.852ZM997.842 602.881L997.842 603.381L998.842 603.381L998.842 602.881L997.842 602.881ZM998.842 606.911L998.842 606.411L997.842 606.411L997.842 606.911L998.842 606.911ZM997.842 471.925L997.842 473.94L998.842 473.94L998.842 471.925L997.842 471.925ZM997.842 477.969L997.842 481.999L998.842 481.999L998.842 477.969L997.842 477.969ZM997.842 486.028L997.842 490.058L998.842 490.058L998.842 486.028L997.842 486.028ZM997.842 494.087L997.842 498.116L998.842 498.116L998.842 494.087L997.842 494.087ZM997.842 502.146L997.842 506.175L998.842 506.175L998.842 502.146L997.842 502.146ZM997.842 510.205L997.842 514.234L998.842 514.234L998.842 510.205L997.842 510.205ZM997.842 518.264L997.842 522.293L998.842 522.293L998.842 518.264L997.842 518.264ZM997.842 526.322L997.842 530.352L998.842 530.352L998.842 526.322L997.842 526.322ZM997.842 534.381L997.842 538.411L998.842 538.411L998.842 534.381L997.842 534.381ZM997.842 542.44L997.842 546.469L998.842 546.469L998.842 542.44L997.842 542.44ZM997.842 550.499L997.842 554.528L998.842 554.528L998.842 550.499L997.842 550.499ZM997.842 558.558L997.842 562.587L998.842 562.587L998.842 558.558L997.842 558.558ZM997.842 566.616L997.842 570.646L998.842 570.646L998.842 566.616L997.842 566.616ZM997.842 574.675L997.842 578.705L998.842 578.705L998.842 574.675L997.842 574.675ZM997.842 582.734L997.842 586.764L998.842 586.764L998.842 582.734L997.842 582.734ZM997.842 590.793L997.842 594.822L998.842 594.822L998.842 590.793L997.842 590.793ZM997.842 598.852L997.842 602.881L998.842 602.881L998.842 598.852L997.842 598.852ZM997.842 606.911L997.842 608.925L998.842 608.925L998.842 606.911L997.842 606.911Z" fill="#048F92"/>
<rect width="2" height="57" transform="translate(997.342 465.925)" fill="#048F92"/>
<defs>
<linearGradient id="paint0_linear_209_124" x1="742.178" y1="-19.0747" x2="334.064" y2="687.8" gradientUnits="userSpaceOnUse">
<stop stop-color="#BDBDBD" stop-opacity="0"/>
<stop offset="0.510417" stop-color="#BDBDBD"/>
<stop offset="1" stop-color="#BDBDBD" stop-opacity="0"/>
</linearGradient>
<linearGradient id="paint1_linear_209_124" x1="1069.1" y1="169.675" x2="660.988" y2="876.55" gradientUnits="userSpaceOnUse">
<stop stop-color="#BDBDBD" stop-opacity="0"/>
<stop offset="0.510417" stop-color="#BDBDBD"/>
<stop offset="1" stop-color="#BDBDBD" stop-opacity="0"/>
</linearGradient>
<linearGradient id="paint2_linear_209_124" x1="1396.46" y1="358.675" x2="988.345" y2="1065.55" gradientUnits="userSpaceOnUse">
<stop stop-color="#BDBDBD" stop-opacity="0"/>
<stop offset="0.510417" stop-color="#BDBDBD"/>
<stop offset="1" stop-color="#BDBDBD" stop-opacity="0"/>
</linearGradient>
<linearGradient id="paint3_linear_209_124" x1="905.424" y1="75.1753" x2="497.309" y2="782.05" gradientUnits="userSpaceOnUse">
<stop stop-color="#BDBDBD" stop-opacity="0"/>
<stop offset="0.510417" stop-color="#BDBDBD"/>
<stop offset="1" stop-color="#BDBDBD" stop-opacity="0"/>
</linearGradient>
<linearGradient id="paint4_linear_209_124" x1="1232.78" y1="264.175" x2="824.667" y2="971.05" gradientUnits="userSpaceOnUse">
<stop stop-color="#BDBDBD" stop-opacity="0"/>
<stop offset="0.510417" stop-color="#BDBDBD"/>
<stop offset="1" stop-color="#BDBDBD" stop-opacity="0"/>
</linearGradient>
<linearGradient id="paint5_linear_209_124" x1="1560.14" y1="453.175" x2="1152.03" y2="1160.05" gradientUnits="userSpaceOnUse">
<stop stop-color="#BDBDBD" stop-opacity="0"/>
<stop offset="0.510417" stop-color="#BDBDBD"/>
<stop offset="1" stop-color="#BDBDBD" stop-opacity="0"/>
</linearGradient>
<linearGradient id="paint6_linear_209_124" x1="796.305" y1="12.1753" x2="388.19" y2="719.05" gradientUnits="userSpaceOnUse">
<stop stop-color="#BDBDBD" stop-opacity="0"/>
<stop offset="0.510417" stop-color="#BDBDBD"/>
<stop offset="1" stop-color="#BDBDBD" stop-opacity="0"/>
</linearGradient>
<linearGradient id="paint7_linear_209_124" x1="1123.66" y1="201.175" x2="715.548" y2="908.05" gradientUnits="userSpaceOnUse">
<stop stop-color="#BDBDBD" stop-opacity="0"/>
<stop offset="0.510417" stop-color="#BDBDBD"/>
<stop offset="1" stop-color="#BDBDBD" stop-opacity="0"/>
</linearGradient>
<linearGradient id="paint8_linear_209_124" x1="1451.02" y1="390.175" x2="1042.91" y2="1097.05" gradientUnits="userSpaceOnUse">
<stop stop-color="#BDBDBD" stop-opacity="0"/>
<stop offset="0.510417" stop-color="#BDBDBD"/>
<stop offset="1" stop-color="#BDBDBD" stop-opacity="0"/>
</linearGradient>
<linearGradient id="paint9_linear_209_124" x1="959.983" y1="106.675" x2="551.869" y2="813.55" gradientUnits="userSpaceOnUse">
<stop stop-color="#BDBDBD" stop-opacity="0"/>
<stop offset="0.510417" stop-color="#BDBDBD"/>
<stop offset="1" stop-color="#BDBDBD" stop-opacity="0"/>
</linearGradient>
<linearGradient id="paint10_linear_209_124" x1="1287.34" y1="295.675" x2="879.227" y2="1002.55" gradientUnits="userSpaceOnUse">
<stop stop-color="#BDBDBD" stop-opacity="0"/>
<stop offset="0.510417" stop-color="#BDBDBD"/>
<stop offset="1" stop-color="#BDBDBD" stop-opacity="0"/>
</linearGradient>
<linearGradient id="paint11_linear_209_124" x1="1614.7" y1="484.675" x2="1206.59" y2="1191.55" gradientUnits="userSpaceOnUse">
<stop stop-color="#BDBDBD" stop-opacity="0"/>
<stop offset="0.510417" stop-color="#BDBDBD"/>
<stop offset="1" stop-color="#BDBDBD" stop-opacity="0"/>
</linearGradient>
<linearGradient id="paint12_linear_209_124" x1="850.864" y1="43.6753" x2="442.75" y2="750.55" gradientUnits="userSpaceOnUse">
<stop stop-color="#BDBDBD" stop-opacity="0"/>
<stop offset="0.510417" stop-color="#BDBDBD"/>
<stop offset="1" stop-color="#BDBDBD" stop-opacity="0"/>
</linearGradient>
<linearGradient id="paint13_linear_209_124" x1="1178.22" y1="232.675" x2="770.108" y2="939.55" gradientUnits="userSpaceOnUse">
<stop stop-color="#BDBDBD" stop-opacity="0"/>
<stop offset="0.510417" stop-color="#BDBDBD"/>
<stop offset="1" stop-color="#BDBDBD" stop-opacity="0"/>
</linearGradient>
<linearGradient id="paint14_linear_209_124" x1="1505.58" y1="421.675" x2="1097.46" y2="1128.55" gradientUnits="userSpaceOnUse">
<stop stop-color="#BDBDBD" stop-opacity="0"/>
<stop offset="0.510417" stop-color="#BDBDBD"/>
<stop offset="1" stop-color="#BDBDBD" stop-opacity="0"/>
</linearGradient>
<linearGradient id="paint15_linear_209_124" x1="1014.54" y1="138.175" x2="606.428" y2="845.05" gradientUnits="userSpaceOnUse">
<stop stop-color="#BDBDBD" stop-opacity="0"/>
<stop offset="0.510417" stop-color="#BDBDBD"/>
<stop offset="1" stop-color="#BDBDBD" stop-opacity="0"/>
</linearGradient>
<linearGradient id="paint16_linear_209_124" x1="1341.9" y1="327.175" x2="933.786" y2="1034.05" gradientUnits="userSpaceOnUse">
<stop stop-color="#BDBDBD" stop-opacity="0"/>
<stop offset="0.510417" stop-color="#BDBDBD"/>
<stop offset="1" stop-color="#BDBDBD" stop-opacity="0"/>
</linearGradient>
<linearGradient id="paint17_linear_209_124" x1="1669.26" y1="516.175" x2="1261.14" y2="1223.05" gradientUnits="userSpaceOnUse">
<stop stop-color="#BDBDBD" stop-opacity="0"/>
<stop offset="0.510417" stop-color="#BDBDBD"/>
<stop offset="1" stop-color="#BDBDBD" stop-opacity="0"/>
</linearGradient>
<linearGradient id="paint18_linear_209_124" x1="129.464" y1="250.675" x2="661.853" y2="1172.8" gradientUnits="userSpaceOnUse">
<stop stop-color="#BDBDBD" stop-opacity="0"/>
<stop offset="0.510417" stop-color="#BDBDBD"/>
<stop offset="1" stop-color="#BDBDBD" stop-opacity="0"/>
</linearGradient>
<linearGradient id="paint19_linear_209_124" x1="446.43" y1="67.6748" x2="978.819" y2="989.8" gradientUnits="userSpaceOnUse">
<stop stop-color="#BDBDBD" stop-opacity="0"/>
<stop offset="0.510417" stop-color="#BDBDBD"/>
<stop offset="1" stop-color="#BDBDBD" stop-opacity="0"/>
</linearGradient>
<linearGradient id="paint20_linear_209_124" x1="-29.0182" y1="342.175" x2="503.371" y2="1264.3" gradientUnits="userSpaceOnUse">
<stop stop-color="#BDBDBD" stop-opacity="0"/>
<stop offset="0.510417" stop-color="#BDBDBD"/>
<stop offset="1" stop-color="#BDBDBD" stop-opacity="0"/>
</linearGradient>
<linearGradient id="paint21_linear_209_124" x1="287.947" y1="159.175" x2="820.336" y2="1081.3" gradientUnits="userSpaceOnUse">
<stop stop-color="#BDBDBD" stop-opacity="0"/>
<stop offset="0.510417" stop-color="#BDBDBD"/>
<stop offset="1" stop-color="#BDBDBD" stop-opacity="0"/>
</linearGradient>
<linearGradient id="paint22_linear_209_124" x1="182.292" y1="220.175" x2="714.682" y2="1142.3" gradientUnits="userSpaceOnUse">
<stop stop-color="#BDBDBD" stop-opacity="0"/>
<stop offset="0.510417" stop-color="#BDBDBD"/>
<stop offset="1" stop-color="#BDBDBD" stop-opacity="0"/>
</linearGradient>
<linearGradient id="paint23_linear_209_124" x1="499.257" y1="37.1748" x2="1031.65" y2="959.3" gradientUnits="userSpaceOnUse">
<stop stop-color="#BDBDBD" stop-opacity="0"/>
<stop offset="0.510417" stop-color="#BDBDBD"/>
<stop offset="1" stop-color="#BDBDBD" stop-opacity="0"/>
</linearGradient>
<linearGradient id="paint24_linear_209_124" x1="23.8095" y1="311.675" x2="556.199" y2="1233.8" gradientUnits="userSpaceOnUse">
<stop stop-color="#BDBDBD" stop-opacity="0"/>
<stop offset="0.510417" stop-color="#BDBDBD"/>
<stop offset="1" stop-color="#BDBDBD" stop-opacity="0"/>
</linearGradient>
<linearGradient id="paint25_linear_209_124" x1="340.775" y1="128.675" x2="873.164" y2="1050.8" gradientUnits="userSpaceOnUse">
<stop stop-color="#BDBDBD" stop-opacity="0"/>
<stop offset="0.510417" stop-color="#BDBDBD"/>
<stop offset="1" stop-color="#BDBDBD" stop-opacity="0"/>
</linearGradient>
<linearGradient id="paint26_linear_209_124" x1="235.12" y1="189.675" x2="767.509" y2="1111.8" gradientUnits="userSpaceOnUse">
<stop stop-color="#BDBDBD" stop-opacity="0"/>
<stop offset="0.510417" stop-color="#BDBDBD"/>
<stop offset="1" stop-color="#BDBDBD" stop-opacity="0"/>
</linearGradient>
<linearGradient id="paint27_linear_209_124" x1="552.085" y1="6.6748" x2="1084.47" y2="928.8" gradientUnits="userSpaceOnUse">
<stop stop-color="#BDBDBD" stop-opacity="0"/>
<stop offset="0.510417" stop-color="#BDBDBD"/>
<stop offset="1" stop-color="#BDBDBD" stop-opacity="0"/>
</linearGradient>
<linearGradient id="paint28_linear_209_124" x1="76.6371" y1="281.175" x2="609.026" y2="1203.3" gradientUnits="userSpaceOnUse">
<stop stop-color="#BDBDBD" stop-opacity="0"/>
<stop offset="0.510417" stop-color="#BDBDBD"/>
<stop offset="1" stop-color="#BDBDBD" stop-opacity="0"/>
</linearGradient>
<linearGradient id="paint29_linear_209_124" x1="393.602" y1="98.1748" x2="925.992" y2="1020.3" gradientUnits="userSpaceOnUse">
<stop stop-color="#BDBDBD" stop-opacity="0"/>
<stop offset="0.510417" stop-color="#BDBDBD"/>
<stop offset="1" stop-color="#BDBDBD" stop-opacity="0"/>
</linearGradient>
<clipPath id="clip0_209_124">
<rect width="24" height="24" fill="white" transform="matrix(0.866025 0.5 -2.20305e-08 1 642.342 583.925)"/>
</clipPath>
<clipPath id="clip1_209_124">
<rect width="24" height="24" fill="white" transform="matrix(0.866025 0.5 -2.20305e-08 1 663.127 595.925)"/>
</clipPath>
<clipPath id="clip2_209_124">
<rect width="24" height="24" fill="white" transform="matrix(0.866025 0.5 -2.20305e-08 1 683.912 607.925)"/>
</clipPath>
<clipPath id="clip3_209_124">
<rect width="24" height="24" fill="white" transform="matrix(-0.866025 -0.5 2.20305e-08 -1 1008.35 468)"/>
</clipPath>
<clipPath id="clip4_209_124">
<rect width="24" height="24" fill="white" transform="matrix(-0.866025 -0.5 2.20305e-08 -1 987.569 456)"/>
</clipPath>
<clipPath id="clip5_209_124">
<rect width="24" height="24" fill="white" transform="matrix(-0.866025 -0.5 2.20305e-08 -1 966.785 444)"/>
</clipPath>
<clipPath id="clip6_209_124">
<rect width="24" height="24" fill="white" transform="matrix(0.866025 -0.5 -2.20305e-08 -1 654.342 443.174)"/>
</clipPath>
<clipPath id="clip7_209_124">
<rect width="24" height="24" fill="white" transform="matrix(0.866025 -0.5 -2.20305e-08 -1 675.127 431.174)"/>
</clipPath>
<clipPath id="clip8_209_124">
<rect width="24" height="24" fill="white" transform="matrix(0.866025 -0.5 -2.20305e-08 -1 696.342 419.174)"/>
</clipPath>
</defs>
</svg>
