<svg width="1535" height="990" viewBox="0 0 1535 990" fill="none" xmlns="http://www.w3.org/2000/svg">
<mask id="mask0_143_17" style="mask-type:alpha" maskUnits="userSpaceOnUse" x="0" y="101" width="1535" height="889">
<path d="M1533.01 535.687L755.202 989.422L0.997165 555.071L778.607 101.578L1533.01 535.687Z" fill="white" stroke="#BDBDBD"/>
</mask>
<g mask="url(#mask0_143_17)">
<g opacity="0.5">
<path d="M741.745 53.7499L-74.4844 525" stroke="url(#paint0_linear_143_17)" stroke-linecap="square" stroke-linejoin="round"/>
<path d="M1068.67 242.5L252.44 713.75" stroke="url(#paint1_linear_143_17)" stroke-linecap="square" stroke-linejoin="round"/>
<path d="M1396.03 431.5L579.797 902.75" stroke="url(#paint2_linear_143_17)" stroke-linecap="square" stroke-linejoin="round"/>
<path d="M904.99 148L88.7612 619.25" stroke="url(#paint3_linear_143_17)" stroke-linecap="square" stroke-linejoin="round"/>
<path d="M1232.35 337L416.119 808.25" stroke="url(#paint4_linear_143_17)" stroke-linecap="square" stroke-linejoin="round"/>
<path d="M1559.71 526L743.477 997.25" stroke="url(#paint5_linear_143_17)" stroke-linecap="square" stroke-linejoin="round"/>
<path d="M795.871 84.9999L-20.3579 556.25" stroke="url(#paint6_linear_143_17)" stroke-linecap="square" stroke-linejoin="round"/>
<path d="M1123.23 274L307 745.25" stroke="url(#paint7_linear_143_17)" stroke-linecap="square" stroke-linejoin="round"/>
<path d="M1450.59 463L634.357 934.25" stroke="url(#paint8_linear_143_17)" stroke-linecap="square" stroke-linejoin="round"/>
<path d="M959.55 179.5L143.321 650.75" stroke="url(#paint9_linear_143_17)" stroke-linecap="square" stroke-linejoin="round"/>
<path d="M1286.91 368.5L470.679 839.75" stroke="url(#paint10_linear_143_17)" stroke-linecap="square" stroke-linejoin="round"/>
<path d="M1614.27 557.5L798.037 1028.75" stroke="url(#paint11_linear_143_17)" stroke-linecap="square" stroke-linejoin="round"/>
<path d="M850.431 116.5L34.2017 587.75" stroke="url(#paint12_linear_143_17)" stroke-linecap="square" stroke-linejoin="round"/>
<path d="M1177.79 305.5L361.56 776.75" stroke="url(#paint13_linear_143_17)" stroke-linecap="square" stroke-linejoin="round"/>
<path d="M1505.15 494.5L688.917 965.75" stroke="url(#paint14_linear_143_17)" stroke-linecap="square" stroke-linejoin="round"/>
<path d="M1014.11 211L197.88 682.25" stroke="url(#paint15_linear_143_17)" stroke-linecap="square" stroke-linejoin="round"/>
<path d="M1341.47 400L525.238 871.25" stroke="url(#paint16_linear_143_17)" stroke-linecap="square" stroke-linejoin="round"/>
<path d="M1668.83 589L852.596 1060.25" stroke="url(#paint17_linear_143_17)" stroke-linecap="square" stroke-linejoin="round"/>
<path d="M129.031 324L1193.81 938.75" stroke="url(#paint18_linear_143_17)" stroke-linecap="square" stroke-linejoin="round"/>
<path d="M445.997 141L1510.78 755.75" stroke="url(#paint19_linear_143_17)" stroke-linecap="square" stroke-linejoin="round"/>
<path d="M-29.4507 415.5L1035.33 1030.25" stroke="url(#paint20_linear_143_17)" stroke-linecap="square" stroke-linejoin="round"/>
<path d="M287.514 232.5L1352.29 847.25" stroke="url(#paint21_linear_143_17)" stroke-linecap="square" stroke-linejoin="round"/>
<path d="M181.859 293.5L1246.64 908.25" stroke="url(#paint22_linear_143_17)" stroke-linecap="square" stroke-linejoin="round"/>
<path d="M498.825 110.5L1563.6 725.25" stroke="url(#paint23_linear_143_17)" stroke-linecap="square" stroke-linejoin="round"/>
<path d="M23.377 385L1088.16 999.75" stroke="url(#paint24_linear_143_17)" stroke-linecap="square" stroke-linejoin="round"/>
<path d="M340.342 202L1405.12 816.75" stroke="url(#paint25_linear_143_17)" stroke-linecap="square" stroke-linejoin="round"/>
<path d="M234.687 263L1299.47 877.75" stroke="url(#paint26_linear_143_17)" stroke-linecap="square" stroke-linejoin="round"/>
<path d="M551.652 79.9999L1616.43 694.75" stroke="url(#paint27_linear_143_17)" stroke-linecap="square" stroke-linejoin="round"/>
<path d="M76.2046 354.5L1140.98 969.25" stroke="url(#paint28_linear_143_17)" stroke-linecap="square" stroke-linejoin="round"/>
<path d="M393.169 171.5L1457.95 786.25" stroke="url(#paint29_linear_143_17)" stroke-linecap="square" stroke-linejoin="round"/>
</g>
</g>
<g clip-path="url(#clip0_143_17)">
<path d="M537.112 640.049L495.597 616.08C494.715 615.571 494 615.972 494 616.975L494 642.416C494 643.42 494.715 644.646 495.597 645.156L537.112 669.124C537.994 669.633 538.709 669.233 538.709 668.229L538.709 642.788C538.709 641.784 537.994 640.558 537.112 640.049Z" fill="white" stroke="black" stroke-linecap="round" stroke-linejoin="round"/>
<path d="M533.305 642.642L491.79 618.674C490.908 618.164 490.193 618.565 490.193 619.569L490.193 645.01C490.193 646.014 490.908 647.24 491.79 647.749L533.305 671.718C534.187 672.227 534.902 671.826 534.902 670.823L534.902 645.381C534.902 644.378 534.187 643.151 533.305 642.642Z" fill="white" stroke="black" stroke-linecap="round" stroke-linejoin="round"/>
<path d="M529.305 644.642L487.79 620.674C486.908 620.164 486.193 620.565 486.193 621.569L486.193 647.01C486.193 648.014 486.908 649.24 487.79 649.749L529.305 673.718C530.187 674.227 530.902 673.826 530.902 672.823L530.902 647.381C530.902 646.378 530.187 645.151 529.305 644.642Z" fill="white" stroke="black" stroke-linecap="round" stroke-linejoin="round"/>
<path d="M508.548 654.465C512.075 656.501 514.935 654.898 514.935 650.883C514.935 646.869 512.075 641.963 508.548 639.927C505.02 637.89 502.161 639.494 502.161 643.508C502.161 647.523 505.02 652.428 508.548 654.465Z" fill="#048F92"/>
<path d="M518.128 638.189L530.902 658.285" stroke="black" stroke-linecap="round" stroke-linejoin="round"/>
<path d="M518.128 667.265L530.902 661.919" stroke="black" stroke-linecap="round" stroke-linejoin="round"/>
<path d="M498.967 627.127L486.193 632.472" stroke="black" stroke-linecap="round" stroke-linejoin="round"/>
<path d="M498.967 656.202L486.193 636.107" stroke="black" stroke-linecap="round" stroke-linejoin="round"/>
</g>
<path d="M382.825 259.8H385.045L387.905 272.94L390.785 259.8H392.985L393.285 276H391.465L391.285 264.24L388.545 276H387.265L384.545 264.24L384.365 276H382.525L382.825 259.8ZM395.888 259.8H398.108V276H395.888V259.8ZM400.729 259.8H402.269L406.869 270.56V259.8H408.749V276H407.309L402.649 264.94V276H400.729V259.8ZM411.415 259.8H413.635V276H411.415V259.8ZM416.256 259.8H417.796L422.396 270.56V259.8H424.276V276H422.836L418.176 264.94V276H416.256V259.8ZM430.683 276.2C429.216 276.2 428.156 275.74 427.503 274.82C426.849 273.887 426.523 272.507 426.523 270.68V265.26C426.523 264.007 426.649 262.98 426.903 262.18C427.169 261.367 427.616 260.747 428.243 260.32C428.883 259.88 429.756 259.66 430.863 259.66C432.356 259.66 433.429 260.04 434.083 260.8C434.749 261.56 435.083 262.753 435.083 264.38V264.98H432.963V264.48C432.963 263.707 432.916 263.113 432.823 262.7C432.729 262.273 432.529 261.953 432.223 261.74C431.929 261.527 431.489 261.42 430.903 261.42C430.276 261.42 429.809 261.567 429.503 261.86C429.196 262.14 428.996 262.52 428.903 263C428.823 263.48 428.783 264.12 428.783 264.92V270.92C428.783 272.16 428.929 273.053 429.223 273.6C429.529 274.133 430.109 274.4 430.963 274.4C431.803 274.4 432.376 274.107 432.683 273.52C433.003 272.933 433.163 271.993 433.163 270.7V269.58H431.103V267.98H435.203V276H433.783L433.563 274.14C433.056 275.513 432.096 276.2 430.683 276.2ZM446.156 276.18C444.556 276.18 443.429 275.707 442.776 274.76C442.123 273.8 441.796 272.48 441.796 270.8V265.08C441.796 263.307 442.116 261.96 442.756 261.04C443.396 260.12 444.529 259.66 446.156 259.66C447.609 259.66 448.649 260.053 449.276 260.84C449.916 261.627 450.236 262.787 450.236 264.32V265.6H448.096V264.46C448.096 263.713 448.063 263.14 447.996 262.74C447.929 262.34 447.756 262.02 447.476 261.78C447.209 261.54 446.776 261.42 446.176 261.42C445.563 261.42 445.103 261.553 444.796 261.82C444.503 262.073 444.309 262.433 444.216 262.9C444.123 263.353 444.076 263.967 444.076 264.74V271.16C444.076 271.987 444.143 272.633 444.276 273.1C444.409 273.567 444.623 273.9 444.916 274.1C445.223 274.3 445.643 274.4 446.176 274.4C446.749 274.4 447.176 274.273 447.456 274.02C447.736 273.767 447.909 273.42 447.976 272.98C448.056 272.54 448.096 271.94 448.096 271.18V269.98H450.236V271.18C450.236 272.793 449.929 274.033 449.316 274.9C448.716 275.753 447.663 276.18 446.156 276.18ZM456.529 276.18C454.942 276.18 453.802 275.733 453.109 274.84C452.429 273.933 452.089 272.627 452.089 270.92V264.78C452.089 263.1 452.436 261.827 453.129 260.96C453.822 260.093 454.956 259.66 456.529 259.66C458.102 259.66 459.229 260.1 459.909 260.98C460.602 261.847 460.949 263.113 460.949 264.78V270.94C460.949 272.62 460.602 273.913 459.909 274.82C459.216 275.727 458.089 276.18 456.529 276.18ZM456.529 274.4C457.369 274.4 457.936 274.153 458.229 273.66C458.522 273.167 458.669 272.42 458.669 271.42V264.32C458.669 263.333 458.522 262.607 458.229 262.14C457.936 261.66 457.369 261.42 456.529 261.42C455.676 261.42 455.102 261.66 454.809 262.14C454.516 262.607 454.369 263.333 454.369 264.32V271.42C454.369 272.42 454.516 273.167 454.809 273.66C455.102 274.153 455.676 274.4 456.529 274.4ZM463.43 259.8H465.65L468.51 272.94L471.39 259.8H473.59L473.89 276H472.07L471.89 264.24L469.15 276H467.87L465.15 264.24L464.97 276H463.13L463.43 259.8ZM476.373 259.8H480.393C481.793 259.8 482.807 260.18 483.433 260.94C484.073 261.7 484.393 262.813 484.393 264.28C484.393 265.6 484.053 266.627 483.373 267.36C482.693 268.093 481.707 268.46 480.413 268.46H478.633V276H476.373V259.8ZM479.673 266.84C480.34 266.84 480.853 266.767 481.213 266.62C481.587 266.473 481.853 266.22 482.013 265.86C482.173 265.5 482.253 264.98 482.253 264.3C482.253 263.473 482.193 262.867 482.073 262.48C481.953 262.093 481.713 261.82 481.353 261.66C481.007 261.5 480.453 261.42 479.693 261.42H478.633V266.84H479.673ZM487.781 259.8H489.961L493.421 276H491.281L490.541 271.92H487.241L486.461 276H484.341L487.781 259.8ZM490.241 270.3L488.881 263L487.541 270.3H490.241ZM495.065 259.8H496.605L501.205 270.56V259.8H503.085V276H501.645L496.985 264.94V276H495.065V259.8ZM508.111 270.28L504.611 259.8H506.711L509.191 267.62L511.631 259.8H513.751L510.271 270.28V276H508.111V270.28Z" fill="black"/>
<circle r="12.7847" transform="matrix(0.866025 0.5 -0.866025 0.5 527.144 380.785)" fill="#048F92" fill-opacity="0.12"/>
<circle r="5.77353" transform="matrix(0.866025 0.5 -0.866025 0.5 527 380)" fill="#048F92"/>
<path d="M526.5 378L526.5 378.5L527.5 378.5L527.5 378L526.5 378ZM527.5 268L527.5 267.5L526.5 267.5L526.5 268L527.5 268ZM526.5 269.964L526.5 270.464L527.5 270.464L527.5 269.964L526.5 269.964ZM527.5 273.893L527.5 273.393L526.5 273.393L526.5 273.893L527.5 273.893ZM526.5 277.821L526.5 278.321L527.5 278.321L527.5 277.821L526.5 277.821ZM527.5 281.75L527.5 281.25L526.5 281.25L526.5 281.75L527.5 281.75ZM526.5 285.679L526.5 286.179L527.5 286.179L527.5 285.679L526.5 285.679ZM527.5 289.607L527.5 289.107L526.5 289.107L526.5 289.607L527.5 289.607ZM526.5 293.536L526.5 294.036L527.5 294.036L527.5 293.536L526.5 293.536ZM527.5 297.464L527.5 296.964L526.5 296.964L526.5 297.464L527.5 297.464ZM526.5 301.393L526.5 301.893L527.5 301.893L527.5 301.393L526.5 301.393ZM527.5 305.321L527.5 304.821L526.5 304.821L526.5 305.321L527.5 305.321ZM526.5 309.25L526.5 309.75L527.5 309.75L527.5 309.25L526.5 309.25ZM527.5 313.179L527.5 312.679L526.5 312.679L526.5 313.179L527.5 313.179ZM526.5 317.107L526.5 317.607L527.5 317.607L527.5 317.107L526.5 317.107ZM527.5 321.036L527.5 320.536L526.5 320.536L526.5 321.036L527.5 321.036ZM526.5 324.964L526.5 325.464L527.5 325.464L527.5 324.964L526.5 324.964ZM527.5 328.893L527.5 328.393L526.5 328.393L526.5 328.893L527.5 328.893ZM526.5 332.821L526.5 333.321L527.5 333.321L527.5 332.821L526.5 332.821ZM527.5 336.75L527.5 336.25L526.5 336.25L526.5 336.75L527.5 336.75ZM526.5 340.679L526.5 341.179L527.5 341.179L527.5 340.679L526.5 340.679ZM527.5 344.607L527.5 344.107L526.5 344.107L526.5 344.607L527.5 344.607ZM526.5 348.536L526.5 349.036L527.5 349.036L527.5 348.536L526.5 348.536ZM527.5 352.464L527.5 351.964L526.5 351.964L526.5 352.464L527.5 352.464ZM526.5 356.393L526.5 356.893L527.5 356.893L527.5 356.393L526.5 356.393ZM527.5 360.321L527.5 359.821L526.5 359.821L526.5 360.321L527.5 360.321ZM526.5 364.25L526.5 364.75L527.5 364.75L527.5 364.25L526.5 364.25ZM527.5 368.179L527.5 367.679L526.5 367.679L526.5 368.179L527.5 368.179ZM526.5 372.107L526.5 372.607L527.5 372.607L527.5 372.107L526.5 372.107ZM527.5 376.036L527.5 375.536L526.5 375.536L526.5 376.036L527.5 376.036ZM526.5 268L526.5 269.964L527.5 269.964L527.5 268L526.5 268ZM526.5 273.893L526.5 277.821L527.5 277.821L527.5 273.893L526.5 273.893ZM526.5 281.75L526.5 285.679L527.5 285.679L527.5 281.75L526.5 281.75ZM526.5 289.607L526.5 293.536L527.5 293.536L527.5 289.607L526.5 289.607ZM526.5 297.464L526.5 301.393L527.5 301.393L527.5 297.464L526.5 297.464ZM526.5 305.321L526.5 309.25L527.5 309.25L527.5 305.321L526.5 305.321ZM526.5 313.179L526.5 317.107L527.5 317.107L527.5 313.179L526.5 313.179ZM526.5 321.036L526.5 324.964L527.5 324.964L527.5 321.036L526.5 321.036ZM526.5 328.893L526.5 332.821L527.5 332.821L527.5 328.893L526.5 328.893ZM526.5 336.75L526.5 340.679L527.5 340.679L527.5 336.75L526.5 336.75ZM526.5 344.607L526.5 348.536L527.5 348.536L527.5 344.607L526.5 344.607ZM526.5 352.464L526.5 356.393L527.5 356.393L527.5 352.464L526.5 352.464ZM526.5 360.321L526.5 364.25L527.5 364.25L527.5 360.321L526.5 360.321ZM526.5 368.179L526.5 372.107L527.5 372.107L527.5 368.179L526.5 368.179ZM526.5 376.036L526.5 378L527.5 378L527.5 376.036L526.5 376.036Z" fill="#048F92"/>
<rect width="2" height="48" transform="translate(526 246)" fill="#048F92"/>
<path d="M786.875 525.625L714.5 567.25L581 490" stroke="#048F92" stroke-linecap="square" stroke-linejoin="round" stroke-dasharray="4 6"/>
<path d="M827 785L754.625 826.625L340 587L421 539.5" stroke="#048F92" stroke-linecap="square" stroke-linejoin="round" stroke-dasharray="4 6"/>
<path d="M1042.5 659.5L1232 549L788.5 291L638 379" stroke="#048F92" stroke-linecap="square" stroke-linejoin="round" stroke-dasharray="4 6"/>
<path d="M919 513L1105.5 622" stroke="#048F92" stroke-linecap="square" stroke-linejoin="round" stroke-dasharray="4 6"/>
<path d="M995.361 527.709L1029 547.248V488.539L995.361 469V527.709Z" fill="white" stroke="#14181E" stroke-linecap="round" stroke-linejoin="round"/>
<path d="M989 531.121L1022.63 550.659V491.95L989 472.411V531.121Z" fill="white" stroke="#14181E" stroke-linecap="round" stroke-linejoin="round"/>
<path d="M993.504 488.101L1018.13 502.318V496.751L993.504 482.534V488.101Z" fill="#B1B1B1"/>
<path d="M993.504 495.373L1018.13 509.59V504.023L993.504 489.806V495.373Z" fill="#B1B1B1"/>
<path d="M993.504 502.306L1018.13 516.524V510.951L993.504 496.74V502.306Z" fill="#B1B1B1"/>
<path d="M993.504 508.27L1018.13 522.488" stroke="#666666" stroke-linecap="round" stroke-linejoin="round"/>
<path d="M993.504 512.529L1018.13 526.752" stroke="#666666" stroke-linecap="round" stroke-linejoin="round"/>
<path d="M993.504 516.792L1018.13 531.01" stroke="#666666" stroke-linecap="round" stroke-linejoin="round"/>
<path d="M993.504 521.051L1018.13 535.274" stroke="#666666" stroke-linecap="round" stroke-linejoin="round"/>
<path d="M993.504 525.314L1018.13 539.532" stroke="#666666" stroke-linecap="round" stroke-linejoin="round"/>
<path d="M664.361 505.709L698 525.248V466.539L664.361 447V505.709Z" fill="white" stroke="#14181E" stroke-linecap="round" stroke-linejoin="round"/>
<path d="M658 509.121L691.633 528.659V469.95L658 450.411V509.121Z" fill="white" stroke="#14181E" stroke-linecap="round" stroke-linejoin="round"/>
<path d="M662.504 466.101L687.13 480.318V474.751L662.504 460.534V466.101Z" fill="#B1B1B1"/>
<path d="M662.504 473.373L687.13 487.59V482.023L662.504 467.806V473.373Z" fill="#B1B1B1"/>
<path d="M662.504 480.306L687.13 494.524V488.951L662.504 474.74V480.306Z" fill="#B1B1B1"/>
<path d="M662.504 486.27L687.13 500.488" stroke="#666666" stroke-linecap="round" stroke-linejoin="round"/>
<path d="M662.504 490.529L687.13 504.752" stroke="#666666" stroke-linecap="round" stroke-linejoin="round"/>
<path d="M662.504 494.792L687.13 509.01" stroke="#666666" stroke-linecap="round" stroke-linejoin="round"/>
<path d="M662.504 499.051L687.13 513.274" stroke="#666666" stroke-linecap="round" stroke-linejoin="round"/>
<path d="M662.504 503.314L687.13 517.532" stroke="#666666" stroke-linecap="round" stroke-linejoin="round"/>
<g clip-path="url(#clip1_143_17)">
<path opacity="0.35" d="M1055.41 541.254L1051.12 533.829L1052.35 533.122L1057.86 542.668L1052.35 545.85L1051.12 543.729L1055.41 541.254Z" fill="#048F92"/>
</g>
<g clip-path="url(#clip2_143_17)">
<path opacity="0.6" d="M1076.19 553.254L1071.91 545.829L1073.13 545.122L1078.64 554.668L1073.13 557.85L1071.91 555.729L1076.19 553.254Z" fill="#048F92"/>
</g>
<g clip-path="url(#clip3_143_17)">
<path d="M1096.98 565.254L1092.69 557.829L1093.91 557.122L1099.43 566.668L1093.91 569.85L1092.69 567.729L1096.98 565.254Z" fill="#048F92"/>
</g>
<g clip-path="url(#clip4_143_17)">
<path opacity="0.35" d="M724.407 539.414L720.121 546.839L721.345 547.546L726.857 538L721.345 534.818L720.121 536.939L724.407 539.414Z" fill="#048F92"/>
</g>
<g clip-path="url(#clip5_143_17)">
<path opacity="0.6" d="M745.192 527.414L740.905 534.839L742.13 535.546L747.641 526L742.13 522.818L740.905 524.939L745.192 527.414Z" fill="#048F92"/>
</g>
<g clip-path="url(#clip6_143_17)">
<path d="M766.407 515.414L762.121 522.839L763.345 523.546L768.857 514L763.345 510.818L762.121 512.939L766.407 515.414Z" fill="#048F92"/>
</g>
<g clip-path="url(#clip7_143_17)">
<path opacity="0.35" d="M594.743 699.572L599.03 706.997L597.805 707.704L592.294 698.158L597.805 694.976L599.03 697.097L594.743 699.572Z" fill="#048F92"/>
</g>
<g clip-path="url(#clip8_143_17)">
<path opacity="0.6" d="M573.958 687.572L578.245 694.997L577.021 695.704L571.509 686.158L577.021 682.976L578.245 685.097L573.958 687.572Z" fill="#048F92"/>
</g>
<g clip-path="url(#clip9_143_17)">
<path d="M553.174 675.572L557.46 682.997L556.236 683.704L550.725 674.158L556.236 670.976L557.46 673.097L553.174 675.572Z" fill="#048F92"/>
</g>
<path d="M981.656 787.838C980.553 788.56 979.635 789.53 978.975 790.671C978.316 791.812 977.933 793.091 977.857 794.407C977.857 796.829 979.567 797.843 981.656 796.692C982.762 795.976 983.682 795.007 984.34 793.865C984.998 792.723 985.375 791.44 985.439 790.124C985.439 787.611 983.729 786.597 981.656 787.838Z" fill="#4D4D4D"/>
<path d="M981.656 789.791C981.05 790.186 980.545 790.717 980.182 791.343C979.82 791.969 979.609 792.671 979.567 793.393C979.567 794.71 980.506 795.27 981.656 794.634C982.263 794.242 982.768 793.711 983.129 793.084C983.49 792.458 983.696 791.754 983.729 791.032C983.729 789.7 982.791 789.14 981.656 789.791Z" fill="white"/>
<path d="M1015.68 768.768C1014.58 769.491 1013.67 770.462 1013.01 771.603C1012.35 772.744 1011.97 774.022 1011.9 775.337C1011.9 777.743 1013.61 778.772 1015.68 777.607C1016.79 776.897 1017.72 775.93 1018.38 774.786C1019.04 773.643 1019.42 772.357 1019.48 771.038C1019.48 768.586 1017.83 767.557 1015.68 768.768Z" fill="#4D4D4D"/>
<path d="M1015.68 770.766C1015.07 771.156 1014.57 771.685 1014.21 772.309C1013.85 772.933 1013.64 773.633 1013.61 774.353C1013.61 775.67 1014.54 776.23 1015.68 775.594C1016.29 775.203 1016.79 774.674 1017.15 774.051C1017.51 773.427 1017.72 772.726 1017.75 772.007C1017.75 770.66 1016.83 770.1 1015.68 770.766Z" fill="white"/>
<path d="M1023.88 764.046C1022.78 764.767 1021.86 765.738 1021.2 766.878C1020.54 768.019 1020.16 769.299 1020.08 770.614C1020.08 773.021 1021.79 774.05 1023.88 772.9C1024.99 772.186 1025.91 771.218 1026.57 770.075C1027.23 768.932 1027.61 767.649 1027.67 766.331C1027.61 763.864 1025.91 762.835 1023.88 764.046Z" fill="#4D4D4D"/>
<path d="M1023.88 766.044C1023.28 766.436 1022.77 766.967 1022.41 767.593C1022.05 768.22 1021.84 768.924 1021.81 769.646C1021.81 770.963 1022.73 771.522 1023.88 770.887C1024.49 770.495 1025 769.963 1025.36 769.337C1025.72 768.71 1025.92 768.007 1025.96 767.285C1025.9 765.953 1024.96 765.393 1023.88 766.044Z" fill="white"/>
<path d="M946.799 788.154C946.192 788.546 945.687 789.077 945.326 789.703C944.965 790.33 944.759 791.034 944.726 791.756C944.726 793.073 945.649 793.632 946.799 792.997C947.406 792.605 947.912 792.073 948.272 791.447C948.633 790.82 948.839 790.117 948.873 789.395C948.873 788.063 947.934 787.503 946.799 788.154Z" fill="white"/>
<path d="M1052.64 747.049C1051.54 747.771 1050.62 748.742 1049.97 749.883C1049.31 751.024 1048.93 752.303 1048.86 753.617C1048.86 756.024 1050.55 757.053 1052.64 755.903C1053.75 755.188 1054.68 754.217 1055.34 753.072C1056 751.926 1056.38 750.64 1056.44 749.319C1056.48 746.867 1054.77 745.838 1052.64 747.049Z" fill="#4D4D4D"/>
<path d="M1052.64 749.047C1052.04 749.442 1051.54 749.972 1051.18 750.595C1050.82 751.217 1050.61 751.916 1050.57 752.634C1050.57 753.966 1051.5 754.526 1052.64 753.89C1053.25 753.498 1053.75 752.967 1054.11 752.34C1054.47 751.714 1054.68 751.01 1054.71 750.288C1054.76 748.956 1053.84 748.396 1052.64 749.047Z" fill="white"/>
<path d="M977.539 772.655L1057.8 726.447L1037.55 714.656L957.137 760.879L977.539 772.655Z" fill="white" stroke="black" stroke-linecap="round" stroke-linejoin="round"/>
<path d="M977.539 772.654V791.395L957.136 779.62V760.879L977.539 772.654Z" fill="white" stroke="black" stroke-linecap="round" stroke-linejoin="round"/>
<path d="M977.539 791.395L1057.95 745.172V726.431L977.539 772.654V791.395Z" fill="white" stroke="black" stroke-linecap="round" stroke-linejoin="round"/>
<path d="M943 776.139L959.997 785.946V795.657L943 786.156V776.139Z" fill="white" stroke="black" stroke-linecap="round" stroke-linejoin="round"/>
<path d="M939.503 787.638L956.5 797.446L956.5 803.156L939.503 793.656V787.638Z" fill="white" stroke="black" stroke-linecap="round" stroke-linejoin="round"/>
<path d="M942 792.156L944 793.156" stroke="black" stroke-linecap="round" stroke-linejoin="round"/>
<path d="M952 797.656L954 798.656" stroke="black" stroke-linecap="round" stroke-linejoin="round"/>
<path d="M965.313 800.46C965.404 798.944 965.849 797.47 966.611 796.156C967.373 794.842 969 793.365 970 792.893C971 792.42 971.5 792.345 971.901 792.345C972.507 792.345 973.098 792.537 973.588 792.893V778.167L959.967 786.022V795.656L956.5 797.656V803.156L965.663 798.394" fill="white"/>
<path d="M965.313 800.46C965.404 798.944 965.849 797.47 966.611 796.156C967.373 794.842 969 793.365 970 792.893C971 792.42 971.5 792.345 971.901 792.345C972.507 792.345 973.098 792.537 973.588 792.893V778.167L959.967 786.022V795.656L956.5 797.656V803.156L965.663 798.394" stroke="black" stroke-linecap="round" stroke-linejoin="round"/>
<path d="M970.213 794.558C969.111 795.28 968.193 796.25 967.533 797.391C966.873 798.532 966.49 799.812 966.414 801.127C966.414 803.549 968.125 804.563 970.213 803.413C971.301 802.7 972.205 801.74 972.852 800.612C973.499 799.484 973.871 798.218 973.937 796.92C973.937 794.377 972.302 793.363 970.213 794.558Z" fill="#4D4D4D"/>
<path d="M970.214 796.556C969.606 796.948 969.101 797.479 968.741 798.106C968.38 798.733 968.174 799.436 968.14 800.158C968.14 801.475 969.063 802.035 970.214 801.399C970.821 801.007 971.326 800.476 971.687 799.85C972.047 799.223 972.253 798.519 972.287 797.797C972.287 796.465 971.349 795.905 970.214 796.556Z" fill="white"/>
<path d="M943.001 776.139L956.637 768.284L973.634 778.091L959.997 785.946L943.001 776.139Z" fill="white" stroke="black" stroke-linecap="round" stroke-linejoin="round"/>
<path d="M939.591 787.62L943 785.656L959.997 795.464L956.588 797.428L939.591 787.62Z" fill="white" stroke="black" stroke-linecap="round" stroke-linejoin="round"/>
<path d="M967 782.156V788.656V795.156" fill="white"/>
<path d="M967 782.156V788.656M967 788.656V795.156M967 788.656L973.5 785.156" stroke="black" stroke-linecap="round" stroke-linejoin="round"/>
<path d="M931.297 595.856L931.767 716.854L972.42 740.465L971.981 619.467L931.297 595.856Z" fill="white" stroke="black" stroke-linecap="round" stroke-linejoin="round"/>
<path d="M971.981 619.163L972.42 740.465L1016 714.663L1015.53 594.662L971.981 619.163Z" fill="white" stroke="black" stroke-linecap="round" stroke-linejoin="round"/>
<path d="M931.297 595.856L971.981 619.467L1015.5 594.656L974.847 571L931.297 595.856Z" fill="white" stroke="black" stroke-linecap="round" stroke-linejoin="round"/>
<path d="M979.441 657.314L990.989 650.564V641.952L979.441 648.702V657.314Z" fill="#B0B0B0"/>
<path d="M998 646.314L1009.55 639.564V630.952L998 637.702V646.314Z" fill="#048F92"/>
<path d="M979.441 640.019L990.989 633.268V624.656L979.441 631.407V640.019Z" fill="#B0B0B0"/>
<path d="M998 629.019L1009.55 622.268V613.656L998 620.407V629.019Z" fill="#B0B0B0"/>
<path d="M979.441 673.675L990.989 666.849V658.297L979.441 665.048V673.675Z" fill="#048F92"/>
<path d="M998 662.675L1009.55 655.849V647.297L998 654.048V662.675Z" fill="#B0B0B0"/>
<path d="M979.441 690.006L990.989 683.256V674.644L979.441 681.394V690.006Z" fill="#B0B0B0"/>
<path d="M998 679.006L1009.55 672.256V663.644L998 670.394V679.006Z" fill="#B0B0B0"/>
<path d="M979.441 707.321L990.989 700.555V691.958L979.441 698.709V707.321Z" fill="#B0B0B0"/>
<path d="M998 696.321L1009.55 689.555V680.958L998 687.709V696.321Z" fill="#048F92"/>
<path d="M979.441 723.666L990.989 716.856V708.304L979.441 715.055V723.666Z" fill="#B0B0B0"/>
<path d="M998 712.666L1009.55 705.856V697.304L998 704.055V712.666Z" fill="#B0B0B0"/>
<path d="M884.909 721.188L814 680.156L900.77 631.355L972.163 672.462L884.909 721.188Z" fill="white" stroke="black" stroke-linecap="round" stroke-linejoin="round"/>
<path d="M884.983 791.092L814 750.156V680.078L884.983 720.953V791.092Z" fill="white" stroke="black" stroke-linecap="round" stroke-linejoin="round"/>
<path d="M918.084 613.713V669.529C918.084 671.043 917.1 672.344 914.769 673.177C912.542 673.905 910.181 674.129 907.857 673.834C905.533 673.538 903.303 672.729 901.329 671.466C900.691 671.09 900.149 670.569 899.747 669.947C899.345 669.324 899.094 668.616 899.014 667.879V612.108C899.085 612.85 899.332 613.564 899.735 614.19C900.138 614.817 900.684 615.338 901.329 615.711C903.3 616.98 905.528 617.796 907.852 618.099C910.176 618.403 912.539 618.187 914.769 617.466C917.1 616.649 918.084 615.226 918.084 613.713Z" fill="white" stroke="black" stroke-linecap="round" stroke-linejoin="round"/>
<path d="M886.084 643.713V689.529C886.084 691.043 885.1 692.344 882.769 693.177C880.542 693.905 878.181 694.129 875.857 693.834C873.533 693.538 871.303 692.729 869.329 691.466C868.691 691.09 868.149 690.569 867.747 689.947C867.345 689.324 867.094 688.616 867.014 687.879V642.108C867.085 642.85 867.332 643.564 867.735 644.19C868.138 644.817 868.684 645.338 869.329 645.711C871.3 646.98 873.528 647.796 875.852 648.099C878.176 648.403 880.539 648.187 882.769 647.466C885.1 646.649 886.084 645.226 886.084 643.713Z" fill="white" stroke="black" stroke-linecap="round" stroke-linejoin="round"/>
<path d="M914.769 617.466C912.538 618.187 910.176 618.403 907.851 618.099C905.527 617.796 903.299 616.98 901.329 615.71C897.908 613.228 898.302 609.974 902.207 608.415C904.469 607.697 906.862 607.485 909.216 607.794C911.57 608.102 913.827 608.924 915.828 610.201C919.294 612.668 918.855 615.922 914.769 617.466Z" fill="white" stroke="black" stroke-linecap="round" stroke-linejoin="round"/>
<path d="M882.769 647.466C880.538 648.187 878.176 648.403 875.851 648.099C873.527 647.796 871.299 646.98 869.329 645.71C865.908 643.228 866.302 639.974 870.207 638.415C872.469 637.697 874.862 637.485 877.216 637.794C879.57 638.102 881.827 638.924 883.828 640.201C887.294 642.668 886.855 645.922 882.769 647.466Z" fill="white" stroke="black" stroke-linecap="round" stroke-linejoin="round"/>
<path d="M835.685 719.2L824 712.359V703.656L835.685 710.482V719.2Z" fill="#B0B0B0"/>
<path d="M948.685 630.2L937 623.359V614.656L948.685 621.482V630.2Z" fill="#B0B0B0"/>
<path d="M835.685 735.743L824 728.841V720.184L835.685 727.025V735.743Z" fill="#B0B0B0"/>
<path d="M948.685 646.743L937 639.841V631.184L948.685 638.025V646.743Z" fill="#B0B0B0"/>
<path d="M835.685 752.271L824 745.43V736.727L835.685 743.568V752.271Z" fill="#B0B0B0"/>
<path d="M852.787 729.78L841.103 722.939V714.236L852.787 721.077V729.78Z" fill="#B0B0B0"/>
<path d="M965.787 640.78L954.103 633.939V625.236L965.787 632.077V640.78Z" fill="#B0B0B0"/>
<path d="M852.787 746.323L841.103 739.481V730.764L852.787 737.62V746.323Z" fill="#048F92"/>
<path d="M965.787 657.323L954.103 650.481V641.764L965.787 648.62V657.323Z" fill="#B0B0B0"/>
<path d="M852.787 762.865L841.103 755.964V747.306L852.787 754.148V762.865Z" fill="#B0B0B0"/>
<path d="M922.232 699.764L972.163 672.656V740.662L961.16 747.079L961.084 716.067L937.806 729.446L937.912 760.64L922.141 769.842L922.065 738.391L898.787 751.771L898.893 783.404L885.105 791.44L884.984 721.196L922.232 699.764Z" fill="white" stroke="black" stroke-linecap="round" stroke-linejoin="round"/>
<path d="M898 741.018L922 727.268V718.656L898 732.406V741.018Z" fill="#B0B0B0"/>
<path d="M937 719.018L961 705.268V696.656L937 710.406V719.018Z" fill="#B0B0B0"/>
<path d="M898.786 751.831L898.908 765.634L922.14 752.209L922.064 738.451L898.786 751.831Z" fill="white" stroke="black" stroke-linecap="round" stroke-linejoin="round"/>
<path d="M900.679 753.511C900.7 753.353 900.757 753.203 900.846 753.071C900.936 752.94 901.055 752.831 901.194 752.754L919.614 742.417C919.886 742.266 920.083 742.417 920.068 742.644C920.039 742.803 919.977 742.954 919.886 743.087C919.795 743.22 919.676 743.332 919.538 743.416L901.043 753.753C900.846 753.89 900.649 753.799 900.679 753.511Z" fill="#AAAAAA"/>
<path d="M900.679 756.114C900.702 755.955 900.76 755.804 900.849 755.67C900.938 755.536 901.056 755.424 901.194 755.342L919.614 745.02C919.886 744.869 920.083 745.02 920.068 745.247C920.039 745.406 919.977 745.557 919.886 745.69C919.795 745.823 919.676 745.935 919.538 746.019L901.043 756.341C900.846 756.493 900.649 756.387 900.679 756.114Z" fill="#AAAAAA"/>
<path d="M900.679 758.718C900.702 758.559 900.76 758.407 900.849 758.273C900.938 758.14 901.056 758.028 901.194 757.946L919.614 747.608C919.886 747.457 920.083 747.608 920.068 747.835C920.041 747.995 919.98 748.147 919.888 748.28C919.797 748.414 919.677 748.525 919.538 748.607L901.043 758.945C900.846 759.096 900.649 758.99 900.679 758.718Z" fill="#AAAAAA"/>
<path d="M900.679 761.321C900.7 761.161 900.757 761.008 900.846 760.874C900.935 760.741 901.054 760.629 901.194 760.549L919.614 750.211C919.886 750.06 920.083 750.211 920.068 750.438C920.039 750.597 919.977 750.748 919.886 750.882C919.795 751.015 919.676 751.127 919.538 751.21L901.043 761.548C900.846 761.699 900.649 761.593 900.679 761.321Z" fill="#AAAAAA"/>
<path d="M937.836 729.552L937.942 743.355L961.19 729.915L961.114 716.172L937.836 729.552Z" fill="white" stroke="black" stroke-linecap="round" stroke-linejoin="round"/>
<path d="M939.713 731.232C939.741 731.073 939.803 730.922 939.895 730.789C939.986 730.656 940.105 730.544 940.243 730.46L958.663 720.123C958.935 719.971 959.132 720.123 959.101 720.35C959.078 720.508 959.019 720.66 958.93 720.793C958.841 720.926 958.724 721.039 958.587 721.122L940.167 731.459C939.895 731.565 939.698 731.565 939.713 731.232Z" fill="#AAAAAA"/>
<path d="M939.713 733.82C939.74 733.662 939.801 733.513 939.893 733.382C939.984 733.251 940.104 733.142 940.243 733.063L958.663 722.726C958.935 722.575 959.132 722.726 959.101 722.953C959.076 723.111 959.017 723.262 958.928 723.395C958.839 723.528 958.723 723.64 958.587 723.725L940.167 734.062C939.895 734.214 939.698 734.108 939.713 733.82Z" fill="#AAAAAA"/>
<path d="M939.713 736.423C939.741 736.264 939.803 736.113 939.895 735.98C939.986 735.847 940.105 735.735 940.243 735.651L958.663 725.329C958.935 725.178 959.132 725.329 959.101 725.556C959.076 725.714 959.017 725.865 958.928 725.998C958.839 726.131 958.723 726.244 958.587 726.328L940.167 736.65C939.895 736.802 939.698 736.696 939.713 736.423Z" fill="#AAAAAA"/>
<path d="M939.713 739.027C939.741 738.868 939.803 738.717 939.895 738.584C939.986 738.45 940.105 738.338 940.243 738.255L958.663 727.917C958.935 727.781 959.132 727.917 959.101 728.144C959.078 728.303 959.019 728.454 958.93 728.588C958.841 728.721 958.724 728.833 958.587 728.916L940.167 739.254C939.895 739.405 939.698 739.299 939.713 739.027Z" fill="#AAAAAA"/>
<path d="M701.733 617.8H708.013V619.48H703.993V624.84H707.253V626.44H703.993V632.38H708.053V634H701.733V617.8ZM714.057 634.18C712.924 634.18 712.037 633.953 711.397 633.5C710.771 633.047 710.337 632.413 710.097 631.6C709.857 630.787 709.737 629.767 709.737 628.54V617.8H711.897V628.64C711.897 629.867 712.037 630.8 712.317 631.44C712.611 632.08 713.191 632.4 714.057 632.4C714.924 632.4 715.497 632.08 715.777 631.44C716.071 630.8 716.217 629.867 716.217 628.64V617.8H718.357V628.54C718.357 629.767 718.237 630.787 717.997 631.6C717.757 632.413 717.324 633.047 716.697 633.5C716.071 633.953 715.191 634.18 714.057 634.18ZM729.127 634.18C727.767 634.18 726.727 633.76 726.007 632.92C725.3 632.08 724.907 630.927 724.827 629.46L726.827 628.92C726.894 629.96 727.094 630.8 727.427 631.44C727.774 632.08 728.34 632.4 729.127 632.4C729.714 632.4 730.154 632.24 730.447 631.92C730.754 631.587 730.907 631.113 730.907 630.5C730.907 629.833 730.767 629.28 730.487 628.84C730.207 628.4 729.76 627.913 729.147 627.38L726.427 624.98C725.88 624.5 725.48 623.987 725.227 623.44C724.987 622.88 724.867 622.2 724.867 621.4C724.867 620.213 725.207 619.293 725.887 618.64C726.567 617.987 727.494 617.66 728.667 617.66C729.947 617.66 730.914 618 731.567 618.68C732.22 619.36 732.614 620.413 732.747 621.84L730.827 622.36C730.76 621.413 730.574 620.687 730.267 620.18C729.974 619.66 729.44 619.4 728.667 619.4C728.094 619.4 727.654 619.553 727.347 619.86C727.04 620.153 726.887 620.593 726.887 621.18C726.887 621.66 726.967 622.067 727.127 622.4C727.287 622.72 727.56 623.047 727.947 623.38L730.687 625.78C731.394 626.407 731.954 627.087 732.367 627.82C732.794 628.553 733.007 629.387 733.007 630.32C733.007 631.507 732.647 632.447 731.927 633.14C731.207 633.833 730.274 634.18 729.127 634.18ZM736.54 619.48H733.8V617.8H741.46V619.48H738.8V634H736.54V619.48ZM743.022 617.8H749.302V619.48H745.282V624.84H748.542V626.44H745.282V632.38H749.342V634H743.022V617.8ZM751.166 617.8H757.446V619.48H753.426V624.84H756.686V626.44H753.426V632.38H757.486V634H751.166V617.8ZM759.311 617.8H761.571V632.38H765.711V634H759.311V617.8ZM647.52 645.8H649.74L652.6 658.94L655.48 645.8H657.68L657.98 662H656.16L655.98 650.24L653.24 662H651.96L649.24 650.24L649.06 662H647.22L647.52 645.8ZM663.023 645.8H665.203L668.663 662H666.523L665.783 657.92H662.483L661.703 662H659.583L663.023 645.8ZM665.483 656.3L664.123 649L662.783 656.3H665.483ZM670.307 645.8H671.847L676.447 656.56V645.8H678.327V662H676.887L672.227 650.94V662H670.307V645.8ZM685.053 662.18C683.92 662.18 683.033 661.953 682.393 661.5C681.767 661.047 681.333 660.413 681.093 659.6C680.853 658.787 680.733 657.767 680.733 656.54V645.8H682.893V656.64C682.893 657.867 683.033 658.8 683.313 659.44C683.607 660.08 684.187 660.4 685.053 660.4C685.92 660.4 686.493 660.08 686.773 659.44C687.067 658.8 687.213 657.867 687.213 656.64V645.8H689.353V656.54C689.353 657.767 689.233 658.787 688.993 659.6C688.753 660.413 688.32 661.047 687.693 661.5C687.067 661.953 686.187 662.18 685.053 662.18ZM691.733 645.8H697.993V647.42H693.993V652.82H697.093V654.42H693.993V662H691.733V645.8ZM701.754 645.8H703.934L707.394 662H705.254L704.514 657.92H701.214L700.434 662H698.314L701.754 645.8ZM704.214 656.3L702.854 649L701.514 656.3H704.214ZM713.019 662.18C711.419 662.18 710.293 661.707 709.639 660.76C708.986 659.8 708.659 658.48 708.659 656.8V651.08C708.659 649.307 708.979 647.96 709.619 647.04C710.259 646.12 711.393 645.66 713.019 645.66C714.473 645.66 715.513 646.053 716.139 646.84C716.779 647.627 717.099 648.787 717.099 650.32V651.6H714.959V650.46C714.959 649.713 714.926 649.14 714.859 648.74C714.793 648.34 714.619 648.02 714.339 647.78C714.073 647.54 713.639 647.42 713.039 647.42C712.426 647.42 711.966 647.553 711.659 647.82C711.366 648.073 711.173 648.433 711.079 648.9C710.986 649.353 710.939 649.967 710.939 650.74V657.16C710.939 657.987 711.006 658.633 711.139 659.1C711.273 659.567 711.486 659.9 711.779 660.1C712.086 660.3 712.506 660.4 713.039 660.4C713.613 660.4 714.039 660.273 714.319 660.02C714.599 659.767 714.773 659.42 714.839 658.98C714.919 658.54 714.959 657.94 714.959 657.18V655.98H717.099V657.18C717.099 658.793 716.793 660.033 716.179 660.9C715.579 661.753 714.526 662.18 713.019 662.18ZM721.032 647.48H718.292V645.8H725.952V647.48H723.292V662H721.032V647.48ZM731.694 662.18C730.561 662.18 729.674 661.953 729.034 661.5C728.407 661.047 727.974 660.413 727.734 659.6C727.494 658.787 727.374 657.767 727.374 656.54V645.8H729.534V656.64C729.534 657.867 729.674 658.8 729.954 659.44C730.247 660.08 730.827 660.4 731.694 660.4C732.561 660.4 733.134 660.08 733.414 659.44C733.707 658.8 733.854 657.867 733.854 656.64V645.8H735.994V656.54C735.994 657.767 735.874 658.787 735.634 659.6C735.394 660.413 734.961 661.047 734.334 661.5C733.707 661.953 732.827 662.18 731.694 662.18ZM738.373 645.8H741.633C743.273 645.8 744.473 646.14 745.233 646.82C746.007 647.487 746.393 648.58 746.393 650.1C746.393 652.18 745.727 653.44 744.393 653.88L746.693 662H744.513L742.393 654.4H740.633V662H738.373V645.8ZM741.493 652.78C742.467 652.78 743.16 652.587 743.573 652.2C744 651.813 744.213 651.113 744.213 650.1C744.213 649.433 744.14 648.913 743.993 648.54C743.847 648.153 743.587 647.873 743.213 647.7C742.84 647.513 742.313 647.42 741.633 647.42H740.633V652.78H741.493ZM748.744 645.8H755.024V647.48H751.004V652.84H754.264V654.44H751.004V660.38H755.064V662H748.744V645.8ZM756.889 645.8H760.149C761.789 645.8 762.989 646.14 763.749 646.82C764.522 647.487 764.909 648.58 764.909 650.1C764.909 652.18 764.242 653.44 762.909 653.88L765.209 662H763.029L760.909 654.4H759.149V662H756.889V645.8ZM760.009 652.78C760.982 652.78 761.676 652.587 762.089 652.2C762.516 651.813 762.729 651.113 762.729 650.1C762.729 649.433 762.656 648.913 762.509 648.54C762.362 648.153 762.102 647.873 761.729 647.7C761.356 647.513 760.829 647.42 760.149 647.42H759.149V652.78H760.009Z" fill="black"/>
<circle r="12.7847" transform="matrix(0.866025 0.5 -0.866025 0.5 779.144 765.785)" fill="#048F92" fill-opacity="0.12"/>
<circle r="5.77353" transform="matrix(0.866025 0.5 -0.866025 0.5 779 765)" fill="#048F92"/>
<path d="M778.5 763L778.5 763.5L779.5 763.5L779.5 763L778.5 763ZM779.5 613L779.5 612.5L778.5 612.5L778.5 613L779.5 613ZM778.5 614.974L778.5 615.474L779.5 615.474L779.5 614.974L778.5 614.974ZM779.5 618.921L779.5 618.421L778.5 618.421L778.5 618.921L779.5 618.921ZM778.5 622.868L778.5 623.368L779.5 623.368L779.5 622.868L778.5 622.868ZM779.5 626.816L779.5 626.316L778.5 626.316L778.5 626.816L779.5 626.816ZM778.5 630.763L778.5 631.263L779.5 631.263L779.5 630.763L778.5 630.763ZM779.5 634.711L779.5 634.211L778.5 634.211L778.5 634.711L779.5 634.711ZM778.5 638.658L778.5 639.158L779.5 639.158L779.5 638.658L778.5 638.658ZM779.5 642.605L779.5 642.105L778.5 642.105L778.5 642.605L779.5 642.605ZM778.5 646.553L778.5 647.053L779.5 647.053L779.5 646.553L778.5 646.553ZM779.5 650.5L779.5 650L778.5 650L778.5 650.5L779.5 650.5ZM778.5 654.447L778.5 654.947L779.5 654.947L779.5 654.447L778.5 654.447ZM779.5 658.395L779.5 657.895L778.5 657.895L778.5 658.395L779.5 658.395ZM778.5 662.342L778.5 662.842L779.5 662.842L779.5 662.342L778.5 662.342ZM779.5 666.289L779.5 665.789L778.5 665.789L778.5 666.289L779.5 666.289ZM778.5 670.237L778.5 670.737L779.5 670.737L779.5 670.237L778.5 670.237ZM779.5 674.184L779.5 673.684L778.5 673.684L778.5 674.184L779.5 674.184ZM778.5 678.132L778.5 678.632L779.5 678.632L779.5 678.132L778.5 678.132ZM779.5 682.079L779.5 681.579L778.5 681.579L778.5 682.079L779.5 682.079ZM778.5 686.026L778.5 686.526L779.5 686.526L779.5 686.026L778.5 686.026ZM779.5 689.974L779.5 689.474L778.5 689.474L778.5 689.974L779.5 689.974ZM778.5 693.921L778.5 694.421L779.5 694.421L779.5 693.921L778.5 693.921ZM779.5 697.868L779.5 697.368L778.5 697.368L778.5 697.868L779.5 697.868ZM778.5 701.816L778.5 702.316L779.5 702.316L779.5 701.816L778.5 701.816ZM779.5 705.763L779.5 705.263L778.5 705.263L778.5 705.763L779.5 705.763ZM778.5 709.71L778.5 710.21L779.5 710.21L779.5 709.71L778.5 709.71ZM779.5 713.658L779.5 713.158L778.5 713.158L778.5 713.658L779.5 713.658ZM778.5 717.605L778.5 718.105L779.5 718.105L779.5 717.605L778.5 717.605ZM779.5 721.553L779.5 721.053L778.5 721.053L778.5 721.553L779.5 721.553ZM778.5 725.5L778.5 726L779.5 726L779.5 725.5L778.5 725.5ZM779.5 729.447L779.5 728.947L778.5 728.947L778.5 729.447L779.5 729.447ZM778.5 733.395L778.5 733.895L779.5 733.895L779.5 733.395L778.5 733.395ZM779.5 737.342L779.5 736.842L778.5 736.842L778.5 737.342L779.5 737.342ZM778.5 741.289L778.5 741.789L779.5 741.789L779.5 741.289L778.5 741.289ZM779.5 745.237L779.5 744.737L778.5 744.737L778.5 745.237L779.5 745.237ZM778.5 749.184L778.5 749.684L779.5 749.684L779.5 749.184L778.5 749.184ZM779.5 753.132L779.5 752.632L778.5 752.632L778.5 753.132L779.5 753.132ZM778.5 757.079L778.5 757.579L779.5 757.579L779.5 757.079L778.5 757.079ZM779.5 761.026L779.5 760.526L778.5 760.526L778.5 761.026L779.5 761.026ZM778.5 613L778.5 614.974L779.5 614.974L779.5 613L778.5 613ZM778.5 618.921L778.5 622.868L779.5 622.868L779.5 618.921L778.5 618.921ZM778.5 626.816L778.5 630.763L779.5 630.763L779.5 626.816L778.5 626.816ZM778.5 634.711L778.5 638.658L779.5 638.658L779.5 634.711L778.5 634.711ZM778.5 642.605L778.5 646.553L779.5 646.553L779.5 642.605L778.5 642.605ZM778.5 650.5L778.5 654.447L779.5 654.447L779.5 650.5L778.5 650.5ZM778.5 658.395L778.5 662.342L779.5 662.342L779.5 658.395L778.5 658.395ZM778.5 666.289L778.5 670.237L779.5 670.237L779.5 666.289L778.5 666.289ZM778.5 674.184L778.5 678.132L779.5 678.132L779.5 674.184L778.5 674.184ZM778.5 682.079L778.5 686.026L779.5 686.026L779.5 682.079L778.5 682.079ZM778.5 689.974L778.5 693.921L779.5 693.921L779.5 689.974L778.5 689.974ZM778.5 697.868L778.5 701.816L779.5 701.816L779.5 697.868L778.5 697.868ZM778.5 705.763L778.5 709.71L779.5 709.71L779.5 705.763L778.5 705.763ZM778.5 713.658L778.5 717.605L779.5 717.605L779.5 713.658L778.5 713.658ZM778.5 721.553L778.5 725.5L779.5 725.5L779.5 721.553L778.5 721.553ZM778.5 729.447L778.5 733.395L779.5 733.395L779.5 729.447L778.5 729.447ZM778.5 737.342L778.5 741.289L779.5 741.289L779.5 737.342L778.5 737.342ZM778.5 745.237L778.5 749.184L779.5 749.184L779.5 745.237L778.5 745.237ZM778.5 753.132L778.5 757.079L779.5 757.079L779.5 753.132L778.5 753.132ZM778.5 761.026L778.5 763L779.5 763L779.5 761.026L778.5 761.026Z" fill="#048F92"/>
<rect width="2" height="72" transform="translate(778 607)" fill="#048F92"/>
<path d="M629.693 381.25V429.666L622.084 434.059V400.5L606.866 409.5V442.845L599.257 447.239L591.648 451.632L584.039 456.025L568.821 464.812V416.396L629.693 381.25Z" fill="white" stroke="#14181E" stroke-linecap="round" stroke-linejoin="round"/>
<path d="M609 412.169C609.029 412.011 609.09 411.86 609.182 411.726C609.273 411.593 609.392 411.481 609.53 411.398L619.076 406.001C619.348 405.85 619.545 406.001 619.515 406.228C619.491 406.387 619.433 406.538 619.344 406.672C619.255 406.805 619.137 406.917 619 407L609.454 412.397C609.182 412.502 608.985 412.502 609 412.169Z" fill="#AAAAAA"/>
<path d="M609 415.229C609.029 415.07 609.09 414.919 609.182 414.786C609.273 414.653 609.392 414.541 609.53 414.457L619.076 409.061C619.348 408.91 619.545 409.061 619.515 409.288C619.491 409.447 619.433 409.598 619.344 409.731C619.255 409.865 619.137 409.977 619 410.06L609.454 415.456C609.182 415.562 608.985 415.562 609 415.229Z" fill="#AAAAAA"/>
<path d="M609 418.229C609.029 418.07 609.09 417.919 609.182 417.786C609.273 417.653 609.392 417.541 609.53 417.457L619.076 412.061C619.348 411.91 619.545 412.061 619.515 412.288C619.491 412.447 619.433 412.598 619.344 412.731C619.255 412.865 619.137 412.977 619 413.06L609.454 418.456C609.182 418.562 608.985 418.562 609 418.229Z" fill="#AAAAAA"/>
<path d="M609 421.229C609.029 421.07 609.09 420.919 609.182 420.786C609.273 420.653 609.392 420.541 609.53 420.457L619.076 415.061C619.348 414.91 619.545 415.061 619.515 415.288C619.491 415.447 619.433 415.598 619.344 415.731C619.255 415.865 619.137 415.977 619 416.06L609.454 421.456C609.182 421.562 608.985 421.562 609 421.229Z" fill="#AAAAAA"/>
<path d="M607 426L622 418" stroke="#14181E" stroke-linecap="round" stroke-linejoin="round"/>
<path d="M568.821 416.396V464.812L516.346 434.512V386.101L568.821 416.396Z" fill="white" stroke="#14181E" stroke-linecap="round" stroke-linejoin="round"/>
<path d="M577.136 349.244L632.039 380.944L571.062 416.145L568.648 417.542L514 385.992L577.136 349.244Z" fill="white" stroke="#14181E" stroke-linecap="round" stroke-linejoin="round"/>
<path d="M604.587 343L543.609 378.206L568.647 417.541L632.039 380.944L604.587 343Z" fill="white" stroke="#14181E" stroke-linecap="round" stroke-linejoin="round"/>
<path d="M604.588 343L543.61 378.206L514 385.991L577.136 349.243L604.588 343Z" fill="white" stroke="#14181E" stroke-linecap="round" stroke-linejoin="round"/>
<path d="M455.346 381.25V459.666L516.219 494.812V416.396L455.346 381.25Z" fill="white" stroke="#14181E" stroke-linecap="round" stroke-linejoin="round"/>
<path d="M488.685 448.544V429.826L477 423V439" stroke="#14181E" stroke-linecap="round" stroke-linejoin="round"/>
<path d="M516.219 416.396V494.812L568.694 464.512V386.101L516.219 416.396Z" fill="white" stroke="#14181E" stroke-linecap="round" stroke-linejoin="round"/>
<path d="M528 454.658L539.548 447.907V439.295L528 446.046V454.658Z" fill="#B0B0B0"/>
<path d="M546.56 443.658L558.108 436.907V428.295L546.56 435.046V443.658Z" fill="#048F92"/>
<path d="M528 437.362L539.548 430.612V422L528 428.75V437.362Z" fill="#048F92"/>
<path d="M546.56 426.362L558.108 419.612V411L546.56 417.75V426.362Z" fill="#B0B0B0"/>
<path d="M528 471.019L539.548 464.193V455.641L528 462.392V471.019Z" fill="#B0B0B0"/>
<path d="M577 445L584.548 440.551V422L577 426.373V445Z" fill="#B0B0B0"/>
<path d="M591 437L598.548 432.551V414L591 418.373V437Z" fill="#B0B0B0"/>
<path d="M546.56 460.019L558.108 453.193V444.641L546.56 451.392V460.019Z" fill="#B0B0B0"/>
<path d="M507.903 349.244L453 380.944L513.978 416.145L516.392 417.542L571.04 385.992L507.903 349.244Z" fill="white" stroke="#14181E" stroke-linecap="round" stroke-linejoin="round"/>
<path d="M480.453 343L541.43 378.206L516.393 417.541L453.001 380.944L480.453 343Z" fill="white" stroke="#14181E" stroke-linecap="round" stroke-linejoin="round"/>
<path d="M480.452 343L541.429 378.206L571.04 385.991L507.903 349.243L480.452 343Z" fill="white" stroke="#14181E" stroke-linecap="round" stroke-linejoin="round"/>
<path opacity="0.1" d="M625.539 585.569L622.512 583.798L616.943 580.605L618.305 579.803L615.278 578.032L613.915 578.819L608.376 575.625L609.738 574.838L606.711 573.068L605.349 573.855L599.809 570.661L601.187 569.859L598.16 568.088L596.782 568.89L593.392 566.923L591.107 565.606L592.439 564.834L589.411 563.063L588.08 563.835L582.555 560.626L583.872 559.87L580.845 558.099L579.528 558.856L573.731 555.677L575.048 554.92L572.021 553.134L570.704 553.906L565.165 550.713L566.482 549.941L563.454 548.17L562.123 548.942L556.583 545.733L557.915 544.977L554.888 543.206L553.556 543.962L548.017 540.769L549.349 539.997L546.321 538.226L544.99 538.998L539.465 535.805L540.782 535.033L537.755 533.262L536.438 534.019L530.672 530.825L532.003 530.053L528.976 528.282L527.645 529.054L522.105 525.861L523.437 525.089L520.41 523.318L519.078 524.09L513.463 520.866L514.795 520.094L511.768 518.308L510.436 519.08L504.896 515.887L506.228 515.115L503.201 513.344L501.869 514.116L496.345 510.922L497.677 510.15L494.65 508.379L493.318 509.151L487.778 505.943L489.11 505.171L486.083 503.4L484.751 504.172L479.212 500.978L480.544 500.206L477.517 498.436L476.185 499.208L470.645 496.014L471.992 495.242L468.965 493.456L467.618 494.228L462.079 491.034L463.426 490.263L460.399 488.492L459.052 489.264L453.194 486.055L454.541 485.283L451.514 483.512L450.182 484.284L444.643 481.075L445.975 480.304L442.948 478.533L441.616 479.305L436.076 476.111L437.423 475.339L434.396 473.568L433.049 474.34L427.51 471.147L428.857 470.375L425.83 468.589L424.483 469.376L418.943 466.167L420.29 465.395L417.263 463.625L415.916 464.396L410.377 461.203L411.724 460.431L408.697 458.645L407.334 459.432L401.81 456.239L403.157 455.451L400.13 453.681L398.783 454.468L392.941 451.244L394.288 450.472L391.261 448.701L389.914 449.473L384.374 446.28L385.721 445.492L382.694 443.722L381.332 444.509L375.792 441.315L377.155 440.528L374.128 438.757L372.765 439.529L367.226 436.336L368.588 435.564L365.561 433.778L364.199 434.565L358.659 431.371L360.022 430.584L356.995 428.813L355.647 429.6L350.108 426.392L351.455 425.62L348.428 423.849L347.066 424.621L341.526 421.427L342.888 420.64L339.861 418.87L338.499 419.657L332.96 416.463L334.322 415.676L331.295 413.905L329.933 414.692L324.393 411.484L325.755 410.712L322.728 408.926L321.366 409.713L315.842 406.519L317.204 405.732L314.177 403.961L312.815 404.748L307.275 401.555L308.637 400.768L305.61 398.997L304.248 399.784L298.709 396.575L300.071 395.788L297.044 394.018L295.682 394.805L290.142 391.611L291.504 390.824L288.477 389.053L287.115 389.84L281.576 386.647L282.953 385.844L279.926 384.074L278.548 384.861L273.009 381.667L274.386 380.88L271.359 379.109L269.997 379.896L264.458 376.703L265.82 375.916L262.793 374.13L261.431 374.932L255.21 371.799L256.587 370.997L253.56 369.226L252.183 370.013L248.717 368L246.31 369.392L249.716 371.345L230.797 382.273L227.406 380.305L225 381.697L228.39 383.65L225.787 385.163L228.814 386.934L231.417 385.421L236.957 388.614L234.354 390.128L237.381 391.899L239.984 390.385L245.523 393.579L242.92 395.092L245.947 396.863L248.55 395.349L254.09 398.558L251.487 400.072L254.514 401.842L257.117 400.329L262.656 403.522L260.053 405.036L263.08 406.822L265.684 405.308L271.223 408.502L268.62 410.015L271.647 411.786L274.25 410.273L279.79 413.466L277.186 414.98L280.213 416.751L282.817 415.237L288.356 418.431L285.738 419.944L288.765 421.715L291.383 420.201L296.923 423.395L294.304 424.909L297.331 426.679L299.95 425.166L305.474 428.359L302.871 429.873L305.898 431.659L308.501 430.145L314.041 433.339L311.437 434.852L314.465 436.623L317.068 435.11L322.607 438.318L319.989 439.832L323.016 441.603L325.634 440.089L331.174 443.283L328.555 444.796L331.582 446.567L334.201 445.054L339.74 448.247L337.122 449.761L340.149 451.531L342.767 450.018L348.292 453.227L345.673 454.74L348.7 456.511L351.319 454.997L356.858 458.191L354.24 459.704L357.267 461.475L359.885 459.962L365.425 463.155L362.807 464.669L365.834 466.44L368.452 464.926L373.991 468.135L371.373 469.648L374.4 471.419L377.034 469.906L382.573 473.099L379.94 474.613L382.967 476.384L385.6 474.87L391.125 478.064L388.506 479.577L391.533 481.348L394.152 479.834L399.691 483.028L397.073 484.541L400.1 486.312L402.718 484.799L408.258 487.992L405.639 489.506L408.666 491.292L411.3 489.778L416.839 492.987L414.206 494.5L417.233 496.271L419.866 494.758L425.406 497.951L422.772 499.465L425.799 501.236L428.433 499.722L433.957 502.916L431.339 504.429L434.366 506.2L436.984 504.686L442.524 507.895L439.89 509.409L442.917 511.18L445.551 509.666L451.09 512.859L448.457 514.373L451.484 516.159L454.117 514.645L459.657 517.839L457.023 519.353L460.051 521.123L462.684 519.61L468.223 522.803L465.59 524.317L468.617 526.088L471.266 524.574L476.805 527.768L474.156 529.281L477.184 531.052L479.817 529.539L485.357 532.747L482.723 534.261L485.75 536.032L488.384 534.518L493.923 537.712L491.29 539.225L494.317 541.011L496.95 539.498L502.49 542.691L499.841 544.205L502.868 545.975L505.517 544.462L511.056 547.671L508.408 549.184L511.435 550.97L514.083 549.457L519.623 552.65L516.974 554.164L520.001 555.934L522.65 554.421L528.174 557.614L525.541 559.128L528.568 560.899L531.201 559.385L536.741 562.594L534.092 564.107L537.119 565.878L539.768 564.365L545.307 567.558L542.659 569.072L545.686 570.843L548.334 569.329L553.874 572.538L551.225 574.051L554.252 575.822L556.901 574.309L562.44 577.502L559.792 579.016L562.819 580.787L565.483 579.273L569.342 581.498L571.158 582.557L568.555 584.071L571.582 585.842L574.185 584.328L579.725 587.522L577.122 589.035L580.149 590.806L582.752 589.293L588.292 592.501L585.688 594.015L588.715 595.786L591.319 594.272L596.858 597.466L599.885 599.236L625.539 585.569ZM237.471 387.343L231.932 384.149L250.851 373.222L256.375 376.43L237.471 387.343ZM246.083 392.307L240.544 389.114L259.448 378.201L264.987 381.395L246.083 392.307ZM254.695 397.287L249.156 394.078L269.997 383.135L275.537 386.329L254.695 397.287ZM263.307 402.251L259.751 399.012L278.654 388.1L284.194 391.293L263.307 402.251ZM271.904 407.215L266.38 404.022L285.284 393.109L290.823 396.303L271.904 407.215ZM280.516 412.195L274.977 408.986L293.896 398.074L301.372 401.298L280.516 412.195ZM289.128 417.159L285.48 413.92L304.384 403.008L309.924 406.201L289.128 417.159ZM297.74 422.124L292.201 418.93L311.104 408.018L316.644 411.211L297.74 422.124ZM306.352 427.103L300.812 423.91L319.716 412.982L325.256 416.191L306.352 427.103ZM314.964 432.068L309.424 428.874L330.266 417.946L335.805 421.14L314.964 432.068ZM323.561 437.047L318.021 433.838L336.94 422.926L342.465 426.119L323.561 437.047ZM332.173 442.011L326.633 438.818L347.535 427.845L353.074 431.053L332.173 442.011ZM340.785 446.976L337.182 443.676L356.086 432.764L361.626 435.957L340.785 446.976ZM349.397 451.955L343.857 448.747L362.761 437.834L368.301 441.028L349.397 451.955ZM358.009 456.92L352.469 453.726L373.265 442.768L378.804 445.962L358.009 456.92ZM366.605 461.884L361.066 458.69L379.985 447.778L385.524 450.971L366.605 461.884ZM375.217 466.863L369.678 463.655L388.597 452.742L394.121 455.951L375.217 466.863ZM383.829 471.828L378.29 468.634L397.194 457.722L402.733 460.915L383.829 471.828ZM392.441 476.792L386.902 473.599L405.806 462.686L411.345 465.88L392.441 476.792ZM401.053 481.772L397.481 478.487L416.385 467.56L421.925 470.768L401.053 481.772ZM409.665 486.736L404.126 483.543L423.03 472.63L428.569 475.824L409.665 486.736ZM418.262 491.716L412.723 488.507L431.626 477.594L437.166 480.788L418.262 491.716ZM428.811 496.65L423.211 493.441L442.115 482.528L447.655 485.722L428.811 496.65ZM437.423 501.614L431.884 498.421L450.788 487.569L456.327 490.762L437.423 501.614ZM446.035 506.594L440.496 503.385L459.4 492.472L464.939 495.666L446.035 506.594ZM454.647 511.558L449.108 508.364L468.012 497.452L473.551 500.645L454.647 511.558ZM463.244 516.522L457.704 513.298L476.624 502.386L482.148 505.579L463.244 516.522ZM471.856 521.502L466.316 518.308L485.266 507.365L490.805 510.574L471.856 521.502ZM480.468 526.466L474.928 523.273L493.832 512.36L499.372 515.554L480.468 526.466ZM489.08 531.43L483.54 528.237L502.444 517.324L507.984 520.518L489.08 531.43ZM497.692 536.41L492.152 533.216L510.996 522.289L516.535 525.482L497.692 536.41ZM506.289 541.374L500.749 538.181L519.668 527.268L525.208 530.462L506.289 541.374ZM514.901 546.354L509.361 543.145L528.265 532.233L533.805 535.426L514.901 546.354ZM523.513 551.318L517.973 548.11L536.877 537.197L542.417 540.391L523.513 551.318ZM532.125 556.283L526.585 553.089L545.489 542.176L551.029 545.37L532.125 556.283ZM540.737 561.262L535.212 558.053L554.116 547.126L559.656 550.334L540.737 561.262ZM549.349 566.226L543.809 563.033L562.713 552.12L568.252 555.314L549.349 566.226ZM557.945 571.191L552.406 567.997L571.31 557.085L576.849 560.278L557.945 571.191ZM566.557 576.17L561.018 572.977L579.922 562.049L585.461 565.258L566.557 576.17ZM575.336 581.21L571.93 579.243L569.645 577.926L588.549 567.013L592.408 569.238L594.224 570.298L575.336 581.21ZM583.933 586.175L578.408 582.921L597.267 572.053L602.806 575.247L583.933 586.175ZM592.544 591.139L587.005 587.946L605.924 577.033L611.448 580.227L592.544 591.139ZM601.156 596.119L595.617 592.925L614.521 581.997L620.06 585.206L601.156 596.119Z" fill="url(#paint30_linear_143_17)"/>
<path d="M416.329 485.1C416.381 485.573 416.317 486.051 416.143 486.494C415.969 486.936 415.689 487.33 415.329 487.64C414.94 487.862 414.494 487.966 414.047 487.94C413.599 487.913 413.169 487.757 412.809 487.49C411.739 486.814 410.869 485.865 410.289 484.74C409.658 483.589 409.315 482.302 409.289 480.99C409.241 480.516 409.307 480.038 409.481 479.594C409.655 479.151 409.932 478.755 410.289 478.44C410.68 478.223 411.125 478.121 411.571 478.148C412.017 478.175 412.447 478.328 412.809 478.59C413.877 479.273 414.746 480.225 415.329 481.35C415.962 482.5 416.305 483.787 416.329 485.1Z" fill="white" stroke="#666666" stroke-linecap="round" stroke-linejoin="round"/>
<path d="M407.039 479.99C407.094 480.463 407.031 480.942 406.857 481.385C406.683 481.828 406.402 482.221 406.039 482.53C405.65 482.752 405.205 482.856 404.757 482.83C404.31 482.803 403.88 482.647 403.519 482.38C402.45 481.707 401.583 480.756 401.009 479.63C400.373 478.481 400.03 477.193 400.009 475.88C399.955 475.406 400.018 474.925 400.192 474.48C400.366 474.036 400.647 473.641 401.009 473.33C401.398 473.112 401.842 473.011 402.286 473.037C402.731 473.064 403.159 473.218 403.519 473.48C404.587 474.163 405.456 475.115 406.039 476.24C406.676 477.389 407.019 478.677 407.039 479.99Z" fill="white" stroke="#666666" stroke-linecap="round" stroke-linejoin="round"/>
<path d="M387.68 468.62C387.732 469.093 387.668 469.571 387.494 470.014C387.319 470.456 387.04 470.85 386.68 471.16C386.29 471.382 385.845 471.486 385.397 471.46C384.95 471.433 384.52 471.277 384.16 471.01C383.086 470.338 382.215 469.388 381.64 468.26C381.008 467.109 380.665 465.822 380.64 464.51C380.592 464.036 380.658 463.558 380.832 463.114C381.006 462.671 381.283 462.275 381.64 461.96C382.031 461.742 382.476 461.641 382.923 461.669C383.37 461.697 383.799 461.854 384.16 462.12C385.227 462.799 386.097 463.747 386.68 464.87C387.311 466.021 387.654 467.308 387.68 468.62Z" fill="white" stroke="#666666" stroke-linecap="round" stroke-linejoin="round"/>
<path d="M356.329 451.1C356.381 451.573 356.317 452.051 356.143 452.494C355.969 452.936 355.689 453.33 355.329 453.64C354.94 453.862 354.494 453.966 354.047 453.94C353.599 453.913 353.169 453.757 352.809 453.49C351.739 452.814 350.869 451.865 350.289 450.74C349.658 449.589 349.315 448.302 349.289 446.99C349.241 446.516 349.307 446.038 349.481 445.594C349.655 445.151 349.932 444.755 350.289 444.44C350.68 444.223 351.125 444.121 351.571 444.148C352.017 444.175 352.447 444.328 352.809 444.59C353.877 445.273 354.746 446.225 355.329 447.35C355.962 448.5 356.305 449.787 356.329 451.1Z" fill="white" stroke="#666666" stroke-linecap="round" stroke-linejoin="round"/>
<path d="M347.039 445.99C347.094 446.463 347.031 446.942 346.857 447.385C346.683 447.828 346.402 448.221 346.039 448.53C345.65 448.752 345.205 448.856 344.757 448.83C344.31 448.803 343.88 448.647 343.519 448.38C342.45 447.707 341.583 446.756 341.009 445.63C340.373 444.481 340.03 443.193 340.009 441.88C339.955 441.406 340.018 440.925 340.192 440.48C340.366 440.036 340.647 439.641 341.009 439.33C341.398 439.112 341.842 439.011 342.286 439.037C342.731 439.064 343.159 439.218 343.519 439.48C344.587 440.163 345.456 441.115 346.039 442.24C346.676 443.389 347.019 444.677 347.039 445.99Z" fill="white" stroke="#666666" stroke-linecap="round" stroke-linejoin="round"/>
<path d="M338.055 440.956C338.107 441.428 338.043 441.907 337.869 442.349C337.695 442.792 337.416 443.185 337.055 443.496C336.666 443.718 336.22 443.822 335.773 443.795C335.325 443.769 334.895 443.612 334.535 443.346C333.462 442.674 332.591 441.723 332.015 440.596C331.384 439.445 331.041 438.158 331.015 436.846C330.967 436.372 331.033 435.893 331.207 435.45C331.381 435.006 331.658 434.611 332.015 434.296C332.406 434.077 332.852 433.976 333.299 434.005C333.746 434.033 334.175 434.19 334.535 434.456C335.603 435.134 336.472 436.083 337.055 437.206C337.686 438.357 338.029 439.643 338.055 440.956Z" fill="white" stroke="#666666" stroke-linecap="round" stroke-linejoin="round"/>
<path d="M318.39 429.52C318.442 429.993 318.378 430.471 318.204 430.914C318.029 431.356 317.75 431.75 317.39 432.06C317 432.282 316.555 432.386 316.107 432.36C315.66 432.333 315.23 432.177 314.87 431.91C313.8 431.237 312.933 430.286 312.36 429.16C311.724 428.011 311.38 426.723 311.36 425.41C311.307 424.936 311.37 424.456 311.545 424.011C311.719 423.567 311.999 423.172 312.36 422.86C312.749 422.645 313.192 422.545 313.636 422.571C314.081 422.598 314.508 422.75 314.87 423.01C315.94 423.69 316.81 424.643 317.39 425.77C318.021 426.921 318.364 428.208 318.39 429.52Z" fill="white" stroke="#666666" stroke-linecap="round" stroke-linejoin="round"/>
<path d="M311 421V415L332.28 401.8L376.5 434L359.5 442.5V449.5L311 421Z" fill="white" stroke="black" stroke-linecap="round" stroke-linejoin="round"/>
<path d="M361.979 439.05L383.859 426.33L383.789 434.25L361.909 446.96L361.979 439.05Z" fill="white" stroke="black" stroke-linecap="round" stroke-linejoin="round"/>
<path d="M336.07 406.22L357.95 393.5L357.88 411.92L336 424.63L336.07 406.22Z" fill="white" stroke="black" stroke-linecap="round" stroke-linejoin="round"/>
<path d="M342 413.362L353.548 406.612V401L342 407.75V413.362Z" fill="#B0B0B0"/>
<path d="M293.07 403.72L314.95 391L314.88 403.42L293 416.13L293.07 403.72Z" fill="white" stroke="black" stroke-linecap="round" stroke-linejoin="round"/>
<path d="M309.439 390.71L331.319 378L358 393.5L336.12 406.22L309.439 390.71Z" fill="white" stroke="black" stroke-linecap="round" stroke-linejoin="round"/>
<path d="M331 378L310 390.5L302 386L311 381L331 378Z" fill="white" stroke="black" stroke-linecap="round" stroke-linejoin="round"/>
<path d="M336 424L357.88 411.29L383.561 426.5L361.681 439.22L336 424Z" fill="white" stroke="black" stroke-linecap="round" stroke-linejoin="round"/>
<path d="M361.909 438.5L361.91 446.96L309.37 416.63L309.44 390.71L335.71 405.88V423.63L361.909 438.5Z" fill="white" stroke="black" stroke-linecap="round" stroke-linejoin="round"/>
<path d="M319.842 409.123L314 405.703V399L319.842 402.413V409.123Z" fill="#B0B0B0"/>
<path d="M328.842 414.123L323 410.703V404L328.842 407.413V414.123Z" fill="#B0B0B0"/>
<path d="M378.39 463.52C378.442 463.993 378.378 464.471 378.204 464.914C378.029 465.356 377.75 465.75 377.39 466.06C377 466.282 376.555 466.386 376.107 466.36C375.66 466.333 375.23 466.177 374.87 465.91C373.8 465.237 372.933 464.286 372.36 463.16C371.724 462.011 371.38 460.723 371.36 459.41C371.307 458.936 371.37 458.456 371.545 458.011C371.719 457.567 371.999 457.172 372.36 456.86C372.749 456.645 373.192 456.545 373.636 456.571C374.081 456.598 374.508 456.75 374.87 457.01C375.94 457.69 376.81 458.643 377.39 459.77C378.021 460.921 378.364 462.208 378.39 463.52Z" fill="white" stroke="#666666" stroke-linecap="round" stroke-linejoin="round"/>
<path d="M365 450.91L392.28 435.8L448.42 468.45L421.13 483.57L365 450.91Z" fill="white" stroke="black" stroke-linecap="round" stroke-linejoin="round"/>
<path d="M421.979 455.05L443.859 442.33L443.789 468.25L421.909 480.96L421.979 455.05Z" fill="white" stroke="black" stroke-linecap="round" stroke-linejoin="round"/>
<path d="M369.439 424.71L391.319 412L443.859 442.33L421.979 455.05L369.439 424.71Z" fill="white" stroke="black" stroke-linecap="round" stroke-linejoin="round"/>
<path d="M391 413V437.5" stroke="black" stroke-linecap="round" stroke-linejoin="round"/>
<path d="M381 431.5L391 424.5L399 421.25L409.5 420L419.5 424.5L423.25 430.5L427 436.5L431 450L421 455.5L383 443.5L381 431.5Z" fill="white"/>
<path d="M399 421.25L391 424.5L381 431.5L383 443.5L421 455.5L431 450L427 436.5L423.25 430.5M399 421.25L409.5 420L419.5 424.5L423.25 430.5M399 421.25L404.5 430.5L413.5 433.5L423.25 430.5" stroke="black" stroke-linecap="round" stroke-linejoin="round"/>
<path d="M421.979 455.05L421.909 480.96L369.37 450.63L369.44 424.71L421.979 455.05Z" fill="white" stroke="black" stroke-linecap="round" stroke-linejoin="round"/>
<path d="M475.92 519.38C475.972 519.853 475.908 520.331 475.734 520.774C475.56 521.216 475.28 521.61 474.92 521.92C474.531 522.142 474.085 522.246 473.638 522.22C473.19 522.193 472.76 522.037 472.4 521.77C471.327 521.098 470.456 520.148 469.88 519.02C469.249 517.869 468.906 516.583 468.88 515.27C468.832 514.796 468.898 514.318 469.072 513.874C469.246 513.431 469.523 513.035 469.88 512.72C470.271 512.503 470.715 512.401 471.162 512.428C471.608 512.455 472.038 512.608 472.4 512.87C473.468 513.553 474.337 514.505 474.92 515.63C475.553 516.78 475.896 518.067 475.92 519.38Z" fill="white" stroke="#666666" stroke-linecap="round" stroke-linejoin="round"/>
<path d="M466.589 514.28C466.644 514.753 466.581 515.232 466.407 515.675C466.232 516.118 465.952 516.511 465.589 516.82C465.2 517.042 464.754 517.146 464.307 517.12C463.86 517.093 463.429 516.937 463.069 516.67C462 515.997 461.132 515.046 460.559 513.92C459.906 512.776 459.545 511.487 459.509 510.17C459.461 509.691 459.531 509.208 459.714 508.763C459.897 508.318 460.188 507.926 460.559 507.62C460.948 507.402 461.391 507.301 461.836 507.327C462.281 507.354 462.709 507.508 463.069 507.77C464.139 508.45 465.009 509.403 465.589 510.53C466.225 511.679 466.569 512.967 466.589 514.28Z" fill="white" stroke="#666666" stroke-linecap="round" stroke-linejoin="round"/>
<path d="M447.23 502.91C447.281 503.383 447.218 503.861 447.043 504.304C446.869 504.746 446.59 505.14 446.23 505.45C445.84 505.672 445.395 505.776 444.947 505.75C444.5 505.723 444.07 505.567 443.71 505.3C442.636 504.628 441.765 503.678 441.19 502.55C440.558 501.399 440.215 500.112 440.19 498.8C440.142 498.326 440.208 497.848 440.381 497.404C440.555 496.961 440.832 496.565 441.19 496.25C441.581 496.032 442.026 495.931 442.473 495.959C442.92 495.987 443.349 496.144 443.71 496.41C444.777 497.089 445.646 498.037 446.23 499.16C446.861 500.311 447.204 501.598 447.23 502.91Z" fill="white" stroke="#666666" stroke-linecap="round" stroke-linejoin="round"/>
<path d="M437.92 497.81C437.972 498.283 437.908 498.761 437.734 499.204C437.56 499.646 437.28 500.04 436.92 500.35C436.531 500.572 436.085 500.676 435.638 500.65C435.19 500.623 434.76 500.467 434.4 500.2C433.33 499.527 432.463 498.576 431.89 497.45C431.236 496.306 430.876 495.017 430.84 493.7C430.793 493.222 430.864 492.739 431.047 492.294C431.23 491.85 431.52 491.457 431.89 491.15C432.28 490.935 432.724 490.836 433.168 490.864C433.613 490.892 434.04 491.047 434.4 491.31C435.479 491.993 436.35 492.958 436.92 494.1C437.545 495.239 437.888 496.511 437.92 497.81Z" fill="white" stroke="#666666" stroke-linecap="round" stroke-linejoin="round"/>
<path d="M424.55 485.21L451.83 470.09L507.97 502.74L480.68 517.86L424.55 485.21Z" fill="white" stroke="black" stroke-linecap="round" stroke-linejoin="round"/>
<path d="M481.529 489.34L503.409 476.62L503.339 502.54L481.459 515.25L481.529 489.34Z" fill="white" stroke="#666666" stroke-linecap="round" stroke-linejoin="round"/>
<path d="M428.989 459L450.869 446.29L461.236 452.274L464 453.87L471.815 458.381L473.078 459.111L474.341 459.84L503.409 476.62L481.529 489.34L428.989 459Z" fill="white" stroke="black" stroke-linecap="round" stroke-linejoin="round"/>
<path d="M462 454.5L465 452L473.5 457L470.5 459.5L462 454.5Z" fill="white"/>
<path d="M478 453L471 459V462.5L478.5 456.5L478 453Z" fill="white"/>
<path d="M467 447.5L460.5 453V456.5L467.5 450.5L467 447.5Z" fill="white"/>
<path d="M451 447V471.5" stroke="black" stroke-linecap="round" stroke-linejoin="round"/>
<path d="M481.529 489.34L481.459 515.25L428.919 484.92L428.989 459L481.529 489.34Z" fill="white" stroke="black" stroke-linecap="round" stroke-linejoin="round"/>
<path d="M535.189 553.9C535.241 554.373 535.178 554.851 535.003 555.293C534.829 555.736 534.55 556.129 534.189 556.44C533.8 556.661 533.356 556.765 532.909 556.741C532.462 556.716 532.032 556.563 531.669 556.3C530.602 555.619 529.736 554.667 529.159 553.54C528.506 552.395 528.145 551.107 528.109 549.79C528.063 549.311 528.134 548.829 528.317 548.384C528.5 547.94 528.789 547.547 529.159 547.24C529.548 547.022 529.992 546.921 530.436 546.947C530.881 546.974 531.309 547.127 531.669 547.39C532.737 548.072 533.607 549.024 534.189 550.15C534.821 551.301 535.164 552.588 535.189 553.9Z" fill="white" stroke="#666666" stroke-linecap="round" stroke-linejoin="round"/>
<path d="M525.919 548.8C525.974 549.273 525.911 549.752 525.737 550.195C525.562 550.638 525.282 551.031 524.919 551.34C524.532 551.563 524.088 551.667 523.642 551.64C523.196 551.614 522.767 551.457 522.409 551.19C521.336 550.518 520.465 549.568 519.889 548.44C519.258 547.289 518.915 546.002 518.889 544.69C518.842 544.216 518.907 543.738 519.081 543.294C519.255 542.851 519.532 542.455 519.889 542.14C520.28 541.923 520.725 541.821 521.171 541.848C521.618 541.874 522.047 542.028 522.409 542.29C523.474 542.973 524.34 543.925 524.919 545.05C525.555 546.199 525.899 547.487 525.919 548.8Z" fill="white" stroke="#666666" stroke-linecap="round" stroke-linejoin="round"/>
<path d="M506.54 537.44C506.594 537.911 506.531 538.389 506.356 538.83C506.182 539.271 505.902 539.663 505.54 539.97C505.151 540.191 504.706 540.296 504.259 540.271C503.812 540.246 503.382 540.093 503.02 539.83C501.953 539.149 501.086 538.197 500.51 537.07C499.874 535.921 499.53 534.633 499.51 533.32C499.455 532.847 499.518 532.368 499.692 531.925C499.867 531.482 500.148 531.089 500.51 530.78C500.897 530.557 501.341 530.453 501.787 530.48C502.233 530.506 502.662 530.663 503.02 530.93C504.093 531.602 504.964 532.552 505.54 533.68C506.178 534.832 506.521 536.123 506.54 537.44Z" fill="white" stroke="#666666" stroke-linecap="round" stroke-linejoin="round"/>
<path d="M497.259 532.33C497.308 532.807 497.238 533.289 497.054 533.732C496.871 534.175 496.581 534.566 496.209 534.87C495.822 535.091 495.379 535.196 494.934 535.171C494.488 535.146 494.06 534.993 493.699 534.73C492.629 534.05 491.759 533.097 491.179 531.97C490.548 530.819 490.205 529.532 490.179 528.22C490.128 527.747 490.193 527.269 490.367 526.827C490.541 526.384 490.82 525.991 491.179 525.68C491.569 525.46 492.015 525.357 492.461 525.384C492.908 525.411 493.338 525.565 493.699 525.83C494.766 526.507 495.633 527.456 496.209 528.58C496.863 529.724 497.224 531.012 497.259 532.33Z" fill="white" stroke="#666666" stroke-linecap="round" stroke-linejoin="round"/>
<path d="M483.869 519.73L511.149 504.61L567.279 537.26L539.999 552.38L483.869 519.73Z" fill="white" stroke="black" stroke-linecap="round" stroke-linejoin="round"/>
<path d="M540.84 523.86L562.72 511.14L562.65 537.06L540.77 549.77L540.84 523.86Z" fill="white" stroke="black" stroke-linecap="round" stroke-linejoin="round"/>
<path d="M488.31 493.53L510.19 480.81L562.72 511.14L540.84 523.86L488.31 493.53Z" fill="white" stroke="black" stroke-linecap="round" stroke-linejoin="round"/>
<path d="M510 481V505.5" stroke="black" stroke-linecap="round" stroke-linejoin="round"/>
<path d="M540.84 523.86L540.77 549.77L488.24 519.44L488.31 493.53L540.84 523.86Z" fill="white" stroke="black" stroke-linecap="round" stroke-linejoin="round"/>
<path d="M434.5 496L463 512" stroke="#666666" stroke-linecap="round"/>
<path d="M494 531L522.5 547" stroke="#666666" stroke-linecap="round"/>
<path d="M375 462L403.5 478" stroke="#666666" stroke-linecap="round"/>
<path d="M315 428L343.5 444" stroke="#666666" stroke-linecap="round"/>
<path d="M302.5 400.5L310 417V391L302 386L302.5 400.5Z" fill="white" stroke="black" stroke-linecap="round" stroke-linejoin="round"/>
<path d="M597 581L601 579V597L597 599V581Z" fill="white" stroke="black" stroke-linecap="round" stroke-linejoin="round"/>
<path d="M618 569L622 567V585L618 587V569Z" fill="white" stroke="black" stroke-linecap="round" stroke-linejoin="round"/>
<path d="M594.07 581.72L624 565.5L623.93 571.42L594 587.63L594.07 581.72Z" fill="white" stroke="black" stroke-linecap="round" stroke-linejoin="round"/>
<path d="M488.5 433L460.5 456.5M460.5 456.5L471 462.5M460.5 456.5L460.5 453L488 430" stroke="#14181E" stroke-linecap="round" stroke-linejoin="round"/>
<path d="M488.5 447.895L471 462.5" stroke="#14181E" stroke-linecap="round" stroke-linejoin="round"/>
<path d="M471 462V458.5L488.5 444" stroke="#14181E" stroke-linecap="round" stroke-linejoin="round"/>
<rect width="1.85069" height="10.1788" transform="matrix(-0.866025 -0.5 -2.20305e-08 1 410.363 456.656)" fill="#C4C4C4"/>
<rect width="1.85069" height="10.1788" transform="matrix(-0.866025 -0.5 -2.20305e-08 1 405.736 453.88)" fill="#C4C4C4"/>
<rect width="1.85069" height="10.1788" transform="matrix(-0.866025 -0.5 -2.20305e-08 1 401.109 452.029)" fill="#C4C4C4"/>
<rect width="1.85069" height="10.1788" transform="matrix(-0.866025 -0.5 -2.20305e-08 1 396.483 449.253)" fill="#C4C4C4"/>
<rect width="1.85069" height="10.1788" transform="matrix(-0.866025 -0.5 -2.20305e-08 1 391.856 446.477)" fill="#C4C4C4"/>
<rect width="1.85069" height="10.1788" transform="matrix(-0.866025 -0.5 -2.20305e-08 1 387.229 443.701)" fill="#C4C4C4"/>
<rect width="1.85069" height="10.1788" transform="matrix(-0.866025 -0.5 -2.20305e-08 1 382.603 440.925)" fill="#C4C4C4"/>
<rect width="1.85069" height="10.1788" transform="matrix(-0.866025 -0.5 -2.20305e-08 1 468.363 489.656)" fill="#C4C4C4"/>
<rect width="1.85069" height="10.1788" transform="matrix(-0.866025 -0.5 -2.20305e-08 1 463.736 486.88)" fill="#C4C4C4"/>
<rect width="1.85069" height="10.1788" transform="matrix(-0.866025 -0.5 -2.20305e-08 1 459.109 485.029)" fill="#C4C4C4"/>
<rect width="1.85069" height="10.1788" transform="matrix(-0.866025 -0.5 -2.20305e-08 1 454.483 482.253)" fill="#C4C4C4"/>
<rect width="1.85069" height="10.1788" transform="matrix(-0.866025 -0.5 -2.20305e-08 1 449.856 479.477)" fill="#C4C4C4"/>
<rect width="1.85069" height="10.1788" transform="matrix(-0.866025 -0.5 -2.20305e-08 1 445.229 476.701)" fill="#C4C4C4"/>
<rect width="1.85069" height="10.1788" transform="matrix(-0.866025 -0.5 -2.20305e-08 1 440.603 473.925)" fill="#C4C4C4"/>
<rect width="1.85069" height="10.1788" transform="matrix(-0.866025 -0.5 -2.20305e-08 1 528.363 524.656)" fill="#C4C4C4"/>
<rect width="1.85069" height="10.1788" transform="matrix(-0.866025 -0.5 -2.20305e-08 1 523.736 521.88)" fill="#C4C4C4"/>
<rect width="1.85069" height="10.1788" transform="matrix(-0.866025 -0.5 -2.20305e-08 1 519.109 520.029)" fill="#C4C4C4"/>
<rect width="1.85069" height="10.1788" transform="matrix(-0.866025 -0.5 -2.20305e-08 1 514.483 517.253)" fill="#C4C4C4"/>
<rect width="1.85069" height="10.1788" transform="matrix(-0.866025 -0.5 -2.20305e-08 1 509.856 514.477)" fill="#C4C4C4"/>
<rect width="1.85069" height="10.1788" transform="matrix(-0.866025 -0.5 -2.20305e-08 1 505.229 511.701)" fill="#C4C4C4"/>
<rect width="1.85069" height="10.1788" transform="matrix(-0.866025 -0.5 -2.20305e-08 1 500.603 508.925)" fill="#C4C4C4"/>
<path opacity="0.7" d="M716 462.272L866.061 549.582L937.409 509.365L789.029 421.71L716 462.272Z" fill="#E8E8E8"/>
<path d="M817.958 347.469L818.601 485.196L874.052 517.397L873.447 379.669L817.958 347.469Z" fill="white" stroke="#14181E" stroke-linecap="round" stroke-linejoin="round"/>
<rect width="37.3846" height="12.7448" transform="matrix(0.866025 0.5 -2.20305e-08 1 829.853 370.731)" fill="#B1B1B1"/>
<rect width="37.3846" height="12.7448" transform="matrix(0.866025 0.5 -2.20305e-08 1 829.853 393.671)" fill="#048F92"/>
<rect width="37.3846" height="12.7448" transform="matrix(0.866025 0.5 -2.20305e-08 1 829.853 416.612)" fill="#B1B1B1"/>
<rect width="37.3846" height="12.7448" transform="matrix(0.866025 0.5 -2.20305e-08 1 829.853 439.552)" fill="#B1B1B1"/>
<rect width="37.3846" height="12.7448" transform="matrix(0.866025 0.5 -2.20305e-08 1 829.853 462.493)" fill="#B1B1B1"/>
<path d="M873.448 379.67L874.052 517.397L914.65 494.005L914.007 356.265L873.448 379.67Z" fill="white" stroke="#14181E" stroke-linecap="round" stroke-linejoin="round"/>
<path d="M817.958 347.469L873.447 379.67L914.007 356.265L858.569 324L817.958 347.469Z" fill="white" stroke="#14181E" stroke-linecap="round" stroke-linejoin="round"/>
<path d="M959 411.089L958.601 496.902L898.48 531.146L898.853 445.334L959 411.089Z" fill="white" stroke="#14181E" stroke-linecap="round" stroke-linejoin="round"/>
<path d="M898.853 445.334L898.48 531.146L873.185 516.564L873.584 430.764L898.853 445.334Z" fill="white" stroke="#14181E" stroke-linecap="round" stroke-linejoin="round"/>
<path d="M958.999 411.089L898.853 445.334L873.583 430.764L933.705 396.48L958.999 411.089Z" fill="white" stroke="#14181E" stroke-linecap="round" stroke-linejoin="round"/>
<path d="M890.816 458.798L881.004 453.063V445.745L890.816 451.481V458.798Z" fill="#B0B0B0"/>
<path d="M916.85 451.447L908.021 456.545L908.021 449.748L916.85 444.65L916.85 451.447Z" fill="#048F92"/>
<path d="M916.85 467.591L908.021 472.689L908.021 465.891L916.85 460.794L916.85 467.591Z" fill="#B0B0B0"/>
<path d="M916.85 481.185L908.021 486.283L908.021 479.486L916.85 474.388L916.85 481.185Z" fill="#B0B0B0"/>
<path d="M916.85 496.479L908.021 501.577L908.021 494.78L916.85 489.682L916.85 496.479Z" fill="#B0B0B0"/>
<path d="M916.85 510.073L908.021 515.171L908.021 508.374L916.85 503.276L916.85 510.073Z" fill="#B0B0B0"/>
<path d="M932.994 442.951L924.164 448.049L924.164 441.252L932.994 436.154L932.994 442.951Z" fill="#B0B0B0"/>
<path d="M932.994 459.094L924.164 464.192L924.164 457.395L932.994 452.297L932.994 459.094Z" fill="#B0B0B0"/>
<path d="M932.994 472.689L924.164 477.786L924.164 470.989L932.994 465.891L932.994 472.689Z" fill="#048F92"/>
<path d="M932.994 487.982L924.164 493.08L924.164 486.283L932.994 481.185L932.994 487.982Z" fill="#B0B0B0"/>
<path d="M932.994 501.577L924.164 506.675L924.164 499.877L932.994 494.78L932.994 501.577Z" fill="#048F92"/>
<path d="M948.288 435.304L939.458 440.402L939.458 433.605L948.288 428.507L948.288 435.304Z" fill="#B0B0B0"/>
<path d="M948.288 451.447L939.458 456.545L939.458 449.748L948.288 444.65L948.288 451.447Z" fill="#B0B0B0"/>
<path d="M948.288 465.042L939.458 470.14L939.458 463.343L948.288 458.245L948.288 465.042Z" fill="#048F92"/>
<path d="M948.288 480.335L939.458 485.433L939.458 478.636L948.288 473.538L948.288 480.335Z" fill="#B0B0B0"/>
<path d="M948.288 493.93L939.458 499.028L939.458 492.231L948.288 487.133L948.288 493.93Z" fill="#B0B0B0"/>
<path d="M890.816 472.699L881.004 466.9V459.634L890.816 465.369V472.699Z" fill="#B0B0B0"/>
<path d="M890.816 486.575L881.004 480.839V473.522L890.816 479.258V486.575Z" fill="#B0B0B0"/>
<path d="M890.816 501.286L881.004 495.538V488.234L890.816 493.969V501.286Z" fill="#B0B0B0"/>
<path d="M890.816 515.175L881.004 509.388V502.122L890.816 507.858V515.175Z" fill="#B0B0B0"/>
<path d="M818.08 283.18C816.72 283.18 815.68 282.76 814.96 281.92C814.253 281.08 813.86 279.927 813.78 278.46L815.78 277.92C815.847 278.96 816.047 279.8 816.38 280.44C816.727 281.08 817.293 281.4 818.08 281.4C818.667 281.4 819.107 281.24 819.4 280.92C819.707 280.587 819.86 280.113 819.86 279.5C819.86 278.833 819.72 278.28 819.44 277.84C819.16 277.4 818.713 276.913 818.1 276.38L815.38 273.98C814.833 273.5 814.433 272.987 814.18 272.44C813.94 271.88 813.82 271.2 813.82 270.4C813.82 269.213 814.16 268.293 814.84 267.64C815.52 266.987 816.447 266.66 817.62 266.66C818.9 266.66 819.867 267 820.52 267.68C821.173 268.36 821.567 269.413 821.7 270.84L819.78 271.36C819.713 270.413 819.527 269.687 819.22 269.18C818.927 268.66 818.393 268.4 817.62 268.4C817.047 268.4 816.607 268.553 816.3 268.86C815.993 269.153 815.84 269.593 815.84 270.18C815.84 270.66 815.92 271.067 816.08 271.4C816.24 271.72 816.513 272.047 816.9 272.38L819.64 274.78C820.347 275.407 820.907 276.087 821.32 276.82C821.747 277.553 821.96 278.387 821.96 279.32C821.96 280.507 821.6 281.447 820.88 282.14C820.16 282.833 819.227 283.18 818.08 283.18ZM823.713 266.8H829.993V268.48H825.973V273.84H829.233V275.44H825.973V281.38H830.033V283H823.713V266.8ZM835.918 283.18C834.318 283.18 833.191 282.707 832.538 281.76C831.884 280.8 831.558 279.48 831.558 277.8V272.08C831.558 270.307 831.878 268.96 832.518 268.04C833.158 267.12 834.291 266.66 835.918 266.66C837.371 266.66 838.411 267.053 839.038 267.84C839.678 268.627 839.998 269.787 839.998 271.32V272.6H837.858V271.46C837.858 270.713 837.824 270.14 837.758 269.74C837.691 269.34 837.518 269.02 837.238 268.78C836.971 268.54 836.538 268.42 835.938 268.42C835.324 268.42 834.864 268.553 834.558 268.82C834.264 269.073 834.071 269.433 833.978 269.9C833.884 270.353 833.838 270.967 833.838 271.74V278.16C833.838 278.987 833.904 279.633 834.038 280.1C834.171 280.567 834.384 280.9 834.678 281.1C834.984 281.3 835.404 281.4 835.938 281.4C836.511 281.4 836.938 281.273 837.218 281.02C837.498 280.767 837.671 280.42 837.738 279.98C837.818 279.54 837.858 278.94 837.858 278.18V276.98H839.998V278.18C839.998 279.793 839.691 281.033 839.078 281.9C838.478 282.753 837.424 283.18 835.918 283.18ZM842.151 266.8H845.411C847.051 266.8 848.251 267.14 849.011 267.82C849.784 268.487 850.171 269.58 850.171 271.1C850.171 273.18 849.504 274.44 848.171 274.88L850.471 283H848.291L846.171 275.4H844.411V283H842.151V266.8ZM845.271 273.78C846.244 273.78 846.937 273.587 847.351 273.2C847.777 272.813 847.991 272.113 847.991 271.1C847.991 270.433 847.917 269.913 847.771 269.54C847.624 269.153 847.364 268.873 846.991 268.7C846.617 268.513 846.091 268.42 845.411 268.42H844.411V273.78H845.271ZM856.662 283.18C855.075 283.18 853.935 282.733 853.242 281.84C852.562 280.933 852.222 279.627 852.222 277.92V271.78C852.222 270.1 852.568 268.827 853.262 267.96C853.955 267.093 855.088 266.66 856.662 266.66C858.235 266.66 859.362 267.1 860.042 267.98C860.735 268.847 861.082 270.113 861.082 271.78V277.94C861.082 279.62 860.735 280.913 860.042 281.82C859.348 282.727 858.222 283.18 856.662 283.18ZM856.662 281.4C857.502 281.4 858.068 281.153 858.362 280.66C858.655 280.167 858.802 279.42 858.802 278.42V271.32C858.802 270.333 858.655 269.607 858.362 269.14C858.068 268.66 857.502 268.42 856.662 268.42C855.808 268.42 855.235 268.66 854.942 269.14C854.648 269.607 854.502 270.333 854.502 271.32V278.42C854.502 279.42 854.648 280.167 854.942 280.66C855.235 281.153 855.808 281.4 856.662 281.4Z" fill="black"/>
<circle r="12.7847" transform="matrix(0.866025 0.5 -0.866025 0.5 800.144 418.785)" fill="#048F92" fill-opacity="0.12"/>
<circle r="5.77353" transform="matrix(0.866025 0.5 -0.866025 0.5 800 418)" fill="#048F92"/>
<path d="M799.5 416L799.5 416.5L800.5 416.5L800.5 416L799.5 416ZM800.5 284L800.5 283.5L799.5 283.5L799.5 284L800.5 284ZM799.5 285.941L799.5 286.441L800.5 286.441L800.5 285.941L799.5 285.941ZM800.5 289.824L800.5 289.324L799.5 289.324L799.5 289.824L800.5 289.824ZM799.5 293.706L799.5 294.206L800.5 294.206L800.5 293.706L799.5 293.706ZM800.5 297.588L800.5 297.088L799.5 297.088L799.5 297.588L800.5 297.588ZM799.5 301.471L799.5 301.971L800.5 301.971L800.5 301.471L799.5 301.471ZM800.5 305.353L800.5 304.853L799.5 304.853L799.5 305.353L800.5 305.353ZM799.5 309.235L799.5 309.735L800.5 309.735L800.5 309.235L799.5 309.235ZM800.5 313.118L800.5 312.618L799.5 312.618L799.5 313.118L800.5 313.118ZM799.5 317L799.5 317.5L800.5 317.5L800.5 317L799.5 317ZM800.5 320.882L800.5 320.382L799.5 320.382L799.5 320.882L800.5 320.882ZM799.5 324.765L799.5 325.265L800.5 325.265L800.5 324.765L799.5 324.765ZM800.5 328.647L800.5 328.147L799.5 328.147L799.5 328.647L800.5 328.647ZM799.5 332.529L799.5 333.029L800.5 333.029L800.5 332.529L799.5 332.529ZM800.5 336.412L800.5 335.912L799.5 335.912L799.5 336.412L800.5 336.412ZM799.5 340.294L799.5 340.794L800.5 340.794L800.5 340.294L799.5 340.294ZM800.5 344.176L800.5 343.676L799.5 343.676L799.5 344.176L800.5 344.176ZM799.5 348.059L799.5 348.559L800.5 348.559L800.5 348.059L799.5 348.059ZM800.5 351.941L800.5 351.441L799.5 351.441L799.5 351.941L800.5 351.941ZM799.5 355.824L799.5 356.324L800.5 356.324L800.5 355.824L799.5 355.824ZM800.5 359.706L800.5 359.206L799.5 359.206L799.5 359.706L800.5 359.706ZM799.5 363.588L799.5 364.088L800.5 364.088L800.5 363.588L799.5 363.588ZM800.5 367.471L800.5 366.971L799.5 366.971L799.5 367.471L800.5 367.471ZM799.5 371.353L799.5 371.853L800.5 371.853L800.5 371.353L799.5 371.353ZM800.5 375.235L800.5 374.735L799.5 374.735L799.5 375.235L800.5 375.235ZM799.5 379.118L799.5 379.618L800.5 379.618L800.5 379.118L799.5 379.118ZM800.5 383L800.5 382.5L799.5 382.5L799.5 383L800.5 383ZM799.5 386.882L799.5 387.382L800.5 387.382L800.5 386.882L799.5 386.882ZM800.5 390.765L800.5 390.265L799.5 390.265L799.5 390.765L800.5 390.765ZM799.5 394.647L799.5 395.147L800.5 395.147L800.5 394.647L799.5 394.647ZM800.5 398.529L800.5 398.029L799.5 398.029L799.5 398.529L800.5 398.529ZM799.5 402.412L799.5 402.912L800.5 402.912L800.5 402.412L799.5 402.412ZM800.5 406.294L800.5 405.794L799.5 405.794L799.5 406.294L800.5 406.294ZM799.5 410.177L799.5 410.677L800.5 410.677L800.5 410.177L799.5 410.177ZM800.5 414.059L800.5 413.559L799.5 413.559L799.5 414.059L800.5 414.059ZM799.5 284L799.5 285.941L800.5 285.941L800.5 284L799.5 284ZM799.5 289.824L799.5 293.706L800.5 293.706L800.5 289.824L799.5 289.824ZM799.5 297.588L799.5 301.471L800.5 301.471L800.5 297.588L799.5 297.588ZM799.5 305.353L799.5 309.235L800.5 309.235L800.5 305.353L799.5 305.353ZM799.5 313.118L799.5 317L800.5 317L800.5 313.118L799.5 313.118ZM799.5 320.882L799.5 324.765L800.5 324.765L800.5 320.882L799.5 320.882ZM799.5 328.647L799.5 332.529L800.5 332.529L800.5 328.647L799.5 328.647ZM799.5 336.412L799.5 340.294L800.5 340.294L800.5 336.412L799.5 336.412ZM799.5 344.176L799.5 348.059L800.5 348.059L800.5 344.176L799.5 344.176ZM799.5 351.941L799.5 355.824L800.5 355.824L800.5 351.941L799.5 351.941ZM799.5 359.706L799.5 363.588L800.5 363.588L800.5 359.706L799.5 359.706ZM799.5 367.471L799.5 371.353L800.5 371.353L800.5 367.471L799.5 367.471ZM799.5 375.235L799.5 379.118L800.5 379.118L800.5 375.235L799.5 375.235ZM799.5 383L799.5 386.882L800.5 386.882L800.5 383L799.5 383ZM799.5 390.765L799.5 394.647L800.5 394.647L800.5 390.765L799.5 390.765ZM799.5 398.529L799.5 402.412L800.5 402.412L800.5 398.529L799.5 398.529ZM799.5 406.294L799.5 410.177L800.5 410.177L800.5 406.294L799.5 406.294ZM799.5 414.059L799.5 416L800.5 416L800.5 414.059L799.5 414.059Z" fill="#048F92"/>
<rect width="2" height="48" transform="translate(799 255)" fill="#048F92"/>
<defs>
<linearGradient id="paint0_linear_143_17" x1="742.178" y1="53.9999" x2="334.063" y2="760.875" gradientUnits="userSpaceOnUse">
<stop stop-color="#BDBDBD" stop-opacity="0"/>
<stop offset="0.510417" stop-color="#BDBDBD"/>
<stop offset="1" stop-color="#BDBDBD" stop-opacity="0"/>
</linearGradient>
<linearGradient id="paint1_linear_143_17" x1="1069.1" y1="242.75" x2="660.988" y2="949.625" gradientUnits="userSpaceOnUse">
<stop stop-color="#BDBDBD" stop-opacity="0"/>
<stop offset="0.510417" stop-color="#BDBDBD"/>
<stop offset="1" stop-color="#BDBDBD" stop-opacity="0"/>
</linearGradient>
<linearGradient id="paint2_linear_143_17" x1="1396.46" y1="431.75" x2="988.345" y2="1138.62" gradientUnits="userSpaceOnUse">
<stop stop-color="#BDBDBD" stop-opacity="0"/>
<stop offset="0.510417" stop-color="#BDBDBD"/>
<stop offset="1" stop-color="#BDBDBD" stop-opacity="0"/>
</linearGradient>
<linearGradient id="paint3_linear_143_17" x1="905.423" y1="148.25" x2="497.309" y2="855.125" gradientUnits="userSpaceOnUse">
<stop stop-color="#BDBDBD" stop-opacity="0"/>
<stop offset="0.510417" stop-color="#BDBDBD"/>
<stop offset="1" stop-color="#BDBDBD" stop-opacity="0"/>
</linearGradient>
<linearGradient id="paint4_linear_143_17" x1="1232.78" y1="337.25" x2="824.667" y2="1044.12" gradientUnits="userSpaceOnUse">
<stop stop-color="#BDBDBD" stop-opacity="0"/>
<stop offset="0.510417" stop-color="#BDBDBD"/>
<stop offset="1" stop-color="#BDBDBD" stop-opacity="0"/>
</linearGradient>
<linearGradient id="paint5_linear_143_17" x1="1560.14" y1="526.25" x2="1152.02" y2="1233.12" gradientUnits="userSpaceOnUse">
<stop stop-color="#BDBDBD" stop-opacity="0"/>
<stop offset="0.510417" stop-color="#BDBDBD"/>
<stop offset="1" stop-color="#BDBDBD" stop-opacity="0"/>
</linearGradient>
<linearGradient id="paint6_linear_143_17" x1="796.304" y1="85.2499" x2="388.19" y2="792.125" gradientUnits="userSpaceOnUse">
<stop stop-color="#BDBDBD" stop-opacity="0"/>
<stop offset="0.510417" stop-color="#BDBDBD"/>
<stop offset="1" stop-color="#BDBDBD" stop-opacity="0"/>
</linearGradient>
<linearGradient id="paint7_linear_143_17" x1="1123.66" y1="274.25" x2="715.548" y2="981.125" gradientUnits="userSpaceOnUse">
<stop stop-color="#BDBDBD" stop-opacity="0"/>
<stop offset="0.510417" stop-color="#BDBDBD"/>
<stop offset="1" stop-color="#BDBDBD" stop-opacity="0"/>
</linearGradient>
<linearGradient id="paint8_linear_143_17" x1="1451.02" y1="463.25" x2="1042.9" y2="1170.12" gradientUnits="userSpaceOnUse">
<stop stop-color="#BDBDBD" stop-opacity="0"/>
<stop offset="0.510417" stop-color="#BDBDBD"/>
<stop offset="1" stop-color="#BDBDBD" stop-opacity="0"/>
</linearGradient>
<linearGradient id="paint9_linear_143_17" x1="959.983" y1="179.75" x2="551.868" y2="886.625" gradientUnits="userSpaceOnUse">
<stop stop-color="#BDBDBD" stop-opacity="0"/>
<stop offset="0.510417" stop-color="#BDBDBD"/>
<stop offset="1" stop-color="#BDBDBD" stop-opacity="0"/>
</linearGradient>
<linearGradient id="paint10_linear_143_17" x1="1287.34" y1="368.75" x2="879.226" y2="1075.62" gradientUnits="userSpaceOnUse">
<stop stop-color="#BDBDBD" stop-opacity="0"/>
<stop offset="0.510417" stop-color="#BDBDBD"/>
<stop offset="1" stop-color="#BDBDBD" stop-opacity="0"/>
</linearGradient>
<linearGradient id="paint11_linear_143_17" x1="1614.7" y1="557.75" x2="1206.58" y2="1264.62" gradientUnits="userSpaceOnUse">
<stop stop-color="#BDBDBD" stop-opacity="0"/>
<stop offset="0.510417" stop-color="#BDBDBD"/>
<stop offset="1" stop-color="#BDBDBD" stop-opacity="0"/>
</linearGradient>
<linearGradient id="paint12_linear_143_17" x1="850.864" y1="116.75" x2="442.749" y2="823.625" gradientUnits="userSpaceOnUse">
<stop stop-color="#BDBDBD" stop-opacity="0"/>
<stop offset="0.510417" stop-color="#BDBDBD"/>
<stop offset="1" stop-color="#BDBDBD" stop-opacity="0"/>
</linearGradient>
<linearGradient id="paint13_linear_143_17" x1="1178.22" y1="305.75" x2="770.107" y2="1012.63" gradientUnits="userSpaceOnUse">
<stop stop-color="#BDBDBD" stop-opacity="0"/>
<stop offset="0.510417" stop-color="#BDBDBD"/>
<stop offset="1" stop-color="#BDBDBD" stop-opacity="0"/>
</linearGradient>
<linearGradient id="paint14_linear_143_17" x1="1505.58" y1="494.75" x2="1097.46" y2="1201.62" gradientUnits="userSpaceOnUse">
<stop stop-color="#BDBDBD" stop-opacity="0"/>
<stop offset="0.510417" stop-color="#BDBDBD"/>
<stop offset="1" stop-color="#BDBDBD" stop-opacity="0"/>
</linearGradient>
<linearGradient id="paint15_linear_143_17" x1="1014.54" y1="211.25" x2="606.428" y2="918.125" gradientUnits="userSpaceOnUse">
<stop stop-color="#BDBDBD" stop-opacity="0"/>
<stop offset="0.510417" stop-color="#BDBDBD"/>
<stop offset="1" stop-color="#BDBDBD" stop-opacity="0"/>
</linearGradient>
<linearGradient id="paint16_linear_143_17" x1="1341.9" y1="400.25" x2="933.786" y2="1107.12" gradientUnits="userSpaceOnUse">
<stop stop-color="#BDBDBD" stop-opacity="0"/>
<stop offset="0.510417" stop-color="#BDBDBD"/>
<stop offset="1" stop-color="#BDBDBD" stop-opacity="0"/>
</linearGradient>
<linearGradient id="paint17_linear_143_17" x1="1669.26" y1="589.25" x2="1261.14" y2="1296.12" gradientUnits="userSpaceOnUse">
<stop stop-color="#BDBDBD" stop-opacity="0"/>
<stop offset="0.510417" stop-color="#BDBDBD"/>
<stop offset="1" stop-color="#BDBDBD" stop-opacity="0"/>
</linearGradient>
<linearGradient id="paint18_linear_143_17" x1="129.464" y1="323.75" x2="661.853" y2="1245.87" gradientUnits="userSpaceOnUse">
<stop stop-color="#BDBDBD" stop-opacity="0"/>
<stop offset="0.510417" stop-color="#BDBDBD"/>
<stop offset="1" stop-color="#BDBDBD" stop-opacity="0"/>
</linearGradient>
<linearGradient id="paint19_linear_143_17" x1="446.43" y1="140.75" x2="978.819" y2="1062.87" gradientUnits="userSpaceOnUse">
<stop stop-color="#BDBDBD" stop-opacity="0"/>
<stop offset="0.510417" stop-color="#BDBDBD"/>
<stop offset="1" stop-color="#BDBDBD" stop-opacity="0"/>
</linearGradient>
<linearGradient id="paint20_linear_143_17" x1="-29.0177" y1="415.25" x2="503.371" y2="1337.37" gradientUnits="userSpaceOnUse">
<stop stop-color="#BDBDBD" stop-opacity="0"/>
<stop offset="0.510417" stop-color="#BDBDBD"/>
<stop offset="1" stop-color="#BDBDBD" stop-opacity="0"/>
</linearGradient>
<linearGradient id="paint21_linear_143_17" x1="287.947" y1="232.25" x2="820.336" y2="1154.37" gradientUnits="userSpaceOnUse">
<stop stop-color="#BDBDBD" stop-opacity="0"/>
<stop offset="0.510417" stop-color="#BDBDBD"/>
<stop offset="1" stop-color="#BDBDBD" stop-opacity="0"/>
</linearGradient>
<linearGradient id="paint22_linear_143_17" x1="182.292" y1="293.25" x2="714.682" y2="1215.37" gradientUnits="userSpaceOnUse">
<stop stop-color="#BDBDBD" stop-opacity="0"/>
<stop offset="0.510417" stop-color="#BDBDBD"/>
<stop offset="1" stop-color="#BDBDBD" stop-opacity="0"/>
</linearGradient>
<linearGradient id="paint23_linear_143_17" x1="499.258" y1="110.25" x2="1031.65" y2="1032.37" gradientUnits="userSpaceOnUse">
<stop stop-color="#BDBDBD" stop-opacity="0"/>
<stop offset="0.510417" stop-color="#BDBDBD"/>
<stop offset="1" stop-color="#BDBDBD" stop-opacity="0"/>
</linearGradient>
<linearGradient id="paint24_linear_143_17" x1="23.81" y1="384.75" x2="556.199" y2="1306.87" gradientUnits="userSpaceOnUse">
<stop stop-color="#BDBDBD" stop-opacity="0"/>
<stop offset="0.510417" stop-color="#BDBDBD"/>
<stop offset="1" stop-color="#BDBDBD" stop-opacity="0"/>
</linearGradient>
<linearGradient id="paint25_linear_143_17" x1="340.775" y1="201.75" x2="873.164" y2="1123.87" gradientUnits="userSpaceOnUse">
<stop stop-color="#BDBDBD" stop-opacity="0"/>
<stop offset="0.510417" stop-color="#BDBDBD"/>
<stop offset="1" stop-color="#BDBDBD" stop-opacity="0"/>
</linearGradient>
<linearGradient id="paint26_linear_143_17" x1="235.12" y1="262.75" x2="767.509" y2="1184.87" gradientUnits="userSpaceOnUse">
<stop stop-color="#BDBDBD" stop-opacity="0"/>
<stop offset="0.510417" stop-color="#BDBDBD"/>
<stop offset="1" stop-color="#BDBDBD" stop-opacity="0"/>
</linearGradient>
<linearGradient id="paint27_linear_143_17" x1="552.085" y1="79.7499" x2="1084.47" y2="1001.87" gradientUnits="userSpaceOnUse">
<stop stop-color="#BDBDBD" stop-opacity="0"/>
<stop offset="0.510417" stop-color="#BDBDBD"/>
<stop offset="1" stop-color="#BDBDBD" stop-opacity="0"/>
</linearGradient>
<linearGradient id="paint28_linear_143_17" x1="76.6376" y1="354.25" x2="609.027" y2="1276.37" gradientUnits="userSpaceOnUse">
<stop stop-color="#BDBDBD" stop-opacity="0"/>
<stop offset="0.510417" stop-color="#BDBDBD"/>
<stop offset="1" stop-color="#BDBDBD" stop-opacity="0"/>
</linearGradient>
<linearGradient id="paint29_linear_143_17" x1="393.602" y1="171.25" x2="925.992" y2="1093.37" gradientUnits="userSpaceOnUse">
<stop stop-color="#BDBDBD" stop-opacity="0"/>
<stop offset="0.510417" stop-color="#BDBDBD"/>
<stop offset="1" stop-color="#BDBDBD" stop-opacity="0"/>
</linearGradient>
<linearGradient id="paint30_linear_143_17" x1="610.5" y1="588" x2="239.5" y2="361" gradientUnits="userSpaceOnUse">
<stop stop-color="#1A1A1A"/>
<stop offset="0.636174" stop-color="#1A1A1A"/>
<stop offset="1" stop-color="#1A1A1A" stop-opacity="0"/>
</linearGradient>
<clipPath id="clip0_143_17">
<rect width="65.8179" height="44.158" fill="white" transform="matrix(0.866025 0.5 -2.20305e-08 1 483 607)"/>
</clipPath>
<clipPath id="clip1_143_17">
<rect width="24" height="24" fill="white" transform="matrix(0.866025 0.5 -2.20305e-08 1 1044 522.668)"/>
</clipPath>
<clipPath id="clip2_143_17">
<rect width="24" height="24" fill="white" transform="matrix(0.866025 0.5 -2.20305e-08 1 1064.78 534.668)"/>
</clipPath>
<clipPath id="clip3_143_17">
<rect width="24" height="24" fill="white" transform="matrix(0.866025 0.5 -2.20305e-08 1 1085.57 546.668)"/>
</clipPath>
<clipPath id="clip4_143_17">
<rect width="24" height="24" fill="white" transform="matrix(0.866025 -0.5 -2.20305e-08 -1 713 558)"/>
</clipPath>
<clipPath id="clip5_143_17">
<rect width="24" height="24" fill="white" transform="matrix(0.866025 -0.5 -2.20305e-08 -1 733.785 546)"/>
</clipPath>
<clipPath id="clip6_143_17">
<rect width="24" height="24" fill="white" transform="matrix(0.866025 -0.5 -2.20305e-08 -1 755 534)"/>
</clipPath>
<clipPath id="clip7_143_17">
<rect width="24" height="24" fill="white" transform="matrix(-0.866025 -0.5 2.20305e-08 -1 606.15 718.158)"/>
</clipPath>
<clipPath id="clip8_143_17">
<rect width="24" height="24" fill="white" transform="matrix(-0.866025 -0.5 2.20305e-08 -1 585.366 706.158)"/>
</clipPath>
<clipPath id="clip9_143_17">
<rect width="24" height="24" fill="white" transform="matrix(-0.866025 -0.5 2.20305e-08 -1 564.581 694.158)"/>
</clipPath>
</defs>
</svg>
