<svg width="1535" height="990" viewBox="0 0 1535 990" fill="none" xmlns="http://www.w3.org/2000/svg">
<mask id="mask0_206_16" style="mask-type:alpha" maskUnits="userSpaceOnUse" x="0" y="101" width="1535" height="889">
<path d="M1533.01 535.687L755.202 989.422L0.997165 555.071L778.607 101.578L1533.01 535.687Z" fill="white" stroke="#BDBDBD"/>
</mask>
<g mask="url(#mask0_206_16)">
<g opacity="0.5">
<path d="M741.745 53.75L-74.4844 525" stroke="url(#paint0_linear_206_16)" stroke-linecap="square" stroke-linejoin="round"/>
<path d="M1068.67 242.5L252.44 713.75" stroke="url(#paint1_linear_206_16)" stroke-linecap="square" stroke-linejoin="round"/>
<path d="M1396.03 431.5L579.797 902.75" stroke="url(#paint2_linear_206_16)" stroke-linecap="square" stroke-linejoin="round"/>
<path d="M904.99 148L88.7612 619.25" stroke="url(#paint3_linear_206_16)" stroke-linecap="square" stroke-linejoin="round"/>
<path d="M1232.35 337L416.119 808.25" stroke="url(#paint4_linear_206_16)" stroke-linecap="square" stroke-linejoin="round"/>
<path d="M1559.71 526L743.477 997.25" stroke="url(#paint5_linear_206_16)" stroke-linecap="square" stroke-linejoin="round"/>
<path d="M795.871 85L-20.3579 556.25" stroke="url(#paint6_linear_206_16)" stroke-linecap="square" stroke-linejoin="round"/>
<path d="M1123.23 274L307 745.25" stroke="url(#paint7_linear_206_16)" stroke-linecap="square" stroke-linejoin="round"/>
<path d="M1450.59 463L634.357 934.25" stroke="url(#paint8_linear_206_16)" stroke-linecap="square" stroke-linejoin="round"/>
<path d="M959.55 179.5L143.321 650.75" stroke="url(#paint9_linear_206_16)" stroke-linecap="square" stroke-linejoin="round"/>
<path d="M1286.91 368.5L470.679 839.75" stroke="url(#paint10_linear_206_16)" stroke-linecap="square" stroke-linejoin="round"/>
<path d="M1614.27 557.5L798.037 1028.75" stroke="url(#paint11_linear_206_16)" stroke-linecap="square" stroke-linejoin="round"/>
<path d="M850.431 116.5L34.2017 587.75" stroke="url(#paint12_linear_206_16)" stroke-linecap="square" stroke-linejoin="round"/>
<path d="M1177.79 305.5L361.56 776.75" stroke="url(#paint13_linear_206_16)" stroke-linecap="square" stroke-linejoin="round"/>
<path d="M1505.15 494.5L688.917 965.75" stroke="url(#paint14_linear_206_16)" stroke-linecap="square" stroke-linejoin="round"/>
<path d="M1014.11 211L197.88 682.25" stroke="url(#paint15_linear_206_16)" stroke-linecap="square" stroke-linejoin="round"/>
<path d="M1341.47 400L525.238 871.25" stroke="url(#paint16_linear_206_16)" stroke-linecap="square" stroke-linejoin="round"/>
<path d="M1668.83 589L852.596 1060.25" stroke="url(#paint17_linear_206_16)" stroke-linecap="square" stroke-linejoin="round"/>
<path d="M129.031 324L1193.81 938.75" stroke="url(#paint18_linear_206_16)" stroke-linecap="square" stroke-linejoin="round"/>
<path d="M445.997 141L1510.78 755.749" stroke="url(#paint19_linear_206_16)" stroke-linecap="square" stroke-linejoin="round"/>
<path d="M-29.4507 415.5L1035.33 1030.25" stroke="url(#paint20_linear_206_16)" stroke-linecap="square" stroke-linejoin="round"/>
<path d="M287.514 232.5L1352.29 847.249" stroke="url(#paint21_linear_206_16)" stroke-linecap="square" stroke-linejoin="round"/>
<path d="M181.859 293.5L1246.64 908.249" stroke="url(#paint22_linear_206_16)" stroke-linecap="square" stroke-linejoin="round"/>
<path d="M498.825 110.5L1563.6 725.25" stroke="url(#paint23_linear_206_16)" stroke-linecap="square" stroke-linejoin="round"/>
<path d="M23.377 385L1088.16 999.75" stroke="url(#paint24_linear_206_16)" stroke-linecap="square" stroke-linejoin="round"/>
<path d="M340.342 202L1405.12 816.749" stroke="url(#paint25_linear_206_16)" stroke-linecap="square" stroke-linejoin="round"/>
<path d="M234.687 263L1299.47 877.75" stroke="url(#paint26_linear_206_16)" stroke-linecap="square" stroke-linejoin="round"/>
<path d="M551.652 80L1616.43 694.75" stroke="url(#paint27_linear_206_16)" stroke-linecap="square" stroke-linejoin="round"/>
<path d="M76.2046 354.5L1140.98 969.25" stroke="url(#paint28_linear_206_16)" stroke-linecap="square" stroke-linejoin="round"/>
<path d="M393.169 171.5L1457.95 786.25" stroke="url(#paint29_linear_206_16)" stroke-linecap="square" stroke-linejoin="round"/>
</g>
<path opacity="0.7" d="M579.038 439.239C579.248 432.276 597.204 414.525 628.97 415.482C659.976 416.416 681.382 429.664 681.382 437.5C681.382 446.5 655.882 461.5 615.882 457C591.039 454.205 578.857 445.247 579.038 439.239Z" fill="#E8E8E8"/>
<mask id="path-33-inside-1_206_16" fill="white">
<path fill-rule="evenodd" clip-rule="evenodd" d="M597.957 399.093C598.842 398.386 599.858 397.575 600.963 396.556C600.812 398.952 601.456 400.692 602.504 402.347C613.824 399.133 627.123 396.843 636.504 398.866C651.741 402.153 650.306 426.632 649 431.5C636.504 452.5 586.735 454.234 575.852 443.351C572.369 437.256 572.073 434.185 572.073 426.728C571.829 417.966 575.608 413.594 582.435 409.943C584.788 408.63 588.82 406.879 593.769 405.127C593.986 404.302 594.27 403.478 594.624 402.642C595.101 401.373 596.301 400.415 597.957 399.093Z"/>
</mask>
<path fill-rule="evenodd" clip-rule="evenodd" d="M597.957 399.093C598.842 398.386 599.858 397.575 600.963 396.556C600.812 398.952 601.456 400.692 602.504 402.347C613.824 399.133 627.123 396.843 636.504 398.866C651.741 402.153 650.306 426.632 649 431.5C636.504 452.5 586.735 454.234 575.852 443.351C572.369 437.256 572.073 434.185 572.073 426.728C571.829 417.966 575.608 413.594 582.435 409.943C584.788 408.63 588.82 406.879 593.769 405.127C593.986 404.302 594.27 403.478 594.624 402.642C595.101 401.373 596.301 400.415 597.957 399.093Z" fill="white"/>
<path d="M600.963 396.556L601.961 396.619L602.118 394.132L600.285 395.821L600.963 396.556ZM597.957 399.093L597.333 398.311V398.311L597.957 399.093ZM602.504 402.347L601.658 402.882L602.058 403.513L602.777 403.309L602.504 402.347ZM636.504 398.866L636.715 397.889L636.504 398.866ZM649 431.5L649.859 432.011L649.93 431.893L649.966 431.759L649 431.5ZM575.852 443.351L574.983 443.847L575.05 443.963L575.144 444.058L575.852 443.351ZM572.073 426.728H573.073V426.715L573.073 426.701L572.073 426.728ZM582.435 409.943L582.906 410.825L582.914 410.82L582.922 410.816L582.435 409.943ZM593.769 405.127L594.102 406.07L594.601 405.893L594.736 405.382L593.769 405.127ZM594.624 402.642L595.545 403.032L595.553 403.013L595.56 402.993L594.624 402.642ZM600.285 395.821C599.209 396.812 598.219 397.604 597.333 398.311L598.581 399.874C599.466 399.168 600.507 398.337 601.641 397.292L600.285 395.821ZM603.349 401.813C602.389 400.295 601.826 398.762 601.961 396.619L599.965 396.493C599.798 399.142 600.524 401.088 601.658 402.882L603.349 401.813ZM602.777 403.309C614.079 400.1 627.171 397.877 636.293 399.844L636.715 397.889C627.076 395.81 613.57 398.166 602.23 401.385L602.777 403.309ZM636.293 399.844C643.298 401.355 646.612 407.748 647.974 414.78C649.33 421.783 648.645 428.965 648.034 431.241L649.966 431.759C650.661 429.167 651.347 421.676 649.937 414.4C648.534 407.154 644.947 399.664 636.715 397.889L636.293 399.844ZM648.141 430.989C645.16 435.997 639.908 439.931 633.422 442.829C626.944 445.722 619.317 447.547 611.711 448.388C604.107 449.228 596.566 449.08 590.276 448.057C583.933 447.025 579.048 445.133 576.559 442.644L575.144 444.058C578.097 447.01 583.514 448.983 589.955 450.031C596.447 451.087 604.171 451.233 611.931 450.376C619.69 449.518 627.528 447.652 634.237 444.655C640.937 441.661 646.592 437.503 649.859 432.011L648.141 430.989ZM576.72 442.855C575.01 439.863 574.117 437.673 573.636 435.348C573.15 432.999 573.073 430.462 573.073 426.728H571.073C571.073 430.452 571.145 433.179 571.677 435.753C572.215 438.351 573.21 440.743 574.983 443.847L576.72 442.855ZM573.073 426.701C572.955 422.475 573.807 419.409 575.434 416.974C577.072 414.523 579.562 412.613 582.906 410.825L581.963 409.061C578.481 410.924 575.668 413.025 573.771 415.863C571.863 418.718 570.947 422.219 571.074 426.756L573.073 426.701ZM582.922 410.816C585.205 409.542 589.177 407.813 594.102 406.07L593.435 404.184C588.463 405.944 584.372 407.717 581.947 409.07L582.922 410.816ZM593.704 402.251C593.332 403.129 593.032 403.998 592.802 404.872L594.736 405.382C594.94 404.606 595.208 403.827 595.545 403.032L593.704 402.251ZM597.333 398.311C596.518 398.962 595.757 399.568 595.143 400.178C594.522 400.796 593.996 401.471 593.688 402.29L595.56 402.993C595.729 402.544 596.041 402.105 596.553 401.596C597.073 401.079 597.74 400.545 598.581 399.874L597.333 398.311Z" fill="black" mask="url(#path-33-inside-1_206_16)"/>
<path d="M629 414C629.833 413.667 631.5 410.5 631.5 410C631.5 409.5 628.833 405.667 627.5 405" stroke="black" stroke-linecap="round"/>
<path d="M629.022 398.561L629.022 398.561L629.018 398.571C628.879 398.943 628.737 399.3 628.598 399.653C628.024 401.103 627.487 402.461 627.283 404.287C627.177 405.144 627.327 406.039 627.559 406.906C627.726 407.529 627.945 408.172 628.157 408.794C628.239 409.033 628.319 409.269 628.395 409.499C628.675 410.349 628.901 411.142 628.967 411.87C629.031 412.591 628.935 413.212 628.604 413.746C628.529 413.866 628.422 413.975 628.263 414.066C626.667 414.978 624.204 415.146 621.256 414.58C618.327 414.017 615.001 412.745 611.748 410.884C608.487 409.02 605.497 406.816 603.375 404.642C602.314 403.554 601.483 402.486 600.941 401.484C600.415 400.511 600.179 399.632 600.235 398.872C600.403 398.487 600.569 398.108 600.733 397.735C602.561 393.563 604.075 390.107 604.894 386.442C605.74 382.657 605.842 378.664 604.836 373.416L608.767 375.575L608.787 375.586L608.808 375.595L631.338 385.406C630.666 388.21 630.317 390.884 630.027 393.146L630.021 393.193C629.714 395.577 629.477 397.426 629.022 398.561Z" fill="white" stroke="black"/>
<path d="M625 415C626.5 420.5 630 434.8 630 444" stroke="black" stroke-linecap="round"/>
<path d="M629 414C630.5 419.5 634 433.8 634 443" stroke="black" stroke-linecap="round"/>
<mask id="path-39-inside-2_206_16" fill="white">
<path fill-rule="evenodd" clip-rule="evenodd" d="M619.817 393.19C622.062 393.744 624.253 394.298 625.586 394.852C625.596 394.855 625.606 394.857 625.616 394.86C627.549 395.342 628.763 395.584 630.218 395.826C629.979 395.731 629.738 395.62 629.494 395.494C630.635 395.507 631.365 395.253 632.168 394.852C632.764 394.597 633.301 394.402 633.788 394.224C634.696 393.893 635.434 393.624 636.069 393.148C637.044 392.418 637.531 391.688 637.775 389.741C637.909 388.58 638.052 387.444 638.192 386.327C638.815 381.351 639.392 376.743 638.994 371.972C638.883 370.303 638.466 369.55 638.093 368.875C637.649 368.073 637.267 367.382 637.531 365.4C637.64 364.638 637.847 363.974 638.064 363.276C638.332 362.413 638.616 361.499 638.75 360.288C638.75 359.315 638.75 358.584 638.507 357.611C638.167 356.286 637.758 354.993 637.275 353.744C637.28 353.735 637.284 353.725 637.288 353.716C637.049 353.122 636.795 352.538 636.523 351.966C632.964 344.246 626.329 338.625 615.834 338.625C609.008 338.625 603.644 340.815 599.5 345.684C594.624 351.039 592.186 360.045 594.624 367.104C595.599 370.268 597.793 372.702 603.4 375.136C604.234 377.057 604.866 378.894 605.454 380.607C607.103 385.405 608.417 389.228 612.908 391.201C614.288 391.827 616.827 392.453 619.367 393.079C619.517 393.116 619.667 393.153 619.817 393.19Z"/>
</mask>
<path fill-rule="evenodd" clip-rule="evenodd" d="M619.817 393.19C622.062 393.744 624.253 394.298 625.586 394.852C625.596 394.855 625.606 394.857 625.616 394.86C627.549 395.342 628.763 395.584 630.218 395.826C629.979 395.731 629.738 395.62 629.494 395.494C630.635 395.507 631.365 395.253 632.168 394.852C632.764 394.597 633.301 394.402 633.788 394.224C634.696 393.893 635.434 393.624 636.069 393.148C637.044 392.418 637.531 391.688 637.775 389.741C637.909 388.58 638.052 387.444 638.192 386.327C638.815 381.351 639.392 376.743 638.994 371.972C638.883 370.303 638.466 369.55 638.093 368.875C637.649 368.073 637.267 367.382 637.531 365.4C637.64 364.638 637.847 363.974 638.064 363.276C638.332 362.413 638.616 361.499 638.75 360.288C638.75 359.315 638.75 358.584 638.507 357.611C638.167 356.286 637.758 354.993 637.275 353.744C637.28 353.735 637.284 353.725 637.288 353.716C637.049 353.122 636.795 352.538 636.523 351.966C632.964 344.246 626.329 338.625 615.834 338.625C609.008 338.625 603.644 340.815 599.5 345.684C594.624 351.039 592.186 360.045 594.624 367.104C595.599 370.268 597.793 372.702 603.4 375.136C604.234 377.057 604.866 378.894 605.454 380.607C607.103 385.405 608.417 389.228 612.908 391.201C614.288 391.827 616.827 392.453 619.367 393.079C619.517 393.116 619.667 393.153 619.817 393.19Z" fill="white"/>
<path d="M625.586 394.852L625.202 395.776L625.271 395.804L625.343 395.822L625.586 394.852ZM619.817 393.19L620.056 392.219H620.056L619.817 393.19ZM625.616 394.86L625.858 393.89L625.857 393.889L625.616 394.86ZM630.218 395.826L630.054 396.812L630.589 394.897L630.218 395.826ZM629.494 395.494L629.506 394.494L629.035 396.382L629.494 395.494ZM632.168 394.852L631.775 393.933L631.748 393.944L631.721 393.958L632.168 394.852ZM633.788 394.224L634.131 395.163L633.788 394.224ZM636.069 393.148L635.469 392.348V392.348L636.069 393.148ZM637.775 389.741L638.768 389.865L638.769 389.856L637.775 389.741ZM638.192 386.327L639.184 386.451L638.192 386.327ZM638.994 371.972L637.996 372.038L637.997 372.047L637.998 372.055L638.994 371.972ZM638.093 368.875L637.218 369.359V369.359L638.093 368.875ZM637.531 365.4L636.542 365.258L636.54 365.267L637.531 365.4ZM638.064 363.276L637.109 362.979V362.979L638.064 363.276ZM638.75 360.288L639.744 360.399L639.75 360.344V360.288H638.75ZM638.507 357.611L639.477 357.368L639.475 357.362L638.507 357.611ZM637.275 353.744L636.38 353.299L636.183 353.694L636.342 354.105L637.275 353.744ZM637.288 353.716L638.216 354.088L638.365 353.716L638.216 353.344L637.288 353.716ZM636.523 351.966L635.615 352.384L635.62 352.395L636.523 351.966ZM599.5 345.684L600.239 346.357L600.25 346.345L600.261 346.332L599.5 345.684ZM594.624 367.104L595.58 366.809L595.575 366.793L595.569 366.777L594.624 367.104ZM603.4 375.136L604.318 374.738L604.161 374.376L603.799 374.219L603.4 375.136ZM605.454 380.607L606.4 380.282L605.454 380.607ZM612.908 391.201L613.322 390.29L613.311 390.286L612.908 391.201ZM619.367 393.079L619.128 394.05H619.128L619.367 393.079ZM625.97 393.929C624.551 393.339 622.272 392.766 620.056 392.219L619.577 394.161C621.852 394.722 623.956 395.257 625.202 395.776L625.97 393.929ZM625.857 393.889C625.848 393.887 625.838 393.885 625.828 393.882L625.343 395.822C625.354 395.825 625.364 395.828 625.375 395.83L625.857 393.889ZM630.382 394.839C628.953 394.602 627.765 394.365 625.858 393.89L625.374 395.83C627.332 396.318 628.572 396.566 630.054 396.812L630.382 394.839ZM629.035 396.382C629.305 396.522 629.577 396.647 629.847 396.755L630.589 394.897C630.382 394.815 630.17 394.718 629.954 394.606L629.035 396.382ZM631.721 393.958C631.019 394.308 630.447 394.505 629.506 394.494L629.482 396.494C630.823 396.51 631.711 396.198 632.615 395.747L631.721 393.958ZM633.446 393.284C632.959 393.462 632.399 393.666 631.775 393.933L632.561 395.772C633.129 395.529 633.642 395.341 634.131 395.163L633.446 393.284ZM635.469 392.348C634.975 392.718 634.385 392.942 633.446 393.284L634.131 395.163C635.008 394.844 635.894 394.529 636.668 393.949L635.469 392.348ZM636.783 389.616C636.668 390.534 636.506 391.068 636.313 391.432C636.13 391.776 635.886 392.036 635.469 392.348L636.668 393.949C637.227 393.53 637.714 393.06 638.08 392.369C638.435 391.699 638.639 390.894 638.768 389.865L636.783 389.616ZM637.199 386.203C637.06 387.319 636.917 388.46 636.782 389.626L638.769 389.856C638.902 388.701 639.044 387.569 639.184 386.451L637.199 386.203ZM637.998 372.055C638.386 376.704 637.825 381.209 637.199 386.203L639.184 386.451C639.805 381.493 640.399 376.781 639.991 371.889L637.998 372.055ZM637.218 369.359C637.552 369.963 637.898 370.57 637.996 372.038L639.992 371.905C639.867 370.036 639.38 369.136 638.968 368.391L637.218 369.359ZM636.54 365.267C636.398 366.334 636.419 367.129 636.571 367.801C636.724 368.476 636.997 368.961 637.218 369.359L638.968 368.391C638.744 367.987 638.605 367.726 638.522 367.359C638.438 366.99 638.4 366.448 638.523 365.532L636.54 365.267ZM637.109 362.979C636.894 363.669 636.663 364.406 636.542 365.258L638.521 365.541C638.617 364.87 638.799 364.278 639.019 363.573L637.109 362.979ZM637.757 360.178C637.633 361.285 637.376 362.119 637.109 362.979L639.019 363.573C639.288 362.707 639.598 361.714 639.744 360.399L637.757 360.178ZM637.537 357.854C637.747 358.695 637.75 359.313 637.75 360.288H639.75C639.75 359.316 639.754 358.474 639.477 357.368L637.537 357.854ZM636.342 354.105C636.81 355.315 637.208 356.57 637.538 357.859L639.475 357.362C639.127 356.002 638.706 354.672 638.208 353.384L636.342 354.105ZM636.359 353.344C636.367 353.326 636.374 353.311 636.38 353.299L638.17 354.19C638.186 354.159 638.201 354.125 638.216 354.088L636.359 353.344ZM635.62 352.395C635.882 352.947 636.129 353.512 636.359 354.088L638.216 353.344C637.97 352.731 637.707 352.128 637.426 351.537L635.62 352.395ZM615.834 339.625C625.882 339.625 632.194 344.964 635.615 352.384L637.431 351.547C633.735 343.528 626.777 337.625 615.834 337.625V339.625ZM600.261 346.332C604.188 341.719 609.256 339.625 615.834 339.625V337.625C608.76 337.625 603.1 339.912 598.738 345.035L600.261 346.332ZM595.569 366.777C593.267 360.111 595.574 351.48 600.239 346.357L598.76 345.01C593.673 350.597 591.105 359.979 593.679 367.43L595.569 366.777ZM603.799 374.219C601.055 373.028 599.221 371.868 597.965 370.67C596.727 369.489 596.021 368.241 595.58 366.809L593.668 367.398C594.202 369.131 595.08 370.682 596.585 372.117C598.072 373.536 600.138 374.81 603.002 376.053L603.799 374.219ZM606.4 380.282C605.813 378.573 605.169 376.7 604.318 374.738L602.483 375.534C603.299 377.414 603.919 379.216 604.509 380.932L606.4 380.282ZM613.311 390.286C609.277 388.514 608.072 385.147 606.4 380.282L604.509 380.932C606.134 385.662 607.557 389.942 612.506 392.117L613.311 390.286ZM619.606 392.108C617.018 391.47 614.594 390.868 613.322 390.291L612.495 392.112C613.981 392.786 616.637 393.436 619.128 394.05L619.606 392.108ZM620.056 392.219C619.906 392.182 619.756 392.145 619.606 392.108L619.128 394.05C619.278 394.087 619.428 394.124 619.577 394.161L620.056 392.219Z" fill="black" mask="url(#path-39-inside-2_206_16)"/>
<path fill-rule="evenodd" clip-rule="evenodd" d="M621 354.933C627 354.933 631.062 353.484 634 352C636.546 350.714 636.942 349.7 637.745 347.648L637.745 347.647C637.825 347.442 637.909 347.227 638 347C638.928 344.679 640.617 338.788 638 337C631.905 332.862 619.491 333.757 609.983 334.487C601.938 335.217 593.405 339.355 593.162 346.171L593.208 346.232C591.573 348.853 590.673 352.53 590.507 356.15C589.959 363.476 592.13 371.429 597.306 376.596C600.963 380.734 602.182 382.682 603.888 389.01C605.007 386.218 605.127 384.992 605.34 382.828L605.34 382.828C605.406 382.162 605.48 381.407 605.595 380.491C600.719 359.558 608.075 363.889 610 373.5C610.408 373.5 611.159 372.987 611.822 372.535C611.95 372.447 612.075 372.362 612.194 372.283C610.339 366.726 610.345 364.218 610.35 362.148C610.353 360.954 610.355 359.905 610 358.5L610 358.5C610 358.261 609.82 357.966 609.61 357.621C609.178 356.91 608.618 355.989 609.252 354.933C609.702 354.185 611.774 354.357 614.699 354.601C616.528 354.753 618.691 354.933 621 354.933Z" fill="white"/>
<path d="M634 352L633.774 351.554L634 352ZM637.745 347.648L638.21 347.83L638.211 347.829L637.745 347.648ZM637.745 347.647L637.279 347.465L637.279 347.466L637.745 347.647ZM638 347L638.464 347.186V347.186L638 347ZM638 337L638.282 336.587L638.281 336.586L638 337ZM609.983 334.487L609.945 333.988L609.938 333.989L609.983 334.487ZM593.162 346.171L592.662 346.153C592.658 346.268 592.693 346.38 592.762 346.472L593.162 346.171ZM593.208 346.232L593.632 346.497C593.742 346.321 593.732 346.096 593.607 345.931L593.208 346.232ZM590.507 356.15L591.006 356.187C591.006 356.182 591.007 356.177 591.007 356.172L590.507 356.15ZM597.306 376.596L597.68 376.265C597.674 376.258 597.666 376.25 597.659 376.243L597.306 376.596ZM603.888 389.01L603.405 389.141C603.461 389.348 603.644 389.497 603.859 389.509C604.074 389.522 604.272 389.396 604.352 389.196L603.888 389.01ZM605.34 382.828L605.838 382.877L605.839 382.869L605.34 382.828ZM605.34 382.828L604.843 382.779L604.842 382.786L605.34 382.828ZM605.595 380.491L606.091 380.553C606.098 380.495 606.095 380.435 606.082 380.378L605.595 380.491ZM610 373.5L609.51 373.598C609.557 373.832 609.762 374 610 374V373.5ZM611.822 372.535L612.104 372.948H612.104L611.822 372.535ZM612.194 372.283L612.471 372.699C612.659 372.574 612.74 372.339 612.668 372.125L612.194 372.283ZM610.35 362.148L610.85 362.149L610.35 362.148ZM610 358.5L610.485 358.377L610.485 358.377L610 358.5ZM610 358.5L609.5 358.5C609.5 358.541 609.505 358.582 609.515 358.623L610 358.5ZM609.61 357.621L609.183 357.881L609.61 357.621ZM609.252 354.933L609.68 355.191L609.252 354.933ZM614.699 354.601L614.658 355.099L614.699 354.601ZM633.774 351.554C630.895 353.008 626.91 354.433 621 354.433V355.433C627.09 355.433 631.229 353.96 634.225 352.446L633.774 351.554ZM637.279 347.466C636.872 348.507 636.596 349.202 636.13 349.806C635.675 350.396 635.01 350.929 633.774 351.554L634.225 352.446C635.536 351.784 636.342 351.168 636.922 350.417C637.491 349.679 637.815 348.84 638.21 347.83L637.279 347.466ZM637.279 347.466L637.279 347.467L638.211 347.829L638.211 347.828L637.279 347.466ZM637.536 346.814C637.444 347.043 637.359 347.261 637.279 347.465L638.21 347.829C638.291 347.624 638.374 347.411 638.464 347.186L637.536 346.814ZM637.718 337.413C638.237 337.767 638.57 338.342 638.747 339.103C638.925 339.868 638.935 340.784 638.832 341.747C638.628 343.673 637.989 345.68 637.536 346.814L638.464 347.186C638.939 345.999 639.609 343.899 639.827 341.853C639.935 340.83 639.934 339.792 639.722 338.877C639.508 337.959 639.072 337.127 638.282 336.587L637.718 337.413ZM610.022 334.986C614.78 334.62 620.232 334.217 625.251 334.418C630.291 334.619 634.795 335.429 637.719 337.414L638.281 336.586C635.11 334.433 630.36 333.621 625.291 333.418C620.204 333.215 614.695 333.624 609.945 333.988L610.022 334.986ZM593.661 346.189C593.775 343.01 595.82 340.4 598.912 338.471C602.001 336.543 606.066 335.345 610.028 334.985L609.938 333.989C605.855 334.36 601.632 335.595 598.382 337.623C595.135 339.649 592.792 342.516 592.662 346.153L593.661 346.189ZM593.607 345.931L593.561 345.869L592.762 346.472L592.809 346.533L593.607 345.931ZM592.784 345.968C591.089 348.684 590.176 352.454 590.008 356.127L591.007 356.172C591.17 352.607 592.057 349.022 593.632 346.497L592.784 345.968ZM597.659 376.243C592.611 371.203 590.466 363.407 591.006 356.187L590.009 356.112C589.452 363.546 591.649 371.656 596.953 376.95L597.659 376.243ZM604.371 388.88C603.514 385.703 602.771 383.59 601.768 381.743C600.764 379.896 599.514 378.34 597.68 376.265L596.931 376.928C598.755 378.991 599.942 380.477 600.889 382.221C601.836 383.964 602.556 385.989 603.405 389.141L604.371 388.88ZM604.843 382.779C604.632 384.919 604.518 386.093 603.424 388.824L604.352 389.196C605.495 386.343 605.623 385.065 605.838 382.877L604.843 382.779ZM604.842 382.786L604.842 382.786L605.839 382.869L605.839 382.869L604.842 382.786ZM605.099 380.429C604.983 381.352 604.908 382.113 604.843 382.779L605.838 382.877C605.903 382.211 605.977 381.462 606.091 380.553L605.099 380.429ZM610.49 373.402C609.999 370.951 609.16 368.82 608.239 367.331C607.78 366.588 607.288 365.983 606.789 365.58C606.302 365.186 605.725 364.921 605.137 365.054C604.533 365.19 604.125 365.698 603.871 366.369C603.615 367.046 603.473 367.989 603.456 369.209C603.421 371.656 603.885 375.355 605.108 380.604L606.082 380.378C604.867 375.16 604.422 371.551 604.455 369.223C604.472 368.056 604.609 367.244 604.806 366.723C605.006 366.194 605.226 366.059 605.357 366.029C605.505 365.996 605.769 366.041 606.16 366.358C606.54 366.665 606.963 367.169 607.389 367.857C608.236 369.228 609.038 371.243 609.51 373.598L610.49 373.402ZM611.54 372.122C611.204 372.351 610.868 372.58 610.567 372.754C610.416 372.84 610.286 372.905 610.179 372.948C610.125 372.97 610.082 372.983 610.05 372.991C610.033 372.995 610.021 372.997 610.012 372.999C610.004 373 610 373 610 373V374C610.195 374 610.388 373.942 610.549 373.877C610.718 373.81 610.893 373.719 611.065 373.621C611.406 373.424 611.777 373.171 612.104 372.948L611.54 372.122ZM611.917 371.867C611.796 371.948 611.668 372.035 611.54 372.122L612.104 372.948C612.233 372.86 612.355 372.776 612.471 372.699L611.917 371.867ZM609.85 362.147C609.845 364.26 609.844 366.823 611.72 372.441L612.668 372.125C610.833 366.628 610.845 364.176 610.85 362.149L609.85 362.147ZM609.515 358.622C609.854 359.961 609.853 360.955 609.85 362.147L610.85 362.149C610.853 360.952 610.857 359.848 610.485 358.377L609.515 358.622ZM609.515 358.623L609.515 358.623L610.485 358.377L610.485 358.376L609.515 358.623ZM609.183 357.881C609.292 358.059 609.375 358.197 609.434 358.318C609.462 358.377 609.48 358.421 609.49 358.455C609.5 358.489 609.5 358.502 609.5 358.5L610.5 358.499C610.5 358.265 610.414 358.049 610.334 357.882C610.25 357.71 610.139 357.528 610.038 357.362L609.183 357.881ZM608.823 354.676C608.015 356.02 608.773 357.206 609.183 357.881L610.038 357.362C609.582 356.613 609.22 355.958 609.68 355.191L608.823 354.676ZM614.741 354.103C613.289 353.982 612.009 353.874 611.037 353.895C610.551 353.905 610.109 353.948 609.746 354.05C609.389 354.15 609.031 354.331 608.823 354.676L609.68 355.191C609.698 355.162 609.768 355.083 610.017 355.013C610.26 354.944 610.604 354.904 611.058 354.895C611.966 354.876 613.184 354.976 614.658 355.099L614.741 354.103ZM621 354.433C618.715 354.433 616.572 354.255 614.741 354.103L614.658 355.099C616.485 355.251 618.668 355.433 621 355.433V354.433Z" fill="black"/>
<path d="M635 363.042L642 359L642 363.958C642 366.191 640.433 368.905 638.5 370.021C636.567 371.137 635 370.232 635 368L635 363.042Z" fill="white" stroke="black" stroke-linecap="round" stroke-linejoin="round"/>
<path d="M623.34 370L632 365L632 368.2C632 370.962 630.061 374.32 627.67 375.7C625.279 377.081 623.34 375.962 623.34 373.2L623.34 370Z" fill="white" stroke="black" stroke-linecap="round" stroke-linejoin="round"/>
<path d="M635 366.2L632 367.7" stroke="black" stroke-linecap="round"/>
<path d="M623 372L606.5 366" stroke="black" stroke-linecap="round"/>
<path d="M625 415V410.5C619.167 409.667 606.1 406.1 600.5 398.5" stroke="black" stroke-linecap="round"/>
</g>
<path opacity="0.7" d="M527.038 475.239C527.248 468.276 545.204 450.525 576.97 451.482C607.976 452.416 629.382 465.664 629.382 473.5C629.382 482.5 603.882 497.5 563.882 493C539.039 490.205 526.857 481.247 527.038 475.239Z" fill="#E8E8E8"/>
<mask id="path-49-inside-3_206_16" fill="white">
<path fill-rule="evenodd" clip-rule="evenodd" d="M545.957 435.093C546.842 434.386 547.858 433.575 548.963 432.556C548.812 434.952 549.456 436.692 550.504 438.347C561.824 435.133 575.123 432.843 584.504 434.866C599.741 438.153 598.306 462.632 597 467.5C584.504 488.5 534.735 490.234 523.852 479.351C520.369 473.256 520.073 470.185 520.073 462.728C519.829 453.966 523.608 449.594 530.435 445.943C532.788 444.63 536.82 442.879 541.769 441.127C541.986 440.302 542.27 439.478 542.624 438.642C543.101 437.373 544.301 436.415 545.957 435.093Z"/>
</mask>
<path fill-rule="evenodd" clip-rule="evenodd" d="M545.957 435.093C546.842 434.386 547.858 433.575 548.963 432.556C548.812 434.952 549.456 436.692 550.504 438.347C561.824 435.133 575.123 432.843 584.504 434.866C599.741 438.153 598.306 462.632 597 467.5C584.504 488.5 534.735 490.234 523.852 479.351C520.369 473.256 520.073 470.185 520.073 462.728C519.829 453.966 523.608 449.594 530.435 445.943C532.788 444.63 536.82 442.879 541.769 441.127C541.986 440.302 542.27 439.478 542.624 438.642C543.101 437.373 544.301 436.415 545.957 435.093Z" fill="white"/>
<path d="M548.963 432.556L549.961 432.619L550.118 430.132L548.285 431.821L548.963 432.556ZM545.957 435.093L545.333 434.311V434.311L545.957 435.093ZM550.504 438.347L549.658 438.882L550.058 439.513L550.777 439.309L550.504 438.347ZM584.504 434.866L584.715 433.889L584.504 434.866ZM597 467.5L597.859 468.011L597.93 467.893L597.966 467.759L597 467.5ZM523.852 479.351L522.983 479.847L523.05 479.963L523.144 480.058L523.852 479.351ZM520.073 462.728H521.073V462.715L521.073 462.701L520.073 462.728ZM530.435 445.943L530.906 446.825L530.914 446.82L530.922 446.816L530.435 445.943ZM541.769 441.127L542.102 442.07L542.601 441.893L542.736 441.382L541.769 441.127ZM542.624 438.642L543.545 439.032L543.553 439.013L543.56 438.993L542.624 438.642ZM548.285 431.821C547.209 432.812 546.219 433.604 545.333 434.311L546.581 435.874C547.466 435.168 548.507 434.337 549.641 433.292L548.285 431.821ZM551.349 437.813C550.389 436.295 549.826 434.762 549.961 432.619L547.965 432.493C547.798 435.142 548.524 437.088 549.658 438.882L551.349 437.813ZM550.777 439.309C562.079 436.1 575.171 433.877 584.293 435.844L584.715 433.889C575.076 431.81 561.57 434.166 550.23 437.385L550.777 439.309ZM584.293 435.844C591.298 437.355 594.612 443.748 595.974 450.78C597.33 457.783 596.645 464.965 596.034 467.241L597.966 467.759C598.661 465.167 599.347 457.676 597.937 450.4C596.534 443.154 592.947 435.664 584.715 433.889L584.293 435.844ZM596.141 466.989C593.16 471.997 587.908 475.931 581.422 478.829C574.944 481.722 567.317 483.547 559.711 484.388C552.107 485.228 544.566 485.08 538.276 484.057C531.933 483.025 527.048 481.133 524.559 478.644L523.144 480.058C526.097 483.01 531.514 484.983 537.955 486.031C544.447 487.087 552.171 487.233 559.931 486.376C567.69 485.518 575.528 483.652 582.237 480.655C588.937 477.661 594.592 473.503 597.859 468.011L596.141 466.989ZM524.72 478.855C523.01 475.863 522.117 473.673 521.636 471.348C521.15 468.999 521.073 466.462 521.073 462.728H519.073C519.073 466.452 519.145 469.179 519.677 471.753C520.215 474.351 521.21 476.743 522.983 479.847L524.72 478.855ZM521.073 462.701C520.955 458.475 521.807 455.409 523.434 452.974C525.072 450.523 527.562 448.613 530.906 446.825L529.963 445.061C526.481 446.924 523.668 449.025 521.771 451.863C519.863 454.718 518.947 458.219 519.074 462.756L521.073 462.701ZM530.922 446.816C533.205 445.542 537.177 443.813 542.102 442.07L541.435 440.184C536.463 441.944 532.372 443.717 529.947 445.07L530.922 446.816ZM541.704 438.251C541.332 439.129 541.032 439.998 540.802 440.872L542.736 441.382C542.94 440.606 543.208 439.827 543.545 439.032L541.704 438.251ZM545.333 434.311C544.518 434.962 543.757 435.568 543.143 436.178C542.522 436.796 541.996 437.471 541.688 438.29L543.56 438.993C543.729 438.544 544.041 438.105 544.553 437.596C545.073 437.079 545.74 436.545 546.581 435.874L545.333 434.311Z" fill="black" mask="url(#path-49-inside-3_206_16)"/>
<path d="M577.022 434.561L577.022 434.561L577.018 434.571C576.879 434.943 576.737 435.3 576.598 435.653C576.024 437.103 575.487 438.461 575.283 440.287C575.194 441.001 575.197 441.6 575.263 442.164C575.28 442.306 575.298 442.45 575.315 442.595C575.424 443.487 575.539 444.431 575.489 445.297C575.432 446.292 575.163 447.038 574.55 447.46C572.802 448.349 570.26 448.484 567.365 448.014C564.473 447.544 561.304 446.481 558.383 445.068C555.461 443.654 552.814 441.903 550.951 440.072C549.097 438.251 548.113 436.446 548.234 434.872C548.403 434.487 548.569 434.108 548.732 433.735C550.56 429.563 552.075 426.107 552.894 422.442C553.74 418.657 553.842 414.664 552.836 409.416L556.767 411.575L556.787 411.586L556.808 411.595L579.338 421.406C578.666 424.21 578.317 426.884 578.026 429.146L578.02 429.193C577.714 431.577 577.477 433.426 577.022 434.561Z" fill="white" stroke="black"/>
<mask id="path-52-inside-4_206_16" fill="white">
<path fill-rule="evenodd" clip-rule="evenodd" d="M567.817 429.19C570.062 429.744 572.253 430.298 573.586 430.852C573.596 430.855 573.606 430.857 573.616 430.86C575.549 431.342 576.763 431.584 578.218 431.826C577.979 431.731 577.738 431.62 577.494 431.494C578.635 431.507 579.365 431.253 580.168 430.852C580.764 430.597 581.301 430.402 581.788 430.224C582.696 429.893 583.434 429.624 584.069 429.148C585.044 428.418 585.531 427.688 585.775 425.741C585.909 424.58 586.052 423.444 586.192 422.327C586.815 417.351 587.392 412.743 586.994 407.972C586.883 406.303 586.466 405.55 586.093 404.875C585.649 404.073 585.267 403.382 585.531 401.4C585.64 400.638 585.847 399.974 586.064 399.276C586.332 398.413 586.616 397.499 586.75 396.288C586.75 395.315 586.75 394.584 586.507 393.611C586.167 392.286 585.758 390.993 585.275 389.744C585.28 389.735 585.284 389.725 585.288 389.716C585.049 389.122 584.795 388.538 584.523 387.966C580.964 380.246 574.329 374.625 563.834 374.625C557.008 374.625 551.644 376.815 547.5 381.684C542.624 387.039 540.186 396.045 542.624 403.104C543.599 406.268 545.793 408.702 551.4 411.136C552.234 413.057 552.866 414.894 553.454 416.607C555.103 421.405 556.417 425.228 560.908 427.201C562.288 427.827 564.827 428.453 567.367 429.079C567.517 429.116 567.667 429.153 567.817 429.19Z"/>
</mask>
<path fill-rule="evenodd" clip-rule="evenodd" d="M567.817 429.19C570.062 429.744 572.253 430.298 573.586 430.852C573.596 430.855 573.606 430.857 573.616 430.86C575.549 431.342 576.763 431.584 578.218 431.826C577.979 431.731 577.738 431.62 577.494 431.494C578.635 431.507 579.365 431.253 580.168 430.852C580.764 430.597 581.301 430.402 581.788 430.224C582.696 429.893 583.434 429.624 584.069 429.148C585.044 428.418 585.531 427.688 585.775 425.741C585.909 424.58 586.052 423.444 586.192 422.327C586.815 417.351 587.392 412.743 586.994 407.972C586.883 406.303 586.466 405.55 586.093 404.875C585.649 404.073 585.267 403.382 585.531 401.4C585.64 400.638 585.847 399.974 586.064 399.276C586.332 398.413 586.616 397.499 586.75 396.288C586.75 395.315 586.75 394.584 586.507 393.611C586.167 392.286 585.758 390.993 585.275 389.744C585.28 389.735 585.284 389.725 585.288 389.716C585.049 389.122 584.795 388.538 584.523 387.966C580.964 380.246 574.329 374.625 563.834 374.625C557.008 374.625 551.644 376.815 547.5 381.684C542.624 387.039 540.186 396.045 542.624 403.104C543.599 406.268 545.793 408.702 551.4 411.136C552.234 413.057 552.866 414.894 553.454 416.607C555.103 421.405 556.417 425.228 560.908 427.201C562.288 427.827 564.827 428.453 567.367 429.079C567.517 429.116 567.667 429.153 567.817 429.19Z" fill="white"/>
<path d="M573.586 430.852L573.202 431.776L573.271 431.804L573.343 431.822L573.586 430.852ZM567.817 429.19L568.056 428.219H568.056L567.817 429.19ZM573.616 430.86L573.858 429.89L573.857 429.889L573.616 430.86ZM578.218 431.826L578.054 432.812L578.589 430.897L578.218 431.826ZM577.494 431.494L577.506 430.494L577.035 432.382L577.494 431.494ZM580.168 430.852L579.775 429.933L579.748 429.944L579.721 429.958L580.168 430.852ZM581.788 430.224L582.131 431.163L581.788 430.224ZM584.069 429.148L583.469 428.348V428.348L584.069 429.148ZM585.775 425.741L586.768 425.865L586.769 425.856L585.775 425.741ZM586.192 422.327L587.184 422.451L586.192 422.327ZM586.994 407.972L585.996 408.038L585.997 408.047L585.998 408.055L586.994 407.972ZM586.093 404.875L585.218 405.359V405.359L586.093 404.875ZM585.531 401.4L584.542 401.258L584.54 401.267L585.531 401.4ZM586.064 399.276L585.109 398.979V398.979L586.064 399.276ZM586.75 396.288L587.744 396.399L587.75 396.344V396.288H586.75ZM586.507 393.611L587.477 393.368L587.475 393.362L586.507 393.611ZM585.275 389.744L584.38 389.299L584.183 389.694L584.342 390.105L585.275 389.744ZM585.288 389.716L586.216 390.088L586.365 389.716L586.216 389.344L585.288 389.716ZM584.523 387.966L583.615 388.384L583.62 388.395L584.523 387.966ZM547.5 381.684L548.239 382.357L548.25 382.345L548.261 382.332L547.5 381.684ZM542.624 403.104L543.58 402.809L543.575 402.793L543.569 402.777L542.624 403.104ZM551.4 411.136L552.318 410.738L552.161 410.376L551.799 410.219L551.4 411.136ZM553.454 416.607L554.4 416.282L553.454 416.607ZM560.908 427.201L561.322 426.29L561.311 426.286L560.908 427.201ZM567.367 429.079L567.128 430.05H567.128L567.367 429.079ZM573.97 429.929C572.551 429.339 570.272 428.766 568.056 428.219L567.577 430.161C569.852 430.722 571.956 431.257 573.202 431.776L573.97 429.929ZM573.857 429.889C573.848 429.887 573.838 429.885 573.828 429.882L573.343 431.822C573.354 431.825 573.364 431.828 573.375 431.83L573.857 429.889ZM578.382 430.839C576.953 430.602 575.765 430.365 573.858 429.89L573.374 431.83C575.332 432.318 576.572 432.566 578.054 432.812L578.382 430.839ZM577.035 432.382C577.305 432.522 577.577 432.647 577.847 432.755L578.589 430.897C578.382 430.815 578.17 430.718 577.954 430.606L577.035 432.382ZM579.721 429.958C579.019 430.308 578.447 430.505 577.506 430.494L577.482 432.494C578.823 432.51 579.711 432.198 580.615 431.747L579.721 429.958ZM581.446 429.284C580.959 429.462 580.399 429.666 579.775 429.933L580.561 431.772C581.129 431.529 581.642 431.341 582.131 431.163L581.446 429.284ZM583.469 428.348C582.975 428.718 582.385 428.942 581.446 429.284L582.131 431.163C583.008 430.844 583.894 430.529 584.668 429.949L583.469 428.348ZM584.783 425.616C584.668 426.534 584.506 427.068 584.313 427.432C584.13 427.776 583.886 428.036 583.469 428.348L584.668 429.949C585.227 429.53 585.714 429.06 586.08 428.369C586.435 427.699 586.639 426.894 586.768 425.865L584.783 425.616ZM585.199 422.203C585.06 423.319 584.917 424.46 584.782 425.626L586.769 425.856C586.902 424.701 587.044 423.569 587.184 422.451L585.199 422.203ZM585.998 408.055C586.386 412.704 585.825 417.209 585.199 422.203L587.184 422.451C587.805 417.493 588.399 412.781 587.991 407.889L585.998 408.055ZM585.218 405.359C585.552 405.963 585.898 406.57 585.996 408.038L587.992 407.905C587.867 406.036 587.38 405.136 586.968 404.391L585.218 405.359ZM584.54 401.267C584.398 402.334 584.419 403.129 584.571 403.801C584.724 404.476 584.997 404.961 585.218 405.359L586.968 404.391C586.744 403.987 586.605 403.726 586.522 403.359C586.438 402.99 586.4 402.448 586.523 401.532L584.54 401.267ZM585.109 398.979C584.894 399.669 584.663 400.406 584.542 401.258L586.521 401.541C586.617 400.87 586.799 400.278 587.019 399.573L585.109 398.979ZM585.757 396.178C585.633 397.285 585.376 398.119 585.109 398.979L587.019 399.573C587.288 398.707 587.598 397.714 587.744 396.399L585.757 396.178ZM585.537 393.854C585.747 394.695 585.75 395.313 585.75 396.288H587.75C587.75 395.316 587.754 394.474 587.477 393.368L585.537 393.854ZM584.342 390.105C584.81 391.315 585.208 392.57 585.538 393.859L587.475 393.362C587.127 392.002 586.706 390.672 586.208 389.384L584.342 390.105ZM584.359 389.344C584.367 389.326 584.374 389.311 584.38 389.299L586.17 390.19C586.186 390.159 586.201 390.125 586.216 390.088L584.359 389.344ZM583.62 388.395C583.882 388.947 584.129 389.512 584.359 390.088L586.216 389.344C585.97 388.731 585.707 388.128 585.426 387.537L583.62 388.395ZM563.834 375.625C573.882 375.625 580.194 380.964 583.615 388.384L585.431 387.547C581.735 379.528 574.777 373.625 563.834 373.625V375.625ZM548.261 382.332C552.188 377.719 557.256 375.625 563.834 375.625V373.625C556.76 373.625 551.1 375.912 546.738 381.035L548.261 382.332ZM543.569 402.777C541.267 396.111 543.574 387.48 548.239 382.357L546.76 381.01C541.673 386.597 539.105 395.979 541.679 403.43L543.569 402.777ZM551.799 410.219C549.055 409.028 547.221 407.868 545.965 406.67C544.727 405.489 544.021 404.241 543.58 402.809L541.668 403.398C542.202 405.131 543.08 406.682 544.585 408.117C546.072 409.536 548.138 410.81 551.002 412.053L551.799 410.219ZM554.4 416.282C553.813 414.573 553.169 412.7 552.318 410.738L550.483 411.534C551.299 413.414 551.919 415.216 552.509 416.932L554.4 416.282ZM561.311 426.286C557.277 424.514 556.072 421.147 554.4 416.282L552.509 416.932C554.134 421.662 555.557 425.942 560.506 428.117L561.311 426.286ZM567.606 428.108C565.018 427.47 562.594 426.868 561.322 426.291L560.495 428.112C561.981 428.786 564.637 429.436 567.128 430.05L567.606 428.108ZM568.056 428.219C567.906 428.182 567.756 428.145 567.606 428.108L567.128 430.05C567.278 430.087 567.428 430.124 567.577 430.161L568.056 428.219Z" fill="black" mask="url(#path-52-inside-4_206_16)"/>
<path fill-rule="evenodd" clip-rule="evenodd" d="M556 368.5C553.833 369.429 552.305 370.676 551.297 371.888C545.806 373.747 541.337 377.265 541.162 382.171L541.208 382.232C539.573 384.853 538.673 388.53 538.507 392.15C537.959 399.476 540.13 407.429 545.306 412.597C548.963 416.734 550.182 418.682 551.888 425.01C553.007 422.218 553.127 420.992 553.34 418.828L553.34 418.828L553.34 418.828L553.34 418.827C553.406 418.162 553.48 417.407 553.595 416.491C548.719 395.558 556.075 399.889 558 409.5C558.408 409.5 559.159 408.988 559.822 408.535C559.95 408.447 560.075 408.362 560.194 408.283C558.339 402.726 558.345 400.219 558.35 398.148C558.353 396.954 558.355 395.905 558 394.5L558 394.5C558 394.261 557.82 393.966 557.61 393.621C557.178 392.91 556.618 391.989 557.252 390.933C557.702 390.185 559.774 390.357 562.699 390.601C564.528 390.753 566.691 390.933 569 390.933C575 390.933 579.062 389.484 582 388C582.544 387.725 583.117 387.349 583.69 386.907C584.295 387.577 584.854 388.432 585.288 389.474C585.103 388.242 584.856 387.151 584.542 386.2C586.6 384.375 588.431 381.901 588.5 380.5C588.543 379.617 587.084 379.205 585.33 378.709C583.916 378.31 582.311 377.857 581.144 377.059C575.765 373.407 569.247 370.514 561.255 370.386C561.441 370.275 561.635 370.16 561.834 370.043L561.835 370.042L561.835 370.042C563.783 368.889 566.13 367.5 565.5 367.5C565.347 367.5 565.106 367.485 564.794 367.466C563.075 367.361 559.208 367.125 556 368.5Z" fill="white"/>
<path d="M551.297 371.888L551.458 372.362C551.545 372.332 551.623 372.279 551.682 372.208L551.297 371.888ZM556 368.5L556.197 368.96L556 368.5ZM541.162 382.171L540.662 382.153C540.658 382.268 540.693 382.38 540.762 382.472L541.162 382.171ZM541.208 382.232L541.632 382.497C541.742 382.321 541.732 382.096 541.607 381.931L541.208 382.232ZM538.507 392.15L539.006 392.187C539.006 392.182 539.007 392.177 539.007 392.173L538.507 392.15ZM545.306 412.597L545.68 412.265C545.674 412.258 545.666 412.25 545.659 412.243L545.306 412.597ZM551.888 425.01L551.405 425.141C551.461 425.348 551.644 425.497 551.859 425.51C552.074 425.522 552.272 425.396 552.352 425.196L551.888 425.01ZM553.34 418.828L553.838 418.877L553.839 418.869L553.34 418.828ZM553.34 418.828L552.843 418.78L552.842 418.786L553.34 418.828ZM553.34 418.828L553.838 418.875L553.838 418.874L553.34 418.828ZM553.34 418.827L552.843 418.778L552.843 418.781L553.34 418.827ZM553.595 416.491L554.091 416.553C554.098 416.495 554.095 416.435 554.082 416.378L553.595 416.491ZM558 409.5L557.51 409.598C557.557 409.832 557.762 410 558 410V409.5ZM559.822 408.535L560.104 408.948H560.104L559.822 408.535ZM560.194 408.283L560.471 408.699C560.659 408.574 560.74 408.339 560.668 408.125L560.194 408.283ZM558.35 398.148L558.85 398.149V398.149L558.35 398.148ZM558 394.5L558.485 394.377L558.485 394.377L558 394.5ZM558 394.5L557.5 394.5C557.5 394.541 557.505 394.583 557.515 394.623L558 394.5ZM557.61 393.621L558.038 393.362L557.61 393.621ZM557.252 390.933L557.68 391.191L557.252 390.933ZM562.699 390.601L562.658 391.099L562.699 390.601ZM582 388L582.225 388.446L582 388ZM583.69 386.907L584.061 386.572C583.886 386.378 583.591 386.351 583.384 386.511L583.69 386.907ZM585.288 389.474L584.827 389.666C584.924 389.899 585.18 390.023 585.423 389.955C585.666 389.887 585.82 389.649 585.783 389.399L585.288 389.474ZM584.542 386.2L584.21 385.826C584.061 385.958 584.005 386.167 584.067 386.356L584.542 386.2ZM588.5 380.5L588.999 380.524V380.524L588.5 380.5ZM585.33 378.709L585.194 379.19L585.33 378.709ZM581.144 377.059L581.426 376.646L581.424 376.645L581.144 377.059ZM561.255 370.386L560.999 369.956C560.807 370.071 560.714 370.299 560.771 370.515C560.829 370.731 561.023 370.883 561.247 370.886L561.255 370.386ZM561.834 370.043L561.579 369.613L561.579 369.613L561.834 370.043ZM561.835 370.042L561.594 369.604C561.589 369.607 561.585 369.609 561.58 369.612L561.835 370.042ZM561.835 370.042L562.076 370.481C562.08 370.478 562.085 370.475 562.089 370.473L561.835 370.042ZM564.794 367.466L564.824 366.967L564.794 367.466ZM551.682 372.208C552.639 371.058 554.102 369.857 556.197 368.96L555.803 368.04C553.565 369 551.972 370.295 550.913 371.568L551.682 372.208ZM541.661 382.189C541.825 377.613 546.014 374.204 551.458 372.362L551.137 371.414C545.599 373.289 540.849 376.918 540.662 382.153L541.661 382.189ZM541.607 381.931L541.561 381.869L540.762 382.472L540.809 382.534L541.607 381.931ZM540.784 381.968C539.089 384.684 538.176 388.454 538.008 392.127L539.007 392.173C539.17 388.607 540.057 385.022 541.632 382.497L540.784 381.968ZM545.659 412.243C540.611 407.203 538.466 399.407 539.006 392.187L538.009 392.112C537.452 399.546 539.649 407.656 544.953 412.95L545.659 412.243ZM552.371 424.88C551.514 421.703 550.771 419.59 549.768 417.743C548.764 415.896 547.514 414.34 545.68 412.265L544.931 412.928C546.755 414.991 547.942 416.477 548.889 418.221C549.836 419.965 550.556 421.989 551.405 425.141L552.371 424.88ZM552.843 418.779C552.632 420.919 552.518 422.093 551.424 424.824L552.352 425.196C553.495 422.343 553.623 421.065 553.838 418.877L552.843 418.779ZM552.842 418.786L552.842 418.786L553.839 418.869L553.839 418.869L552.842 418.786ZM552.843 418.78L552.843 418.78L553.838 418.876L553.838 418.875L552.843 418.78ZM552.843 418.781L552.843 418.781L553.838 418.874L553.838 418.874L552.843 418.781ZM553.099 416.429C552.983 417.352 552.908 418.113 552.843 418.778L553.838 418.876C553.903 418.211 553.977 417.462 554.091 416.553L553.099 416.429ZM558.49 409.402C557.999 406.951 557.16 404.82 556.239 403.331C555.78 402.588 555.288 401.983 554.789 401.58C554.302 401.186 553.725 400.921 553.137 401.054C552.533 401.19 552.125 401.698 551.871 402.369C551.615 403.046 551.473 403.989 551.456 405.209C551.421 407.656 551.885 411.355 553.108 416.605L554.082 416.378C552.867 411.16 552.422 407.551 552.455 405.223C552.472 404.056 552.609 403.244 552.806 402.723C553.006 402.195 553.226 402.059 553.357 402.029C553.505 401.996 553.769 402.041 554.16 402.358C554.54 402.665 554.963 403.169 555.389 403.857C556.236 405.228 557.038 407.243 557.51 409.598L558.49 409.402ZM559.54 408.122C559.204 408.351 558.868 408.58 558.567 408.754C558.416 408.84 558.286 408.905 558.179 408.948C558.125 408.97 558.082 408.983 558.05 408.991C558.033 408.995 558.021 408.998 558.012 408.999C558.004 409 558 409 558 409V410C558.195 410 558.388 409.942 558.549 409.877C558.718 409.81 558.893 409.719 559.065 409.621C559.406 409.425 559.777 409.171 560.104 408.948L559.54 408.122ZM559.917 407.867C559.796 407.948 559.668 408.035 559.54 408.122L560.104 408.948C560.233 408.86 560.355 408.776 560.471 408.699L559.917 407.867ZM557.85 398.147C557.845 400.261 557.844 402.823 559.72 408.441L560.668 408.125C558.833 402.628 558.845 400.176 558.85 398.149L557.85 398.147ZM557.515 394.623C557.854 395.962 557.853 396.955 557.85 398.147L558.85 398.149C558.853 396.953 558.857 395.849 558.485 394.377L557.515 394.623ZM557.515 394.623L557.515 394.623L558.485 394.377L558.485 394.377L557.515 394.623ZM557.183 393.881C557.292 394.059 557.375 394.198 557.434 394.319C557.462 394.377 557.48 394.422 557.49 394.455C557.5 394.489 557.5 394.502 557.5 394.5L558.5 394.499C558.5 394.265 558.414 394.049 558.334 393.882C558.25 393.71 558.139 393.528 558.038 393.362L557.183 393.881ZM556.823 390.676C556.015 392.02 556.773 393.206 557.183 393.881L558.038 393.362C557.582 392.613 557.22 391.958 557.68 391.191L556.823 390.676ZM562.741 390.103C561.289 389.982 560.009 389.874 559.037 389.895C558.551 389.905 558.109 389.948 557.746 390.05C557.389 390.151 557.031 390.331 556.823 390.676L557.68 391.191C557.698 391.162 557.768 391.083 558.017 391.013C558.26 390.944 558.604 390.905 559.058 390.895C559.966 390.876 561.184 390.976 562.658 391.099L562.741 390.103ZM569 390.433C566.715 390.433 564.572 390.255 562.741 390.103L562.658 391.099C564.485 391.251 566.668 391.433 569 391.433V390.433ZM581.774 387.554C578.895 389.008 574.91 390.433 569 390.433V391.433C575.09 391.433 579.229 389.96 582.225 388.446L581.774 387.554ZM583.384 386.511C582.83 386.94 582.283 387.297 581.774 387.554L582.225 388.446C582.805 388.154 583.405 387.758 583.996 387.302L583.384 386.511ZM585.75 389.281C585.294 388.189 584.705 387.285 584.061 386.572L583.319 387.242C583.885 387.868 584.413 388.676 584.827 389.666L585.75 389.281ZM584.067 386.356C584.37 387.275 584.612 388.337 584.794 389.548L585.783 389.399C585.595 388.147 585.341 387.027 585.017 386.043L584.067 386.356ZM588.001 380.476C587.988 380.734 587.889 381.084 587.689 381.514C587.491 381.937 587.209 382.408 586.859 382.902C586.159 383.89 585.213 384.936 584.21 385.826L584.874 386.574C585.929 385.638 586.927 384.535 587.675 383.48C588.049 382.952 588.366 382.428 588.595 381.937C588.822 381.451 588.978 380.966 588.999 380.524L588.001 380.476ZM585.194 379.19C586.087 379.443 586.843 379.658 587.374 379.911C587.944 380.182 588.005 380.375 588.001 380.476L588.999 380.524C589.038 379.742 588.391 379.287 587.804 379.008C587.178 378.71 586.327 378.472 585.466 378.228L585.194 379.19ZM580.862 377.472C582.11 378.325 583.802 378.797 585.194 379.19L585.466 378.228C584.031 377.823 582.512 377.389 581.426 376.646L580.862 377.472ZM561.247 370.886C569.115 371.012 575.539 373.858 580.863 377.473L581.424 376.645C575.991 372.956 569.379 370.016 561.263 369.886L561.247 370.886ZM561.579 369.613C561.381 369.73 561.186 369.845 560.999 369.956L561.51 370.816C561.696 370.706 561.89 370.591 562.088 370.473L561.579 369.613ZM561.58 369.612L561.579 369.613L562.088 370.473L562.089 370.473L561.58 369.612ZM561.594 369.604L561.594 369.604L562.076 370.481L562.076 370.481L561.594 369.604ZM565.5 368C565.499 368 565.483 368 565.457 367.995C565.433 367.991 565.381 367.978 565.322 367.941C565.256 367.901 565.183 367.831 565.139 367.726C565.097 367.623 565.101 367.529 565.112 367.468C565.123 367.41 565.143 367.37 565.153 367.354C565.163 367.335 565.171 367.325 565.171 367.325C565.172 367.324 565.169 367.327 565.162 367.335C565.154 367.343 565.144 367.353 565.129 367.366C565.001 367.484 564.738 367.674 564.361 367.92C563.62 368.404 562.558 369.034 561.58 369.612L562.089 370.473C563.06 369.898 564.145 369.256 564.908 368.757C565.282 368.513 565.609 368.283 565.805 368.104C565.855 368.057 565.909 368.004 565.955 367.946C565.991 367.901 566.067 367.798 566.095 367.656C566.11 367.575 566.113 367.463 566.064 367.345C566.014 367.224 565.929 367.141 565.847 367.09C565.707 367.004 565.562 367 565.5 367V368ZM564.763 367.965C565.067 367.984 565.327 368 565.5 368V367C565.366 367 565.144 366.987 564.824 366.967L564.763 367.965ZM556.197 368.96C559.28 367.638 563.031 367.86 564.763 367.965L564.824 366.967C563.12 366.863 559.135 366.612 555.803 368.04L556.197 368.96Z" fill="black"/>
<path d="M544 437.5C544.167 441.333 548.1 449.8 562.5 453C580.5 457 582 449 582 447.5C582 446 582 441 576.5 436.5" stroke="black" stroke-linecap="round"/>
<path d="M555.5 444L552.5 448.5" stroke="black" stroke-linecap="round"/>
<path d="M561.5 446.5L559 451.5" stroke="black" stroke-linecap="round"/>
<path d="M567.431 448L566.17 453.446" stroke="black" stroke-linecap="round"/>
<path d="M573.045 448L574.5 453.5" stroke="black" stroke-linecap="round"/>
<path d="M575.5 446L581.5 449.5" stroke="black" stroke-linecap="round"/>
<path d="M575.5 441.5L581 442.5" stroke="black" stroke-linecap="round"/>
<path d="M550.5 440L547 444" stroke="black" stroke-linecap="round"/>
<path d="M415.945 330.18C414.345 330.18 413.218 329.707 412.565 328.76C411.912 327.8 411.585 326.48 411.585 324.8V319.08C411.585 317.307 411.905 315.96 412.545 315.04C413.185 314.12 414.318 313.66 415.945 313.66C417.398 313.66 418.438 314.053 419.065 314.84C419.705 315.627 420.025 316.787 420.025 318.32V319.6H417.885V318.46C417.885 317.713 417.852 317.14 417.785 316.74C417.718 316.34 417.545 316.02 417.265 315.78C416.998 315.54 416.565 315.42 415.965 315.42C415.352 315.42 414.892 315.553 414.585 315.82C414.292 316.073 414.098 316.433 414.005 316.9C413.912 317.353 413.865 317.967 413.865 318.74V325.16C413.865 325.987 413.932 326.633 414.065 327.1C414.198 327.567 414.412 327.9 414.705 328.1C415.012 328.3 415.432 328.4 415.965 328.4C416.538 328.4 416.965 328.273 417.245 328.02C417.525 327.767 417.698 327.42 417.765 326.98C417.845 326.54 417.885 325.94 417.885 325.18V323.98H420.025V325.18C420.025 326.793 419.718 328.033 419.105 328.9C418.505 329.753 417.452 330.18 415.945 330.18ZM422.178 313.8H424.438V328.38H428.578V330H422.178V313.8ZM432.687 313.8H434.867L438.327 330H436.187L435.447 325.92H432.147L431.367 330H429.247L432.687 313.8ZM435.147 324.3L433.787 317L432.447 324.3H435.147ZM440.091 313.8H442.311V330H440.091V313.8ZM445.192 313.8H447.412L450.272 326.94L453.152 313.8H455.352L455.652 330H453.832L453.652 318.24L450.912 330H449.632L446.912 318.24L446.732 330H444.892L445.192 313.8ZM460.695 313.8H462.875L466.335 330H464.195L463.455 325.92H460.155L459.375 330H457.255L460.695 313.8ZM463.155 324.3L461.795 317L460.455 324.3H463.155ZM467.979 313.8H469.519L474.119 324.56V313.8H475.999V330H474.559L469.899 318.94V330H467.979V313.8ZM480.325 315.48H477.585V313.8H485.245V315.48H482.585V330H480.325V315.48ZM490.627 330.18C489.267 330.18 488.227 329.76 487.507 328.92C486.8 328.08 486.407 326.927 486.327 325.46L488.327 324.92C488.394 325.96 488.594 326.8 488.927 327.44C489.274 328.08 489.84 328.4 490.627 328.4C491.214 328.4 491.654 328.24 491.947 327.92C492.254 327.587 492.407 327.113 492.407 326.5C492.407 325.833 492.267 325.28 491.987 324.84C491.707 324.4 491.26 323.913 490.647 323.38L487.927 320.98C487.38 320.5 486.98 319.987 486.727 319.44C486.487 318.88 486.367 318.2 486.367 317.4C486.367 316.213 486.707 315.293 487.387 314.64C488.067 313.987 488.994 313.66 490.167 313.66C491.447 313.66 492.414 314 493.067 314.68C493.72 315.36 494.114 316.413 494.247 317.84L492.327 318.36C492.26 317.413 492.074 316.687 491.767 316.18C491.474 315.66 490.94 315.4 490.167 315.4C489.594 315.4 489.154 315.553 488.847 315.86C488.54 316.153 488.387 316.593 488.387 317.18C488.387 317.66 488.467 318.067 488.627 318.4C488.787 318.72 489.06 319.047 489.447 319.38L492.187 321.78C492.894 322.407 493.454 323.087 493.867 323.82C494.294 324.553 494.507 325.387 494.507 326.32C494.507 327.507 494.147 328.447 493.427 329.14C492.707 329.833 491.774 330.18 490.627 330.18Z" fill="black"/>
<circle r="12.7847" transform="matrix(0.866025 0.5 -0.866025 0.5 508.144 434.785)" fill="#048F92" fill-opacity="0.12"/>
<circle r="5.77353" transform="matrix(0.866025 0.5 -0.866025 0.5 508 434)" fill="#048F92"/>
<path d="M507.5 432L507.5 432.5L508.5 432.5L508.5 432L507.5 432ZM508.5 322L508.5 321.5L507.5 321.5L507.5 322L508.5 322ZM507.5 323.964L507.5 324.464L508.5 324.464L508.5 323.964L507.5 323.964ZM508.5 327.893L508.5 327.393L507.5 327.393L507.5 327.893L508.5 327.893ZM507.5 331.821L507.5 332.321L508.5 332.321L508.5 331.821L507.5 331.821ZM508.5 335.75L508.5 335.25L507.5 335.25L507.5 335.75L508.5 335.75ZM507.5 339.679L507.5 340.179L508.5 340.179L508.5 339.679L507.5 339.679ZM508.5 343.607L508.5 343.107L507.5 343.107L507.5 343.607L508.5 343.607ZM507.5 347.536L507.5 348.036L508.5 348.036L508.5 347.536L507.5 347.536ZM508.5 351.464L508.5 350.964L507.5 350.964L507.5 351.464L508.5 351.464ZM507.5 355.393L507.5 355.893L508.5 355.893L508.5 355.393L507.5 355.393ZM508.5 359.321L508.5 358.821L507.5 358.821L507.5 359.321L508.5 359.321ZM507.5 363.25L507.5 363.75L508.5 363.75L508.5 363.25L507.5 363.25ZM508.5 367.179L508.5 366.679L507.5 366.679L507.5 367.179L508.5 367.179ZM507.5 371.107L507.5 371.607L508.5 371.607L508.5 371.107L507.5 371.107ZM508.5 375.036L508.5 374.536L507.5 374.536L507.5 375.036L508.5 375.036ZM507.5 378.964L507.5 379.464L508.5 379.464L508.5 378.964L507.5 378.964ZM508.5 382.893L508.5 382.393L507.5 382.393L507.5 382.893L508.5 382.893ZM507.5 386.821L507.5 387.321L508.5 387.321L508.5 386.821L507.5 386.821ZM508.5 390.75L508.5 390.25L507.5 390.25L507.5 390.75L508.5 390.75ZM507.5 394.679L507.5 395.179L508.5 395.179L508.5 394.679L507.5 394.679ZM508.5 398.607L508.5 398.107L507.5 398.107L507.5 398.607L508.5 398.607ZM507.5 402.536L507.5 403.036L508.5 403.036L508.5 402.536L507.5 402.536ZM508.5 406.464L508.5 405.964L507.5 405.964L507.5 406.464L508.5 406.464ZM507.5 410.393L507.5 410.893L508.5 410.893L508.5 410.393L507.5 410.393ZM508.5 414.321L508.5 413.821L507.5 413.821L507.5 414.321L508.5 414.321ZM507.5 418.25L507.5 418.75L508.5 418.75L508.5 418.25L507.5 418.25ZM508.5 422.179L508.5 421.679L507.5 421.679L507.5 422.179L508.5 422.179ZM507.5 426.107L507.5 426.607L508.5 426.607L508.5 426.107L507.5 426.107ZM508.5 430.036L508.5 429.536L507.5 429.536L507.5 430.036L508.5 430.036ZM507.5 322L507.5 323.964L508.5 323.964L508.5 322L507.5 322ZM507.5 327.893L507.5 331.821L508.5 331.821L508.5 327.893L507.5 327.893ZM507.5 335.75L507.5 339.679L508.5 339.679L508.5 335.75L507.5 335.75ZM507.5 343.607L507.5 347.536L508.5 347.536L508.5 343.607L507.5 343.607ZM507.5 351.464L507.5 355.393L508.5 355.393L508.5 351.464L507.5 351.464ZM507.5 359.321L507.5 363.25L508.5 363.25L508.5 359.321L507.5 359.321ZM507.5 367.179L507.5 371.107L508.5 371.107L508.5 367.179L507.5 367.179ZM507.5 375.036L507.5 378.964L508.5 378.964L508.5 375.036L507.5 375.036ZM507.5 382.893L507.5 386.821L508.5 386.821L508.5 382.893L507.5 382.893ZM507.5 390.75L507.5 394.679L508.5 394.679L508.5 390.75L507.5 390.75ZM507.5 398.607L507.5 402.536L508.5 402.536L508.5 398.607L507.5 398.607ZM507.5 406.464L507.5 410.393L508.5 410.393L508.5 406.464L507.5 406.464ZM507.5 414.321L507.5 418.25L508.5 418.25L508.5 414.321L507.5 414.321ZM507.5 422.179L507.5 426.107L508.5 426.107L508.5 422.179L507.5 422.179ZM507.5 430.036L507.5 432L508.5 432L508.5 430.036L507.5 430.036Z" fill="#048F92"/>
<rect width="2" height="48" transform="translate(507 300)" fill="#048F92"/>
<path d="M842 587.5L652 476" stroke="#048F92" stroke-linecap="square" stroke-linejoin="round" stroke-dasharray="4 6"/>
<path d="M504 489L423 536.5L773.5 737.5L809.688 716.688L827.781 706.281" stroke="#048F92" stroke-linecap="square" stroke-linejoin="round" stroke-dasharray="4 6"/>
<path d="M665 395.625L737.375 354L1087.88 555L1006.88 602.5" stroke="#048F92" stroke-linecap="square" stroke-linejoin="round" stroke-dasharray="4 6"/>
<path d="M717.361 493.709L751 513.248V454.539L717.361 435V493.709Z" fill="white" stroke="#14181E" stroke-linecap="round" stroke-linejoin="round"/>
<path d="M711 497.121L744.633 516.659V457.95L711 438.411V497.121Z" fill="white" stroke="#14181E" stroke-linecap="round" stroke-linejoin="round"/>
<path d="M715.504 454.101L740.13 468.318V462.751L715.504 448.534V454.101Z" fill="#B1B1B1"/>
<path d="M715.504 461.373L740.13 475.59V470.023L715.504 455.806V461.373Z" fill="#B1B1B1"/>
<path d="M715.504 468.306L740.13 482.523V476.951L715.504 462.74V468.306Z" fill="#B1B1B1"/>
<path d="M715.504 474.27L740.13 488.488" stroke="#666666" stroke-linecap="round" stroke-linejoin="round"/>
<path d="M715.504 478.529L740.13 492.752" stroke="#666666" stroke-linecap="round" stroke-linejoin="round"/>
<path d="M715.504 482.792L740.13 497.01" stroke="#666666" stroke-linecap="round" stroke-linejoin="round"/>
<path d="M715.504 487.051L740.13 501.274" stroke="#666666" stroke-linecap="round" stroke-linejoin="round"/>
<path d="M715.504 491.314L740.13 505.532" stroke="#666666" stroke-linecap="round" stroke-linejoin="round"/>
<g clip-path="url(#clip0_206_16)">
<path opacity="0.35" d="M777.407 507.254L773.121 499.829L774.345 499.122L779.857 508.668L774.345 511.85L773.121 509.729L777.407 507.254Z" fill="#048F92"/>
</g>
<g clip-path="url(#clip1_206_16)">
<path opacity="0.6" d="M798.192 519.254L793.905 511.829L795.13 511.122L800.641 520.668L795.13 523.85L793.905 521.729L798.192 519.254Z" fill="#048F92"/>
</g>
<g clip-path="url(#clip2_206_16)">
<path d="M818.977 531.254L814.69 523.829L815.915 523.122L821.426 532.668L815.915 535.85L814.69 533.729L818.977 531.254Z" fill="#048F92"/>
</g>
<g clip-path="url(#clip3_206_16)">
<path opacity="0.35" d="M777.407 507.586L773.121 500.161L774.345 499.454L779.857 509L774.345 512.182L773.121 510.061L777.407 507.586Z" fill="#048F92"/>
</g>
<g clip-path="url(#clip4_206_16)">
<path opacity="0.6" d="M798.192 519.586L793.905 512.161L795.13 511.454L800.641 521L795.13 524.182L793.905 522.061L798.192 519.586Z" fill="#048F92"/>
</g>
<g clip-path="url(#clip5_206_16)">
<path d="M818.977 531.586L814.69 524.161L815.915 523.454L821.426 533L815.915 536.182L814.69 534.061L818.977 531.586Z" fill="#048F92"/>
</g>
<g clip-path="url(#clip6_206_16)">
<path opacity="0.35" d="M512.407 557.586L508.121 550.161L509.345 549.454L514.857 559L509.345 562.182L508.121 560.061L512.407 557.586Z" fill="#048F92"/>
</g>
<g clip-path="url(#clip7_206_16)">
<path opacity="0.6" d="M533.192 569.586L528.905 562.161L530.13 561.454L535.641 571L530.13 574.182L528.905 572.061L533.192 569.586Z" fill="#048F92"/>
</g>
<g clip-path="url(#clip8_206_16)">
<path d="M553.977 581.586L549.69 574.161L550.915 573.454L556.426 583L550.915 586.182L549.69 584.061L553.977 581.586Z" fill="#048F92"/>
</g>
<g clip-path="url(#clip9_206_16)">
<path opacity="0.35" d="M666.407 648.586L662.121 641.161L663.345 640.454L668.857 650L663.345 653.182L662.121 651.061L666.407 648.586Z" fill="#048F92"/>
</g>
<g clip-path="url(#clip10_206_16)">
<path opacity="0.6" d="M687.192 660.586L682.905 653.161L684.13 652.454L689.641 662L684.13 665.182L682.905 663.061L687.192 660.586Z" fill="#048F92"/>
</g>
<g clip-path="url(#clip11_206_16)">
<path d="M707.977 672.586L703.69 665.161L704.915 664.454L710.426 674L704.915 677.182L703.69 675.061L707.977 672.586Z" fill="#048F92"/>
</g>
<g clip-path="url(#clip12_206_16)">
<path opacity="0.35" d="M907.947 420.414L912.233 427.839L911.009 428.546L905.497 419L911.009 415.818L912.233 417.939L907.947 420.414Z" fill="#048F92"/>
</g>
<g clip-path="url(#clip13_206_16)">
<path opacity="0.6" d="M887.162 408.414L891.449 415.839L890.224 416.546L884.713 407L890.224 403.818L891.449 405.939L887.162 408.414Z" fill="#048F92"/>
</g>
<g clip-path="url(#clip14_206_16)">
<path d="M866.377 396.414L870.664 403.839L869.44 404.546L863.928 395L869.44 391.818L870.664 393.939L866.377 396.414Z" fill="#048F92"/>
</g>
<circle r="23.5" transform="matrix(0.866025 0.5 -0.866025 0.5 600.703 636.5)" fill="white" stroke="#048F92" stroke-linecap="square" stroke-linejoin="round" stroke-dasharray="4 6"/>
<g clip-path="url(#clip15_206_16)">
<path d="M592.124 642C587.341 639.239 587.341 634.762 592.124 632C596.907 629.239 604.662 629.239 609.445 632C614.228 634.761 614.228 639.239 609.445 642C604.662 644.762 596.907 644.762 592.124 642ZM593.856 641C595.694 642.061 598.186 642.657 600.785 642.657C603.383 642.657 605.875 642.061 607.713 641C609.55 639.939 610.583 638.5 610.583 637C610.583 635.5 609.55 634.061 607.713 633C605.875 631.939 603.383 631.343 600.785 631.343C598.186 631.343 595.694 631.939 593.856 633C592.019 634.061 590.987 635.5 590.987 637C590.987 638.5 592.019 639.939 593.856 641ZM601.651 637.5L605.115 639.5L603.383 640.5L598.187 637.5L604.249 634L605.981 635L601.651 637.5Z" fill="#048F92"/>
</g>
<path d="M971.5 475L1001 533" stroke="#14181E" stroke-linecap="round" stroke-linejoin="round"/>
<path d="M835.785 651.104L830.128 647.141L798.796 665.195L805.323 668.718L835.785 651.104Z" fill="white"/>
<path opacity="0.7" d="M913.116 612.928L860 657.006L921.337 693.562C929.009 698.135 938.585 698.069 946.193 693.392L992.919 664.668C1000.65 659.917 1000.51 648.641 992.675 644.076L935.955 611.037C928.7 606.811 919.578 607.566 913.116 612.928Z" fill="#E8E8E8"/>
<path d="M860.445 584.168C860.445 583.103 861.333 580.468 861.778 579.284L914.179 552.195L965.249 581.06V587.721V598.823L963.472 602.82L965.249 607.261V626.356L963.916 629.909L965.249 633.462V653.001L963.916 656.11L960.364 659.662L930.61 676.982L921.729 680.978L911.071 682.311L903.521 680.978L896.86 677.87L866.218 660.107L862.222 656.554L860.445 652.557V632.129L862.222 629.909L860.445 625.912V605.929L862.222 602.376L860.445 598.379V584.168Z" fill="white"/>
<path d="M876.078 594.065C867.497 589.091 863.207 586.603 861.6 583.736C860.893 582.474 860.539 581.164 860.539 579.854C860.539 578.544 860.893 577.234 861.6 575.973C863.207 573.105 867.497 570.618 876.078 565.643L888.334 558.538C896.915 553.564 901.205 551.077 906.152 550.145C910.504 549.325 915.191 549.325 919.543 550.145C924.49 551.077 928.781 553.564 937.361 558.538L949.618 565.643C958.198 570.618 962.488 573.105 964.096 575.973C964.803 577.234 965.156 578.544 965.156 579.854C965.156 581.164 964.803 582.474 964.096 583.736C962.488 586.603 958.198 589.091 949.618 594.065L937.361 601.17C928.781 606.144 924.49 608.631 919.543 609.563C915.191 610.383 910.504 610.383 906.152 609.563C901.205 608.631 896.915 606.144 888.334 601.17L876.078 594.065Z" fill="white"/>
<path d="M860.539 579.854V597.617C860.539 598.927 860.893 600.237 861.6 601.499C863.207 604.367 867.497 606.854 876.078 611.828L888.334 618.933C896.915 623.907 901.205 626.395 906.152 627.326C910.504 628.146 915.191 628.146 919.543 627.326C924.49 626.395 928.781 623.908 937.361 618.933L949.618 611.828C958.198 606.854 962.488 604.367 964.096 601.499C964.803 600.237 965.156 598.927 965.156 597.617V579.854M860.539 579.854C860.539 578.544 860.893 577.234 861.6 575.973C863.207 573.105 867.497 570.618 876.078 565.643L888.334 558.538C896.915 553.564 901.205 551.077 906.152 550.145C910.504 549.325 915.191 549.325 919.543 550.145C924.49 551.077 928.781 553.564 937.361 558.538L949.618 565.643C958.198 570.618 962.488 573.105 964.096 575.973C964.803 577.234 965.156 578.544 965.156 579.854M860.539 579.854C860.539 581.164 860.893 582.474 861.6 583.736C863.207 586.603 867.497 589.091 876.078 594.065L888.334 601.17C896.915 606.144 901.205 608.631 906.152 609.563C910.504 610.383 915.191 610.383 919.543 609.563C924.49 608.631 928.781 606.144 937.361 601.17L949.618 594.065C958.198 589.091 962.488 586.603 964.096 583.736C964.803 582.474 965.156 581.164 965.156 579.854" stroke="#14181E" stroke-linecap="round" stroke-linejoin="round"/>
<path d="M937.361 646.467L949.618 639.361C958.198 634.387 962.488 631.9 964.096 629.032C964.803 627.771 965.156 626.461 965.156 625.151V607.388C965.156 608.698 964.803 610.008 964.096 611.269C962.488 614.137 958.198 616.624 949.618 621.598L937.361 628.704C928.781 633.678 924.49 636.165 919.543 637.097C915.191 637.916 910.504 637.916 906.152 637.097C901.205 636.165 896.915 633.678 888.334 628.704L876.078 621.598C867.497 616.624 863.207 614.137 861.6 611.269C860.893 610.008 860.539 608.698 860.539 607.388V625.151C860.539 626.461 860.893 627.771 861.6 629.032C863.207 631.9 867.497 634.387 876.078 639.361L888.334 646.467C896.915 651.441 901.205 653.928 906.152 654.86C910.504 655.68 915.191 655.68 919.543 654.86C924.49 653.928 928.781 651.441 937.361 646.467Z" fill="white"/>
<path d="M860.539 607.388V625.151C860.539 626.461 860.893 627.771 861.6 629.032C863.207 631.9 867.497 634.387 876.078 639.361L888.334 646.467C896.915 651.441 901.205 653.928 906.152 654.86C910.504 655.68 915.191 655.68 919.543 654.86C924.49 653.928 928.781 651.441 937.361 646.467L949.618 639.361C958.198 634.387 962.488 631.9 964.096 629.032C964.803 627.771 965.156 626.461 965.156 625.151V607.388M860.539 607.388C860.539 606.078 860.893 604.768 861.6 603.506C861.775 603.194 861.981 602.886 862.222 602.579M860.539 607.388C860.539 608.698 860.893 610.008 861.6 611.269C863.207 614.137 867.497 616.624 876.078 621.598L888.334 628.704C896.915 633.678 901.205 636.165 906.152 637.097C910.504 637.916 915.191 637.916 919.543 637.097C924.49 636.165 928.781 633.678 937.361 628.704L949.618 621.598C958.198 616.624 962.488 614.137 964.096 611.269C964.803 610.008 965.156 608.698 965.156 607.388M965.156 607.388C965.156 606.078 964.803 604.768 964.096 603.506C963.882 603.125 963.785 603.195 963.473 602.82" stroke="#14181E" stroke-linecap="round" stroke-linejoin="round"/>
<path d="M937.361 673.112L949.618 666.006C958.198 661.032 962.488 658.545 964.096 655.677C964.803 654.416 965.156 653.106 965.156 651.796V634.032C965.156 635.342 964.803 636.652 964.096 637.914C962.488 640.782 958.198 643.269 949.618 648.243L937.361 655.348C928.781 660.322 924.49 662.81 919.543 663.741C915.191 664.561 910.504 664.561 906.152 663.741C901.205 662.81 896.915 660.322 888.334 655.348L876.078 648.243C867.497 643.269 863.207 640.782 861.6 637.914C860.893 636.652 860.539 635.342 860.539 634.032V651.796C860.539 653.106 860.893 654.416 861.6 655.677C863.207 658.545 867.497 661.032 876.078 666.006L888.334 673.112C896.915 678.086 901.205 680.573 906.152 681.505C910.504 682.324 915.191 682.324 919.543 681.505C924.49 680.573 928.781 678.086 937.361 673.112Z" fill="white"/>
<path d="M860.539 634.032V651.796C860.539 653.106 860.893 654.416 861.6 655.677C863.207 658.545 867.497 661.032 876.078 666.006L888.334 673.112C896.915 678.086 901.205 680.573 906.152 681.505C910.504 682.324 915.191 682.324 919.543 681.505C924.49 680.573 928.781 678.086 937.361 673.112L949.618 666.006C958.198 661.032 962.488 658.545 964.096 655.677C964.803 654.416 965.156 653.106 965.156 651.796V634.032M860.539 634.032C860.539 632.722 860.893 631.412 861.6 630.151M860.539 634.032C860.539 635.342 860.893 636.652 861.6 637.914C863.207 640.782 867.497 643.269 876.078 648.243L888.334 655.348C896.915 660.322 901.205 662.81 906.152 663.741C910.504 664.561 915.191 664.561 919.543 663.741C924.49 662.81 928.781 660.322 937.361 655.348L949.618 648.243C958.198 643.269 962.488 640.782 964.096 637.914C964.803 636.652 965.156 635.342 965.156 634.032M965.156 634.032C965.156 632.722 964.803 631.412 964.096 630.151" stroke="#14181E" stroke-linecap="round" stroke-linejoin="round"/>
<rect x="0.433013" y="0.75" width="37.5812" height="6.10531" rx="3.05266" transform="matrix(0.866025 0.5 -2.20305e-08 1 867.059 593.679)" stroke="black"/>
<rect x="0.433013" y="0.75" width="37.5812" height="6.10531" rx="3.05266" transform="matrix(0.866025 0.5 -2.20305e-08 1 867.059 621.212)" stroke="black"/>
<rect x="0.433013" y="0.75" width="37.5812" height="6.10531" rx="3.05266" transform="matrix(0.866025 0.5 -2.20305e-08 1 867.059 647.857)" stroke="black"/>
<rect width="7.99348" height="6.87118" transform="matrix(0.866025 -0.5 2.20305e-08 1 927.058 613.034)" fill="#048F92"/>
<rect width="7.99348" height="6.87118" transform="matrix(0.866025 -0.5 2.20305e-08 1 927.058 640.567)" fill="#048F92"/>
<rect width="7.99348" height="6.87118" transform="matrix(0.866025 -0.5 2.20305e-08 1 927.058 667.212)" fill="#048F92"/>
<rect x="0.433013" y="0.25" width="6.99348" height="5.87118" transform="matrix(0.866025 -0.5 2.20305e-08 1 935.997 635.455)" stroke="black"/>
<rect x="0.433013" y="0.25" width="6.99348" height="5.87118" transform="matrix(0.866025 -0.5 2.20305e-08 1 935.997 607.922)" stroke="black"/>
<rect x="0.433013" y="0.25" width="6.99348" height="5.87118" transform="matrix(0.866025 -0.5 2.20305e-08 1 935.997 662.1)" stroke="black"/>
<path d="M917.01 502L971.514 470.719C972.848 469.954 974.51 470.916 974.51 472.454V472.526C974.51 474.675 973.36 476.66 971.496 477.729L917.01 509V502Z" fill="white" stroke="#14181E" stroke-linecap="round" stroke-linejoin="round"/>
<circle r="1" transform="matrix(0.866025 -0.5 2.20305e-08 1 970.876 474.5)" fill="white" stroke="#14181E" stroke-linecap="round" stroke-linejoin="round"/>
<rect width="39.85" height="32.0913" rx="6" transform="matrix(0.866025 0.5 -0.866025 0.5 901.802 563.688)" fill="#E8E8E8"/>
<path d="M916.009 593.688L934.509 583.188V573.188L913.009 562.188L891.509 574.188V582.688L907.509 592.688L916.009 593.688Z" fill="white"/>
<path d="M897.641 580.087C894.086 578.067 892.308 577.057 891.642 575.892C891.349 575.38 891.203 574.848 891.203 574.316C891.203 573.784 891.349 573.252 891.642 572.739C892.308 571.575 894.086 570.565 897.641 568.544L902.719 565.659C906.274 563.638 908.052 562.628 910.102 562.25C911.905 561.917 913.847 561.917 915.65 562.25C917.7 562.628 919.477 563.638 923.032 565.659L928.111 568.544C931.666 570.565 933.444 571.575 934.11 572.739C934.402 573.252 934.549 573.784 934.549 574.316C934.549 574.848 934.402 575.38 934.11 575.892C933.444 577.057 931.666 578.067 928.111 580.087L923.032 582.973C919.477 584.993 917.7 586.004 915.65 586.382C913.847 586.715 911.905 586.715 910.102 586.382C908.052 586.004 906.274 584.993 902.719 582.973L897.641 580.087Z" fill="white"/>
<path d="M891.203 574.316V581.53C891.203 582.062 891.349 582.594 891.642 583.107C892.308 584.272 894.086 585.282 897.641 587.302L902.719 590.188C906.274 592.208 908.052 593.218 910.102 593.597C911.905 593.929 913.847 593.929 915.65 593.597C917.7 593.218 919.477 592.208 923.032 590.188L928.111 587.302C931.666 585.282 933.444 584.272 934.11 583.107C934.402 582.594 934.549 582.062 934.549 581.53V574.316M891.203 574.316C891.203 573.784 891.349 573.252 891.642 572.739C892.308 571.575 894.086 570.565 897.641 568.544L902.719 565.659C906.274 563.638 908.052 562.628 910.102 562.25C911.905 561.917 913.847 561.917 915.65 562.25C917.7 562.628 919.477 563.638 923.032 565.659L928.111 568.544C931.666 570.565 933.444 571.575 934.11 572.739C934.402 573.252 934.549 573.784 934.549 574.316M891.203 574.316C891.203 574.848 891.349 575.38 891.642 575.892C892.308 577.057 894.086 578.067 897.641 580.087L902.719 582.973C906.274 584.993 908.052 586.004 910.102 586.382C911.905 586.715 913.847 586.715 915.65 586.382C917.7 586.004 919.477 584.993 923.032 582.973L928.111 580.087C931.666 578.067 933.444 577.057 934.11 575.892C934.402 575.38 934.549 574.848 934.549 574.316" stroke="#14181E" stroke-linecap="round" stroke-linejoin="round"/>
<path d="M909.01 512C909.01 510.343 910.353 509 912.01 509H914.01C915.667 509 917.01 510.343 917.01 512V573C917.01 574.657 915.667 576 914.01 576H912.01C910.353 576 909.01 574.657 909.01 573V512Z" fill="white" stroke="#14181E" stroke-linecap="round" stroke-linejoin="round"/>
<path d="M905.043 499.844L905.178 514.086L912.473 518.251L912.346 504.01L905.043 499.844Z" fill="white" stroke="#14181E" stroke-linecap="round" stroke-linejoin="round"/>
<path d="M912.347 504.01L912.474 518.251L921.01 513.332L920.875 499.088L912.347 504.01Z" fill="white" stroke="#14181E" stroke-linecap="round" stroke-linejoin="round"/>
<path d="M905.034 499.82L912.346 504.01L920.875 499.088L913.573 494.885L905.034 499.82Z" fill="white" stroke="#14181E" stroke-linecap="round" stroke-linejoin="round"/>
<path d="M851.01 541.81C851.01 540.072 851.94 538.466 853.447 537.601L908.51 506V513L854.644 543.914C853.027 544.843 851.01 543.675 851.01 541.81Z" fill="white" stroke="#14181E" stroke-linecap="round" stroke-linejoin="round"/>
<circle r="1" transform="matrix(0.866025 -0.5 2.20305e-08 1 854.876 540.5)" fill="white" stroke="#14181E" stroke-linecap="round" stroke-linejoin="round"/>
<path d="M832.966 608.318C845.097 615.322 864.765 615.322 876.897 608.318C882.241 605.233 885.231 601.303 885.866 597.273L885.866 593.182L823.996 593.182L823.996 597.273C824.632 601.303 827.622 605.233 832.966 608.318Z" fill="white" stroke="#14181E" stroke-linecap="round" stroke-linejoin="round"/>
<circle r="25.3636" transform="matrix(0.866025 0.5 -0.866025 0.5 854.931 592.364)" fill="white" stroke="#14181E" stroke-linecap="round" stroke-linejoin="round"/>
<path d="M852.5 544L825 587" stroke="#14181E" stroke-linecap="round" stroke-linejoin="round"/>
<path d="M855 542L855 610" stroke="#14181E" stroke-linecap="round" stroke-linejoin="round"/>
<path d="M856.5 543.5L882 583.5" stroke="#14181E" stroke-linecap="round" stroke-linejoin="round"/>
<path d="M885.866 594C885.231 589.97 882.241 586.04 876.897 582.955C864.765 575.951 845.097 575.951 832.966 582.955C827.622 586.04 824.632 589.97 823.996 594" stroke="#14181E" stroke-linecap="round" stroke-linejoin="round"/>
<path d="M948.966 553.318C961.097 560.322 980.765 560.322 992.897 553.318C998.241 550.233 1001.23 546.303 1001.87 542.273L1001.87 538.182L939.996 538.182L939.996 542.273C940.632 546.303 943.622 550.233 948.966 553.318Z" fill="white" stroke="#14181E" stroke-linecap="round" stroke-linejoin="round"/>
<circle r="25.3636" transform="matrix(0.866025 0.5 -0.866025 0.5 970.931 537.364)" fill="white" stroke="#14181E" stroke-linecap="round" stroke-linejoin="round"/>
<path d="M971 475.5V555" stroke="#14181E" stroke-linecap="round" stroke-linejoin="round"/>
<path d="M941 532.5L968.5 479.5" stroke="#14181E" stroke-linecap="round" stroke-linejoin="round"/>
<path d="M1001.87 539C1001.23 534.97 998.241 531.04 992.897 527.955C980.765 520.951 961.097 520.951 948.966 527.955C943.622 531.04 940.632 534.97 939.996 539" stroke="#14181E" stroke-linecap="round" stroke-linejoin="round"/>
<path d="M1041.21 486.18C1039.85 486.18 1038.81 485.76 1038.09 484.92C1037.38 484.08 1036.99 482.927 1036.91 481.46L1038.91 480.92C1038.97 481.96 1039.17 482.8 1039.51 483.44C1039.85 484.08 1040.42 484.4 1041.21 484.4C1041.79 484.4 1042.23 484.24 1042.53 483.92C1042.83 483.587 1042.99 483.113 1042.99 482.5C1042.99 481.833 1042.85 481.28 1042.57 480.84C1042.29 480.4 1041.84 479.913 1041.23 479.38L1038.51 476.98C1037.96 476.5 1037.56 475.987 1037.31 475.44C1037.07 474.88 1036.95 474.2 1036.95 473.4C1036.95 472.213 1037.29 471.293 1037.97 470.64C1038.65 469.987 1039.57 469.66 1040.75 469.66C1042.03 469.66 1042.99 470 1043.65 470.68C1044.3 471.36 1044.69 472.413 1044.83 473.84L1042.91 474.36C1042.84 473.413 1042.65 472.687 1042.35 472.18C1042.05 471.66 1041.52 471.4 1040.75 471.4C1040.17 471.4 1039.73 471.553 1039.43 471.86C1039.12 472.153 1038.97 472.593 1038.97 473.18C1038.97 473.66 1039.05 474.067 1039.21 474.4C1039.37 474.72 1039.64 475.047 1040.03 475.38L1042.77 477.78C1043.47 478.407 1044.03 479.087 1044.45 479.82C1044.87 480.553 1045.09 481.387 1045.09 482.32C1045.09 483.507 1044.73 484.447 1044.01 485.14C1043.29 485.833 1042.35 486.18 1041.21 486.18ZM1046.84 469.8H1053.12V471.48H1049.1V476.84H1052.36V478.44H1049.1V484.38H1053.16V486H1046.84V469.8ZM1059.04 486.18C1057.44 486.18 1056.32 485.707 1055.66 484.76C1055.01 483.8 1054.68 482.48 1054.68 480.8V475.08C1054.68 473.307 1055 471.96 1055.64 471.04C1056.28 470.12 1057.42 469.66 1059.04 469.66C1060.5 469.66 1061.54 470.053 1062.16 470.84C1062.8 471.627 1063.12 472.787 1063.12 474.32V475.6H1060.98V474.46C1060.98 473.713 1060.95 473.14 1060.88 472.74C1060.82 472.34 1060.64 472.02 1060.36 471.78C1060.1 471.54 1059.66 471.42 1059.06 471.42C1058.45 471.42 1057.99 471.553 1057.68 471.82C1057.39 472.073 1057.2 472.433 1057.1 472.9C1057.01 473.353 1056.96 473.967 1056.96 474.74V481.16C1056.96 481.987 1057.03 482.633 1057.16 483.1C1057.3 483.567 1057.51 483.9 1057.8 484.1C1058.11 484.3 1058.53 484.4 1059.06 484.4C1059.64 484.4 1060.06 484.273 1060.34 484.02C1060.62 483.767 1060.8 483.42 1060.86 482.98C1060.94 482.54 1060.98 481.94 1060.98 481.18V479.98H1063.12V481.18C1063.12 482.793 1062.82 484.033 1062.2 484.9C1061.6 485.753 1060.55 486.18 1059.04 486.18ZM1065.28 469.8H1068.54C1070.18 469.8 1071.38 470.14 1072.14 470.82C1072.91 471.487 1073.3 472.58 1073.3 474.1C1073.3 476.18 1072.63 477.44 1071.3 477.88L1073.6 486H1071.42L1069.3 478.4H1067.54V486H1065.28V469.8ZM1068.4 476.78C1069.37 476.78 1070.06 476.587 1070.48 476.2C1070.9 475.813 1071.12 475.113 1071.12 474.1C1071.12 473.433 1071.04 472.913 1070.9 472.54C1070.75 472.153 1070.49 471.873 1070.12 471.7C1069.74 471.513 1069.22 471.42 1068.54 471.42H1067.54V476.78H1068.4ZM1079.79 486.18C1078.2 486.18 1077.06 485.733 1076.37 484.84C1075.69 483.933 1075.35 482.627 1075.35 480.92V474.78C1075.35 473.1 1075.69 471.827 1076.39 470.96C1077.08 470.093 1078.21 469.66 1079.79 469.66C1081.36 469.66 1082.49 470.1 1083.17 470.98C1083.86 471.847 1084.21 473.113 1084.21 474.78V480.94C1084.21 482.62 1083.86 483.913 1083.17 484.82C1082.47 485.727 1081.35 486.18 1079.79 486.18ZM1079.79 484.4C1080.63 484.4 1081.19 484.153 1081.49 483.66C1081.78 483.167 1081.93 482.42 1081.93 481.42V474.32C1081.93 473.333 1081.78 472.607 1081.49 472.14C1081.19 471.66 1080.63 471.42 1079.79 471.42C1078.93 471.42 1078.36 471.66 1078.07 472.14C1077.77 472.607 1077.63 473.333 1077.63 474.32V481.42C1077.63 482.42 1077.77 483.167 1078.07 483.66C1078.36 484.153 1078.93 484.4 1079.79 484.4ZM1039.95 497.8H1042.13L1045.59 514H1043.45L1042.71 509.92H1039.41L1038.63 514H1036.51L1039.95 497.8ZM1042.41 508.3L1041.05 501L1039.71 508.3H1042.41ZM1047.23 497.8H1050.49C1052.13 497.8 1053.33 498.14 1054.09 498.82C1054.86 499.487 1055.25 500.58 1055.25 502.1C1055.25 504.18 1054.58 505.44 1053.25 505.88L1055.55 514H1053.37L1051.25 506.4H1049.49V514H1047.23V497.8ZM1050.35 504.78C1051.32 504.78 1052.02 504.587 1052.43 504.2C1052.86 503.813 1053.07 503.113 1053.07 502.1C1053.07 501.433 1053 500.913 1052.85 500.54C1052.7 500.153 1052.44 499.873 1052.07 499.7C1051.7 499.513 1051.17 499.42 1050.49 499.42H1049.49V504.78H1050.35ZM1057.6 497.8H1061.32C1062.79 497.8 1063.87 498.133 1064.58 498.8C1065.29 499.453 1065.64 500.473 1065.64 501.86C1065.64 503.927 1064.87 505.067 1063.32 505.28C1064.28 505.507 1064.98 505.96 1065.42 506.64C1065.86 507.307 1066.08 508.22 1066.08 509.38C1066.08 510.833 1065.73 511.967 1065.04 512.78C1064.36 513.593 1063.32 514 1061.92 514H1057.6V497.8ZM1061.2 504.56C1062.13 504.56 1062.78 504.36 1063.14 503.96C1063.5 503.547 1063.68 502.847 1063.68 501.86C1063.68 501.14 1063.57 500.613 1063.34 500.28C1063.13 499.933 1062.8 499.713 1062.36 499.62C1061.92 499.527 1061.27 499.48 1060.4 499.48H1059.86V504.56H1061.2ZM1061.38 512.38C1062.05 512.38 1062.56 512.28 1062.92 512.08C1063.29 511.867 1063.55 511.547 1063.7 511.12C1063.85 510.693 1063.92 510.113 1063.92 509.38C1063.92 508.34 1063.71 507.567 1063.28 507.06C1062.85 506.54 1062.16 506.28 1061.2 506.28H1059.86V512.38H1061.38ZM1068.21 497.8H1070.43V514H1068.21V497.8ZM1074.83 499.48H1072.09V497.8H1079.75V499.48H1077.09V514H1074.83V499.48ZM1081.31 497.8H1084.57C1086.21 497.8 1087.41 498.14 1088.17 498.82C1088.95 499.487 1089.33 500.58 1089.33 502.1C1089.33 504.18 1088.67 505.44 1087.33 505.88L1089.63 514H1087.45L1085.33 506.4H1083.57V514H1081.31V497.8ZM1084.43 504.78C1085.41 504.78 1086.1 504.587 1086.51 504.2C1086.94 503.813 1087.15 503.113 1087.15 502.1C1087.15 501.433 1087.08 500.913 1086.93 500.54C1086.79 500.153 1086.53 499.873 1086.15 499.7C1085.78 499.513 1085.25 499.42 1084.57 499.42H1083.57V504.78H1084.43ZM1094.24 497.8H1096.42L1099.88 514H1097.74L1097 509.92H1093.7L1092.92 514H1090.8L1094.24 497.8ZM1096.7 508.3L1095.34 501L1094 508.3H1096.7ZM1102.66 499.48H1099.92V497.8H1107.58V499.48H1104.92V514H1102.66V499.48ZM1113.28 514.18C1111.7 514.18 1110.56 513.733 1109.86 512.84C1109.18 511.933 1108.84 510.627 1108.84 508.92V502.78C1108.84 501.1 1109.19 499.827 1109.88 498.96C1110.58 498.093 1111.71 497.66 1113.28 497.66C1114.86 497.66 1115.98 498.1 1116.66 498.98C1117.36 499.847 1117.7 501.113 1117.7 502.78V508.94C1117.7 510.62 1117.36 511.913 1116.66 512.82C1115.97 513.727 1114.84 514.18 1113.28 514.18ZM1113.28 512.4C1114.12 512.4 1114.69 512.153 1114.98 511.66C1115.28 511.167 1115.42 510.42 1115.42 509.42V502.32C1115.42 501.333 1115.28 500.607 1114.98 500.14C1114.69 499.66 1114.12 499.42 1113.28 499.42C1112.43 499.42 1111.86 499.66 1111.56 500.14C1111.27 500.607 1111.12 501.333 1111.12 502.32V509.42C1111.12 510.42 1111.27 511.167 1111.56 511.66C1111.86 512.153 1112.43 512.4 1113.28 512.4ZM1119.93 497.8H1123.19C1124.83 497.8 1126.03 498.14 1126.79 498.82C1127.56 499.487 1127.95 500.58 1127.95 502.1C1127.95 504.18 1127.28 505.44 1125.95 505.88L1128.25 514H1126.07L1123.95 506.4H1122.19V514H1119.93V497.8ZM1123.05 504.78C1124.02 504.78 1124.71 504.587 1125.13 504.2C1125.55 503.813 1125.77 503.113 1125.77 502.1C1125.77 501.433 1125.69 500.913 1125.55 500.54C1125.4 500.153 1125.14 499.873 1124.77 499.7C1124.39 499.513 1123.87 499.42 1123.19 499.42H1122.19V504.78H1123.05Z" fill="black"/>
<circle r="14.8494" transform="matrix(0.866025 0.5 -0.866025 0.5 1018.72 652.74)" fill="#048F92" fill-opacity="0.12"/>
<circle r="6.70596" transform="matrix(0.866025 0.5 -0.866025 0.5 1018.55 651.828)" fill="#048F92"/>
<path d="M1018.05 649.506L1018.05 650.006L1019.05 650.006L1019.05 649.506L1018.05 649.506ZM1019.05 496.187L1019.05 495.687L1018.05 495.688L1018.05 496.188L1019.05 496.187ZM1018.05 498.205L1018.05 498.705L1019.05 498.705L1019.05 498.205L1018.05 498.205ZM1019.05 502.24L1019.05 501.74L1018.05 501.74L1018.05 502.24L1019.05 502.24ZM1018.05 506.274L1018.05 506.774L1019.05 506.774L1019.05 506.274L1018.05 506.274ZM1019.05 510.309L1019.05 509.809L1018.05 509.809L1018.05 510.309L1019.05 510.309ZM1018.05 514.344L1018.05 514.844L1019.05 514.844L1019.05 514.344L1018.05 514.344ZM1019.05 518.378L1019.05 517.878L1018.05 517.878L1018.05 518.378L1019.05 518.378ZM1018.05 522.413L1018.05 522.913L1019.05 522.913L1019.05 522.413L1018.05 522.413ZM1019.05 526.448L1019.05 525.948L1018.05 525.948L1018.05 526.448L1019.05 526.448ZM1018.05 530.482L1018.05 530.982L1019.05 530.982L1019.05 530.482L1018.05 530.482ZM1019.05 534.517L1019.05 534.017L1018.05 534.017L1018.05 534.517L1019.05 534.517ZM1018.05 538.552L1018.05 539.052L1019.05 539.052L1019.05 538.552L1018.05 538.552ZM1019.05 542.586L1019.05 542.086L1018.05 542.086L1018.05 542.586L1019.05 542.586ZM1018.05 546.621L1018.05 547.121L1019.05 547.121L1019.05 546.621L1018.05 546.621ZM1019.05 550.656L1019.05 550.156L1018.05 550.156L1018.05 550.656L1019.05 550.656ZM1018.05 554.69L1018.05 555.19L1019.05 555.19L1019.05 554.69L1018.05 554.69ZM1019.05 558.725L1019.05 558.225L1018.05 558.225L1018.05 558.725L1019.05 558.725ZM1018.05 562.76L1018.05 563.26L1019.05 563.26L1019.05 562.76L1018.05 562.76ZM1019.05 566.795L1019.05 566.295L1018.05 566.295L1018.05 566.795L1019.05 566.795ZM1018.05 570.829L1018.05 571.329L1019.05 571.329L1019.05 570.829L1018.05 570.829ZM1019.05 574.864L1019.05 574.364L1018.05 574.364L1018.05 574.864L1019.05 574.864ZM1018.05 578.899L1018.05 579.399L1019.05 579.399L1019.05 578.899L1018.05 578.899ZM1019.05 582.933L1019.05 582.433L1018.05 582.433L1018.05 582.933L1019.05 582.933ZM1018.05 586.968L1018.05 587.468L1019.05 587.468L1019.05 586.968L1018.05 586.968ZM1019.05 591.003L1019.05 590.503L1018.05 590.503L1018.05 591.003L1019.05 591.003ZM1018.05 595.037L1018.05 595.537L1019.05 595.537L1019.05 595.037L1018.05 595.037ZM1019.05 599.072L1019.05 598.572L1018.05 598.572L1018.05 599.072L1019.05 599.072ZM1018.05 603.107L1018.05 603.607L1019.05 603.607L1019.05 603.107L1018.05 603.107ZM1019.05 607.141L1019.05 606.641L1018.05 606.641L1018.05 607.141L1019.05 607.141ZM1018.05 611.176L1018.05 611.676L1019.05 611.676L1019.05 611.176L1018.05 611.176ZM1019.05 615.211L1019.05 614.711L1018.05 614.711L1018.05 615.211L1019.05 615.211ZM1018.05 619.245L1018.05 619.745L1019.05 619.745L1019.05 619.245L1018.05 619.245ZM1019.05 623.28L1019.05 622.78L1018.05 622.78L1018.05 623.28L1019.05 623.28ZM1018.05 627.315L1018.05 627.815L1019.05 627.815L1019.05 627.315L1018.05 627.315ZM1019.05 631.349L1019.05 630.849L1018.05 630.849L1018.05 631.349L1019.05 631.349ZM1018.05 635.384L1018.05 635.884L1019.05 635.884L1019.05 635.384L1018.05 635.384ZM1019.05 639.419L1019.05 638.919L1018.05 638.919L1018.05 639.419L1019.05 639.419ZM1018.05 643.453L1018.05 643.953L1019.05 643.953L1019.05 643.453L1018.05 643.453ZM1019.05 647.488L1019.05 646.988L1018.05 646.988L1018.05 647.488L1019.05 647.488ZM1018.05 496.188L1018.05 498.205L1019.05 498.205L1019.05 496.187L1018.05 496.188ZM1018.05 502.24L1018.05 506.274L1019.05 506.274L1019.05 502.24L1018.05 502.24ZM1018.05 510.309L1018.05 514.344L1019.05 514.344L1019.05 510.309L1018.05 510.309ZM1018.05 518.378L1018.05 522.413L1019.05 522.413L1019.05 518.378L1018.05 518.378ZM1018.05 526.448L1018.05 530.482L1019.05 530.482L1019.05 526.448L1018.05 526.448ZM1018.05 534.517L1018.05 538.552L1019.05 538.552L1019.05 534.517L1018.05 534.517ZM1018.05 542.586L1018.05 546.621L1019.05 546.621L1019.05 542.586L1018.05 542.586ZM1018.05 550.656L1018.05 554.69L1019.05 554.69L1019.05 550.656L1018.05 550.656ZM1018.05 558.725L1018.05 562.76L1019.05 562.76L1019.05 558.725L1018.05 558.725ZM1018.05 566.795L1018.05 570.829L1019.05 570.829L1019.05 566.795L1018.05 566.795ZM1018.05 574.864L1018.05 578.899L1019.05 578.899L1019.05 574.864L1018.05 574.864ZM1018.05 582.933L1018.05 586.968L1019.05 586.968L1019.05 582.933L1018.05 582.933ZM1018.05 591.003L1018.05 595.037L1019.05 595.037L1019.05 591.003L1018.05 591.003ZM1018.05 599.072L1018.05 603.107L1019.05 603.107L1019.05 599.072L1018.05 599.072ZM1018.05 607.141L1018.05 611.176L1019.05 611.176L1019.05 607.141L1018.05 607.141ZM1018.05 615.211L1018.05 619.245L1019.05 619.245L1019.05 615.211L1018.05 615.211ZM1018.05 623.28L1018.05 627.315L1019.05 627.315L1019.05 623.28L1018.05 623.28ZM1018.05 631.349L1018.05 635.384L1019.05 635.384L1019.05 631.349L1018.05 631.349ZM1018.05 639.419L1018.05 643.453L1019.05 643.453L1019.05 639.419L1018.05 639.419ZM1018.05 647.488L1018.05 649.506L1019.05 649.506L1019.05 647.488L1018.05 647.488Z" fill="#048F92"/>
<rect width="3" height="60" transform="translate(1017.13 463)" fill="#048F92"/>
<defs>
<linearGradient id="paint0_linear_206_16" x1="742.178" y1="54" x2="334.063" y2="760.875" gradientUnits="userSpaceOnUse">
<stop stop-color="#BDBDBD" stop-opacity="0"/>
<stop offset="0.510417" stop-color="#BDBDBD"/>
<stop offset="1" stop-color="#BDBDBD" stop-opacity="0"/>
</linearGradient>
<linearGradient id="paint1_linear_206_16" x1="1069.1" y1="242.75" x2="660.988" y2="949.625" gradientUnits="userSpaceOnUse">
<stop stop-color="#BDBDBD" stop-opacity="0"/>
<stop offset="0.510417" stop-color="#BDBDBD"/>
<stop offset="1" stop-color="#BDBDBD" stop-opacity="0"/>
</linearGradient>
<linearGradient id="paint2_linear_206_16" x1="1396.46" y1="431.75" x2="988.345" y2="1138.62" gradientUnits="userSpaceOnUse">
<stop stop-color="#BDBDBD" stop-opacity="0"/>
<stop offset="0.510417" stop-color="#BDBDBD"/>
<stop offset="1" stop-color="#BDBDBD" stop-opacity="0"/>
</linearGradient>
<linearGradient id="paint3_linear_206_16" x1="905.423" y1="148.25" x2="497.309" y2="855.125" gradientUnits="userSpaceOnUse">
<stop stop-color="#BDBDBD" stop-opacity="0"/>
<stop offset="0.510417" stop-color="#BDBDBD"/>
<stop offset="1" stop-color="#BDBDBD" stop-opacity="0"/>
</linearGradient>
<linearGradient id="paint4_linear_206_16" x1="1232.78" y1="337.25" x2="824.667" y2="1044.12" gradientUnits="userSpaceOnUse">
<stop stop-color="#BDBDBD" stop-opacity="0"/>
<stop offset="0.510417" stop-color="#BDBDBD"/>
<stop offset="1" stop-color="#BDBDBD" stop-opacity="0"/>
</linearGradient>
<linearGradient id="paint5_linear_206_16" x1="1560.14" y1="526.25" x2="1152.02" y2="1233.12" gradientUnits="userSpaceOnUse">
<stop stop-color="#BDBDBD" stop-opacity="0"/>
<stop offset="0.510417" stop-color="#BDBDBD"/>
<stop offset="1" stop-color="#BDBDBD" stop-opacity="0"/>
</linearGradient>
<linearGradient id="paint6_linear_206_16" x1="796.304" y1="85.25" x2="388.19" y2="792.125" gradientUnits="userSpaceOnUse">
<stop stop-color="#BDBDBD" stop-opacity="0"/>
<stop offset="0.510417" stop-color="#BDBDBD"/>
<stop offset="1" stop-color="#BDBDBD" stop-opacity="0"/>
</linearGradient>
<linearGradient id="paint7_linear_206_16" x1="1123.66" y1="274.25" x2="715.548" y2="981.125" gradientUnits="userSpaceOnUse">
<stop stop-color="#BDBDBD" stop-opacity="0"/>
<stop offset="0.510417" stop-color="#BDBDBD"/>
<stop offset="1" stop-color="#BDBDBD" stop-opacity="0"/>
</linearGradient>
<linearGradient id="paint8_linear_206_16" x1="1451.02" y1="463.25" x2="1042.9" y2="1170.12" gradientUnits="userSpaceOnUse">
<stop stop-color="#BDBDBD" stop-opacity="0"/>
<stop offset="0.510417" stop-color="#BDBDBD"/>
<stop offset="1" stop-color="#BDBDBD" stop-opacity="0"/>
</linearGradient>
<linearGradient id="paint9_linear_206_16" x1="959.983" y1="179.75" x2="551.868" y2="886.625" gradientUnits="userSpaceOnUse">
<stop stop-color="#BDBDBD" stop-opacity="0"/>
<stop offset="0.510417" stop-color="#BDBDBD"/>
<stop offset="1" stop-color="#BDBDBD" stop-opacity="0"/>
</linearGradient>
<linearGradient id="paint10_linear_206_16" x1="1287.34" y1="368.75" x2="879.226" y2="1075.62" gradientUnits="userSpaceOnUse">
<stop stop-color="#BDBDBD" stop-opacity="0"/>
<stop offset="0.510417" stop-color="#BDBDBD"/>
<stop offset="1" stop-color="#BDBDBD" stop-opacity="0"/>
</linearGradient>
<linearGradient id="paint11_linear_206_16" x1="1614.7" y1="557.75" x2="1206.58" y2="1264.62" gradientUnits="userSpaceOnUse">
<stop stop-color="#BDBDBD" stop-opacity="0"/>
<stop offset="0.510417" stop-color="#BDBDBD"/>
<stop offset="1" stop-color="#BDBDBD" stop-opacity="0"/>
</linearGradient>
<linearGradient id="paint12_linear_206_16" x1="850.864" y1="116.75" x2="442.749" y2="823.625" gradientUnits="userSpaceOnUse">
<stop stop-color="#BDBDBD" stop-opacity="0"/>
<stop offset="0.510417" stop-color="#BDBDBD"/>
<stop offset="1" stop-color="#BDBDBD" stop-opacity="0"/>
</linearGradient>
<linearGradient id="paint13_linear_206_16" x1="1178.22" y1="305.75" x2="770.107" y2="1012.63" gradientUnits="userSpaceOnUse">
<stop stop-color="#BDBDBD" stop-opacity="0"/>
<stop offset="0.510417" stop-color="#BDBDBD"/>
<stop offset="1" stop-color="#BDBDBD" stop-opacity="0"/>
</linearGradient>
<linearGradient id="paint14_linear_206_16" x1="1505.58" y1="494.75" x2="1097.46" y2="1201.62" gradientUnits="userSpaceOnUse">
<stop stop-color="#BDBDBD" stop-opacity="0"/>
<stop offset="0.510417" stop-color="#BDBDBD"/>
<stop offset="1" stop-color="#BDBDBD" stop-opacity="0"/>
</linearGradient>
<linearGradient id="paint15_linear_206_16" x1="1014.54" y1="211.25" x2="606.428" y2="918.125" gradientUnits="userSpaceOnUse">
<stop stop-color="#BDBDBD" stop-opacity="0"/>
<stop offset="0.510417" stop-color="#BDBDBD"/>
<stop offset="1" stop-color="#BDBDBD" stop-opacity="0"/>
</linearGradient>
<linearGradient id="paint16_linear_206_16" x1="1341.9" y1="400.25" x2="933.786" y2="1107.12" gradientUnits="userSpaceOnUse">
<stop stop-color="#BDBDBD" stop-opacity="0"/>
<stop offset="0.510417" stop-color="#BDBDBD"/>
<stop offset="1" stop-color="#BDBDBD" stop-opacity="0"/>
</linearGradient>
<linearGradient id="paint17_linear_206_16" x1="1669.26" y1="589.25" x2="1261.14" y2="1296.12" gradientUnits="userSpaceOnUse">
<stop stop-color="#BDBDBD" stop-opacity="0"/>
<stop offset="0.510417" stop-color="#BDBDBD"/>
<stop offset="1" stop-color="#BDBDBD" stop-opacity="0"/>
</linearGradient>
<linearGradient id="paint18_linear_206_16" x1="129.464" y1="323.75" x2="661.853" y2="1245.87" gradientUnits="userSpaceOnUse">
<stop stop-color="#BDBDBD" stop-opacity="0"/>
<stop offset="0.510417" stop-color="#BDBDBD"/>
<stop offset="1" stop-color="#BDBDBD" stop-opacity="0"/>
</linearGradient>
<linearGradient id="paint19_linear_206_16" x1="446.43" y1="140.75" x2="978.819" y2="1062.87" gradientUnits="userSpaceOnUse">
<stop stop-color="#BDBDBD" stop-opacity="0"/>
<stop offset="0.510417" stop-color="#BDBDBD"/>
<stop offset="1" stop-color="#BDBDBD" stop-opacity="0"/>
</linearGradient>
<linearGradient id="paint20_linear_206_16" x1="-29.0177" y1="415.25" x2="503.371" y2="1337.37" gradientUnits="userSpaceOnUse">
<stop stop-color="#BDBDBD" stop-opacity="0"/>
<stop offset="0.510417" stop-color="#BDBDBD"/>
<stop offset="1" stop-color="#BDBDBD" stop-opacity="0"/>
</linearGradient>
<linearGradient id="paint21_linear_206_16" x1="287.947" y1="232.25" x2="820.336" y2="1154.37" gradientUnits="userSpaceOnUse">
<stop stop-color="#BDBDBD" stop-opacity="0"/>
<stop offset="0.510417" stop-color="#BDBDBD"/>
<stop offset="1" stop-color="#BDBDBD" stop-opacity="0"/>
</linearGradient>
<linearGradient id="paint22_linear_206_16" x1="182.292" y1="293.25" x2="714.682" y2="1215.37" gradientUnits="userSpaceOnUse">
<stop stop-color="#BDBDBD" stop-opacity="0"/>
<stop offset="0.510417" stop-color="#BDBDBD"/>
<stop offset="1" stop-color="#BDBDBD" stop-opacity="0"/>
</linearGradient>
<linearGradient id="paint23_linear_206_16" x1="499.258" y1="110.25" x2="1031.65" y2="1032.37" gradientUnits="userSpaceOnUse">
<stop stop-color="#BDBDBD" stop-opacity="0"/>
<stop offset="0.510417" stop-color="#BDBDBD"/>
<stop offset="1" stop-color="#BDBDBD" stop-opacity="0"/>
</linearGradient>
<linearGradient id="paint24_linear_206_16" x1="23.81" y1="384.75" x2="556.199" y2="1306.87" gradientUnits="userSpaceOnUse">
<stop stop-color="#BDBDBD" stop-opacity="0"/>
<stop offset="0.510417" stop-color="#BDBDBD"/>
<stop offset="1" stop-color="#BDBDBD" stop-opacity="0"/>
</linearGradient>
<linearGradient id="paint25_linear_206_16" x1="340.775" y1="201.75" x2="873.164" y2="1123.87" gradientUnits="userSpaceOnUse">
<stop stop-color="#BDBDBD" stop-opacity="0"/>
<stop offset="0.510417" stop-color="#BDBDBD"/>
<stop offset="1" stop-color="#BDBDBD" stop-opacity="0"/>
</linearGradient>
<linearGradient id="paint26_linear_206_16" x1="235.12" y1="262.75" x2="767.509" y2="1184.87" gradientUnits="userSpaceOnUse">
<stop stop-color="#BDBDBD" stop-opacity="0"/>
<stop offset="0.510417" stop-color="#BDBDBD"/>
<stop offset="1" stop-color="#BDBDBD" stop-opacity="0"/>
</linearGradient>
<linearGradient id="paint27_linear_206_16" x1="552.085" y1="79.75" x2="1084.47" y2="1001.87" gradientUnits="userSpaceOnUse">
<stop stop-color="#BDBDBD" stop-opacity="0"/>
<stop offset="0.510417" stop-color="#BDBDBD"/>
<stop offset="1" stop-color="#BDBDBD" stop-opacity="0"/>
</linearGradient>
<linearGradient id="paint28_linear_206_16" x1="76.6376" y1="354.25" x2="609.027" y2="1276.37" gradientUnits="userSpaceOnUse">
<stop stop-color="#BDBDBD" stop-opacity="0"/>
<stop offset="0.510417" stop-color="#BDBDBD"/>
<stop offset="1" stop-color="#BDBDBD" stop-opacity="0"/>
</linearGradient>
<linearGradient id="paint29_linear_206_16" x1="393.602" y1="171.25" x2="925.992" y2="1093.37" gradientUnits="userSpaceOnUse">
<stop stop-color="#BDBDBD" stop-opacity="0"/>
<stop offset="0.510417" stop-color="#BDBDBD"/>
<stop offset="1" stop-color="#BDBDBD" stop-opacity="0"/>
</linearGradient>
<clipPath id="clip0_206_16">
<rect width="24" height="24" fill="white" transform="matrix(0.866025 0.5 -2.20305e-08 1 766 488.668)"/>
</clipPath>
<clipPath id="clip1_206_16">
<rect width="24" height="24" fill="white" transform="matrix(0.866025 0.5 -2.20305e-08 1 786.785 500.668)"/>
</clipPath>
<clipPath id="clip2_206_16">
<rect width="24" height="24" fill="white" transform="matrix(0.866025 0.5 -2.20305e-08 1 807.569 512.668)"/>
</clipPath>
<clipPath id="clip3_206_16">
<rect width="24" height="24" fill="white" transform="matrix(0.866025 0.5 -2.20305e-08 1 766 489)"/>
</clipPath>
<clipPath id="clip4_206_16">
<rect width="24" height="24" fill="white" transform="matrix(0.866025 0.5 -2.20305e-08 1 786.785 501)"/>
</clipPath>
<clipPath id="clip5_206_16">
<rect width="24" height="24" fill="white" transform="matrix(0.866025 0.5 -2.20305e-08 1 807.569 513)"/>
</clipPath>
<clipPath id="clip6_206_16">
<rect width="24" height="24" fill="white" transform="matrix(0.866025 0.5 -2.20305e-08 1 501 539)"/>
</clipPath>
<clipPath id="clip7_206_16">
<rect width="24" height="24" fill="white" transform="matrix(0.866025 0.5 -2.20305e-08 1 521.785 551)"/>
</clipPath>
<clipPath id="clip8_206_16">
<rect width="24" height="24" fill="white" transform="matrix(0.866025 0.5 -2.20305e-08 1 542.569 563)"/>
</clipPath>
<clipPath id="clip9_206_16">
<rect width="24" height="24" fill="white" transform="matrix(0.866025 0.5 -2.20305e-08 1 655 630)"/>
</clipPath>
<clipPath id="clip10_206_16">
<rect width="24" height="24" fill="white" transform="matrix(0.866025 0.5 -2.20305e-08 1 675.785 642)"/>
</clipPath>
<clipPath id="clip11_206_16">
<rect width="24" height="24" fill="white" transform="matrix(0.866025 0.5 -2.20305e-08 1 696.569 654)"/>
</clipPath>
<clipPath id="clip12_206_16">
<rect width="24" height="24" fill="white" transform="matrix(-0.866025 -0.5 2.20305e-08 -1 919.354 439)"/>
</clipPath>
<clipPath id="clip13_206_16">
<rect width="24" height="24" fill="white" transform="matrix(-0.866025 -0.5 2.20305e-08 -1 898.569 427)"/>
</clipPath>
<clipPath id="clip14_206_16">
<rect width="24" height="24" fill="white" transform="matrix(-0.866025 -0.5 2.20305e-08 -1 877.785 415)"/>
</clipPath>
<clipPath id="clip15_206_16">
<rect width="24" height="24" fill="white" transform="matrix(0.866025 0.5 -0.866025 0.5 600.785 625)"/>
</clipPath>
</defs>
</svg>
