<svg width="210" height="170" viewBox="0 0 210 170" fill="none" xmlns="http://www.w3.org/2000/svg">
<path d="M159.492 87.6137C159.296 87.4185 158.98 87.4185 158.785 87.6137L155.603 90.7957C155.407 90.991 155.407 91.3075 155.603 91.5028C155.798 91.6981 156.114 91.6981 156.31 91.5028L159.138 88.6744L161.967 91.5028C162.162 91.6981 162.478 91.6981 162.674 91.5028C162.869 91.3075 162.869 90.991 162.674 90.7957L159.492 87.6137ZM81.2155 165.183C81.0203 165.378 81.0203 165.695 81.2155 165.89L84.3975 169.072C84.5928 169.267 84.9093 169.267 85.1046 169.072C85.2999 168.877 85.2999 168.56 85.1046 168.365L82.2762 165.536L85.1046 162.708C85.2999 162.513 85.2999 162.196 85.1046 162.001C84.9093 161.806 84.5928 161.806 84.3975 162.001L81.2155 165.183ZM3.64645 88.3208C3.84171 88.5161 4.15829 88.5161 4.35355 88.3208L7.53553 85.1388C7.7308 84.9436 7.7308 84.627 7.53553 84.4317C7.34027 84.2365 7.02369 84.2365 6.82843 84.4317L4 87.2602L1.17157 84.4317C0.976311 84.2365 0.659728 84.2365 0.464466 84.4317C0.269204 84.627 0.269204 84.9436 0.464466 85.1388L3.64645 88.3208ZM81.9226 10.7517C82.1179 10.5565 82.1179 10.2399 81.9226 10.0446L78.7406 6.86266C78.5454 6.6674 78.2288 6.6674 78.0335 6.86266C77.8383 7.05792 77.8383 7.3745 78.0335 7.56977L80.862 10.3982L78.0335 13.2266C77.8383 13.4219 77.8383 13.7385 78.0335 13.9337C78.2288 14.129 78.5454 14.129 78.7406 13.9337L81.9226 10.7517ZM158.638 87.9673C158.638 130.531 124.133 165.036 81.5691 165.036V166.036C124.685 166.036 159.638 131.084 159.638 87.9673H158.638ZM4.5 87.9673C4.5 45.4032 39.005 10.8982 81.5691 10.8982V9.89819C38.4527 9.89819 3.5 44.8509 3.5 87.9673H4.5Z" fill="#048F92"/>
<g filter="url(#filter0_d_1011_1234)">
<circle cx="79.9185" cy="86.3172" r="57.7642" fill="white"/>
<circle cx="79.9185" cy="86.3172" r="57.2642" stroke="#333333"/>
</g>
<circle cx="79.9187" cy="86.3171" r="49.0122" fill="white" stroke="#333333" stroke-dasharray="4 4"/>
<path d="M79.9187 56.8162V115.818" stroke="black" stroke-linecap="round" stroke-linejoin="round"/>
<path d="M95.804 74.9708C95.804 73.4808 95.5105 72.0053 94.9403 70.6287C94.3701 69.252 93.5343 68.0012 92.4807 66.9476C91.4271 65.894 90.1762 65.0582 88.7996 64.488C87.423 63.9178 85.9475 63.6243 84.4575 63.6243H74.2456C71.2363 63.6243 68.3503 64.8197 66.2224 66.9476C64.0945 69.0755 62.8991 71.9615 62.8991 74.9708C62.8991 77.9801 64.0945 80.8661 66.2224 82.994C68.3503 85.1219 71.2363 86.3173 74.2456 86.3173H86.7268C89.7361 86.3173 92.6221 87.5128 94.75 89.6407C96.8779 91.7686 98.0733 94.6546 98.0733 97.6639C98.0733 100.673 96.8779 103.559 94.75 105.687C92.6221 107.815 89.7361 109.01 86.7268 109.01H73.1109C70.1017 109.01 67.2156 107.815 65.0877 105.687C62.9598 103.559 61.7644 100.673 61.7644 97.6639" stroke="black" stroke-linecap="round" stroke-linejoin="round"/>
<g filter="url(#filter1_d_1011_1234)">
<circle cx="149.236" cy="58.2603" r="57.7642" fill="white"/>
<circle cx="149.236" cy="58.2603" r="57.2642" stroke="#333333"/>
</g>
<circle cx="149.236" cy="58.2605" r="49.0122" fill="white" stroke="#333333" stroke-dasharray="4 4"/>
<path d="M165.947 77.2407C163.091 80.097 159.451 82.0421 155.49 82.8302C151.528 83.6183 147.421 83.2138 143.689 81.668C139.957 80.1221 136.768 77.5044 134.523 74.1457C132.279 70.787 131.081 66.8383 131.081 62.7989V53.7216C131.081 49.6822 132.279 45.7335 134.523 42.3748C136.768 39.0161 139.957 36.3984 143.689 34.8525C147.421 33.3067 151.528 32.9022 155.49 33.6903C159.451 34.4784 163.091 36.4235 165.947 39.2798" stroke="black" stroke-linecap="round" stroke-linejoin="round"/>
<path d="M124.273 53.7217H151.505" stroke="black" stroke-linecap="round" stroke-linejoin="round"/>
<path d="M124.273 62.7991H146.966" stroke="black" stroke-linecap="round" stroke-linejoin="round"/>
<defs>
<filter id="filter0_d_1011_1234" x="22.1543" y="28.553" width="118.528" height="118.528" filterUnits="userSpaceOnUse" color-interpolation-filters="sRGB">
<feFlood flood-opacity="0" result="BackgroundImageFix"/>
<feColorMatrix in="SourceAlpha" type="matrix" values="0 0 0 0 0 0 0 0 0 0 0 0 0 0 0 0 0 0 127 0" result="hardAlpha"/>
<feOffset dx="3" dy="3"/>
<feColorMatrix type="matrix" values="0 0 0 0 0.667639 0 0 0 0 0.870833 0 0 0 0 0.87025 0 0 0 1 0"/>
<feBlend mode="normal" in2="BackgroundImageFix" result="effect1_dropShadow_1011_1234"/>
<feBlend mode="normal" in="SourceGraphic" in2="effect1_dropShadow_1011_1234" result="shape"/>
</filter>
<filter id="filter1_d_1011_1234" x="91.4714" y="0.496094" width="118.528" height="118.528" filterUnits="userSpaceOnUse" color-interpolation-filters="sRGB">
<feFlood flood-opacity="0" result="BackgroundImageFix"/>
<feColorMatrix in="SourceAlpha" type="matrix" values="0 0 0 0 0 0 0 0 0 0 0 0 0 0 0 0 0 0 127 0" result="hardAlpha"/>
<feOffset dx="3" dy="3"/>
<feColorMatrix type="matrix" values="0 0 0 0 0.667639 0 0 0 0 0.870833 0 0 0 0 0.87025 0 0 0 1 0"/>
<feBlend mode="normal" in2="BackgroundImageFix" result="effect1_dropShadow_1011_1234"/>
<feBlend mode="normal" in="SourceGraphic" in2="effect1_dropShadow_1011_1234" result="shape"/>
</filter>
</defs>
</svg>
