<svg width="73" height="73" viewBox="0 0 73 73" fill="none" xmlns="http://www.w3.org/2000/svg">
<circle cx="36.5" cy="36.5" r="35.5" fill="#FAFAFA" stroke="#048F92" stroke-width="1.5"/>
<mask id="mask0_930_2195" style="mask-type:alpha" maskUnits="userSpaceOnUse" x="2" y="2" width="69" height="69">
<circle cx="36.5" cy="36.4999" r="34.3361" fill="#FAFAFA"/>
</mask>
<g mask="url(#mask0_930_2195)">
<path d="M23.7323 37.7734H25.4124V46.9594H23.7323V37.7734Z" fill="black" stroke="white" stroke-width="0.5"/>
<path d="M28.7361 37.7734H30.4162V46.9594H28.7361V37.7734Z" fill="black" stroke="white" stroke-width="0.5"/>
<path d="M33.74 37.7734H35.4201V46.9594H33.74V37.7734Z" fill="black" stroke="white" stroke-width="0.5"/>
<path d="M38.7439 37.7734H40.424V46.9594H38.7439V37.7734Z" fill="black" stroke="white" stroke-width="0.5"/>
<path d="M43.7478 37.7734H45.4279V46.9594H43.7478V37.7734Z" fill="black" stroke="white" stroke-width="0.5"/>
<path d="M48.7516 37.7734H50.4317V46.9594H48.7516V37.7734Z" fill="black" stroke="white" stroke-width="0.5"/>
<path d="M37.922 22.8247V22.6421V22.1512V21.9012H38.172H39.7507L40.5273 15.2173H33.6367L34.4133 21.9012H35.9919H36.2419V22.1512V24.4032H37.082C37.9986 24.4032 38.7439 25.1485 38.7439 26.0651C38.7439 26.9612 38.0314 27.691 37.1442 27.7241L37.0989 27.7258L37.0821 27.7202L37.0652 27.7258L37.0199 27.7241C36.2168 27.6942 35.5569 27.0934 35.439 26.3151H33.7494C33.8029 27.0343 34.0853 27.6905 34.524 28.2123C34.7443 28.4743 35.1439 28.686 35.5214 28.8356C35.7048 28.9082 35.8731 28.9624 35.9954 28.9983C36.0564 29.0163 36.1057 29.0296 36.1393 29.0383C36.1561 29.0427 36.1689 29.0459 36.1773 29.048L36.1866 29.0502L36.1886 29.0507L36.1888 29.0507L36.1889 29.0508L36.1889 29.0508L36.3822 29.0957V29.2942V30.8971V32.5V32.7497L36.1325 32.75L21.8938 32.7695H21.8935H18.7284V51.9632H55.4357V32.7695H52.2706H38.4939H38.2439V32.5195V30.9069V29.2942V29.1193L37.922 22.8247ZM37.922 22.8247L38.096 22.8803C39.4451 23.3108 40.424 24.5765 40.424 26.0651C40.424 26.8819 40.1291 27.6307 39.6401 28.2123C39.4039 28.4933 39.0973 28.7062 38.8425 28.8504C38.7164 28.9219 38.6058 28.9749 38.5274 29.0098C38.4883 29.0272 38.4573 29.04 38.4367 29.0483L38.4139 29.0572L38.4088 29.0592L38.4082 29.0594L38.4081 29.0594M37.922 22.8247L38.4081 29.0594M38.4081 29.0594L38.408 29.0594L38.4079 29.0595L38.4081 29.0594ZM38.6083 17.1763L38.6407 16.8974H38.36H35.8041H35.5234L35.5558 17.1763L35.8838 19.9999L35.9095 20.2211H36.1322H38.0319H38.2545L38.2802 19.9999L38.6083 17.1763ZM53.5056 50.2831H53.7556V50.0331V34.6996V34.4496H53.5056H20.6585H20.4085V34.6996V50.0331V50.2831H20.6585H53.5056Z" fill="black" stroke="white" stroke-width="0.5"/>
<path d="M37.082 16.1311V1" stroke="black"/>
<path d="M23.7323 62.2161H25.4124V71.402H23.7323V62.2161Z" fill="black" stroke="white" stroke-width="0.5"/>
<path d="M28.7361 62.2161H30.4162V71.402H28.7361V62.2161Z" fill="black" stroke="white" stroke-width="0.5"/>
<path d="M33.74 62.2161H35.4201V71.402H33.74V62.2161Z" fill="black" stroke="white" stroke-width="0.5"/>
<path d="M38.7439 62.2161H40.424V71.402H38.7439V62.2161Z" fill="black" stroke="white" stroke-width="0.5"/>
<path d="M43.7478 62.2161H45.4279V71.402H43.7478V62.2161Z" fill="black" stroke="white" stroke-width="0.5"/>
<path d="M48.7516 62.2161H50.4317V71.402H48.7516V62.2161Z" fill="black" stroke="white" stroke-width="0.5"/>
<path d="M53.5056 74.7258H53.7556V74.4758V59.1423V58.8923H53.5056H20.6585H20.4085V59.1423V74.4758V74.7258H20.6585H53.5056ZM52.2706 57.2122H55.4357V76.4059H18.7284V57.2122H21.8935H52.2706Z" fill="black" stroke="white" stroke-width="0.5"/>
</g>
</svg>
