<svg width="62" height="51" viewBox="0 0 62 51" fill="none" xmlns="http://www.w3.org/2000/svg">
<path d="M60.1564 41.8547C59.3551 41.8403 58.5555 41.8435 57.7542 41.8499C56.3974 41.8467 51.9377 41.8467 49.4701 41.8483H47.5036V35.7861H50.3512C53.0599 35.7861 55.767 35.7972 58.4757 35.7797C59.8883 35.7685 61.0152 34.7342 61.1604 33.3791C61.17 33.2945 61.1748 33.2099 61.1764 33.1269C61.1844 32.5251 60.988 31.9633 60.6401 31.5052C60.2857 31.0359 59.7717 30.6783 59.1476 30.5059C58.9976 30.4644 58.8492 30.4198 58.6688 30.3671C58.6688 29.4557 58.6832 28.5602 58.6656 27.6632C58.6592 27.3328 58.6145 27.0119 58.5379 26.7039C58.1037 24.98 56.6161 23.6823 54.7773 23.5626C54.4533 23.5419 54.1261 23.5291 53.7989 23.5259C53.4493 23.5211 53.0982 23.5275 52.7486 23.5419C52.3272 23.5594 52.15 23.4349 52.0974 22.9992C51.9106 21.4557 51.7063 19.9138 51.4621 18.3783C51.3935 17.9521 51.4781 17.7047 51.8069 17.4174C53.8867 15.5961 54.6225 12.6704 53.6935 10.0574C53.6409 9.90738 53.5818 9.76213 53.5196 9.61848C52.5012 7.26732 50.2682 5.67115 47.7207 5.52271C47.6824 5.52111 47.6457 5.51792 47.6073 5.51632C47.2642 5.50196 47.0918 5.41097 46.9625 5.06939C46.8811 4.8571 46.7917 4.6496 46.6959 4.44689C45.4046 1.73021 42.8125 0.0239027 39.751 0.0175181C29.0375 -0.00642447 18.324 -0.00642447 7.61213 0.0191142C4.26177 0.0270951 1.32322 2.29525 0.346369 5.50515C0.213887 5.93931 0.114924 6.38464 0 6.82358V8.14042C0.351157 8.58416 0.814046 8.68312 1.36313 8.67993H2.15483C5.75419 8.66716 9.35355 8.67195 12.9513 8.67195H13.7175C13.7175 9.04865 13.7159 10.0798 13.7143 11.2737C13.7127 12.6688 13.7127 14.2873 13.7159 15.3407C13.7143 15.4221 13.7159 15.5051 13.7159 15.5866C13.7143 24.565 13.7143 33.5435 13.7191 42.5203C13.7191 42.9976 13.7255 43.4844 13.8069 43.9521C14.15 45.8882 15.0886 47.5051 16.4294 48.6512C17.8132 49.8308 19.6249 50.5091 21.6584 50.5091C25.8196 50.5091 29.9824 50.5091 34.1437 50.5091C40.5746 50.5091 47.0072 50.5187 53.4381 50.5044C57.1061 50.498 60.265 47.8451 61.0072 44.4453C61.1109 43.9633 61.1684 43.4652 61.17 42.9593C61.1748 42.2139 60.8763 41.8675 60.1564 41.8531V41.8547ZM58.0623 32.2075C58.2219 32.2075 58.3831 32.1947 58.5395 32.2154C59.0375 32.2809 59.3376 32.5634 59.3727 33.0726C59.4046 33.5435 59.0439 33.9249 58.5299 33.9824C58.3528 34.0016 58.1724 33.9888 57.992 33.9888C54.3911 33.9888 50.7901 33.9888 47.1891 33.9888C43.5882 33.9888 40.0654 33.9888 36.5044 33.9888C36.3256 33.9888 36.1437 34.0047 35.9681 33.9776C35.4701 33.8978 35.1604 33.5945 35.1652 33.0917C35.1684 32.5921 35.4765 32.2889 35.9777 32.217C36.1341 32.1947 36.2953 32.2075 36.4533 32.2075H58.0623ZM54.0303 25.328H54.0447C55.0838 25.3296 55.8212 25.5945 56.2841 26.1404C56.6832 26.6113 56.8795 27.2881 56.8795 28.1883V30.3894H37.7015C37.7015 29.3391 37.6089 28.3016 37.7271 27.2881C37.8579 26.1676 38.7773 25.4381 39.9042 25.3471C40.1612 25.3264 40.4214 25.328 40.68 25.328C45.1301 25.328 49.5802 25.3264 54.0303 25.328ZM47.759 7.31201C48.1437 7.34394 48.5203 7.42853 48.8811 7.55303C49.3041 7.69988 49.7047 7.90419 50.075 8.15639C51.0104 8.79645 51.743 9.74617 52.0782 10.8507C52.6752 12.8284 52.0782 15.0087 50.4198 16.2123C49.5898 16.8156 49.4828 17.4429 49.6409 18.3527C49.9314 20.0351 50.1245 21.735 50.3671 23.5004H44.174C44.3192 22.4182 44.4565 21.3759 44.5986 20.3352C44.7087 19.5259 44.7805 18.7071 44.9513 17.9106C45.1077 17.1907 44.8444 16.7741 44.2745 16.3607C42.3001 14.9241 41.6871 12.3 42.7614 10.1069C43.6824 8.22821 45.6472 7.12845 47.759 7.31201ZM1.98723 6.84593C1.7095 4.78049 4.3767 2.19789 7.14126 1.83555C8.39904 1.67115 9.65523 1.97921 10.7263 2.61768C12.2219 3.50994 13.3504 5.04545 13.5962 6.84593H1.98723ZM20.0303 48.5283C17.7638 47.9489 16.1915 46.3096 15.6856 44.083C15.569 43.5754 15.51 43.0375 15.5084 42.4756C15.5036 33.644 15.5068 24.8108 15.5036 15.9792C15.51 15.0694 15.5196 13.1077 15.5196 11.2737C15.518 9.63284 15.5116 8.09573 15.4892 7.50834C15.4174 5.62805 14.7534 3.99198 13.5227 2.61289C13.4046 2.482 13.2849 2.35271 13.1572 2.22662C13.0519 2.12127 12.9545 2.00634 12.7965 1.83236C12.9769 1.81959 13.0694 1.80682 13.1604 1.80682C22.0607 1.80682 30.9625 1.7765 39.8627 1.82757C41.0503 1.83396 42.0782 2.14521 42.9449 2.71504C43.842 3.30403 44.5682 4.17075 45.1221 5.26892C45.1987 5.42055 45.237 5.59134 45.2865 5.7318C45.2275 5.78288 45.2147 5.80204 45.1971 5.80842C42.2921 6.80603 40.7071 9.21784 40.4773 11.7318C40.431 12.241 40.4405 12.7549 40.506 13.2625C40.7199 14.905 41.5196 16.4788 42.9226 17.6073C43.0359 17.6999 43.1237 17.9122 43.1093 18.0574C43.0551 18.6081 42.9545 19.154 42.8651 19.7494H29.4637C26.2586 19.7494 23.0519 19.7462 19.8468 19.751C19.2243 19.7526 18.8508 20.0798 18.8284 20.6033C18.8061 21.1492 19.1955 21.5163 19.8308 21.5435C19.9904 21.5498 20.15 21.5451 20.3081 21.5451H42.6049C42.5762 21.8036 42.5571 22 42.5347 22.1947C42.4347 23.0864 41.9388 23.5318 41.0471 23.5307C40.0287 23.5259 39.0215 23.5211 38.0782 24.0239C37.7654 24.1915 37.3727 24.2857 37.0168 24.2873C31.4206 24.3032 25.826 24.2984 20.2298 24.2984C20.0303 24.2984 19.8292 24.2825 19.6329 24.3096C19.1301 24.3799 18.8364 24.6831 18.8332 25.1907C18.83 25.7015 19.1301 26 19.6265 26.083C19.8005 26.1117 19.984 26.0941 20.1628 26.0941H36.0638C35.9617 27.0582 35.8691 27.9393 35.7717 28.8507H35.0583C30.1006 28.8507 25.1429 28.8507 20.1836 28.8507C19.9856 28.8507 19.7813 28.8316 19.5882 28.8683C19.1205 28.9561 18.838 29.2482 18.8332 29.7318C18.8268 30.241 19.1141 30.5474 19.6121 30.6336C19.7861 30.664 19.9697 30.6448 20.1484 30.6448H34.9082C33.7638 31.3376 33.3456 32.2362 33.3424 33.403H32.6145C28.4517 33.403 24.2905 33.403 20.1293 33.4046C19.9298 33.4046 19.7223 33.3838 19.5355 33.4333C19.079 33.5514 18.8109 33.8563 18.8332 34.3415C18.8555 34.8252 19.1365 35.1109 19.6089 35.1859C19.8037 35.2162 20.0064 35.1987 20.2059 35.1987C24.7454 35.1987 29.2849 35.1971 33.826 35.2035C34.075 35.2051 34.3256 35.2705 34.5714 35.3296C35.1796 35.4732 35.7829 35.7526 36.3911 35.7637C39.2578 35.81 42.1261 35.7845 44.9928 35.7845H45.6393V41.8467H28.7789C28.0335 41.8467 27.6872 41.9393 27.5211 42.3208C27.4381 42.5123 27.3982 42.7773 27.3775 43.1412C27.1684 46.8124 23.5882 49.4381 20.0303 48.5267V48.5283ZM59.1955 44.1947C59.1732 44.2809 59.1508 44.3655 59.1253 44.4501C58.3687 46.9992 56.067 48.7103 53.312 48.7119C44.5507 48.7182 35.7893 48.715 27.0279 48.7135C26.8795 48.7135 26.7294 48.6991 26.4358 48.6847C28.016 47.2817 28.8699 45.6153 29.17 43.644H30.0016C35.2642 43.644 42.7933 43.644 49.4701 43.6424C52.4948 43.6424 55.3456 43.6424 57.7287 43.6408C57.9058 43.6408 58.1117 43.6664 58.2825 43.6408C58.6113 43.6392 58.9449 43.6376 59.2881 43.6376C59.2466 43.8882 59.2338 44.0447 59.1955 44.1947Z" fill="black"/>
<path d="M24.0845 10.7885C26.3925 10.7917 28.7006 10.7885 31.0086 10.7885C33.3167 10.7885 35.6248 10.7917 37.9328 10.7869C38.6048 10.7853 38.9719 10.4613 38.9735 9.9042C38.9751 9.35512 38.5968 9.02152 37.9424 8.99438C37.9025 8.99438 37.8626 8.99438 37.8227 8.99438C33.2465 8.99438 28.6702 8.99438 24.094 8.99438C23.3343 8.99438 22.9352 9.31202 22.9336 9.89462C22.9304 10.482 23.3167 10.7869 24.086 10.7885H24.0845Z" fill="black"/>
<path d="M33.8555 39.6313C34.2897 39.4844 34.5387 39.1125 34.3918 38.7007C34.2849 38.4006 33.9513 38.1612 33.6735 37.9537C33.557 37.8659 33.3256 37.9281 33.1468 37.9281C30.9776 37.9281 28.81 37.9281 26.6408 37.9281C24.9696 37.9281 23.2984 37.9281 21.6272 37.9281C20.9904 37.9281 20.3535 37.9218 19.7166 37.9329C19.2043 37.9425 18.8994 38.2187 18.8371 38.7278C18.7781 39.2131 19.0941 39.6057 19.6049 39.6983C19.7597 39.727 19.9225 39.7222 20.0806 39.7222C24.4381 39.7222 28.7956 39.7238 33.1532 39.7191C33.3878 39.7191 33.6368 39.7047 33.8555 39.6313Z" fill="black"/>
</svg>
