<svg width="96" height="113" viewBox="0 0 96 113" fill="none" xmlns="http://www.w3.org/2000/svg">
<g clip-path="url(#clip0_930_2216)">
<g filter="url(#filter0_d_930_2216)">
<mask id="path-1-inside-1_930_2216" fill="white">
<path fill-rule="evenodd" clip-rule="evenodd" d="M3.05425 106.708C3.59335 106.932 4.17115 107.048 4.75467 107.048H84.7356C85.914 107.048 87.0442 106.577 87.8775 105.739C88.7108 104.9 89.179 103.763 89.179 102.577L89.1793 80.3003C89.1793 79.5652 88.4092 79.0765 87.7167 79.3234C85.7533 80.0234 83.6649 80.3213 81.575 80.1929C78.9571 80.0322 76.422 79.2078 74.2057 77.7965C71.9894 76.3851 70.1639 74.4327 68.8989 72.1208C67.6339 69.8089 66.9705 67.2126 66.9705 64.5734C66.9705 61.9343 67.6339 59.338 68.8989 57.0261C70.1639 54.7142 71.9894 52.7618 74.2057 51.3504C76.422 49.9391 78.9571 49.1147 81.575 48.9539C83.6649 48.8256 85.7533 49.1235 87.7167 49.8235C88.4092 50.0704 89.1793 49.5817 89.1793 48.8466L89.179 26.5697C89.179 25.384 88.7108 24.2467 87.8775 23.4083C87.0442 22.5698 85.914 22.0988 84.7356 22.0988L60.3762 22.0991C59.6432 22.0991 59.1547 21.3331 59.3988 20.6419C60.0982 18.6621 60.396 16.5555 60.2681 14.4476C60.1084 11.8133 59.2891 9.26254 57.8865 7.03247C56.4838 4.8024 54.5435 2.96549 52.2459 1.69263C49.9482 0.419765 47.368 -0.247711 44.7452 -0.247711C42.1223 -0.247711 39.5421 0.419765 37.2445 1.69263C34.9469 2.96549 33.0065 4.8024 31.6039 7.03247C30.2013 9.26254 29.382 11.8133 29.2222 14.4476C29.0943 16.5555 29.3921 18.6621 30.0915 20.6419C30.3357 21.3331 29.8471 22.0991 29.1141 22.0991L4.75476 22.0988C4.17123 22.0988 3.59342 22.2144 3.05431 22.4391C2.5152 22.6638 2.02535 22.9931 1.61274 23.4083C1.20012 23.8235 0.872816 24.3164 0.649514 24.8588C0.426211 25.4013 0.311284 25.9827 0.311292 26.5698L0.311561 49.3547C1.59809 49.0074 2.95058 48.8221 4.34608 48.8221C12.921 48.8221 19.8724 55.8167 19.8724 64.445C19.8724 73.0732 12.921 80.0678 4.34608 80.0678C2.95059 80.0678 1.59809 79.8826 0.311564 79.5352L0.311279 102.577C0.311273 103.164 0.426201 103.746 0.6495 104.288C0.872798 104.83 1.2001 105.323 1.6127 105.739C2.02531 106.154 2.51515 106.483 3.05425 106.708Z"/>
</mask>
<path fill-rule="evenodd" clip-rule="evenodd" d="M3.05425 106.708C3.59335 106.932 4.17115 107.048 4.75467 107.048H84.7356C85.914 107.048 87.0442 106.577 87.8775 105.739C88.7108 104.9 89.179 103.763 89.179 102.577L89.1793 80.3003C89.1793 79.5652 88.4092 79.0765 87.7167 79.3234C85.7533 80.0234 83.6649 80.3213 81.575 80.1929C78.9571 80.0322 76.422 79.2078 74.2057 77.7965C71.9894 76.3851 70.1639 74.4327 68.8989 72.1208C67.6339 69.8089 66.9705 67.2126 66.9705 64.5734C66.9705 61.9343 67.6339 59.338 68.8989 57.0261C70.1639 54.7142 71.9894 52.7618 74.2057 51.3504C76.422 49.9391 78.9571 49.1147 81.575 48.9539C83.6649 48.8256 85.7533 49.1235 87.7167 49.8235C88.4092 50.0704 89.1793 49.5817 89.1793 48.8466L89.179 26.5697C89.179 25.384 88.7108 24.2467 87.8775 23.4083C87.0442 22.5698 85.914 22.0988 84.7356 22.0988L60.3762 22.0991C59.6432 22.0991 59.1547 21.3331 59.3988 20.6419C60.0982 18.6621 60.396 16.5555 60.2681 14.4476C60.1084 11.8133 59.2891 9.26254 57.8865 7.03247C56.4838 4.8024 54.5435 2.96549 52.2459 1.69263C49.9482 0.419765 47.368 -0.247711 44.7452 -0.247711C42.1223 -0.247711 39.5421 0.419765 37.2445 1.69263C34.9469 2.96549 33.0065 4.8024 31.6039 7.03247C30.2013 9.26254 29.382 11.8133 29.2222 14.4476C29.0943 16.5555 29.3921 18.6621 30.0915 20.6419C30.3357 21.3331 29.8471 22.0991 29.1141 22.0991L4.75476 22.0988C4.17123 22.0988 3.59342 22.2144 3.05431 22.4391C2.5152 22.6638 2.02535 22.9931 1.61274 23.4083C1.20012 23.8235 0.872816 24.3164 0.649514 24.8588C0.426211 25.4013 0.311284 25.9827 0.311292 26.5698L0.311561 49.3547C1.59809 49.0074 2.95058 48.8221 4.34608 48.8221C12.921 48.8221 19.8724 55.8167 19.8724 64.445C19.8724 73.0732 12.921 80.0678 4.34608 80.0678C2.95059 80.0678 1.59809 79.8826 0.311564 79.5352L0.311279 102.577C0.311273 103.164 0.426201 103.746 0.6495 104.288C0.872798 104.83 1.2001 105.323 1.6127 105.739C2.02531 106.154 2.51515 106.483 3.05425 106.708Z" fill="white"/>
<path d="M87.8775 105.739L87.1683 105.034L87.1682 105.034L87.8775 105.739ZM89.179 102.577L90.179 102.577L89.179 102.577ZM89.1793 80.3003L88.1793 80.3003V80.3003L89.1793 80.3003ZM87.7167 79.3234L88.0526 80.2653L88.0526 80.2653L87.7167 79.3234ZM81.5751 80.1929L81.6363 79.1948L81.5751 80.1929ZM74.2057 77.7965L73.6686 78.64L74.2057 77.7965ZM68.8989 72.1208L69.7761 71.6408V71.6408L68.8989 72.1208ZM68.8989 57.0261L69.7761 57.5061V57.5061L68.8989 57.0261ZM81.5751 48.9539L81.6363 49.9521L81.5751 48.9539ZM87.7167 49.8235L87.3809 50.7654L87.7167 49.8235ZM89.1793 48.8466L88.1793 48.8466V48.8466L89.1793 48.8466ZM89.179 26.5697L90.179 26.5697L89.179 26.5697ZM87.8775 23.4083L88.5868 22.7034L87.8775 23.4083ZM84.7356 22.0988L84.7356 21.0988H84.7355L84.7356 22.0988ZM60.3762 22.0991L60.3762 21.0991L60.3762 22.0991ZM59.3988 20.6419L60.3417 20.975L60.3417 20.975L59.3988 20.6419ZM60.2681 14.4476L59.27 14.5081V14.5081L60.2681 14.4476ZM57.8864 7.03247L57.04 7.56487V7.56487L57.8864 7.03247ZM52.2459 1.69263L51.7613 2.56737L52.2459 1.69263ZM37.2445 1.69263L37.7291 2.56737L37.2445 1.69263ZM31.6039 7.03247L30.7574 6.50006L30.7574 6.50006L31.6039 7.03247ZM29.2222 14.4476L30.2204 14.5081L29.2222 14.4476ZM30.0915 20.6419L31.0344 20.3088V20.3088L30.0915 20.6419ZM29.1141 22.0991L29.1141 21.0991H29.1141L29.1141 22.0991ZM4.75476 22.0988L4.75474 23.0988H4.75474L4.75476 22.0988ZM1.61274 23.4083L0.903443 22.7034L0.903442 22.7034L1.61274 23.4083ZM0.311292 26.5698L1.31129 26.5698V26.5698L0.311292 26.5698ZM0.311561 49.3547L-0.688439 49.3548L-0.688423 50.6606L0.572245 50.3202L0.311561 49.3547ZM0.311564 79.5352L0.572248 78.5698L-0.68842 78.2294L-0.688436 79.5352L0.311564 79.5352ZM0.311279 102.577L-0.688721 102.577L0.311279 102.577ZM0.6495 104.288L-0.275218 104.669L0.6495 104.288ZM1.6127 105.739L2.322 105.034L1.6127 105.739ZM4.75467 106.048C4.30334 106.048 3.85628 105.959 3.43897 105.785L2.66954 107.631C3.33042 107.906 4.03897 108.048 4.75467 108.048V106.048ZM84.7356 106.048H4.75467V108.048H84.7356V106.048ZM87.1682 105.034C86.522 105.684 85.6468 106.048 84.7356 106.048V108.048C86.1813 108.048 87.5665 107.47 88.5868 106.444L87.1682 105.034ZM88.179 102.577C88.179 103.5 87.8147 104.383 87.1683 105.034L88.5868 106.444C89.607 105.417 90.179 104.026 90.179 102.577L88.179 102.577ZM88.1793 80.3003L88.179 102.577L90.179 102.577L90.1793 80.3003L88.1793 80.3003ZM88.0526 80.2653C88.0853 80.2536 88.1251 80.2574 88.1589 80.2795C88.1739 80.2894 88.1792 80.2978 88.1798 80.2988C88.18 80.2991 88.1796 80.2984 88.1792 80.2971C88.1788 80.2956 88.1793 80.2963 88.1793 80.3003L90.1793 80.3003C90.1793 78.7978 88.6511 77.9285 87.3809 78.3815L88.0526 80.2653ZM81.5138 81.1911C83.7388 81.3277 85.9624 81.0105 88.0526 80.2653L87.3809 78.3814C85.5443 79.0363 83.5909 79.3148 81.6363 79.1948L81.5138 81.1911ZM73.6686 78.64C76.0276 80.1422 78.7263 81.0199 81.5138 81.1911L81.6363 79.1948C79.1878 79.0445 76.8165 78.2734 74.7429 76.953L73.6686 78.64ZM68.0216 72.6008C69.3673 75.0601 71.3096 77.1378 73.6686 78.64L74.7429 76.953C72.6692 75.6325 70.9605 73.8052 69.7761 71.6408L68.0216 72.6008ZM65.9705 64.5734C65.9705 67.3801 66.6759 70.1415 68.0216 72.6008L69.7761 71.6408C68.5918 69.4762 67.9705 67.0451 67.9705 64.5734H65.9705ZM68.0216 56.5461C66.6759 59.0054 65.9705 61.7668 65.9705 64.5734H67.9705C67.9705 62.1018 68.5918 59.6706 69.7761 57.5061L68.0216 56.5461ZM73.6686 50.5069C71.3096 52.0091 69.3673 54.0868 68.0216 56.5461L69.7761 57.5061C70.9605 55.3416 72.6692 53.5144 74.7429 52.1939L73.6686 50.5069ZM81.5138 47.9558C78.7263 48.127 76.0276 49.0047 73.6686 50.5069L74.7429 52.1939C76.8165 50.8735 79.1878 50.1024 81.6363 49.9521L81.5138 47.9558ZM88.0526 48.8816C85.9624 48.1364 83.7388 47.8192 81.5138 47.9558L81.6363 49.9521C83.5909 49.832 85.5443 50.1106 87.3809 50.7654L88.0526 48.8816ZM88.1793 48.8466C88.1793 48.8506 88.1788 48.8512 88.1792 48.8498C88.1796 48.8485 88.18 48.8478 88.1798 48.8481C88.1792 48.8491 88.1739 48.8575 88.1589 48.8673C88.1251 48.8895 88.0853 48.8933 88.0526 48.8816L87.3809 50.7654C88.6511 51.2184 90.1793 50.3491 90.1793 48.8466L88.1793 48.8466ZM88.179 26.5697L88.1793 48.8466L90.1793 48.8466L90.179 26.5697L88.179 26.5697ZM87.1682 24.1132C87.8147 24.7637 88.179 25.6472 88.179 26.5698L90.179 26.5697C90.179 25.1207 89.607 23.7298 88.5868 22.7034L87.1682 24.1132ZM84.7356 23.0988C85.6468 23.0988 86.522 23.4629 87.1682 24.1132L88.5868 22.7034C87.5664 21.6767 86.1812 21.0988 84.7356 21.0988L84.7356 23.0988ZM60.3762 23.0991L84.7356 23.0988L84.7355 21.0988L60.3762 21.0991L60.3762 23.0991ZM58.4559 20.3088C58.0073 21.5787 58.8786 23.0991 60.3762 23.0991L60.3762 21.0991C60.3722 21.0991 60.3716 21.0986 60.373 21.099C60.3743 21.0993 60.375 21.0997 60.3748 21.0996C60.3738 21.0991 60.3656 21.0939 60.3559 21.0792C60.3341 21.0462 60.3303 21.0072 60.3417 20.975L58.4559 20.3088ZM59.27 14.5081C59.3897 16.4822 59.1108 18.455 58.4559 20.3088L60.3417 20.975C61.0856 18.8692 61.4023 16.6288 61.2663 14.387L59.27 14.5081ZM57.04 7.56487C58.3531 9.65262 59.1203 12.0411 59.27 14.5081L61.2663 14.387C61.0964 11.5856 60.2251 8.87246 58.7329 6.50006L57.04 7.56487ZM51.7613 2.56737C53.9108 3.75822 55.7269 5.47716 57.04 7.56487L58.7329 6.50006C57.2408 4.12763 55.1761 2.17277 52.7305 0.817893L51.7613 2.56737ZM44.7452 0.752289C47.1982 0.752289 49.6117 1.37654 51.7613 2.56737L52.7305 0.817893C50.2848 -0.537006 47.5378 -1.24771 44.7452 -1.24771V0.752289ZM37.7291 2.56737C39.8786 1.37654 42.2921 0.752289 44.7452 0.752289V-1.24771C41.9525 -1.24771 39.2056 -0.537005 36.7599 0.817893L37.7291 2.56737ZM32.4504 7.56487C33.7634 5.47717 35.5795 3.75822 37.7291 2.56737L36.7599 0.817893C34.3142 2.17277 32.2495 4.12763 30.7574 6.50006L32.4504 7.56487ZM30.2204 14.5081C30.37 12.0411 31.1373 9.65261 32.4504 7.56487L30.7574 6.50006C29.2652 8.87246 28.3939 11.5856 28.224 14.387L30.2204 14.5081ZM31.0344 20.3088C30.3795 18.455 30.1006 16.4822 30.2204 14.5081L28.224 14.387C28.0881 16.6288 28.4047 18.8692 29.1486 20.975L31.0344 20.3088ZM29.1141 23.0991C30.6118 23.0991 31.483 21.5787 31.0344 20.3088L29.1486 20.975C29.16 21.0072 29.1562 21.0462 29.1344 21.0792C29.1247 21.0939 29.1165 21.0991 29.1156 21.0996C29.1153 21.0997 29.116 21.0993 29.1173 21.099C29.1187 21.0986 29.1181 21.0991 29.1141 21.0991L29.1141 23.0991ZM4.75474 23.0988L29.1141 23.0991L29.1141 21.0991L4.75477 21.0988L4.75474 23.0988ZM3.43901 23.3621C3.85634 23.1882 4.3034 23.0988 4.75474 23.0988L4.75477 21.0988C4.03906 21.0988 3.3305 21.2406 2.6696 21.5161L3.43901 23.3621ZM2.32203 24.1132C2.64207 23.7912 3.02167 23.5361 3.43901 23.3621L2.6696 21.5161C2.00872 21.7915 1.40863 22.1951 0.903443 22.7034L2.32203 24.1132ZM1.57423 25.2395C1.74777 24.8179 2.00198 24.4353 2.32203 24.1132L0.903442 22.7034C0.398265 23.2117 -0.00213906 23.8148 -0.275202 24.4782L1.57423 25.2395ZM1.31129 26.5698C1.31129 26.1131 1.40068 25.6611 1.57423 25.2395L-0.275202 24.4782C-0.548261 25.1415 -0.688717 25.8522 -0.688708 26.5699L1.31129 26.5698ZM1.31156 49.3547L1.31129 26.5698L-0.688708 26.5699L-0.688439 49.3548L1.31156 49.3547ZM0.572245 50.3202C1.77458 49.9955 3.03945 49.8221 4.34608 49.8221V47.8221C2.86172 47.8221 1.4216 48.0192 0.050877 48.3893L0.572245 50.3202ZM4.34608 49.8221C12.3629 49.8221 18.8724 56.3631 18.8724 64.445H20.8724C20.8724 55.2703 13.4792 47.8221 4.34608 47.8221V49.8221ZM18.8724 64.445C18.8724 72.5268 12.3629 79.0678 4.34608 79.0678V81.0678C13.4792 81.0678 20.8724 73.6197 20.8724 64.445H18.8724ZM4.34608 79.0678C3.03945 79.0678 1.77459 78.8944 0.572248 78.5698L0.0508795 80.5006C1.4216 80.8707 2.86172 81.0678 4.34608 81.0678V79.0678ZM1.31128 102.577L1.31156 79.5352L-0.688436 79.5352L-0.688721 102.577L1.31128 102.577ZM1.57422 103.907C1.40067 103.486 1.31127 103.034 1.31128 102.577L-0.688721 102.577C-0.688729 103.295 -0.548271 104.005 -0.275218 104.669L1.57422 103.907ZM2.322 105.034C2.00196 104.712 1.74776 104.329 1.57422 103.907L-0.275218 104.669C-0.00216067 105.332 0.398234 105.935 0.903406 106.443L2.322 105.034ZM3.43897 105.785C3.02163 105.611 2.64203 105.356 2.322 105.034L0.903406 106.443C1.40859 106.952 2.00867 107.355 2.66954 107.631L3.43897 105.785Z" fill="#333333" mask="url(#path-1-inside-1_930_2216)"/>
</g>
</g>
<defs>
<filter id="filter0_d_930_2216" x="0.311279" y="-0.247711" width="94.8679" height="111.296" filterUnits="userSpaceOnUse" color-interpolation-filters="sRGB">
<feFlood flood-opacity="0" result="BackgroundImageFix"/>
<feColorMatrix in="SourceAlpha" type="matrix" values="0 0 0 0 0 0 0 0 0 0 0 0 0 0 0 0 0 0 127 0" result="hardAlpha"/>
<feOffset dx="6" dy="4"/>
<feColorMatrix type="matrix" values="0 0 0 0 0.667639 0 0 0 0 0.870833 0 0 0 0 0.87025 0 0 0 1 0"/>
<feBlend mode="normal" in2="BackgroundImageFix" result="effect1_dropShadow_930_2216"/>
<feBlend mode="normal" in="SourceGraphic" in2="effect1_dropShadow_930_2216" result="shape"/>
</filter>
<clipPath id="clip0_930_2216">
<rect width="96" height="113" fill="white"/>
</clipPath>
</defs>
</svg>
