<svg width="146" height="139" viewBox="0 0 146 139" fill="none" xmlns="http://www.w3.org/2000/svg">
<g clip-path="url(#clip0_930_2222)">
<g filter="url(#filter0_d_930_2222)">
<path d="M54.8701 127.479C54.3024 127.631 53.7104 127.67 53.1278 127.594C52.5453 127.517 51.9835 127.327 51.4747 127.034C50.9659 126.74 50.5199 126.349 50.1624 125.884C49.8048 125.418 49.5425 124.887 49.3906 124.32L43.6251 102.801C43.4352 102.093 42.5672 101.819 41.9627 102.235C40.2309 103.428 38.2721 104.263 36.2011 104.684C33.6128 105.212 30.9333 105.076 28.4121 104.291C25.8909 103.506 23.6097 102.096 21.7809 100.193C19.952 98.29 18.6349 95.9556 17.952 93.4069C17.269 90.8581 17.2425 88.1779 17.8749 85.6154C18.5072 83.053 19.7779 80.6916 21.5687 78.7509C23.3595 76.8102 25.6123 75.3533 28.1174 74.5156C30.1218 73.8454 32.2357 73.589 34.3315 73.7557C35.0631 73.8138 35.6782 73.1432 35.4882 72.4343L29.7222 50.9163C29.5703 50.3493 29.5317 49.7578 29.6085 49.1758C29.6854 48.5937 29.8762 48.0324 30.1702 47.5238C30.4641 47.0153 30.8554 46.5696 31.3217 46.2121C31.788 45.8546 32.3202 45.5923 32.8879 45.4402L56.5908 39.0893C57.3001 38.8992 57.5732 38.0306 57.1565 37.426C55.9649 35.697 55.1308 33.7413 54.7099 31.6734C54.1837 29.0877 54.3206 26.4108 55.108 23.8915C55.8954 21.3722 57.3077 19.0925 59.2134 17.2643C61.1192 15.4362 63.4565 14.119 66.008 13.4353C68.5595 12.7516 71.2423 12.7237 73.8068 13.354C76.3713 13.9844 78.7342 15.2526 80.6757 17.0407C82.6173 18.8287 84.0744 21.0786 84.9115 23.5809C85.5809 25.5822 85.8364 27.693 85.669 29.7861C85.6104 30.518 86.2812 31.1338 86.9905 30.9437L110.693 24.5923C111.84 24.2851 113.061 24.4454 114.089 25.0379C115.116 25.6305 115.866 26.6067 116.173 27.7518L121.939 49.2699C122.129 49.9788 121.514 50.6494 120.782 50.5913C118.686 50.4247 116.572 50.681 114.568 51.3512C112.063 52.1889 109.81 53.6458 108.019 55.5865C106.228 57.5272 104.958 59.8886 104.325 62.4511C103.693 65.0135 103.72 67.6937 104.403 70.2425C105.086 72.7912 106.403 75.1256 108.232 77.0286C110.06 78.9316 112.341 80.3413 114.863 81.1265C117.384 81.9118 120.063 82.0472 122.652 81.52C124.723 81.0983 126.682 80.2633 128.413 79.0711C129.018 78.6549 129.886 78.9282 130.076 79.6371L135.841 101.155C136.148 102.3 135.987 103.521 135.393 104.548C134.8 105.575 133.822 106.324 132.676 106.631L54.8701 127.479Z" fill="white"/>
<path d="M54.7407 126.996C54.2364 127.131 53.7105 127.166 53.1929 127.098C52.6754 127.03 52.1764 126.861 51.7245 126.6C51.2725 126.34 50.8765 125.993 50.5589 125.579C50.2413 125.166 50.0085 124.694 49.8735 124.19L44.1081 102.672C43.819 101.593 42.5366 101.233 41.6792 101.824C40.0026 102.978 38.1063 103.786 36.1013 104.194C33.5955 104.705 31.0016 104.574 28.5608 103.814C26.12 103.053 23.9118 101.689 22.1414 99.8465C20.371 98.0044 19.096 95.7446 18.4349 93.2774C17.7738 90.8103 17.7482 88.2157 18.3603 85.7352C18.9724 83.2547 20.2025 80.9687 21.9361 79.09C23.6698 77.2112 25.8507 75.8008 28.276 74.9898C30.2165 74.341 32.2629 74.0928 34.2919 74.2541C35.3296 74.3366 36.2603 73.3836 35.9712 72.3049L30.2052 50.7869C30.0703 50.2834 30.036 49.7581 30.1042 49.2412C30.1725 48.7243 30.342 48.2257 30.6031 47.7741C30.8641 47.3224 31.2117 46.9265 31.626 46.6089C32.0402 46.2913 32.513 46.0583 33.0173 45.9231L56.7202 39.5722C57.7995 39.2831 58.1591 37.9996 57.5682 37.1422C56.4147 35.4686 55.6073 33.5754 55.1999 31.5737C54.6905 29.0708 54.823 26.4794 55.5853 24.0407C56.3475 21.6019 57.7146 19.395 59.5596 17.6251C61.4045 15.8553 63.6673 14.5801 66.1374 13.9183C68.6076 13.2564 71.2048 13.2293 73.6874 13.8396C76.1701 14.4498 78.4575 15.6775 80.337 17.4084C82.2165 19.1394 83.627 21.3172 84.4373 23.7395C85.0853 25.6768 85.3327 27.7201 85.1706 29.7462C85.0875 30.7842 86.0406 31.7159 87.1199 31.4267L110.823 25.0752C111.841 24.8023 112.926 24.9448 113.839 25.4711C114.752 25.9974 115.417 26.8644 115.69 27.8813L121.456 49.3993C121.547 49.7384 121.247 50.1267 120.822 50.0928C118.659 49.9209 116.478 50.1855 114.409 50.877C111.824 51.7414 109.5 53.2448 107.652 55.2475C105.804 57.2501 104.493 59.6869 103.84 62.3313C103.187 64.9756 103.215 67.7416 103.92 70.3719C104.624 73.0022 105.984 75.4112 107.871 77.3751C109.758 79.3389 112.112 80.7936 114.714 81.6039C117.316 82.4143 120.081 82.5539 122.752 82.01C124.889 81.5747 126.91 80.7132 128.697 79.483C129.048 79.2409 129.502 79.4274 129.593 79.7665L135.358 101.285C135.631 102.302 135.488 103.385 134.96 104.297C134.433 105.21 133.565 105.875 132.546 106.148L54.7407 126.996Z" stroke="#333333"/>
</g>
</g>
<defs>
<filter id="filter0_d_930_2222" x="17.4194" y="12.9011" width="124.574" height="118.731" filterUnits="userSpaceOnUse" color-interpolation-filters="sRGB">
<feFlood flood-opacity="0" result="BackgroundImageFix"/>
<feColorMatrix in="SourceAlpha" type="matrix" values="0 0 0 0 0 0 0 0 0 0 0 0 0 0 0 0 0 0 127 0" result="hardAlpha"/>
<feOffset dx="6" dy="4"/>
<feColorMatrix type="matrix" values="0 0 0 0 0.667639 0 0 0 0 0.870833 0 0 0 0 0.87025 0 0 0 1 0"/>
<feBlend mode="normal" in2="BackgroundImageFix" result="effect1_dropShadow_930_2222"/>
<feBlend mode="normal" in="SourceGraphic" in2="effect1_dropShadow_930_2222" result="shape"/>
</filter>
<clipPath id="clip0_930_2222">
<rect width="119.922" height="111.745" fill="white" transform="translate(0.313721 31.038) rotate(-15)"/>
</clipPath>
</defs>
</svg>
