<svg width="56" height="56" viewBox="0 0 56 56" fill="none" xmlns="http://www.w3.org/2000/svg">
<g clip-path="url(#clip0_3732_3091)">
<path d="M44.2326 8.21835C46.4131 10.8218 48.0838 13.8577 49.0566 17.1565C49.3622 18.1733 49.6024 19.2142 49.7719 20.2817C49.7892 20.3885 49.8039 20.4952 49.8199 20.602C49.8359 20.7048 49.8506 20.8075 49.8653 20.9089C49.8693 20.9369 49.8733 20.965 49.8773 20.9917C50.1322 22.7825 50.2082 24.5399 50.1028 26.2627C49.8493 30.8692 48.364 35.1741 45.5937 39.1254C45.5163 39.2402 45.4403 39.3563 45.3602 39.4711C45.2881 39.5765 45.2121 39.6752 45.1307 39.7633C45.0293 39.8994 44.9278 40.0355 44.8237 40.1703C41.4116 44.5913 37.1107 47.5485 31.9944 49.0537C31.2498 49.2779 30.4905 49.4647 29.7192 49.6168C29.0266 49.757 28.3207 49.8757 27.6001 49.9665C27.125 50.0265 26.6513 50.0866 26.1762 50.1466H23.0803C22.9989 50.1306 22.9175 50.1133 22.8361 50.0972C18.674 49.8597 14.7574 48.616 11.1263 46.3248C9.98137 45.6122 8.89514 44.8075 7.87695 43.9254C12.5475 50.619 20.3033 54.9987 29.084 54.9987C43.3572 54.9987 54.9268 43.4277 54.9268 29.1558C54.9268 20.5419 50.7113 12.9129 44.2313 8.21701L44.2326 8.21835Z" fill="#AADEDE"/>
<path d="M50.8757 21.993C50.8731 21.965 50.8677 21.9369 50.8651 21.9089C50.849 21.8075 50.8357 21.7048 50.8184 21.602C50.8037 21.4952 50.789 21.3885 50.7716 21.2817C50.6022 20.2155 50.362 19.1733 50.0564 18.1565C49.0822 14.8577 47.4128 11.8218 45.2324 9.21835C43.9046 7.63302 42.3873 6.20784 40.7219 4.98015C40.6445 4.91342 40.5605 4.8507 40.4711 4.78932C40.3923 4.73461 40.3123 4.68123 40.2322 4.62785C38.2826 3.26005 36.1421 2.16046 33.8749 1.38648C31.8065 0.660546 29.6821 0.218844 27.5016 0.0640488C27.3588 0.0453665 27.2147 0.0266843 27.0706 0.0066676H26.2699C25.8909 -0.00133907 25.5093 -0.00267351 25.1263 0.0066676H23.9733C23.0205 0.137443 22.0637 0.244199 21.1163 0.401663C19.8325 0.61384 18.5768 0.931438 17.3558 1.34378C12.744 2.8824 8.68857 5.78749 5.66872 9.53461C3.37081 12.3703 1.67073 15.6931 0.79533 19.2827C0.637865 19.9206 0.50442 20.5665 0.398999 21.219C0.249541 22.1371 0.14412 23.0619 0.0200167 23.9827C0.0133445 24.016 0.00667223 24.048 0 24.0801V27.1773C0.06005 27.651 0.1201 28.1261 0.181485 28.5998C0.249541 29.1416 0.334946 29.6741 0.431026 30.2012C0.629858 31.3488 0.912761 32.4751 1.27173 33.5733C2.67289 37.953 5.1643 41.7174 8.75263 44.82C8.79399 44.856 8.83536 44.8907 8.87673 44.9268C9.89491 45.8088 10.9825 46.6135 12.1261 47.3261C15.7571 49.616 19.6737 50.861 23.8359 51.0986C23.9173 51.1146 23.9987 51.1319 24.0814 51.148H27.1773C27.6524 51.0879 28.1261 51.0279 28.6012 50.9678C29.3204 50.8757 30.0264 50.7583 30.7203 50.6168C31.4916 50.4661 32.2495 50.2779 32.9942 50.055C38.1104 48.5485 42.4113 45.5913 45.8235 41.1703C45.9276 41.0355 46.029 40.8994 46.1304 40.7633C46.2118 40.6752 46.2866 40.5751 46.3586 40.4711C46.4387 40.3563 46.5148 40.2402 46.5922 40.1254C49.3625 36.1741 50.8477 31.8692 51.1013 27.2627C51.2067 25.5399 51.1319 23.7838 50.8757 21.993ZM19.5056 2.79566C19.5336 2.78498 19.5656 2.77564 19.599 2.7663C23.597 1.73344 27.5883 1.75479 31.5756 2.80633C31.7091 2.84103 31.8839 3.05988 31.8866 3.19599C31.8919 3.58965 31.8973 3.98332 31.9026 4.37831C31.9119 5.26438 31.9133 6.15045 31.8812 7.03653C31.8746 7.202 31.8532 7.36347 31.8185 7.5196C31.8092 7.56096 31.7998 7.60233 31.7878 7.64236L31.7598 7.74245C31.7398 7.80383 31.7184 7.86388 31.6957 7.9226C31.6864 7.94662 31.6771 7.97064 31.6664 7.99332C31.6464 8.0427 31.6237 8.0894 31.5997 8.13611C31.581 8.17347 31.5623 8.21217 31.541 8.24954C31.5303 8.27089 31.5169 8.28957 31.5049 8.30959C31.2994 8.65254 31.0192 8.94345 30.6829 9.16096C30.2385 9.43986 29.6914 9.59466 29.0709 9.59733C27.8912 9.60266 26.7103 9.59733 25.5293 9.59733C24.3656 9.59733 23.2007 9.60267 22.037 9.59466C20.4424 9.58398 19.2947 8.47372 19.2614 6.8804C19.2601 6.81501 19.2601 6.74962 19.2587 6.68423C19.2387 5.53527 19.2601 4.38765 19.248 3.23869C19.2454 2.99849 19.3054 2.87172 19.5056 2.79432V2.79566ZM29.3525 15.3968C29.3458 16.8807 28.4517 18.1818 27.1853 18.793C27.172 18.7997 27.1573 18.805 27.1426 18.8117C27.1066 18.829 27.0692 18.8464 27.0332 18.8624C26.5835 19.0519 26.0911 19.1586 25.5773 19.1573C23.5103 19.1546 21.7955 17.4372 21.7995 15.3728C21.8035 13.8222 22.7616 12.4784 24.1121 11.8992C24.1148 11.8979 24.1174 11.8966 24.1214 11.8952C24.1281 11.8926 24.1348 11.8912 24.1415 11.8872C24.5885 11.7017 25.0769 11.6003 25.588 11.6017C27.6564 11.6097 29.3631 13.3298 29.3525 15.3968ZM2.76764 31.549C2.15246 29.1696 1.91359 26.7917 2.0417 24.415C2.04837 24.3256 2.05371 24.2349 2.06172 24.1455C2.18716 22.755 2.47807 21.3805 2.70092 19.9993C2.73695 19.8565 2.76897 19.7151 2.80634 19.5723C2.84237 19.4402 3.06122 19.2641 3.196 19.2627C3.44821 19.2587 3.70175 19.2547 3.95396 19.2507C4.79867 19.2547 5.64204 19.248 6.48674 19.2547C6.54012 19.2547 6.5935 19.2574 6.64687 19.2574C6.74562 19.26 6.84571 19.2614 6.94579 19.2654C8.53645 19.3588 9.58399 20.4664 9.59199 22.0864C9.59867 23.2674 9.59333 24.4484 9.59333 25.628C9.59333 26.8077 9.6 27.9566 9.59199 29.1216C9.58532 29.9997 9.24771 30.7443 8.6779 31.2407C8.67256 31.2447 8.66722 31.25 8.66189 31.2554C8.62052 31.2914 8.57515 31.3234 8.53111 31.3555C8.50576 31.3755 8.4804 31.3968 8.45238 31.4155C8.42169 31.4369 8.38832 31.4555 8.35763 31.4756C8.31493 31.5022 8.27223 31.5289 8.22819 31.553C8.20417 31.5663 8.17748 31.5783 8.15213 31.5903C8.09875 31.6183 8.04537 31.645 7.98933 31.6691C7.96664 31.6784 7.94262 31.6864 7.91993 31.6944C7.85988 31.7184 7.79983 31.7424 7.73711 31.7611C7.71443 31.7691 7.68907 31.7745 7.66639 31.7811C7.601 31.7985 7.53695 31.8172 7.47023 31.8305C7.44754 31.8359 7.42219 31.8385 7.39817 31.8439C7.33011 31.8559 7.26072 31.8692 7.18999 31.8772C7.16864 31.8786 7.14729 31.8799 7.12727 31.8812C7.04854 31.8892 6.96981 31.8959 6.88841 31.8972C6.02636 31.9159 5.16297 31.9093 4.30092 31.9066C3.94996 31.9066 3.59767 31.9066 3.24671 31.9106C2.96914 31.9133 2.84103 31.8359 2.76764 31.549ZM31.5436 48.3816C29.3578 48.9461 27.1733 49.197 24.9875 49.1423C24.7073 49.1289 24.427 49.1116 24.1455 49.0862C22.6455 48.9515 21.1643 48.6232 19.6724 48.3937C19.3428 48.3443 19.2414 48.1922 19.2467 47.8639C19.2641 46.7002 19.2414 45.5366 19.256 44.3716C19.2747 42.8971 20.1435 41.8549 21.4832 41.6107C21.4966 41.608 21.5099 41.608 21.5233 41.6053C21.6007 41.592 21.6794 41.5813 21.7595 41.5733C21.8542 41.5653 21.9516 41.56 22.0504 41.5586C23.2314 41.5506 24.4137 41.5586 25.596 41.5586C26.7783 41.5586 27.9259 41.552 29.0909 41.5586C30.7176 41.5706 31.8626 42.6809 31.8946 44.3063C31.9186 45.5046 31.8946 46.7029 31.9053 47.9012C31.9079 48.1748 31.8359 48.3069 31.5436 48.3816ZM21.8008 35.7872C21.7942 34.1725 22.839 32.77 24.2842 32.2309C24.6846 32.0827 25.1169 32.0013 25.5666 32C27.631 31.996 29.3498 33.7094 29.3525 35.7751C29.3551 37.3912 28.3143 38.787 26.8731 39.3248C26.8304 39.3394 26.7877 39.3541 26.745 39.3675C26.7329 39.3728 26.7196 39.3768 26.7076 39.3808C26.354 39.4929 25.979 39.5543 25.5907 39.5556C23.5196 39.5596 21.8075 37.8582 21.8008 35.7872ZM47.2474 34.849C47.2167 34.9211 47.186 34.9932 47.154 35.0639C47.0939 35.1973 47.0312 35.3254 46.9618 35.4495C46.2038 36.7947 45.4259 38.1291 44.6252 39.4489C44.6012 39.4862 44.5825 39.5249 44.5625 39.5623C43.599 40.8687 42.4954 42.0724 41.2517 43.1773C40.3283 43.9967 39.3581 44.7386 38.3306 45.4005C38.3173 45.4072 38.3026 45.4138 38.2879 45.4218C37.0122 46.0984 35.7271 46.7563 34.442 47.4142C34.374 47.4409 34.3059 47.4662 34.2392 47.4929C34.1431 47.5236 34.0377 47.553 33.9136 47.593C33.9136 47.3288 33.9149 47.1553 33.9136 46.9818C33.9069 45.9837 33.9203 44.9841 33.8856 43.986C33.8509 42.9825 33.4986 42.1111 32.8927 41.3571C32.8887 41.3531 32.8861 41.3491 32.8834 41.3451C32.818 41.265 32.75 41.185 32.6792 41.1076C32.6646 41.0916 32.6512 41.0756 32.6365 41.0595C32.5938 41.0142 32.5498 40.9688 32.5058 40.9234C32.4817 40.8994 32.4564 40.8781 32.431 40.8554C32.4137 40.838 32.395 40.8207 32.3763 40.8047C31.7611 40.2295 31.0259 39.8679 30.1678 39.6557C30.1024 39.6357 30.0357 39.617 29.9676 39.597C30.0077 39.5303 30.045 39.4636 30.0824 39.3968C31.0005 38.1838 31.4555 36.8534 31.3395 35.3601C31.3128 35.0319 31.2621 34.7143 31.1887 34.4087C31.0485 33.7455 30.7723 33.1223 30.36 32.5378C30.0797 32.1321 29.7421 31.7545 29.3471 31.4102C27.5029 29.8008 24.81 29.57 22.7256 30.7656C22.7109 30.7736 22.6976 30.7817 22.6829 30.791C22.6389 30.8163 22.5935 30.843 22.5495 30.8711C22.5308 30.8817 22.5121 30.8924 22.4934 30.9044C21.3565 31.6224 20.5518 32.6218 20.1221 33.8962C19.4215 35.978 19.8672 37.8702 21.203 39.5943C19.8912 39.9133 18.8771 40.5124 18.1978 41.4279C17.616 42.1818 17.2904 43.1133 17.257 44.1808C17.2264 45.1283 17.249 46.0784 17.245 47.0272C17.2437 47.1793 17.233 47.3354 17.2224 47.5356C17.0729 47.5116 16.9208 47.4796 16.766 47.4409C15.1113 46.7723 13.5807 45.953 12.1675 44.9775C10.0337 43.3775 7.88124 41.2317 6.26255 39.0939C5.94495 38.6429 5.64737 38.1798 5.3618 37.7061C4.73595 36.6625 4.18482 35.5643 3.71777 34.398C3.67506 34.2325 3.63903 34.0711 3.61368 33.9136C3.84587 33.9136 4.00601 33.9136 4.16614 33.9123H4.51309C5.3965 33.9096 6.2799 33.9163 7.16197 33.8856C7.99199 33.8562 8.73128 33.6107 9.38916 33.1837C10.35 32.5858 11.0786 31.641 11.4148 30.4787C11.4642 30.3119 11.5149 30.1465 11.5683 29.9663C11.8018 30.1451 12.0367 30.3026 12.2716 30.444C13.3431 31.1166 14.5054 31.4382 15.7878 31.3381C16.9581 31.246 17.991 30.8537 18.8731 30.1678C18.8784 30.1638 18.8837 30.1598 18.8877 30.1558C18.8971 30.1491 18.9051 30.1425 18.9131 30.1371C19.2254 29.8996 19.5029 29.6394 19.7391 29.3658C21.55 27.2654 21.634 24.1748 19.8779 21.969C19.0158 20.8881 17.8936 20.2008 16.5418 19.9259C15.9319 19.8005 15.3435 19.7738 14.7763 19.8325C14.7643 19.8339 14.7523 19.8352 14.7403 19.8365C14.6442 19.8472 14.5481 19.8605 14.4534 19.8766C14.428 19.8806 14.404 19.8846 14.3786 19.8899C14.2972 19.9046 14.2172 19.9206 14.1371 19.9379C14.1011 19.946 14.0651 19.9553 14.029 19.9646C13.9623 19.9806 13.8956 19.998 13.8302 20.018C13.7822 20.0314 13.7341 20.046 13.6861 20.0607C13.6354 20.0767 13.586 20.0941 13.5353 20.1114C13.4726 20.1328 13.4098 20.1555 13.3471 20.1795C13.3178 20.1915 13.2884 20.2035 13.2591 20.2155C13.1763 20.2489 13.0936 20.2849 13.0122 20.3209C13.0095 20.3223 13.0082 20.3236 13.0055 20.3249C12.5091 20.5518 12.0274 20.8494 11.559 21.2163C11.5243 21.0682 11.5043 20.9788 11.4816 20.8907C10.9878 18.9651 9.53995 17.632 7.64637 17.3264C7.42752 17.2917 7.202 17.2691 6.97248 17.261C6.02502 17.2317 5.0749 17.2544 4.12611 17.2504C3.97131 17.249 3.81385 17.237 3.61234 17.225C3.63103 17.1049 3.65638 16.9821 3.68574 16.8567C4.41568 15.0365 5.32711 13.3658 6.42269 11.8379C7.91193 9.91759 9.81885 8.00533 11.7418 6.50275C13.2951 5.3698 14.9778 4.43302 16.826 3.69774C16.9688 3.66305 17.1089 3.63369 17.245 3.611V4.14879C17.249 5.13094 17.225 6.11442 17.2637 7.09524C17.2704 7.29407 17.2931 7.48757 17.3251 7.67839C17.3651 7.91993 17.4212 8.15479 17.4946 8.38165C17.4972 8.38698 17.4986 8.39232 17.4999 8.39766C17.5253 8.47106 17.5493 8.54445 17.5773 8.61651C17.7334 9.03286 17.947 9.41184 18.2165 9.75479C18.8143 10.5341 19.6604 11.1226 20.6692 11.4148C20.6826 11.4188 20.6946 11.4228 20.7066 11.4255C20.8574 11.4776 21.0122 11.5283 21.1683 11.587C20.812 12.0567 20.5344 12.5291 20.3249 12.9988C20.3129 13.0229 20.3023 13.0482 20.2902 13.0722C20.2862 13.0829 20.2822 13.0936 20.2782 13.1042C20.042 13.642 19.8926 14.2092 19.8352 14.8043C19.8325 14.839 19.8285 14.8751 19.8259 14.9098C19.8245 14.9258 19.8232 14.9404 19.8219 14.9565C19.7711 15.6344 19.8459 16.2869 20.0127 16.8927C20.0274 16.9488 20.0434 17.0035 20.0594 17.0595C20.0607 17.0622 20.0621 17.0662 20.0634 17.0702C20.2222 17.6013 20.4544 18.0951 20.7586 18.5515C21.0575 19.0132 21.4085 19.4148 21.7822 19.7378C22.9952 20.784 24.5378 21.2524 26.0497 21.1256C26.0697 21.1256 26.0884 21.1216 26.1084 21.1203C26.1551 21.1163 26.2018 21.1109 26.2485 21.1056C26.2966 21.1002 26.3433 21.0936 26.39 21.0869C26.41 21.0842 26.4314 21.0816 26.4514 21.0776C27.3455 20.9428 28.2155 20.5972 28.9748 20.0394C30.0584 19.2414 30.7963 18.1952 31.146 16.8981C31.6771 14.9298 31.1967 13.163 29.945 11.563C30.0197 11.5443 30.0917 11.5229 30.1651 11.5029C30.1972 11.4962 30.2279 11.4882 30.2572 11.4802C30.8737 11.3228 31.4289 11.0666 31.9093 10.7303C32.7259 10.1751 33.3104 9.40116 33.6427 8.38698C33.6507 8.3643 33.6574 8.34028 33.6654 8.31759C33.7188 8.14678 33.7681 7.97064 33.8068 7.78515C33.9443 7.14328 33.8962 6.46138 33.9096 5.79683C33.9189 5.40316 33.9189 5.00683 33.9176 4.59716C33.9163 4.33027 33.9149 4.05804 33.9136 3.77381C33.9189 3.70175 33.9229 3.62568 33.9283 3.53894C34.4207 3.72844 34.9024 3.92994 35.3735 4.14612C35.3988 4.15946 35.4255 4.17281 35.4509 4.18615C36.1741 4.59449 36.8947 5.00817 37.6113 5.42852C38.2265 5.78882 38.839 6.15446 39.4489 6.5241C39.4515 6.52543 39.4529 6.52543 39.4556 6.52677C40.9355 7.60633 42.2846 8.85938 43.5043 10.2926C44.2209 11.1333 44.8721 12.0113 45.4606 12.9348C46.1038 14.1491 46.7309 15.3715 47.3568 16.5952C47.4169 16.7406 47.4756 16.8874 47.533 17.0355C47.553 17.1036 47.573 17.1743 47.5997 17.2544H46.9765C46.0944 17.2584 45.211 17.233 44.3303 17.2637C44.2262 17.2664 44.1234 17.2691 44.0194 17.2731C43.7084 17.2851 43.4042 17.3304 43.1106 17.4025C43.0746 17.4105 43.0399 17.4198 43.0052 17.4279C42.9678 17.4385 42.9291 17.4492 42.8917 17.4599C42.0978 17.6827 41.4252 18.1004 40.8741 18.6982C40.8434 18.7303 40.814 18.7623 40.7847 18.7943C40.778 18.8023 40.77 18.8117 40.7633 18.8197C40.4577 19.1626 40.2015 19.551 40.004 19.9766C39.8305 20.3409 39.7184 20.7413 39.5636 21.1616C39.4756 21.1096 39.3875 21.0575 39.2994 21.0095C38.1358 20.1488 36.8267 19.7111 35.3535 19.8272C35.1893 19.8392 35.0279 19.8605 34.8691 19.8846C33.8389 20.002 32.8954 20.433 32.0454 21.1776C31.8078 21.3818 31.5823 21.606 31.3701 21.8542C29.6487 23.8599 29.5446 26.8477 31.1099 28.9735C31.9066 30.0584 32.9541 30.795 34.2499 31.1446C35.0385 31.3581 35.7952 31.4048 36.5211 31.3088C36.5251 31.3088 36.5278 31.3088 36.5318 31.3088C36.6439 31.2941 36.756 31.2754 36.8681 31.2527C36.8787 31.25 36.8907 31.2474 36.9028 31.246C37.0055 31.2247 37.1069 31.2007 37.2083 31.1726C37.227 31.1686 37.2457 31.1633 37.2644 31.158C37.3578 31.1326 37.4499 31.1046 37.5406 31.0739C37.5673 31.0646 37.5953 31.0552 37.622 31.0459C37.7021 31.0178 37.7808 30.9885 37.8609 30.9565C37.8983 30.9404 37.9369 30.9258 37.9756 30.9098C38.037 30.8831 38.0984 30.8564 38.1585 30.827C38.2159 30.8017 38.2719 30.7763 38.3279 30.7483C38.36 30.7323 38.392 30.7149 38.4227 30.6989C38.819 30.4934 39.2087 30.2465 39.5877 29.953C39.968 31.5343 40.758 32.6792 42.015 33.3331C42.4113 33.548 42.8437 33.7028 43.3108 33.7948C43.3281 33.7988 43.3455 33.8042 43.3628 33.8082C44.0047 33.9443 44.6879 33.8976 45.3525 33.9109C45.9797 33.9243 46.6068 33.9163 47.2994 33.9149C47.3942 33.9203 47.4983 33.9269 47.6184 33.9323C47.4796 34.2592 47.3661 34.5648 47.2474 34.8504V34.849ZM11.603 25.56C11.6083 24.0774 12.4944 22.7803 13.7581 22.1691C13.7781 22.1585 13.7982 22.1505 13.8182 22.1411C13.8489 22.1264 13.8809 22.1118 13.9116 22.0984C14.3586 21.9076 14.8484 21.8022 15.3621 21.7995C17.4265 21.7928 19.144 23.5009 19.152 25.5706C19.16 27.3601 17.8682 28.8934 16.1748 29.2711C16.1601 29.2751 16.1441 29.2791 16.1281 29.2817C16.1108 29.2857 16.0934 29.2884 16.0747 29.2924C15.8439 29.3364 15.6063 29.3591 15.3648 29.3578C13.2924 29.3458 11.595 27.6324 11.603 25.56ZM39.5503 25.584C39.549 27.1359 38.5868 28.4851 37.2337 29.0616C37.223 29.0656 37.2137 29.0696 37.203 29.0736C37.1603 29.0922 37.1163 29.1096 37.0709 29.1269C36.6692 29.2751 36.2369 29.3565 35.7858 29.3578C33.7201 29.3618 32.0053 27.651 32.0013 25.5813C31.9973 23.8425 33.213 22.348 34.833 21.9196C35.1346 21.8409 35.4509 21.7982 35.7751 21.7995C37.8462 21.8035 39.5516 23.5129 39.5503 25.584ZM48.3616 31.5903C48.3376 31.6864 48.3029 31.7531 48.2602 31.8025C48.1802 31.8852 48.0667 31.9119 47.9039 31.9093C46.7056 31.8986 45.5059 31.9226 44.3076 31.8999C42.6836 31.8692 41.5706 30.7256 41.56 29.0989C41.552 27.9166 41.5586 26.7343 41.5586 25.5533C41.5586 24.3723 41.552 23.222 41.56 22.057C41.5693 20.7373 42.3019 19.7351 43.4455 19.3868C43.4789 19.3775 43.5136 19.3695 43.5483 19.3615C43.599 19.3481 43.6484 19.3334 43.7004 19.3228C43.8819 19.2854 44.0701 19.2641 44.2662 19.26C45.4792 19.2347 46.6936 19.26 47.9079 19.2467C48.0801 19.2454 48.1935 19.2761 48.2736 19.3655C48.2869 19.3828 48.3003 19.4015 48.3123 19.4228C48.3136 19.4228 48.3136 19.4228 48.3149 19.4228C48.3416 19.4709 48.3643 19.5296 48.383 19.603C48.6165 20.5104 48.794 21.4178 48.9221 22.3239C49.3505 25.4145 49.1596 28.5011 48.3616 31.589V31.5903Z" fill="#333333"/>
</g>
<defs>
<clipPath id="clip0_3732_3091">
<rect width="55.9266" height="56" fill="white"/>
</clipPath>
</defs>
</svg>
