<svg width="208" height="177" viewBox="0 0 208 177" fill="none" xmlns="http://www.w3.org/2000/svg">
<g filter="url(#filter0_d_983_1065)">
<circle cx="38.8043" cy="102" r="38.8043" fill="white"/>
<circle cx="38.8043" cy="102" r="38.3043" stroke="#333333"/>
</g>
<path d="M38.8043 106.435C43.7028 106.435 47.6738 102.464 47.6738 97.5652C47.6738 92.6667 43.7028 88.6957 38.8043 88.6957C33.9057 88.6957 29.9347 92.6667 29.9347 97.5652C29.9347 102.464 33.9057 106.435 38.8043 106.435Z" stroke="black" stroke-miterlimit="10"/>
<path d="M25.3599 114.194C26.7229 111.835 28.6829 109.876 31.0429 108.514C33.4028 107.152 36.0797 106.435 38.8045 106.435C41.5293 106.435 44.2061 107.152 46.566 108.514C48.926 109.876 50.8859 111.835 52.2489 114.195" stroke="black" stroke-linecap="round" stroke-linejoin="round"/>
<g filter="url(#filter1_d_983_1065)">
<circle cx="102" cy="102" r="38.8043" fill="white"/>
<circle cx="102" cy="102" r="38.3043" stroke="#333333"/>
</g>
<path d="M102 106.435C106.898 106.435 110.87 102.464 110.87 97.5652C110.87 92.6667 106.898 88.6957 102 88.6957C97.1014 88.6957 93.1304 92.6667 93.1304 97.5652C93.1304 102.464 97.1014 106.435 102 106.435Z" stroke="black" stroke-miterlimit="10"/>
<path d="M88.5555 114.194C89.9186 111.835 91.8786 109.876 94.2386 108.514C96.5985 107.152 99.2753 106.435 102 106.435C104.725 106.435 107.402 107.152 109.762 108.514C112.122 109.876 114.082 111.835 115.445 114.195" stroke="black" stroke-linecap="round" stroke-linejoin="round"/>
<g filter="url(#filter2_d_983_1065)">
<circle cx="165.196" cy="102" r="38.8043" fill="white"/>
<circle cx="165.196" cy="102" r="38.3043" stroke="#333333"/>
</g>
<path d="M165.196 106.435C170.094 106.435 174.065 102.464 174.065 97.5652C174.065 92.6667 170.094 88.6957 165.196 88.6957C160.297 88.6957 156.326 92.6667 156.326 97.5652C156.326 102.464 160.297 106.435 165.196 106.435Z" stroke="black" stroke-miterlimit="10"/>
<path d="M151.751 114.194C153.114 111.835 155.074 109.876 157.434 108.514C159.794 107.152 162.471 106.435 165.196 106.435C167.921 106.435 170.597 107.152 172.957 108.514C175.317 109.876 177.277 111.835 178.64 114.195" stroke="black" stroke-linecap="round" stroke-linejoin="round"/>
<path d="M164.571 54.8206C164.844 54.8614 165.099 54.6731 165.139 54.4L165.805 49.9494C165.846 49.6763 165.657 49.4218 165.384 49.381C165.111 49.3402 164.857 49.5285 164.816 49.8016L164.224 53.7576L160.268 53.1663C159.995 53.1255 159.741 53.3138 159.7 53.5869C159.659 53.86 159.847 54.1145 160.12 54.1553L164.571 54.8206ZM41.078 54.4C41.1188 54.6731 41.3733 54.8614 41.6464 54.8206L46.097 54.1553C46.3701 54.1145 46.5584 53.86 46.5176 53.5869C46.4767 53.3138 46.2223 53.1255 45.9491 53.1663L41.9931 53.7576L41.4018 49.8016C41.3609 49.5285 41.1064 49.3402 40.8333 49.381C40.5602 49.4218 40.3719 49.6763 40.4127 49.9494L41.078 54.4ZM45.1519 149.175C44.8765 149.155 44.6366 149.361 44.6161 149.637L44.2811 154.124C44.2605 154.4 44.4671 154.639 44.7425 154.66C45.0178 154.681 45.2577 154.474 45.2783 154.199L45.5761 150.21L49.565 150.508C49.8404 150.528 50.0803 150.321 50.1008 150.046C50.1214 149.771 49.9148 149.531 49.6394 149.51L45.1519 149.175ZM161.601 149.637C161.581 149.361 161.341 149.155 161.066 149.175L156.578 149.51C156.303 149.531 156.096 149.771 156.117 150.046C156.137 150.321 156.377 150.528 156.652 150.508L160.641 150.21L160.939 154.199C160.96 154.474 161.2 154.681 161.475 154.66C161.75 154.639 161.957 154.4 161.936 154.124L161.601 149.637ZM103.109 23.7826C128.17 23.7826 150.398 35.9124 164.243 54.6235L165.047 54.0287C151.022 35.0737 128.501 22.7826 103.109 22.7826V23.7826ZM41.9744 54.6235C55.8192 35.9124 78.0474 23.7826 103.109 23.7826V22.7826C77.7169 22.7826 55.1958 35.0737 41.1706 54.0287L41.9744 54.6235ZM103.109 175.783C80.0732 175.783 59.4318 165.535 45.4936 149.348L44.7358 150C58.8559 166.398 79.7699 176.783 103.109 176.783V175.783ZM160.724 149.348C146.786 165.535 126.144 175.783 103.109 175.783V176.783C126.448 176.783 147.362 166.398 161.482 150L160.724 149.348Z" fill="#048F92"/>
<g filter="url(#filter3_d_983_1065)">
<path d="M89.8043 15.8913V7.76089C89.8043 7.46685 89.9211 7.18485 90.1291 6.97693C90.3022 6.80381 90.5266 6.69385 90.7667 6.66189C90.8631 6.64905 90.9604 6.63799 91.0536 6.61002L101.713 3.41232C101.9 3.35608 102.1 3.35608 102.287 3.41232L112.946 6.61002C113.04 6.63799 113.137 6.64905 113.233 6.66189C113.473 6.69385 113.698 6.80381 113.871 6.97693C114.079 7.18485 114.196 7.46685 114.196 7.76089V15.8913C114.196 27.5348 104.314 31.3923 102.34 32.0465C102.12 32.1224 101.88 32.1224 101.66 32.0465C99.6864 31.3923 89.8043 27.5348 89.8043 15.8913Z" fill="white"/>
<path d="M102.183 31.5719L102.183 31.5719L102.178 31.5737C102.063 31.6133 101.937 31.6133 101.822 31.5737L101.822 31.5737L101.817 31.5719C99.8704 30.9265 90.3043 27.1778 90.3043 15.8913V7.76089C90.3043 7.59946 90.3685 7.44463 90.4826 7.33048L90.1291 6.97693L90.4826 7.33048C90.5776 7.23545 90.7009 7.17507 90.8327 7.15752C90.841 7.15641 90.8501 7.15524 90.8598 7.15399C90.9426 7.1433 91.0715 7.12667 91.1973 7.08894L101.856 3.89123C101.95 3.86311 102.05 3.86311 102.144 3.89123L112.803 7.08894L112.946 6.61002L112.803 7.08894C112.928 7.12667 113.057 7.1433 113.14 7.15399C113.15 7.15524 113.159 7.15641 113.167 7.15752C113.299 7.17507 113.422 7.23545 113.517 7.33048C113.631 7.44463 113.696 7.59946 113.696 7.76089V15.8913C113.696 27.1778 104.13 30.9265 102.183 31.5719Z" stroke="#333333"/>
</g>
<path d="M108.098 14.413L99.9674 22.1739L95.9022 18.2935" stroke="black" stroke-linecap="round" stroke-linejoin="round"/>
<defs>
<filter id="filter0_d_983_1065" x="0" y="63.1957" width="81.6086" height="80.6087" filterUnits="userSpaceOnUse" color-interpolation-filters="sRGB">
<feFlood flood-opacity="0" result="BackgroundImageFix"/>
<feColorMatrix in="SourceAlpha" type="matrix" values="0 0 0 0 0 0 0 0 0 0 0 0 0 0 0 0 0 0 127 0" result="hardAlpha"/>
<feOffset dx="4" dy="3"/>
<feColorMatrix type="matrix" values="0 0 0 0 0.667639 0 0 0 0 0.870833 0 0 0 0 0.87025 0 0 0 1 0"/>
<feBlend mode="normal" in2="BackgroundImageFix" result="effect1_dropShadow_983_1065"/>
<feBlend mode="normal" in="SourceGraphic" in2="effect1_dropShadow_983_1065" result="shape"/>
</filter>
<filter id="filter1_d_983_1065" x="63.1957" y="63.1957" width="81.6086" height="80.6087" filterUnits="userSpaceOnUse" color-interpolation-filters="sRGB">
<feFlood flood-opacity="0" result="BackgroundImageFix"/>
<feColorMatrix in="SourceAlpha" type="matrix" values="0 0 0 0 0 0 0 0 0 0 0 0 0 0 0 0 0 0 127 0" result="hardAlpha"/>
<feOffset dx="4" dy="3"/>
<feColorMatrix type="matrix" values="0 0 0 0 0.667639 0 0 0 0 0.870833 0 0 0 0 0.87025 0 0 0 1 0"/>
<feBlend mode="normal" in2="BackgroundImageFix" result="effect1_dropShadow_983_1065"/>
<feBlend mode="normal" in="SourceGraphic" in2="effect1_dropShadow_983_1065" result="shape"/>
</filter>
<filter id="filter2_d_983_1065" x="126.391" y="63.1957" width="81.6086" height="80.6087" filterUnits="userSpaceOnUse" color-interpolation-filters="sRGB">
<feFlood flood-opacity="0" result="BackgroundImageFix"/>
<feColorMatrix in="SourceAlpha" type="matrix" values="0 0 0 0 0 0 0 0 0 0 0 0 0 0 0 0 0 0 127 0" result="hardAlpha"/>
<feOffset dx="4" dy="3"/>
<feColorMatrix type="matrix" values="0 0 0 0 0.667639 0 0 0 0 0.870833 0 0 0 0 0.87025 0 0 0 1 0"/>
<feBlend mode="normal" in2="BackgroundImageFix" result="effect1_dropShadow_983_1065"/>
<feBlend mode="normal" in="SourceGraphic" in2="effect1_dropShadow_983_1065" result="shape"/>
</filter>
<filter id="filter3_d_983_1065" x="89.8043" y="3.37012" width="26.3914" height="30.7333" filterUnits="userSpaceOnUse" color-interpolation-filters="sRGB">
<feFlood flood-opacity="0" result="BackgroundImageFix"/>
<feColorMatrix in="SourceAlpha" type="matrix" values="0 0 0 0 0 0 0 0 0 0 0 0 0 0 0 0 0 0 127 0" result="hardAlpha"/>
<feOffset dx="2" dy="2"/>
<feColorMatrix type="matrix" values="0 0 0 0 0.667639 0 0 0 0 0.870833 0 0 0 0 0.87025 0 0 0 1 0"/>
<feBlend mode="normal" in2="BackgroundImageFix" result="effect1_dropShadow_983_1065"/>
<feBlend mode="normal" in="SourceGraphic" in2="effect1_dropShadow_983_1065" result="shape"/>
</filter>
</defs>
</svg>
