<svg width="47" height="58" viewBox="0 0 47 58" fill="none" xmlns="http://www.w3.org/2000/svg">
<path fill-rule="evenodd" clip-rule="evenodd" d="M8.56836 47.4755C8.67007 47.5877 8.77315 47.6993 8.87764 47.8101C12.1412 51.2704 16.0402 53.843 20.2278 56.0148C21.104 56.4687 21.9862 56.9085 22.8686 57.3484C23.2838 57.5554 23.699 57.7624 24.1137 57.9708H24.5495C24.8943 57.7913 25.2391 57.612 25.5839 57.4327C26.3642 57.027 27.1444 56.6214 27.9238 56.213C31.8665 54.1491 35.6285 51.8228 38.8366 48.6905C42.3027 45.3074 44.7296 41.3341 45.6799 36.5256C46.3519 33.1207 46.6332 29.675 46.6492 26.2132C46.6638 23.0051 46.6388 19.797 46.6138 16.589C46.6039 15.3179 46.594 14.0469 46.5865 12.7758C46.5822 12.1112 46.3213 11.8503 45.6639 11.8415C45.3078 11.8365 44.9507 11.841 44.5933 11.8467C44.5996 12.7608 44.6067 13.6749 44.6138 14.589C44.6388 17.797 44.6638 21.0051 44.6492 24.2132C44.6332 27.675 44.3519 31.1207 43.6799 34.5256C42.7296 39.3341 40.3027 43.3074 36.8366 46.6905C33.6285 49.8228 29.8665 52.1491 25.9238 54.213C25.1444 54.6214 24.3644 55.027 23.5841 55.4326C23.2393 55.6119 22.8944 55.7913 22.5495 55.9708H22.1137C21.699 55.7624 21.2838 55.5554 20.8686 55.3484C19.9862 54.9085 19.104 54.4687 18.2278 54.0148C14.7412 52.2066 11.4546 50.1205 8.56836 47.4755ZM25.8311 3.22912C25.631 3.02025 25.4315 2.8107 25.2321 2.60112C25.0412 2.40057 24.8503 2.20001 24.6588 2V2.00146H24.5791C24.989 2.41866 25.4046 2.82971 25.8311 3.22912Z" fill="#AADEDE"/>
<path d="M28.5559 5.41344C32.0395 7.78782 35.8408 9.33431 40.0343 9.80948C41.2557 9.94795 42.5034 9.85029 43.7379 9.86778C44.3953 9.87653 44.6562 10.1374 44.6606 10.8021C44.6868 15.2812 44.7437 19.7603 44.7233 24.2395C44.7072 27.7012 44.4259 31.1469 43.754 34.5518C42.8036 39.3603 40.3768 43.3337 36.9107 46.7167C33.7026 49.849 29.9406 52.1753 25.9978 54.2393C24.874 54.8281 23.7488 55.4111 22.6235 55.9971L22.1936 56C20.8963 55.347 19.5918 54.7086 18.3018 54.041C14.1142 51.8692 10.2152 49.2966 6.9517 45.8363C3.73775 42.4271 1.84727 38.359 0.912968 33.8055C-0.012592 29.2914 0.0602868 24.7161 0.0879807 20.1451C0.105472 17.1032 0.128793 14.0612 0.147741 11.0193C0.153572 10.066 0.348886 9.81968 1.29048 9.87361C6.95898 10.1914 11.976 8.38106 16.5819 5.21375C18.3805 3.97773 19.8483 2.38022 21.3336 0.803128C21.3365 0.798756 21.3409 0.795841 21.3438 0.791468C21.9181 0.183659 22.8859 0.188032 23.4631 0.791468C25.046 2.45456 26.6392 4.10453 28.5559 5.41198V5.41344ZM1.71172 11.3895C1.69568 11.5134 1.67819 11.5819 1.67819 11.6504C1.71318 17.4034 1.66216 23.1609 1.81812 28.911C1.91578 32.4995 2.76992 35.9715 4.33389 39.2335C5.99699 42.7026 8.48506 45.4982 11.4804 47.8551C14.7089 50.3956 18.2362 52.4479 21.9545 54.181C22.2854 54.3355 22.5594 54.318 22.8713 54.1547C23.6774 53.7364 24.5023 53.356 25.304 52.9318C28.8838 51.0443 32.3222 48.9439 35.2957 46.1614C38.7662 42.9139 41.2572 39.0834 42.225 34.3609C42.9042 31.0493 43.1782 27.6925 43.1943 24.3196C43.2147 20.0941 43.1564 15.8686 43.1316 11.6446C43.1316 11.5761 43.1127 11.5076 43.0937 11.3749C39.0752 11.614 35.3001 10.735 31.6984 9.00781C28.1128 7.28933 25.0242 4.92223 22.4034 1.85841C19.7579 4.93827 16.7043 7.33015 13.1172 9.02676C9.50828 10.7336 5.72005 11.5629 1.71172 11.388V11.3895Z" fill="black"/>
<path d="M41.3856 30.096C40.8623 36.83 37.937 42.2915 32.5804 46.4427C29.5312 48.8054 26.2021 50.6901 22.7505 52.375C22.5698 52.4639 22.2724 52.4756 22.0961 52.3881C18.2583 50.4933 14.5488 48.3973 11.2765 45.59C7.05099 41.965 4.55562 37.4057 3.74376 31.8976C3.23215 28.4242 3.18551 24.9318 3.19425 21.4336C3.20008 18.9558 3.20008 16.4793 3.20445 14.0015C3.20445 13.1546 3.40997 12.9826 4.25974 12.9126C8.56833 12.5614 12.5679 11.2306 16.2833 9.03113C18.2175 7.88548 19.968 6.50078 21.5626 4.91494C22.2564 4.22551 22.5581 4.22405 23.2461 4.89891C27.4862 9.06028 32.5396 11.6329 38.3786 12.6619C39.1453 12.7975 39.9295 12.8514 40.7064 12.917C41.3477 12.971 41.6057 13.1954 41.6072 13.8265C41.613 16.1936 41.6232 27.0482 41.3856 30.096ZM4.75385 14.4795C4.74657 14.6588 4.73199 14.8192 4.73199 14.9809C4.72908 17.95 4.65766 20.922 4.74948 23.8882C4.82965 26.5045 4.96812 29.1311 5.29607 31.7256C5.95781 36.9568 8.42111 41.2377 12.4498 44.6309C15.3927 47.1103 18.6941 49.0066 22.1223 50.7032C22.2914 50.7863 22.58 50.7571 22.7607 50.6697C25.4295 49.3768 27.9905 47.9003 30.4276 46.1978C36.0946 42.239 39.2911 36.8752 39.8974 29.9429C40.24 26.0308 40.1904 22.1187 40.1787 18.2036C40.1758 16.9676 40.1787 15.7331 40.1787 14.481C33.283 13.675 27.4089 10.942 22.4153 6.27631C17.4187 10.9755 11.5462 13.707 4.75385 14.481V14.4795Z" fill="black"/>
<path d="M15.0969 24.0762C15.0969 23.1769 15.094 22.3417 15.0969 21.508C15.1144 17.6585 17.8838 14.5816 21.7128 14.1545C25.3233 13.7522 28.734 16.2505 29.5444 19.9119C29.6581 20.4235 29.6931 20.957 29.7106 21.4817C29.7368 22.3184 29.7178 23.155 29.7178 24.0762C30.1289 24.0762 30.521 24.0689 30.9116 24.0777C31.5092 24.0922 31.7876 24.3531 31.7876 24.9464C31.792 27.7872 31.8444 30.6309 31.7701 33.4703C31.655 37.9421 27.8536 41.707 23.3847 41.8907C21.3208 41.9752 19.3108 41.8134 17.4917 40.7071C14.5489 38.9172 12.9426 36.3315 12.9178 32.8421C12.8989 30.2738 12.9135 27.7056 12.9149 25.1373C12.9149 24.3036 13.1438 24.0791 13.9862 24.0762C14.3302 24.0762 14.6742 24.0762 15.0969 24.0762ZM14.4425 25.6271C14.4425 28.1064 14.4352 30.5274 14.4439 32.9485C14.4527 35.3258 15.4394 37.241 17.2629 38.7234C18.7015 39.8923 20.3777 40.2932 22.2215 40.3894C26.9499 40.6328 30.5326 36.9801 30.2805 32.3377C30.1697 30.3044 30.2615 28.2594 30.2615 26.2203V25.6285H14.4425V25.6271ZM28.1845 24.0543C28.1845 23.0938 28.2063 22.1843 28.1801 21.2777C28.0635 17.0857 23.596 14.4052 19.853 16.2724C17.2235 17.5842 15.8753 20.922 16.7061 24.0471H18.805C18.805 23.5865 18.7875 23.1521 18.8094 22.7207C18.8458 21.9598 18.7933 21.1727 18.977 20.4469C19.3997 18.7706 21.1225 17.66 22.7973 17.8626C24.5813 18.0798 25.9602 19.5796 26.001 21.3753C26.0214 22.2601 26.0039 23.1463 26.0039 24.0529H28.183L28.1845 24.0543ZM20.3384 24.0383H24.4749C24.4749 23.1098 24.507 22.2178 24.4662 21.3301C24.4196 20.2719 23.4459 19.3799 22.4081 19.3784C21.3703 19.3784 20.3937 20.269 20.3471 21.3258C20.3077 22.2149 20.3384 23.1069 20.3384 24.0383Z" fill="black"/>
<path d="M21.6435 35.1698C21.6435 35.024 21.6304 34.8783 21.6449 34.734C21.712 34.0621 21.626 33.5665 20.9045 33.1671C19.9454 32.6351 19.6641 31.3291 20.0664 30.2636C20.457 29.2287 21.4656 28.5976 22.6011 28.6749C23.7161 28.7507 24.5994 29.5202 24.8545 30.6382C25.1023 31.7226 24.6228 32.8727 23.636 33.3639C23.2381 33.5621 23.1462 33.7953 23.1608 34.1976C23.1885 34.9424 23.1768 35.6887 23.1666 36.4335C23.1594 36.9787 22.862 37.3037 22.4014 37.3008C21.9452 37.2979 21.6551 36.9714 21.6435 36.4248C21.6347 36.0065 21.642 35.5881 21.642 35.1698H21.6435ZM23.3853 31.2037C23.3969 30.6732 22.9728 30.2213 22.4437 30.2024C21.9175 30.182 21.4584 30.6032 21.4307 31.1323C21.403 31.6818 21.849 32.157 22.4 32.1614C22.9291 32.1657 23.3736 31.7343 23.3867 31.2037H23.3853Z" fill="black"/>
</svg>
