<svg width="57" height="56" viewBox="0 0 57 56" fill="none" xmlns="http://www.w3.org/2000/svg">
<path fill-rule="evenodd" clip-rule="evenodd" d="M12.3806 41.0524C14.6117 44.0234 19.94 47.5864 26.271 49.3679C29.7212 50.3388 33.7211 49.6089 37.0992 48.4336C37.8809 48.1616 38.3193 47.5058 38.385 46.8178C38.9791 46.7621 39.555 46.6413 40.1161 46.5192C41.0259 46.3214 41.9742 45.7853 42.7141 45.2984C43.1837 44.9894 43.4398 44.5326 43.5055 44.0606C44.2988 43.9359 45.002 43.6197 45.5945 43.2275C46.2652 42.7836 46.8099 42.2344 47.2206 41.7244H49.1763H54.0841H56.0841V39.7244V24.6362V22.6362H54.0841V39.7244C53.6667 39.6054 44.2417 38.1136 44 38.5C43.691 38.9941 43.4247 39.5894 42.7141 40.0597C40.2095 41.7174 38.6914 43.4043 36.5 44.5C33.5 44.5 30.7807 48.5593 26.8128 47.4427C17.4686 44.8132 12.1448 40.7385 12.3806 41.0524Z" fill="#AADEDE"/>
<path d="M45.5 38.5C45.5 38.5 39.2848 36.4063 34.6767 33.8612C30.9692 31.8135 25.804 26.8763 25.804 26.8763C24.9274 27.4511 22.5246 28.6007 19.9258 28.6007C14.8519 28.7261 13.3772 25.8313 13.2741 24.3682C18.0179 22.8529 28.2481 19.8849 31.2181 20.1357C34.1882 20.3865 40.912 22.2258 43.9027 23.1141H45.5M32.6103 20.1357C31.2181 17.1573 26.7321 16.6871 23.0196 17.1573C20.0495 17.5336 13.2225 20.2403 10.1803 21.5466H8.5" stroke="#333333" stroke-width="2" stroke-linecap="round"/>
<path d="M8.5 37.3607H9.54405L10.1803 38.6333" stroke="#333333" stroke-width="2" stroke-linecap="round"/>
<path d="M10.1797 38.6332C12.2422 41.3797 17.3538 44.8454 23.5414 46.5866C26.6993 47.4752 30.4639 46.8207 33.7701 45.6704C34.6452 45.3659 34.5797 44.1716 33.6922 43.9054L33.0854 43.7233C34.358 44.2324 35.5293 44.0221 36.9031 43.7233C37.624 43.5665 38.4445 43.1177 39.1639 42.6443C39.789 42.233 39.55 41.3013 38.8119 41.1783V41.1783C41.357 41.8145 43.1839 39.7814 43.902 38.6332" stroke="#333333" stroke-width="2" stroke-linecap="round"/>
<path d="M30.8594 37.3607C33.4045 40.2239 38.8128 41.1783 38.8128 41.1783" stroke="#333333" stroke-width="2" stroke-linecap="square"/>
<path d="M28.6328 41.1783C30.5416 43.0872 33.0867 43.7234 33.0867 43.7234" stroke="#333333" stroke-width="2" stroke-linecap="square"/>
<path d="M27.5227 43.7597L26.9227 42.9597L25.3227 44.1597L25.9227 44.9597L27.5227 43.7597ZM30.2062 47.4559C30.7341 47.6181 31.2936 47.3217 31.4559 46.7938C31.6181 46.2659 31.3217 45.7064 30.7938 45.5441L30.2062 47.4559ZM25.9227 44.9597C26.5662 45.8178 27.7254 46.4392 28.5545 46.817C28.9975 47.0189 29.4061 47.1771 29.7035 47.2848C29.8528 47.3388 29.9754 47.3807 30.0621 47.4094C30.1055 47.4238 30.1399 47.4349 30.1643 47.4427C30.1765 47.4466 30.1862 47.4496 30.1932 47.4518C30.1967 47.4529 30.1996 47.4538 30.2017 47.4545C30.2028 47.4548 30.2037 47.4551 30.2045 47.4553C30.2049 47.4555 30.2052 47.4556 30.2055 47.4556C30.2056 47.4557 30.2058 47.4557 30.2059 47.4558C30.206 47.4558 30.2062 47.4559 30.5 46.5C30.7938 45.5441 30.794 45.5442 30.7941 45.5442C30.7941 45.5442 30.7942 45.5443 30.7943 45.5443C30.7944 45.5443 30.7945 45.5443 30.7945 45.5443C30.7945 45.5444 30.7944 45.5443 30.7942 45.5442C30.7936 45.5441 30.7924 45.5437 30.7905 45.5431C30.7868 45.542 30.7805 45.54 30.7718 45.5372C30.7544 45.5316 30.7272 45.5229 30.6916 45.511C30.6201 45.4874 30.5148 45.4515 30.3845 45.4043C30.1228 45.3095 29.766 45.1712 29.3839 44.9971C28.563 44.623 27.8335 44.1742 27.5227 43.7597L25.9227 44.9597Z" fill="#333333"/>
<path d="M1 21.1813H7.90779V37.6331H1V21.1813Z" stroke="#333333" stroke-width="2"/>
<path d="M46.1758 21.8175H53.0836V38.9056H46.1758V21.8175Z" stroke="#333333" stroke-width="2"/>
<circle cx="3.81746" cy="35.452" r="1.27254" fill="#333333"/>
<circle cx="50.2647" cy="23.999" r="1.27254" fill="#333333"/>
</svg>
