<svg width="57" height="56" viewBox="0 0 57 56" fill="none" xmlns="http://www.w3.org/2000/svg">
<path d="M46.6731 39.6443L47.2874 41.4274L15.1026 46.9224C15.1026 46.9224 15.0141 45.9007 14.8204 44.8022L8.03758 8.84998C8.03758 8.84998 9.31991 8.53098 10.4003 8.3197L15.9151 7.24119" stroke="#828282" stroke-width="1.5"/>
<path d="M41.792 1.00001H19.0701L16.1848 1V36.7775C16.1848 38.371 16.1848 39.6627 16.1848 39.6627H48.4999C48.4999 39.6627 48.4999 38.371 48.4999 36.7775V7.67249M41.792 1.00001V5.67249C41.792 6.77705 42.6875 7.67249 43.792 7.67249H48.4999M41.792 1.00001L48.4999 7.67249" stroke="#828282" stroke-width="1.5"/>
<rect x="21.5" y="6.625" width="12.3751" height="1.12501" fill="#828282"/>
<rect x="21.5" y="11.1251" width="20.2502" height="1.12501" fill="#828282"/>
<rect x="21.5" y="15.6251" width="16.8751" height="1.12501" fill="#828282"/>
<rect x="21.5" y="24.6252" width="16.8751" height="1.12501" fill="#828282"/>
<rect x="21.5" y="29.1252" width="10.1251" height="1.12501" fill="#828282"/>
<rect x="21.5" y="33.6252" width="10.1251" height="1.12501" fill="#828282"/>
<rect x="21.5" y="20.1251" width="20.2502" height="1.12501" fill="#828282"/>
<path d="M36.1252 31.9378L38.5483 34.7503L44.0003 29.1252" stroke="#828282" stroke-width="1.5" stroke-linecap="square"/>
</svg>
