<svg width="57" height="56" viewBox="0 0 57 56" fill="none" xmlns="http://www.w3.org/2000/svg">
<path d="M40.7219 17.6531H47.2817V4.50537C47.2817 2.56941 45.7123 1 43.7763 1V1C41.8404 1 40.2709 2.56941 40.2709 4.50537V24.718V29.7113V40.9461H28.9731M43.8549 1H15C11.6863 1 9 3.68628 9 6.99999V40.9461H20.6509" stroke="#828282" stroke-width="1.5" stroke-linecap="round"/>
<path d="M32.302 48L32.302 46.5256L28.7623 42.9859L28.7623 38.4169C30.8873 37.0672 32.302 34.6611 32.302 31.9175C32.302 27.6935 28.9487 24.2693 24.8121 24.2693C20.6756 24.2693 17.3222 27.6935 17.3222 31.9175C17.3222 34.6611 18.7369 37.0672 20.8619 38.4169L20.8619 42.9859L17.3222 46.5256L17.3222 48" stroke="#828282" stroke-width="1.5" stroke-linecap="square"/>
<circle cx="24.8124" cy="31.6449" r="3.41105" stroke="#828282" stroke-width="1.5"/>
<path d="M24.8125 35.5L24.8125 48" stroke="#828282" stroke-width="1.5" stroke-linecap="square"/>
<rect x="14" y="10" width="21" height="1" fill="#828282"/>
<rect x="14" y="14" width="18" height="1" fill="#828282"/>
<rect x="14" y="18" width="21" height="1" fill="#828282"/>
<rect x="14" y="6" width="15" height="1" fill="#828282"/>
<rect x="24.0125" y="49.7928" width="1.50124" height="1.50124" fill="#828282"/>
<rect x="16.5059" y="49.7928" width="1.50124" height="1.50124" fill="#828282"/>
<rect x="31.5186" y="49.7928" width="1.50124" height="1.50124" fill="#828282"/>
</svg>
