<svg width="57" height="56" viewBox="0 0 57 56" fill="none" xmlns="http://www.w3.org/2000/svg">
<g opacity="0.9">
<path d="M53.4877 35.8757C52.8009 35.8634 52.1155 35.8661 51.4286 35.8716C50.2657 35.8688 46.4431 35.8688 44.328 35.8702H42.6424V30.674H45.0832C47.4049 30.674 49.7253 30.6836 52.0471 30.6685C53.2579 30.6589 54.2238 29.7724 54.3483 28.6108C54.3565 28.5383 54.3606 28.4658 54.362 28.3947C54.3688 27.8789 54.2005 27.3973 53.9023 27.0046C53.5985 26.6024 53.158 26.2959 52.623 26.1482C52.4944 26.1126 52.3672 26.0743 52.2126 26.0291C52.2126 25.2479 52.2249 24.4804 52.2099 23.7115C52.2044 23.4283 52.1661 23.1533 52.1004 22.8892C51.7283 21.4116 50.4532 20.2993 48.8771 20.1967C48.5993 20.179 48.3189 20.168 48.0384 20.1653C47.7388 20.1612 47.4378 20.1666 47.1381 20.179C46.777 20.194 46.6251 20.0873 46.5799 19.7138C46.4199 18.3908 46.2448 17.0692 46.0354 15.753C45.9766 15.3877 46.0491 15.1756 46.3309 14.9294C48.1136 13.3683 48.7444 10.8605 47.9481 8.62086C47.9029 8.49225 47.8523 8.36775 47.799 8.24462C46.9261 6.22934 45.0121 4.8612 42.8285 4.73396C42.7957 4.73259 42.7642 4.72985 42.7314 4.72849C42.4372 4.71617 42.2894 4.63819 42.1786 4.3454C42.1088 4.16344 42.0322 3.98558 41.9501 3.81183C40.8433 1.48324 38.6214 0.0206973 35.9973 0.0152248C26.8143 -0.00529743 17.6314 -0.00529742 8.44973 0.0165929C5.578 0.0234336 3.05924 1.96757 2.22194 4.71891C2.10838 5.09104 2.02356 5.47276 1.92505 5.849V6.97772C2.22604 7.35806 2.6228 7.44289 3.09344 7.44015H3.77205C6.85721 7.4292 9.94238 7.43331 13.0262 7.43331H13.6829C13.6829 7.75619 13.6815 8.64001 13.6802 9.66339C13.6788 10.8591 13.6788 12.2464 13.6815 13.1494C13.6802 13.2192 13.6815 13.2903 13.6815 13.3601C13.6802 21.0559 13.6802 28.7518 13.6843 36.4462C13.6843 36.8553 13.6897 37.2726 13.7595 37.6734C14.0537 39.333 14.8581 40.7189 16.0074 41.7012C17.1936 42.7123 18.7464 43.2938 20.4894 43.2938C24.0562 43.2938 27.6243 43.2938 31.191 43.2938C36.7033 43.2938 42.2169 43.302 47.7292 43.2897C50.8732 43.2842 53.5807 41.0103 54.2169 38.0962C54.3059 37.683 54.3551 37.2561 54.3565 36.8224C54.3606 36.1835 54.1047 35.8866 53.4877 35.8743V35.8757ZM51.6927 27.6066C51.8295 27.6066 51.9677 27.5957 52.1018 27.6135C52.5286 27.6695 52.7859 27.9117 52.816 28.3481C52.8433 28.7517 52.5341 29.0787 52.0936 29.128C51.9417 29.1444 51.7871 29.1335 51.6325 29.1335C48.546 29.1335 45.4594 29.1335 42.3729 29.1335C39.2864 29.1335 36.2669 29.1335 33.2145 29.1335C33.0613 29.1335 32.9053 29.1471 32.7548 29.1239C32.328 29.0555 32.0626 28.7955 32.0667 28.3646C32.0694 27.9363 32.3334 27.6764 32.763 27.6148C32.8971 27.5957 33.0353 27.6066 33.1708 27.6066H51.6927ZM48.2368 21.7099H48.2491C49.1397 21.7113 49.7718 21.9384 50.1686 22.4063C50.5106 22.8099 50.6789 23.39 50.6789 24.1616V26.0483H34.2406C34.2406 25.1481 34.1613 24.2588 34.2625 23.39C34.3747 22.4296 35.1628 21.8043 36.1287 21.7263C36.349 21.7085 36.572 21.7099 36.7936 21.7099C40.608 21.7099 44.4224 21.7085 48.2368 21.7099ZM42.8613 6.26765C43.191 6.29501 43.5139 6.36752 43.8231 6.47424C44.1857 6.60011 44.5291 6.77523 44.8465 6.9914C45.6482 7.54002 46.2762 8.35407 46.5635 9.30083C47.0752 10.996 46.5635 12.8648 45.142 13.8964C44.4306 14.4136 44.3389 14.9513 44.4744 15.7311C44.7234 17.1731 44.8889 18.6302 45.0969 20.1434H39.7885C39.913 19.2158 40.0306 18.3224 40.1524 17.4303C40.2468 16.7367 40.3084 16.0348 40.4548 15.3521C40.5888 14.7351 40.3631 14.378 39.8747 14.0237C38.1823 12.7923 37.6569 10.5431 38.5777 8.66327C39.3671 7.05296 41.0513 6.11031 42.8613 6.26765ZM3.62839 5.86815C3.39033 4.09777 5.6765 1.88411 8.04613 1.57354C9.12423 1.43262 10.201 1.69668 11.119 2.24393C12.4009 3.00873 13.3682 4.32488 13.5789 5.86815H3.62839ZM19.0939 41.5959C17.1511 41.0993 15.8035 39.6942 15.3698 37.7856C15.2699 37.3505 15.2193 36.8895 15.2179 36.4079C15.2138 28.8379 15.2166 21.2666 15.2138 13.6967C15.2193 12.9168 15.2275 11.2354 15.2275 9.66339C15.2262 8.25693 15.2207 6.93941 15.2015 6.43593C15.14 4.82426 14.5708 3.42191 13.516 2.23983C13.4147 2.12764 13.3121 2.01682 13.2027 1.90874C13.1124 1.81844 13.0289 1.71993 12.8935 1.57081C13.0481 1.55986 13.1274 1.54892 13.2054 1.54892C20.8342 1.54892 28.4643 1.52292 36.0931 1.5667C37.111 1.57217 37.9921 1.83896 38.735 2.32739C39.5039 2.83224 40.1264 3.57514 40.6012 4.51642C40.6668 4.6464 40.6997 4.79279 40.7421 4.91319C40.6914 4.95697 40.6805 4.97338 40.6655 4.97886C38.1754 5.83395 36.8169 7.90121 36.6198 10.056C36.5802 10.4925 36.5884 10.933 36.6445 11.3681C36.8278 12.7759 37.5132 14.1249 38.7158 15.0922C38.813 15.1715 38.8882 15.3535 38.8759 15.478C38.8294 15.95 38.7432 16.4179 38.6666 16.9282H27.1796C24.4324 16.9282 21.6838 16.9255 18.9366 16.9296C18.403 16.931 18.0828 17.2114 18.0637 17.6602C18.0445 18.1281 18.3784 18.4428 18.9229 18.466C19.0597 18.4715 19.1965 18.4674 19.332 18.4674H38.4436C38.419 18.689 38.4025 18.8573 38.3834 19.0242C38.2976 19.7886 37.8726 20.1703 37.1083 20.1694C36.2354 20.1653 35.3721 20.1612 34.5635 20.5921C34.2954 20.7358 33.9588 20.8165 33.6537 20.8179C28.857 20.8316 24.0616 20.8275 19.2649 20.8275C19.0939 20.8275 18.9215 20.8138 18.7532 20.837C18.3223 20.8972 18.0705 21.1572 18.0678 21.5922C18.0651 22.0301 18.3223 22.2859 18.7478 22.357C18.8969 22.3817 19.0542 22.3666 19.2075 22.3666H32.8369C32.7494 23.193 32.67 23.9482 32.5866 24.7294H31.975C27.7255 24.7294 23.4761 24.7294 19.2252 24.7294C19.0556 24.7294 18.8805 24.713 18.7149 24.7445C18.3141 24.8197 18.0719 25.0701 18.0678 25.4846C18.0623 25.9211 18.3086 26.1837 18.7355 26.2576C18.8846 26.2836 19.0419 26.2672 19.1951 26.2672H31.8464C30.8654 26.861 30.507 27.6312 30.5042 28.6314H29.8804C26.3122 28.6314 22.7455 28.6314 19.1787 28.6327C19.0077 28.6327 18.8299 28.6149 18.6698 28.6573C18.2785 28.7586 18.0486 29.0199 18.0678 29.4358C18.087 29.8504 18.3277 30.0953 18.7327 30.1596C18.8996 30.1856 19.0734 30.1705 19.2444 30.1705C23.1354 30.1705 27.0264 30.1691 30.9188 30.1746C31.1322 30.176 31.347 30.2321 31.5577 30.2827C32.079 30.4058 32.5961 30.6453 33.1174 30.6548C35.5746 30.6945 38.0331 30.6726 40.4903 30.6726H41.0444V35.8688H26.5927C25.9538 35.8688 25.6569 35.9482 25.5146 36.2752C25.4435 36.4394 25.4093 36.6665 25.3915 36.9784C25.2123 40.1251 22.1435 42.3757 19.0939 41.5945V41.5959ZM52.6641 37.8814C52.6449 37.9553 52.6258 38.0278 52.6039 38.1003C51.9554 40.2852 49.9825 41.7519 47.6211 41.7532C40.1114 41.7587 32.6016 41.756 25.0919 41.7546C24.9646 41.7546 24.836 41.7423 24.5843 41.73C25.9387 40.5274 26.6707 39.099 26.9279 37.4094H27.6407C32.1515 37.4094 38.605 37.4094 44.328 37.408C46.9206 37.408 49.3641 37.408 51.4068 37.4066C51.5586 37.4066 51.7351 37.4285 51.8815 37.4066C52.1633 37.4053 52.4493 37.4039 52.7434 37.4039C52.7079 37.6187 52.6969 37.7528 52.6641 37.8814Z" fill="#828282"/>
<path d="M22.569 9.24751C24.5473 9.25025 26.5256 9.24751 28.504 9.24751C30.4823 9.24751 32.4607 9.25025 34.439 9.24614C35.015 9.24478 35.3297 8.96704 35.331 8.48956C35.3324 8.01892 35.0081 7.73298 34.4472 7.70972C34.413 7.70972 34.3788 7.70972 34.3446 7.70972C30.4221 7.70972 26.4996 7.70972 22.5772 7.70972C21.9259 7.70972 21.5839 7.98198 21.5825 8.48135C21.5798 8.98483 21.9109 9.24614 22.5703 9.24751H22.569Z" fill="#828282"/>
<path d="M30.9448 33.9699C31.317 33.844 31.5304 33.5252 31.4045 33.1722C31.3129 32.915 31.0269 32.7098 30.7889 32.5319C30.689 32.4567 30.4906 32.5101 30.3374 32.5101C28.4781 32.5101 26.6201 32.5101 24.7608 32.5101C23.3284 32.5101 21.8959 32.5101 20.4635 32.5101C19.9176 32.5101 19.3717 32.5046 18.8258 32.5142C18.3866 32.5224 18.1253 32.7591 18.072 33.1955C18.0214 33.6114 18.2922 33.948 18.7301 34.0273C18.8628 34.052 19.0023 34.0478 19.1378 34.0478C22.8728 34.0478 26.6078 34.0492 30.3429 34.0451C30.544 34.0451 30.7574 34.0328 30.9448 33.9699Z" fill="#828282"/>
</g>
</svg>
