<svg width="24" height="24" viewBox="0 0 24 24" fill="none" xmlns="http://www.w3.org/2000/svg">
<g clip-path="url(#clip0_3310_2117)">
<path d="M22.0714 21.4285H2.78572C2.50156 21.4285 2.22904 21.3131 2.02811 21.1077C1.82718 20.9023 1.71429 20.6238 1.71429 20.3333V12.1048C1.71428 11.9483 1.74707 11.7936 1.81046 11.6511C1.87386 11.5087 1.96638 11.3818 2.08179 11.2789L6.00001 7.78623V2.80947C6.00001 2.519 6.11289 2.24042 6.31382 2.03502C6.51475 1.82962 6.78728 1.71423 7.07144 1.71423H22.0714C22.3556 1.71423 22.6281 1.82962 22.8291 2.03502C23.03 2.24042 23.1429 2.519 23.1429 2.80947V20.3333C23.1429 20.6238 23.03 20.9023 22.8291 21.1077C22.6281 21.3131 22.3556 21.4285 22.0714 21.4285ZM9.21429 19.238H12.4286V12.6031L8.14287 8.7829L3.85715 12.6031V19.238H7.07144V14.8571H9.21429V19.238ZM14.5714 19.238H21V3.90471H8.14287V6.23428C8.39358 6.23428 8.64537 6.32409 8.84679 6.50481L14.2039 11.2789C14.3194 11.3818 14.4119 11.5087 14.4753 11.6511C14.5387 11.7936 14.5715 11.9483 14.5714 12.1048V19.238ZM16.7143 10.4761H18.8572V12.6666H16.7143V10.4761ZM16.7143 14.8571H18.8572V17.0476H16.7143V14.8571ZM16.7143 6.09519H18.8572V8.28566H16.7143V6.09519ZM12.4286 6.09519H14.5714V8.28566H12.4286V6.09519Z" fill="black"/>
</g>
<defs>
<clipPath id="clip0_3310_2117">
<rect width="24" height="24" fill="white"/>
</clipPath>
</defs>
</svg>
