<svg width="24" height="24" viewBox="0 0 24 24" fill="none" xmlns="http://www.w3.org/2000/svg">
<g clip-path="url(#clip0_3310_2110)">
<path d="M21.4286 2.57141V4.6466C21.4286 14.6355 15.7997 19.1729 8.85714 19.1729H4.92124C4.75048 20.1192 4.66667 21.1516 4.66667 22.2857H2.57143C2.57143 20.8715 2.69295 19.588 2.9339 18.4134C2.69295 17.0707 2.57143 15.2487 2.57143 12.9474C2.57143 7.21672 7.26162 2.57141 13.0476 2.57141C15.1429 2.57141 17.2381 3.60901 21.4286 2.57141ZM13.0476 4.6466C8.41924 4.6466 4.66667 8.36326 4.66667 12.9474C4.66667 13.323 4.66981 13.6851 4.67714 14.0327C5.99086 11.9803 7.91533 10.3586 10.4328 8.93394L11.472 10.7352C8.48105 12.4286 6.49686 14.3523 5.47962 17.0977H8.85714C15.1586 17.0977 19.1982 12.9754 19.3302 5.04919C17.8929 5.18719 16.5571 5.09899 14.9092 4.85412C13.7045 4.67461 13.4677 4.6466 13.0476 4.6466Z" fill="black"/>
</g>
<defs>
<clipPath id="clip0_3310_2110">
<rect width="24" height="24" fill="white"/>
</clipPath>
</defs>
</svg>
