<svg width="296" height="70" viewBox="0 0 296 70" fill="none" xmlns="http://www.w3.org/2000/svg">
<path fill-rule="evenodd" clip-rule="evenodd" d="M46.4728 0.561268V26.2494C46.4728 33.331 50.357 36.4786 56.4468 36.4786C62.3618 36.4786 66.0738 33.8366 66.0738 26.8106V0.561268H70.7145V26.2494C70.7145 35.748 65.0304 40.5263 55.925 40.5263C46.7623 40.5263 41.8321 35.4104 41.8321 26.9232V0.561268H46.4728ZM134.801 0C141.006 0 144.253 2.13509 145.588 3.26016L142.688 6.68844C140.948 5.28274 138.57 4.04644 134.338 4.04644C127.262 4.04644 122.912 9.04981 122.912 20.1778C122.912 30.8584 127.03 36.4217 134.801 36.4217C138.918 36.4217 141.295 35.3548 142.746 34.0047L145.298 37.2093C143.5 38.8956 139.962 40.5263 134.163 40.5263C122.971 40.5263 118.155 32.7128 118.155 20.571C118.155 7.64411 123.957 0 134.801 0ZM169.018 0C178.645 0 184.56 5.56464 184.56 20.0666C184.56 34.6242 178.297 40.5263 168.554 40.5263C158.87 40.5263 153.011 34.9604 153.011 20.4597C153.011 5.90216 159.217 0 169.018 0ZM17.8796 0.000632058C24.6072 0.000632058 27.7401 2.13573 29.0731 3.37203L26.0563 6.80032C24.3176 5.17087 21.6504 4.10269 17.5901 4.10269C11.6738 4.10269 5.17964 7.13783 5.17964 20.0103C5.17964 31.869 9.52948 36.5905 17.474 36.5905C20.0826 36.5905 22.9833 36.0848 24.6072 35.0179V19.9534H29.2466V36.9849C26.638 39.0644 22.7512 40.5257 16.4892 40.5257C5.99091 40.5257 0.422852 33.8372 0.422852 20.4035C0.422852 6.18216 8.19518 0.000632058 17.8796 0.000632058ZM99.3643 0.561647L112.529 39.9642H107.657L103.888 28.4974H87.5329L83.7635 39.9642H79.0067L92.1723 0.561647H99.3643ZM281.996 0.561647L295.16 39.9642H290.288L286.519 28.4974H270.164L266.395 39.9642H261.638L274.804 0.561647H281.996ZM238.267 0.561394C250.504 0.561394 256.012 6.68857 256.012 19.8973C256.012 32.7129 250.677 39.9639 238.208 39.9639H227.595V0.561394H238.267ZM200.973 0.561773V35.9735H218.43V39.963H196.334V0.561773H200.973ZM168.67 4.04644C162.059 4.04644 157.767 7.81224 157.767 20.0666C157.767 32.3753 162.117 36.4786 168.844 36.4786C175.571 36.4786 179.805 32.6572 179.805 20.4597C179.805 8.14976 175.455 4.04644 168.67 4.04644ZM237.86 4.55347H232.235V35.9731H238.151C247.081 35.9731 251.258 31.7016 251.258 20.403C251.258 8.65553 246.501 4.55347 237.86 4.55347ZM95.8257 3.65368H95.5935C95.4774 4.32745 93.5653 10.0615 93.2745 11.1284L88.8672 24.5065H102.553L98.2034 11.2409C97.9139 10.1171 96.0005 4.38434 95.8257 3.65368ZM278.457 3.65368H278.225C278.109 4.32745 276.197 10.0615 275.906 11.1284L271.499 24.5065H285.185L280.835 11.2409C280.701 10.7201 280.218 9.20954 279.721 7.66567L279.564 7.17814C279.041 5.55678 278.542 4.0101 278.457 3.65368Z" fill="black"/>
<path fill-rule="evenodd" clip-rule="evenodd" d="M256.75 56.0387C258.159 56.0387 259.151 56.2566 259.836 56.5826V66.047C259.836 68.694 258.141 69.9997 255.613 69.9997C253.573 69.9997 252.579 69.3277 252.129 68.8564L253.157 67.461C253.645 68.022 254.494 68.4762 255.739 68.4762C257.399 68.4762 258.085 67.7144 258.085 66.0286V65.2312H258.013C257.688 65.5203 256.894 65.9559 255.739 65.9559C253.68 65.9559 251.912 64.7599 251.912 61.297C251.912 58.2329 253.482 56.0387 256.75 56.0387ZM291.204 55.9838C293.441 55.9838 294.741 56.9093 294.741 59.1034V63.4547C294.741 64.2521 294.995 64.7406 295.626 64.7406H295.897V66.0278C295.663 66.1558 295.391 66.2099 295.138 66.2099C294.164 66.2099 293.586 65.7017 293.333 65.031H293.261C292.81 65.5749 292.035 66.2997 290.427 66.2997C288.568 66.2997 287.539 64.9954 287.539 63.6356C287.539 61.3873 289.669 60.318 293.063 60.4091V59.411C293.063 57.943 292.341 57.5073 291.168 57.5073C289.958 57.5073 289.362 58.178 289.073 58.6862L287.791 57.6882C288.153 57.1984 289.109 55.9838 291.204 55.9838ZM178.669 55.9662C181.069 55.9662 182.388 57.5254 182.388 59.9189C182.388 60.4087 182.369 60.9882 182.297 61.6589H176.087C176.196 63.853 177.116 64.7772 179.011 64.7772C180.023 64.7772 180.871 64.3428 181.286 63.9613L182.08 65.3026C181.376 65.8465 180.366 66.2637 178.795 66.2637C175.87 66.2637 174.318 64.723 174.318 61.0965C174.318 57.598 176.267 55.9662 178.669 55.9662ZM219.335 55.9662C221.735 55.9662 223.053 57.5254 223.053 59.9189C223.053 60.4087 223.035 60.9882 222.963 61.6589H216.753C216.862 63.853 217.782 64.7772 219.676 64.7772C220.688 64.7772 221.536 64.3428 221.952 63.9613L222.746 65.3026C222.041 65.8465 221.032 66.2637 219.461 66.2637C216.536 66.2637 214.983 64.723 214.983 61.0965C214.983 57.598 216.933 55.9662 219.335 55.9662ZM199.471 55.9299C201.439 55.9299 202.613 57.0178 202.648 59.2291V66.1191H200.862V59.6278C200.862 58.2693 200.193 57.4891 198.948 57.4891C197.846 57.4891 196.997 58.1967 196.672 59.1037V66.1191H194.886V56.1478H196.258L196.618 57.163H196.691C197.071 56.6917 198.08 55.9299 199.471 55.9299ZM239.884 55.9659C240.3 55.9659 240.624 56.0028 240.841 56.0569V57.888C240.481 57.7983 240.084 57.7428 239.721 57.7428C238.801 57.7428 237.827 58.1243 237.321 58.8848V66.1194H235.553V56.148H236.925L237.304 57.3626H237.375C237.809 56.5652 238.693 55.9659 239.884 55.9659ZM274.897 56.1478V66.1191H273.111V56.1478H274.897ZM289.308 63.4719C289.308 64.2521 289.867 64.8871 290.879 64.8871C291.872 64.8871 292.666 64.3247 293.063 63.7082V61.7319C290.879 61.6223 289.308 62.1675 289.308 63.4719ZM256.605 57.5437C254.854 57.5437 253.717 58.7227 253.717 61.1518C253.717 63.7618 254.854 64.4509 256.173 64.4509C256.911 64.4509 257.634 64.1433 258.067 63.5994V57.7972C257.671 57.6348 257.182 57.5437 256.605 57.5437ZM178.56 57.4343C177.297 57.4343 176.213 58.2686 176.123 60.3176H180.654C180.667 60.2138 180.671 60.0455 180.672 59.9312L180.672 59.8278C180.672 58.2871 180.004 57.4343 178.56 57.4343ZM219.225 57.4343C217.962 57.4343 216.879 58.2686 216.788 60.3176H221.319C221.333 60.2138 221.336 60.0455 221.337 59.9312L221.338 59.8278C221.338 58.2871 220.67 57.4343 219.225 57.4343ZM275.946 51.5786L277.606 52.5397L273.815 54.8421L272.786 54.0447L275.946 51.5786Z" fill="black"/>
</svg>
