<svg width="200" height="110" viewBox="0 0 200 110" fill="none" xmlns="http://www.w3.org/2000/svg">
<g clip-path="url(#clip0_3233_4877)">
<path d="M57.5144 3.22283V7.18656L199.926 11.2614V0.407471L57.5144 3.22283Z" fill="url(#paint0_linear_3233_4877)"/>
<path d="M0 2.2597V8.26087L40.7951 7.18659V3.22285L0 2.2597Z" fill="url(#paint1_linear_3233_4877)"/>
<path d="M54.6164 0V3.25989V7.11249V10.854H43.7302V7.11249V3.25989V0H54.6164Z" fill="white"/>
<path d="M198.365 26.5977C197.288 24.2269 195.839 22.2265 194.018 20.6336C192.235 19.0778 190.228 17.8923 188.036 17.1144C183.652 15.5215 179.045 15.5215 174.661 17.1144C172.469 17.8923 170.425 19.0778 168.679 20.6336C166.896 22.1895 165.447 24.1898 164.332 26.5977C163.255 28.9685 162.697 31.7468 162.697 34.8215V73.014C162.697 76.1628 163.255 78.9411 164.332 81.3119C165.41 83.6457 166.859 85.6461 168.642 87.2019C170.425 88.7578 172.432 89.9432 174.624 90.7211C176.816 91.499 179.082 91.9065 181.311 91.9065C183.541 91.9065 185.807 91.499 187.999 90.7211C190.191 89.9432 192.235 88.7578 193.981 87.2019C195.764 85.6461 197.213 83.6457 198.291 81.3119C199.368 78.9781 199.926 76.1628 199.926 73.014V34.8215C200 31.7468 199.443 28.9685 198.365 26.5977ZM187.182 73.014C187.182 75.1626 186.624 76.6814 185.51 77.6445C184.321 78.6447 182.983 79.1263 181.349 79.1263C179.714 79.1263 178.376 78.6447 177.187 77.6445C176.073 76.6814 175.515 75.1996 175.515 73.014V34.8215C175.515 32.6729 176.073 31.1541 177.187 30.191C178.376 29.1908 179.714 28.7092 181.349 28.7092C182.983 28.7092 184.321 29.1908 185.51 30.191C186.624 31.1541 187.182 32.6359 187.182 34.8215V73.014Z" fill="white"/>
<path d="M100.39 16.5217H112.539V91.3137H99.7213V53.0472L91.3245 78.4224H84.3767L76.0542 53.1212V91.3137H63.2361V16.5217H75.3111L87.8692 52.6397L100.39 16.5217Z" fill="white"/>
<path d="M54.6163 16.5217L56.5483 91.3137H41.761L43.7301 16.5217H54.6163Z" fill="white"/>
<path d="M31.5808 22.5228C29.9832 20.7077 27.9026 19.2629 25.4133 18.1516C22.924 17.0773 19.9145 16.5217 16.422 16.5217H0V91.3137H15.3817C22.5153 91.3137 27.7911 89.4615 31.0978 85.8312C34.4045 82.2379 36.0765 77.0517 36.0765 70.3838V66.3089C36.0765 62.3452 35.4448 59.0853 34.2188 56.6775C33.2528 54.7882 31.8781 53.2324 30.0575 52.0099C30.6148 51.6395 31.0978 51.232 31.5808 50.7875C32.5468 49.9355 33.4014 48.9353 34.0701 47.8239C34.7389 46.7126 35.2591 45.379 35.5935 43.8973C35.9278 42.4525 36.0765 40.7115 36.0765 38.637V36.0069C36.0765 33.5249 35.7421 31.117 35.0733 28.8203C34.3674 26.4865 33.1785 24.375 31.5808 22.5228ZM23.667 72.3101C23.5556 73.6066 23.2212 74.755 22.701 75.6811C22.218 76.5702 21.475 77.237 20.509 77.7185C19.5058 78.2372 18.0197 78.4965 16.1248 78.4965H12.8553V57.7518H16.2363C17.9825 57.7518 19.3572 57.974 20.3603 58.3815C21.2892 58.752 22.0323 59.3076 22.5153 60.0485C23.0354 60.7894 23.407 61.7896 23.5927 62.9379C23.7785 64.2345 23.89 65.7903 23.89 67.5314C23.8528 69.2725 23.7785 70.8654 23.667 72.3101ZM22.2924 44.1566C21.3635 45.5272 19.32 46.231 16.3106 46.231H12.8553V28.7092H15.9019C18.9485 28.7092 21.0663 29.376 22.1437 30.7096C23.2955 32.1172 23.8528 34.3028 23.8528 37.2664C23.8528 40.304 23.3327 42.6378 22.2924 44.1566Z" fill="white"/>
<path d="M137.916 15.929C140.442 15.929 142.82 16.3735 145.012 17.2997C147.204 18.2258 149.099 19.4853 150.697 21.1152C152.294 22.7451 153.557 24.7455 154.486 27.0052C155.378 29.2649 155.861 31.7839 155.861 34.4141V39.7114H143.043V35.0438C143.043 33.2657 142.56 31.7839 141.557 30.4874C140.628 29.302 139.402 28.7093 137.841 28.7093C135.723 28.7093 134.386 29.2649 133.754 30.4503C133.011 31.858 132.64 33.7102 132.64 35.9329V72.9029C132.64 74.7551 133.048 76.311 133.829 77.5335C134.497 78.6077 135.798 79.1264 137.73 79.1264C138.287 79.1264 138.919 79.0152 139.55 78.83C140.182 78.6448 140.739 78.3484 141.259 77.9039C141.742 77.4964 142.188 76.9037 142.523 76.1258C142.857 75.3478 143.043 74.3106 143.043 73.0511V68.2724H155.861V73.9402C155.861 76.311 155.415 78.6448 154.486 80.7933C153.595 82.9419 152.294 84.8682 150.734 86.4981C149.136 88.1281 147.241 89.4246 145.123 90.4248C142.968 91.425 140.628 91.9066 138.138 91.9066C136.058 91.9066 133.94 91.6102 131.822 91.0546C129.63 90.4619 127.624 89.4617 125.878 88.017C124.131 86.5722 122.645 84.683 121.531 82.3862C120.416 80.0525 119.822 77.126 119.822 73.6438V33.8213C119.822 31.3023 120.267 28.9315 121.122 26.783C122.014 24.5974 123.24 22.7081 124.874 21.0782C126.472 19.4853 128.404 18.2258 130.633 17.2997C132.788 16.3735 135.24 15.929 137.916 15.929Z" fill="white"/>
<path d="M9.1399 109.836V101.427L6.31619 109.836H5.35019L2.52648 101.427V109.836H0V97.3522H3.34387L5.79603 104.687L8.28536 97.3522H11.6292V109.836H9.1399Z" fill="white"/>
<path d="M13.8213 109.836V97.3521H20.992V99.5747H16.3478V102.39H20.8805V104.576H16.3478V107.613H21.0292V109.836H13.8213Z" fill="white"/>
<path d="M31.9895 109.836V101.427L29.1658 109.836H28.1998L25.3761 101.427V109.836H22.8496V97.3521H26.1935L28.6456 104.687L31.135 97.3521H34.4788V109.836H31.9895Z" fill="white"/>
<path d="M36.708 109.836V97.3521H41.9096C44.176 97.3521 45.2163 98.8338 45.2163 100.538C45.2163 102.094 44.3246 103.131 43.1728 103.39C44.4361 103.613 45.4021 104.909 45.4021 106.428C45.4021 108.354 44.3246 109.799 42.0582 109.799H36.708V109.836ZM42.6527 100.982C42.6527 100.167 42.2068 99.5747 41.3151 99.5747H39.2345V102.39H41.3151C42.2068 102.39 42.6527 101.834 42.6527 100.982ZM42.8384 106.132C42.8384 105.279 42.3183 104.613 41.3894 104.613H39.1973V107.65H41.3894C42.3183 107.65 42.8384 107.095 42.8384 106.132Z" fill="white"/>
<path d="M47.1855 109.836V97.3521H54.3563V99.5747H49.6749V102.39H54.2448V104.576H49.712V107.613H54.3934V109.836H47.1855Z" fill="white"/>
<path d="M62.0473 109.836L60.1153 105.317H58.7406V109.836H56.2141V97.3521H60.8955C63.199 97.3521 64.7595 98.982 64.7595 101.316C64.7595 103.464 63.6077 104.539 62.5303 104.872L64.8338 109.836H62.0473ZM62.1959 101.353C62.1959 100.279 61.5271 99.5747 60.5611 99.5747H58.7777V103.131H60.5611C61.5271 103.131 62.1959 102.427 62.1959 101.353Z" fill="white"/>
</g>
<defs>
<linearGradient id="paint0_linear_3233_4877" x1="49.1391" y1="5.83934" x2="199.937" y2="5.83934" gradientUnits="userSpaceOnUse">
<stop stop-color="white"/>
<stop offset="0.5" stop-color="white"/>
<stop offset="1" stop-color="white" stop-opacity="0"/>
</linearGradient>
<linearGradient id="paint1_linear_3233_4877" x1="0" y1="5.26162" x2="49.065" y2="5.26162" gradientUnits="userSpaceOnUse">
<stop stop-color="white" stop-opacity="0"/>
<stop offset="0.5" stop-color="white"/>
<stop offset="1" stop-color="white"/>
</linearGradient>
<clipPath id="clip0_3233_4877">
<rect width="200" height="109.836" fill="white"/>
</clipPath>
</defs>
</svg>
