<svg width="200" height="99" viewBox="0 0 200 99" fill="none" xmlns="http://www.w3.org/2000/svg">
<path d="M7.68683 0.00531006H0V76.8663H7.68683V0.00531006Z" fill="white"/>
<path d="M68.7612 36.5708V50.4249C68.7612 65.0295 56.9244 76.8663 42.3198 76.8663H41.3984C26.7938 76.8663 14.957 65.0295 14.957 50.4249V26.4467C14.957 11.8421 26.7938 0.00531006 41.3984 0.00531006H42.3198C55.8284 0.00531006 66.9333 10.1108 68.5494 23.1773H60.7883C59.2316 14.3945 51.5448 7.68844 42.3235 7.68844H41.4021C31.0626 7.68844 22.6476 16.1035 22.6476 26.443V50.4249C22.6476 60.7644 31.0626 69.1795 41.4021 69.1795H42.3235C52.663 69.1795 61.0781 60.7644 61.0781 50.4249V44.2576H41.4802V36.5708H68.7649H68.7612Z" fill="white"/>
<path d="M200 0.00531006H192.313V76.8663H200V0.00531006Z" fill="#B2B2B2"/>
<path d="M122.66 6.59615C118.606 2.52425 112.974 0.00531006 106.769 0.00531006H77.3706V76.8663H85.0575V44.9672H106.769C119.182 44.9672 129.25 34.8989 129.25 22.4863C129.25 16.2781 126.731 10.6681 122.66 6.59615ZM106.769 37.2841H85.0575V7.69215H106.769C114.936 7.69215 121.564 14.3201 121.564 22.4863C121.564 30.6524 114.936 37.2804 106.769 37.2804V37.2841Z" fill="#B2B2B2"/>
<path d="M180.216 76.8662C179.755 76.3201 177.89 74.1021 173.153 68.4772C166.685 74.2544 158.091 77.2229 149.985 77.0669C138.91 76.8291 127.073 69.4803 126.482 57.0603C125.784 42.2811 135.477 36.4295 142.58 32.1607C138.315 27.0411 134.726 22.5085 134.722 16.0552C134.719 11.3628 136.454 7.1683 139.608 4.24812C142.562 1.5137 146.6 0.00531006 150.984 0.00531006C155.732 0.00531006 159.841 1.59915 162.865 4.61593C165.782 7.52496 167.432 11.5783 167.387 15.7319C167.316 22.2819 165.121 26.521 154.06 33.9329C158.909 39.6915 166.447 48.6453 173.172 56.6293C175.624 52.5983 177.57 47.0997 177.57 39.803H185.257C185.257 50.0905 182.029 57.5544 178.314 62.7372C183.675 69.1051 190.005 76.7213 190.128 76.8699H180.219L180.216 76.8662ZM147.54 38.0605L146.611 38.6178C139.667 42.7938 133.671 46.3975 134.161 56.7036C134.581 65.5125 143.747 69.6698 150.122 69.8073C156.397 69.9596 163.17 67.2735 168.234 62.6369C160.993 54.0361 152.578 44.0421 147.54 38.0568V38.0605ZM150.98 7.59183C148.558 7.59183 146.388 8.36832 144.865 9.78011C143.256 11.2699 142.406 13.4396 142.406 16.0514C142.406 19.841 144.783 22.8726 148.985 27.9068C149.004 27.9291 149.048 27.9811 149.119 28.0665C159.641 21.1042 159.667 18.6521 159.7 15.6539C159.722 13.5102 158.886 11.4334 157.4 9.95473C155.829 8.3869 153.67 7.59555 150.98 7.59555V7.59183Z" fill="#B2B2B2"/>
<path d="M5.42521 86.5698L2.69516 96.9628H0L3.9686 84.3104H5.65198L5.42521 86.5698ZM7.57959 96.9628L4.8321 86.5698L4.57915 84.3104H6.2887L10.2922 96.9628H7.57959ZM7.67553 92.2442V94.3558H1.94505V92.2442H7.67553Z" fill="white"/>
<path d="M15.8308 92.5049H13.2316V90.3933H15.8221C16.1942 90.3933 16.4937 90.3122 16.7205 90.15C16.9472 89.9878 17.1129 89.7647 17.2176 89.4808C17.3223 89.1912 17.3746 88.8668 17.3746 88.5076C17.3746 88.1426 17.3223 87.8008 17.2176 87.4822C17.1129 87.1636 16.9472 86.9087 16.7205 86.7175C16.4937 86.5205 16.1971 86.422 15.8308 86.422H14.0515V96.9628H11.5046V84.3104H15.8308C16.6856 84.3104 17.4211 84.49 18.0375 84.8492C18.6539 85.2083 19.1249 85.7037 19.4505 86.3351C19.7819 86.9608 19.9477 87.6792 19.9477 88.4902C19.9477 89.3013 19.7819 90.008 19.4505 90.6105C19.1191 91.213 18.6451 91.6794 18.0288 92.0096C17.4182 92.3398 16.6856 92.5049 15.8308 92.5049Z" fill="white"/>
<path d="M25.9834 92.5049H23.3842V90.3933H25.9747C26.3468 90.3933 26.6463 90.3122 26.8731 90.15C27.0999 89.9878 27.2656 89.7647 27.3703 89.4808C27.4749 89.1912 27.5273 88.8668 27.5273 88.5076C27.5273 88.1426 27.4749 87.8008 27.3703 87.4822C27.2656 87.1636 27.0999 86.9087 26.8731 86.7175C26.6463 86.5205 26.3498 86.422 25.9834 86.422H24.2041V96.9628H21.6572V84.3104H25.9834C26.8382 84.3104 27.5738 84.49 28.1901 84.8492C28.8065 85.2083 29.2775 85.7037 29.6031 86.3351C29.9346 86.9608 30.1003 87.6792 30.1003 88.4902C30.1003 89.3013 29.9346 90.008 29.6031 90.6105C29.2717 91.213 28.7978 91.6794 28.1814 92.0096C27.5709 92.3398 26.8382 92.5049 25.9834 92.5049Z" fill="white"/>
<path d="M31.8186 84.3104H35.8918C36.7408 84.3104 37.4647 84.4552 38.0637 84.7449C38.6626 85.0345 39.122 85.4632 39.4418 86.031C39.7616 86.5987 39.9215 87.2997 39.9215 88.1339C39.9215 88.8175 39.8285 89.4026 39.6424 89.8893C39.4563 90.3701 39.1917 90.7727 38.8487 91.0972C38.5056 91.4158 38.0956 91.6707 37.6188 91.8619L36.8426 92.3224H33.5368L33.5281 90.2108H35.8221C36.171 90.2108 36.4588 90.1355 36.6856 89.9849C36.9182 89.8284 37.0897 89.6112 37.2002 89.3331C37.3165 89.0493 37.3746 88.719 37.3746 88.3425C37.3746 87.9427 37.3223 87.6009 37.2176 87.3171C37.1188 87.0274 36.9589 86.8073 36.7379 86.6567C36.5227 86.5002 36.2407 86.422 35.8918 86.422H34.3742V96.9628H31.8186V84.3104ZM37.5839 96.9628L35.2551 91.3231L37.9328 91.3144L40.314 96.8411V96.9628H37.5839Z" fill="white"/>
<path d="M50.6236 89.6546V91.7663C50.6236 92.6584 50.5131 93.4405 50.2922 94.1125C50.077 94.7788 49.7689 95.3378 49.3676 95.7897C48.9722 96.2357 48.4925 96.5718 47.9285 96.7977C47.3703 97.0236 46.751 97.1366 46.0706 97.1366C45.3903 97.1366 44.7681 97.0236 44.2041 96.7977C43.6459 96.5718 43.1632 96.2357 42.7562 95.7897C42.355 95.3378 42.0439 94.7788 41.8229 94.1125C41.602 93.4405 41.4915 92.6584 41.4915 91.7663V89.6546C41.4915 88.7393 41.5991 87.9398 41.8142 87.2562C42.0294 86.5669 42.3405 85.9933 42.7475 85.5357C43.1545 85.0722 43.6372 84.7246 44.1954 84.4929C44.7536 84.2554 45.3729 84.1366 46.0532 84.1366C46.7335 84.1366 47.3528 84.2554 47.911 84.4929C48.4692 84.7246 48.9519 85.0722 49.3589 85.5357C49.7659 85.9933 50.077 86.5669 50.2922 87.2562C50.5131 87.9398 50.6236 88.7393 50.6236 89.6546ZM48.0855 91.7663V89.6373C48.0855 89.0348 48.0419 88.5221 47.9546 88.0992C47.8674 87.6705 47.7366 87.32 47.5621 87.0477C47.3877 86.7754 47.1755 86.5755 46.9254 86.4481C46.6754 86.3206 46.3846 86.2569 46.0532 86.2569C45.7218 86.2569 45.4281 86.3206 45.1723 86.4481C44.9222 86.5755 44.71 86.7754 44.5355 87.0477C44.3669 87.32 44.239 87.6705 44.1518 88.0992C44.0704 88.5221 44.0297 89.0348 44.0297 89.6373V91.7663C44.0297 92.3456 44.0733 92.8409 44.1605 93.2522C44.2477 93.6636 44.3785 93.9996 44.553 94.2603C44.7274 94.521 44.9397 94.715 45.1897 94.8425C45.4456 94.9641 45.7392 95.025 46.0706 95.025C46.3963 95.025 46.6841 94.9641 46.9341 94.8425C47.19 94.715 47.4022 94.521 47.5709 94.2603C47.7395 93.9996 47.8674 93.6636 47.9546 93.2522C48.0419 92.8409 48.0855 92.3456 48.0855 91.7663Z" fill="white"/>
<path d="M56.2407 94.2603L58.648 84.3104H61.4043L57.7235 96.9628H55.8657L56.2407 94.2603ZM54.1823 84.3104L56.5809 94.2603L56.9734 96.9628H55.1068L51.4522 84.3104H54.1823Z" fill="white"/>
<path d="M69.8997 94.8599V96.9628H64.3785V94.8599H69.8997ZM65.1723 84.3104V96.9628H62.6167V84.3104H65.1723ZM69.1583 89.4374V91.4795H64.3785V89.4374H69.1583ZM69.8822 84.3104V86.422H64.3785V84.3104H69.8822Z" fill="white"/>
<path d="M74.7056 96.9628H72.464L72.4815 94.8599H74.7056C75.322 94.8599 75.8017 94.7498 76.1448 94.5296C76.4879 94.3095 76.7292 93.9619 76.8687 93.4869C77.0141 93.0118 77.0868 92.389 77.0868 91.6185V89.646C77.0868 89.0608 77.049 88.5655 76.9734 88.16C76.8978 87.7487 76.7699 87.4185 76.5896 87.1694C76.4094 86.9144 76.168 86.7262 75.8657 86.6045C75.5633 86.4829 75.1882 86.422 74.7405 86.422H72.4204V84.3104H74.7405C75.4732 84.3104 76.139 84.4292 76.7379 84.6667C77.3368 84.9042 77.8514 85.2518 78.2817 85.7095C78.712 86.1613 79.0435 86.7204 79.276 87.3866C79.5086 88.0528 79.6249 88.8117 79.6249 89.6633V91.6185C79.6249 92.4759 79.5086 93.2349 79.276 93.8953C79.0435 94.5557 78.712 95.1148 78.2817 95.5724C77.8572 96.0243 77.3426 96.369 76.7379 96.6065C76.1331 96.844 75.4557 96.9628 74.7056 96.9628ZM73.9468 84.3104V96.9628H71.3912V84.3104H73.9468Z" fill="white"/>
</svg>
